<svg xmlns="http://www.w3.org/2000/svg" viewBox="0 0 374.17 370.21"><defs><style>.cls-1{fill:#adcf62;}</style></defs><g id="Layer_2" data-name="Layer 2"><g id="Layer_1-2" data-name="Layer 1"><path class="cls-1" d="M371.25,178.43Q347,121.63,322.74,64.79L314.8,46.17c-1.1-2.59-1.77-4.15-3.53-4.84s-3.34,0-6,1.07l-12.84,5.25c-11.87,4.84-24.14,9.85-36.18,14.86a32.89,32.89,0,0,0-.68-11c-2.66-13.17-11.27-22-24.89-25.42s-25.5.36-34.6,11c-8.86,10.34-10.63,22.53-5.11,35.26A33.59,33.59,0,0,0,200.87,85q-26.68,10.94-53.38,21.85c-1.27-2.37-2.51-4.85-3.77-7.54l.1-.1c2.94-3.11,3.25-6.81,3.16-10-.1-3.9-.13-7.88-.15-11.73,0-1.78,0-3.56,0-5.34a7,7,0,0,1,0-.78l.13,0c7.52-1,9.4-3.12,9.14-10.5-.46-12.9-.53-26-.61-38.75,0-6.44-.07-13.1-.16-19.65l0-2.42H140.91l-.08,2.37c-.38,12.33.06,24.78.45,35.77.1,2.91.08,5.89.07,8.78s0,5.77.07,8.67a3.85,3.85,0,0,1-.1,1.3,4.1,4.1,0,0,1-1.35.18c-20.91.44-42.18.49-62.75.53-14.37,0-29.24.06-43.86.23h-.14a5.51,5.51,0,0,1-1.37-.13,3.49,3.49,0,0,1-.19-1.49c0-15.51-.1-31.24-.24-44.57,0-2.21-.24-4.4-.44-6.52-.09-1-.19-1.91-.26-2.86L30.54,0H17.29L17,2.13c0,.12,0,.23-.05.35a7.71,7.71,0,0,0-.15,1.41l.12,10.41c.18,16.45.38,33.46.62,50.19a7.66,7.66,0,0,0,2.18,5.72,8,8,0,0,0,5.91,1.85,3.54,3.54,0,0,1,1.26.1A5.11,5.11,0,0,1,27,73.8c-.11,3.89-.07,7.82,0,11.63,0,1.85,0,3.7.05,5.55,0,2.42.3,5.51,2.57,8a1.77,1.77,0,0,1,.24.32,3.36,3.36,0,0,1-.44.75,37.14,37.14,0,0,0-5.28,11.42q-1.7,6.17-3.37,12.33c-2.34,8.59-4.75,17.47-7.27,26.15-1,3.6-1.92,8.39.6,13.47.52,1,.45,1.38.45,1.38s-.18.37-1.55,1c-11.67,5.15-15.94,16-10.89,27.7,1.36,3.14,2.82,6.28,4.23,9.32.68,1.46,1.36,2.93,2,4.39l8.45,18.49q23.89,52.25,47.75,104.5a5.81,5.81,0,0,0,3.09,3.31,5.68,5.68,0,0,0,4.37-.4q12.75-5.65,25.55-11.24c10.24-4.49,20.84-9.14,31.23-13.77,3.65-1.62,6-4.37,6.33-7.54s-1.27-6.51-4.55-9a72.77,72.77,0,0,1-8.75-7.47c-5.54-5.74-6.76-12.55-3.63-20.23,3.06-7.5,9.25-11.61,17.91-11.91a19.63,19.63,0,0,1,16.83,8.37A19.1,19.1,0,0,1,154.84,279c-2,4.67-1.43,8.47,1.81,11.3,3.85,3.36,8,2.18,11.18.78q17-7.5,34.07-14.93l12.46-5.45a17.3,17.3,0,0,0,6.63-4.34,11,11,0,0,1,4.33-2.59l.52-.22a41.05,41.05,0,0,0,5.82,14.31c.13.21.21.36.27.46-3.43,3.22-3.76,7.39-3.67,10.67v.26c.15,5.5.3,11,.49,16.49,0,.35,0,.58,0,.73l-.34,0c-6.83.51-9,2.84-8.91,9.61.05,3.62.15,7.3.25,10.85.1,3.34.2,6.79.25,10.17.07,4.84.09,9.68.12,14.52,0,3.71,0,7.43.08,11.15,0,.21,0,.43,0,.65-.06,1.38-.19,4.25,2.65,5.45a11.68,11.68,0,0,0,4.52.86,16.6,16.6,0,0,0,4.28-.6c3.76-1,3.39-4.61,3.26-6a7.21,7.21,0,0,1-.06-.77c-.21-16.11-.42-28.54-.7-40.29a4.12,4.12,0,0,1,.1-1.26,3.85,3.85,0,0,1,1.06-.11c2.85,0,5.71-.09,8.48-.19,2.37-.09,4.81-.18,7.2-.19q17.66-.09,35.33-.15c16.6-.06,33.75-.12,50.63-.23h.48c2.69,0,5.47,0,6,.33s.44,3.41.46,6.28l0,5.72c.07,10,.14,20.45.34,30.68.13,6.22,2.62,6.52,8.25,6.6h.2a6,6,0,0,0,4.58-1.5c1.59-1.55,1.55-3.8,1.52-5.29q-.21-12-.37-24-.2-12.42-.39-24.85c-.1-5.61-2.8-8.23-8.49-8.23h0a2.89,2.89,0,0,1-.88-.07,4.55,4.55,0,0,1-.07-1.08c.07-3.95,0-7.95,0-11.83,0-1.89,0-3.79,0-5.69,0-2.87-.33-5.87-2.64-8.33a1.73,1.73,0,0,1-.17-.21A3.2,3.2,0,0,1,346,278a36.23,36.23,0,0,0,5.27-11c.87-3.2,1.71-6.4,2.55-9.61,2.15-8.25,4.38-16.79,7-25,2.72-8.45,2.47-15.58-.8-22.44a4.07,4.07,0,0,1-.38-1.09,3.18,3.18,0,0,1,1.29-.71,19.74,19.74,0,0,0,12.91-15.6C374.83,187.43,373.18,183,371.25,178.43ZM294.57,305.74c-7.93,0-16.13-.05-24.21.06-3.64.05-7.27.06-10.9.06-4.79,0-9.74,0-14.61.13a4.62,4.62,0,0,1-1.8-.17h0s-.2-.34-.14-1.45a116.52,116.52,0,0,0,0-13.46,3.78,3.78,0,0,1,.08-1.26,5,5,0,0,1,1.64-.16c10.74.09,21.66.08,32.22.06h14v0h9.11c10.52,0,21.4,0,32.11-.08a4,4,0,0,1,1.71.21h0s.22.33.19,1.59c-.1,4.31.18,8.63.49,12.68a6.21,6.21,0,0,1,0,1.17,3.77,3.77,0,0,1-1.48.24C320.15,305.82,307.15,305.78,294.57,305.74Zm37.53-32.56-.93,1.46c-.18.28-.31.49-1.61.49h-1.74c-25.8,0-52.47,0-78.71,0h0a3.25,3.25,0,0,1-2.89-1.52,31.78,31.78,0,0,1-6.64-15,4.83,4.83,0,0,1-.06-.66l.24-.11q17.24-7,34.45-14l18.43-7.49a4.13,4.13,0,0,0,0,2.39c.57,1.75,2.12,2.48,4.08,3.4.53.25,1.14.53,1.83.88a6.11,6.11,0,0,0,4.85.65,6.46,6.46,0,0,0,3.51-3.82C311,230.59,316.48,224.91,324,222c4.07-1.6,3.45-5.18,3.15-6.91l-.05-.28q-1.06-6.42-2.15-12.82-1.91-11.33-3.78-22.64c-.6-3.65.16-7.31,2.4-11.51a6,6,0,0,1,3.62-2.73,3.59,3.59,0,0,1,2.32-.26,3.43,3.43,0,0,1,1.19,1.95q4.54,13.8,9,27.59,4.16,12.65,8.3,25.29a6.21,6.21,0,0,1,.13,3.83l-1.59,5.72c-3,10.85-6.15,22.08-9.07,33.16C336.51,266.26,334.37,269.62,332.1,273.18Zm23.12-77.87a5,5,0,0,1-.19-.53c-3.54-11.16-7.32-22.55-10.66-32.61-3.13-9.41-10.85-13.42-20.67-10.73s-16.6,12.14-16.94,24c-.16,5.52.85,10.85,1.83,16,.5,2.62,1,5.33,1.35,8s.81,5.16,1.27,7.65l.3,1.61c.73,4,.73,4-2.91,5.64-5.19,2.3-10.56,4.48-15.76,6.59l-4.94,2-17.75,7.26c-14.55,5.94-29.6,12.09-44.37,18.22a5,5,0,0,1-1.45.46,4.69,4.69,0,0,1-.68-1.22c-3.93-9.09-8.08-18.26-12.09-27.13-1.47-3.26-2.95-6.52-4.41-9.78l-.12-.25h.34c18.61-.16,31.2-9.5,35.45-26.29a33.42,33.42,0,0,0-18.58-38.81A34.66,34.66,0,0,0,182,155.56l-2.27-5c-3.35-7.37-6.6-14.51-9.86-21.64-.5-1.1-1-2.19-1.47-3.29-1.4-3.14-2.84-6.38-4.53-9.49a5.34,5.34,0,0,1-.3-.63,5.79,5.79,0,0,1,.74-.33c13.39-5.33,27-10.83,40.1-16.15l11.21-4.55A12.75,12.75,0,0,0,220,91.91a8.28,8.28,0,0,0,2.47-7.72,9.69,9.69,0,0,0-6.24-6.8c-5.6-2.15-9.45-5.42-11.77-10-4.43-8.77-1.32-20,6.93-25.13A20.39,20.39,0,0,1,238,46.46c4.34,5.38,4.21,11.93,3.67,18.71,0,.43-.11.85-.18,1.28a19,19,0,0,0-.24,2c-.2,4,1.24,7.3,4,9.18s6.28,2.07,9.93.61c8.36-3.35,16.82-6.82,25-10.19l10.28-4.21c1.17-.48,2.34-.94,3.52-1.4,2.76-1.08,5.62-2.2,8.36-3.55a4.72,4.72,0,0,1,1.75-.62s.4.26,1,1.7c5.74,13.77,11.71,27.7,17.49,41.18q3.38,7.86,6.74,15.74l5,11.71q12.17,28.5,24.3,57c1.9,4.46.92,7.67-2.9,9.54ZM162.66,249.68c-11.55-13.73-33.41-15.75-47.73-4.43a33.27,33.27,0,0,0-12.75,22.67,31.88,31.88,0,0,0,7.48,24,48.79,48.79,0,0,0,6.47,6.38c-13.49,5.8-27.42,11.9-41.41,18.15a5.36,5.36,0,0,1-.62.23,7.16,7.16,0,0,1-.4-.78c-6.17-13.62-12.49-27.43-18.61-40.79L15.72,189c-2.34-5.12-1.51-8.12,2.87-10.36l.38-.18c0,.13.1.28.16.47,1.7,5.33,3.47,10.73,5.19,16,2.12,6.44,4.32,13.11,6.37,19.69.89,2.85,3.6,11.52,13.46,12.27,9.26.7,16-2.49,20-9.49,4.37-7.61,5.55-16.06,3.63-25.81-1-4.87-1.76-9.88-2.53-14.72-.53-3.34-1.08-6.78-1.68-10.17-.21-1.19-.06-1.38.78-1.87a30.13,30.13,0,0,0,9.13-8c2.07-2.77,4.77-4.32,8.19-5.81,14.23-6.19,28.68-12.53,42.65-18.67l22.81-10a11.3,11.3,0,0,1,3-1.06c.21.14.67.77,1.64,3l8.16,18.33q6.18,13.86,12.34,27.73c1.17,2.63,3.34,7.52,9.33,7.29,5.78-.22,7.84-5,8.95-7.57,3.29-7.61,9.14-11.74,17.4-12.29,8.63-.57,14.93,2.9,18.73,10.33,3.62,7.07,2.83,13.95-2.35,20.45a15.56,15.56,0,0,1-11.93,6c-3.91.18-7.93.1-11.47,0-6.25-.13-9.1,2.14-10.41,4.06s-2.3,5.31.18,10.74q9.51,20.82,19.08,41.62c2.35,5.11,2.32,5.18-2.83,7.46q-17.43,7.69-34.86,15.34l-1.33.59A33.34,33.34,0,0,0,162.66,249.68Zm-30-161.79a3.2,3.2,0,0,1-.06,1,4.2,4.2,0,0,1-1.25.12c-10.29,0-20.74,0-30.85.09q-7.71,0-15.42.07-8.37,0-16.74,0H58.24v.47H55.55c-4.28,0-8.7,0-13.06,0a3,3,0,0,1-.7,0,2.78,2.78,0,0,1,0-.62c0-4.94-.16-10.29-.39-16.82v0h1.21l14,0c8,0,16.19,0,24.29-.09,13.64-.11,31.64-.29,49.91-.64H131a5.68,5.68,0,0,1,1.52.16,3.28,3.28,0,0,1,.14,1.49C132.44,77.38,132.45,82.09,132.69,87.89Zm-89.9,17.85c.3-.48.61-.95.92-1.43.12-.18.22-.26,1.32-.26h.3c.32,0,.64,0,1,0,14.7-.5,29.68-.58,44.15-.65l2.72,0c3,0,6,0,9,0,7.55,0,15.36.06,23.06-.11,2.85-.08,4.33.7,5.84,3.06l.19.3c1.47,2.29,3,4.67,3.11,5.49-.55.6-3.08,1.7-5.53,2.76l-.27.12q-15.3,6.64-30.57,13.36-13.62,6-27.25,11.91a14.28,14.28,0,0,0-6.55,5.37A24.23,24.23,0,0,1,53,155c-5,2.08-5.08,5.61-4.5,8.79,2,11.09,3.89,22.56,5.81,35.06a16.4,16.4,0,0,1-2.42,11.06,6.35,6.35,0,0,1-3.9,2.88c-2.1.58-2.66.11-3.17-1.48-6.49-19.93-12.26-37.57-17.65-53.93-.37-1.11-.12-2.19.33-3.84q1.48-5.4,3-10.8c2.52-9.08,5.11-18.47,7.56-27.75C39,111.62,40.81,108.77,42.79,105.74Z"/><path class="cls-1" d="M76.78,348.72a5.48,5.48,0,0,0-1.37-4.14c-1.48-1.52-3.56-1.55-5.07-1.57l-.72,0-.29,0c-1.66-.07-3.93-.18-5.58,1.34a5.5,5.5,0,0,0-1.61,4.17q-.09,8.14-.2,16.29a5.22,5.22,0,0,0,1.43,4c1.48,1.44,3.48,1.39,4.93,1.36.24,0,.49,0,.72,0s.5,0,.75,0,.73,0,1.12,0A4.84,4.84,0,0,0,76.18,365c0-2.31.24-4.69.42-7q.14-1.58.24-3.15l.08-2.34-.16,0C76.75,351.24,76.74,350,76.78,348.72Z"/><path class="cls-1" d="M308.27,26.51c1.48,1.34,3.43,1.25,4.73,1.19.33,0,.65,0,.95,0l.44,0c.4,0,.85.07,1.33.07a5.23,5.23,0,0,0,3.57-1.15,4.91,4.91,0,0,0,1.58-3.7c.09-2.05.16-4.11.24-6.16.12-3.5.25-7,.41-10.5A5.39,5.39,0,0,0,320.1,2c-1.63-1.6-4-1.5-5.56-1.44-.34,0-.71,0-1.07,0-1.47-.07-3.48-.18-5,1.24a5.43,5.43,0,0,0-1.58,4.14c0,1.89,0,3.78,0,5.67v.08h-.14v2.44c0,.87,0,1.74,0,2.61,0,2,0,4,0,6A5.09,5.09,0,0,0,308.27,26.51Z"/><path class="cls-1" d="M106.62,340.85c-1.11-2.12-2.22-4.25-3.36-6.37l-.13-.25a5,5,0,0,0-4.53-3.13l-.61,0-.55.26-1.08.53A19.47,19.47,0,0,1,94,333c-2.19.78-3.54,1.92-4.11,3.46-.87,2.35.53,4.7,1,5.47A126.91,126.91,0,0,1,97.25,354c.39.87,1.61,3.53,4.21,4.23a4.8,4.8,0,0,0,1.3.18,7.61,7.61,0,0,0,4.27-1.59,7.86,7.86,0,0,1,1.45-.73,4.58,4.58,0,0,0,2.45-7.06C109.47,346.29,108,343.53,106.62,340.85Z"/><path class="cls-1" d="M277.75,30.91c.9,1.73,1.79,3.46,2.7,5.18l.16.31c1.22,2.41,2.7,3.15,4.06,3.15a4.69,4.69,0,0,0,1.94-.46c.42-.19.86-.37,1.31-.55,2.08-.84,4.68-1.89,6.25-4.59l.63-1.08-.52-1.13-.4-.91c-.29-.66-.57-1.29-.91-1.93q-1.38-2.62-2.79-5.24l-3.08-5.8c-1.66-3.17-2.58-4.91-4.6-5.52s-3.73.32-6.86,2l-.2.12c-4.18,2.24-3.63,5.31-2.43,7.49C274.64,24.89,276.22,28,277.75,30.91Z"/><path class="cls-1" d="M45.84,333.76c-3.17-1.7-4.92-2.64-6.94-2S36,334,34.42,337.07c-.6,1.16-1.19,2.33-1.78,3.5-1.25,2.48-2.55,5-4,7.43-.47.77-1.88,3.14-1,5.5.57,1.55,1.91,2.67,4.09,3.44a10.22,10.22,0,0,1,1.56.81l.59.35a5.53,5.53,0,0,0,2.7.78,4.16,4.16,0,0,0,1.16-.16,4.81,4.81,0,0,0,2.88-2.55q2.41-4.62,4.86-9.21,1.65-3.12,3.29-6.24a7.85,7.85,0,0,0,.51-1.25l.25-.68v-.47C49.47,335.71,48,334.94,45.84,333.76Z"/><path class="cls-1" d="M337.16,37l.7.32a18.32,18.32,0,0,1,2.22,1.15,6.42,6.42,0,0,0,3.49,1.18,4.58,4.58,0,0,0,1.17-.15,6.22,6.22,0,0,0,3.72-3.62c1.09-2.24,2.28-4.5,3.43-6.68,1-1.85,2-3.76,2.94-5.67a6.17,6.17,0,0,1,.49-.75c.76-1.09,2.55-3.64.42-6.06-1.92-2.19-4.67-3.23-6.88-4.06l-.91-.35h-.42a4.62,4.62,0,0,0-4.47,2.88l-.08.15q-1.78,3.39-3.56,6.79c-1.47,2.79-2.93,5.59-4.42,8.38a4.67,4.67,0,0,0-.49,3.79A4.74,4.74,0,0,0,337.16,37Z"/></g></g></svg>