<svg xmlns="http://www.w3.org/2000/svg" viewBox="0 0 422.75 373.19"><defs><style>.cls-1{fill:#08313a;}</style></defs><g id="Layer_2" data-name="Layer 2"><g id="Layer_1-2" data-name="Layer 1"><path class="cls-1" d="M422.75,346.71c-2.47,6.77-5.45,13.18-11.12,18-6.95,5.93-15.09,8.38-24,8.4q-67.86.09-135.72,0c-7.63,0-11.6-3-11.77-8.65a8.31,8.31,0,0,1,7.46-8.83,40.81,40.81,0,0,1,5-.12H386.62c13,0,19.29-6.24,19.3-19.23q0-81.48.08-163c0-3.62-1.05-4.78-4.68-4.7-10,.21-20.08.17-30.12,0-3.21,0-4.43,1-4.29,4.24.21,4.94.1,9.9,0,14.85a25,25,0,0,1-50.08-.14c-.09-5.08-.12-10.17,0-15.26.06-2.63-.87-3.68-3.58-3.67q-22.49.12-45,0c-2.47,0-3.58.67-4,3.38-1.69,11.43-7.74,16.47-19.31,16.48q-33.63,0-67.25,0c-11.22,0-17.4-5.23-19-16.36-.38-2.6-1.29-3.51-3.87-3.5q-22.49.12-45,0c-3,0-3.78,1.25-3.7,4,.12,4.95.08,9.9,0,14.85a25,25,0,0,1-50.09,0c-.08-4.82-.17-9.64,0-14.44.12-3.14-.82-4.43-4.17-4.37-10.18.17-20.36.19-30.53,0-3.53-.06-4.39,1.28-4.38,4.58.1,27.92.05,55.83.05,83.75q0,39.39,0,78.79c0,3.74.15,7.5,1.95,10.85,3.41,6.3,8.91,8.95,16,8.94q57.77-.07,115.51,0c7.57,0,15.13-.05,22.69,0,5.77,0,9.36,3.09,9.64,8,.31,5.16-2.95,8.68-8.77,9.44a23.06,23.06,0,0,1-2.88.16c-45.38,0-90.76.11-136.14,0C17.56,373,4.53,362.73.64,346.69a29.68,29.68,0,0,1-.63-7Q0,217.61,0,95.51C0,80.77,10.79,70.08,25.6,70.05q40.63-.08,81.27,0c5.35,0,5.36,0,5.37-5.52q0-14.43,0-28.87C112.27,14.93,126.15.35,147,.21q64.56-.42,129.12,0c20.9.14,34.67,14.64,34.71,35.43,0,9.77.17,19.54-.08,29.29-.09,3.9,1,5.21,5,5.19,26-.17,52,.31,78-.25,15.18-.32,24.91,6.8,29,19.4Zm-211-259.08h-184c-8,0-10.62,2.5-10.64,10.55-.06,16.23,0,32.45-.08,48.67,0,3.25,1.1,4.31,4.3,4.3q66.41-.09,132.81,0c3,0,4.22-.91,4.68-4.11,1.42-9.91,8.09-15.71,18-15.76q34.65-.17,69.29,0c9.8.05,16.52,5.74,18,15.35.52,3.47,1.71,4.55,5.17,4.54q66-.13,132,0c3.59,0,4.76-1.1,4.73-4.73-.17-15.67-.06-31.34-.08-47,0-9.67-2.17-11.79-11.9-11.79Zm0-69.88c-21.71,0-43.43-.06-65.15,0-10,0-16.55,6.48-16.7,16.44-.12,8.11-.15,16.22,0,24.33.22,13.67-2.4,11.17,11.85,11.52,3,.08,3.82-1.26,3.75-4-.12-4.12-.06-8.24,0-12.37.12-11.83,7.25-19,19.1-19q47-.06,94,0c11.84,0,18.9,7.13,19.08,19.06.07,4.12.12,8.25,0,12.37-.08,2.75.85,4.11,3.79,3.92a48.36,48.36,0,0,1,7.42,0c3.52.31,4.51-1.27,4.47-4.57-.14-9.89,0-19.79-.06-29.68-.05-11.93-6.16-18.06-18-18.07Q243.45,17.7,211.7,17.75ZM211.51,70c12,0,23.92.07,35.88,0,3.94,0,8.94,1.72,11.56-.81,2.81-2.73.54-7.85,1.06-11.89s-1.35-5-5.18-5c-26.39.14-52.78.07-79.18.07-12.69,0-12.52,0-12.69,12.77-.05,4.12,1.43,5,5.25,5C182.64,69.92,197.08,70,211.51,70Zm0,78.87c-10.44,0-20.88.06-31.32,0-2.72,0-4.07.74-4,3.72.16,4.8.14,9.61,0,14.42-.08,2.77.92,4,3.8,4q31.51-.09,63,0c2.92,0,3.84-1.27,3.76-4-.12-4.53-.19-9.07,0-13.6.16-3.36-1-4.59-4.43-4.53C232.11,149,221.8,148.9,211.5,148.9ZM89.09,179.31c0-10.62,0-10.62-10.51-10.59-.82,0-1.65,0-2.47,0-2.09-.08-3,.93-2.93,3,.06,4.93-.13,9.87.09,14.79s3.52,8.22,8,8.16,7.5-3.27,7.8-8.37C89.2,184,89.09,181.64,89.09,179.31Zm260.7.12c.06-10.77.06-10.77-10.77-10.71-.68,0-1.37,0-2,0-2-.08-3.07.72-3,2.87.06,5.07-.16,10.15.11,15.2.25,4.82,3.52,7.86,7.83,7.87s7.47-3,7.88-7.84C350,184.38,349.79,181.9,349.79,179.43Z"/></g></g></svg>