<svg xmlns="http://www.w3.org/2000/svg" viewBox="0 0 388.9 373.19"><defs><style>.cls-1{fill:#08313a;}</style></defs><g id="Layer_2" data-name="Layer 2"><g id="Layer_1-2" data-name="Layer 1"><path class="cls-1" d="M388.9,282.6c-3,13.35-10.43,23.42-22.7,29.68a36.39,36.39,0,0,1-16.82,4c-15.81,0-31.62.12-47.43-.08-3.51-.05-5.08,1.15-6.4,4.31-6.36,15.3-13,30.49-19.53,45.69-2.23,5.17-5.67,7.45-9.75,6.69-5.84-1.09-8.64-6.48-6.19-12.53,3.27-8.09,6.8-16.07,10.24-24.09,4.23-9.87,8.61-19.69,12.65-29.65,2.17-5.35,5.93-7.43,11.48-7.41,18.21.07,36.43.13,54.64-.07,11-.11,19.81-7.49,22.46-18.1a30.33,30.33,0,0,0,.55-7.54q0-50.48,0-100.94c0-12-6-17.53-17.9-18.15-9.09-.48-15.49,3.16-20.87,9.94-11,13.88-22.21,27.59-33.12,41.53a13.5,13.5,0,0,1-11.75,5.52c-11.64-.13-23.27-.06-34.91,0-7.8,0-12,5.6-10.07,13.15.54,2.14,2.15,1.83,3.6,1.83,9.36,0,18.72,0,28.08,0,11,0,22-.06,33,.05a6.65,6.65,0,0,0,6-3c6.12-8.38,12.39-16.64,18.64-24.91,2.4-3.17,5.53-4.93,9.57-3.88a8.2,8.2,0,0,1,6.14,6.58c.72,3.16-.78,5.66-2.55,8-6.44,8.62-12.86,17.24-19.38,25.79a9.56,9.56,0,0,0-2.09,6.27c.1,7.59,0,15.18,0,22.77,0,8.94-2.94,11.91-11.75,11.93-8.35,0-16.7,0-25.05,0-10.7,0-15.22,3.31-18.65,13.6Q256.69,326.8,244.28,364a18.48,18.48,0,0,1-2.49,5.5,8.09,8.09,0,0,1-9.77,2.81,7.94,7.94,0,0,1-5.11-8.76,27.73,27.73,0,0,1,1.29-5.13Q240.56,321.2,253,284c5.68-17,16.95-25.08,35-25.1,5.31,0,10.62-.09,15.93,0,2.54,0,3.56-.75,3.65-3.45.38-12.06.46-12.06-11.68-12.06H87.16c-5.45,0-5.45,0-5.46,5.33,0,10.15,0,10.12,10.16,10.16,5.43,0,11-.41,16.29.35,13.77,2,23,9.85,27.45,23.05,6.39,18.92,12.65,37.89,19,56.84,2.2,6.59,4.42,13.18,6.6,19.78a28.47,28.47,0,0,1,1.06,4,8.17,8.17,0,0,1-5.5,9.59,7.89,7.89,0,0,1-10.11-4.39c-1.85-4.13-3.17-8.52-4.61-12.83q-10.92-32.73-21.77-65.49C116.68,279.16,112.18,276,101,276c-8.6,0-17.21,0-25.81,0-7.12-.05-10.46-3.37-10.51-10.48-.06-7.59-.17-15.18.05-22.76a13.21,13.21,0,0,0-3.07-9c-6.21-8-12.19-16.15-18.26-24.25-1.61-2.15-3.14-4.39-2.87-7.23A8.18,8.18,0,0,1,45.77,195a7.73,7.73,0,0,1,8.49,1.42,22.17,22.17,0,0,1,3,3.38c6,7.87,11.91,15.73,17.74,23.69a6.37,6.37,0,0,0,5.69,2.94q30.54-.1,61.09,0c3.27,0,4.05-1.27,4-4.28-.15-8-2.75-10.77-10.64-10.78-11.64,0-23.27-.06-34.91,0a12.57,12.57,0,0,1-10.82-5c-10.87-13.81-22.25-27.24-32.85-41.25-6.76-8.94-15.24-11.86-25.86-10.48A15.74,15.74,0,0,0,17.2,168.84c-.21,3.4-.12,6.83-.12,10.24,0,31.88,0,63.75,0,95.62,0,12.12,7.08,21.2,18.19,24a33,33,0,0,0,7.93.55c16.82,0,33.64.15,50.46-.06,6.55-.09,10.54,2.39,13.07,8.56,7.07,17.19,14.55,34.2,21.84,51.3.94,2.2,1.92,4.42,1.4,6.94a8.76,8.76,0,0,1-7.54,7c-3.5.44-6.87-1.49-8.66-5.5-4.07-9.12-8-18.32-11.9-27.5-3-6.85-6-13.67-8.77-20.59-1-2.38-2.32-3.17-4.84-3.15q-23.91.13-47.81,0A40.28,40.28,0,0,1,.05,275.65q-.11-52.17,0-104.35c0-19.62,14.06-33.11,33.7-34,15.24-.7,26.6,5.11,35.73,16.8,9.81,12.55,19.93,24.87,29.8,37.38a6.86,6.86,0,0,0,6.09,2.89c10.12-.14,20.27.41,30.35-.17,12.72-.74,26.72,7.89,27.08,26.27.12,5.9.21,5.9,6.14,5.9,17.71,0,35.42-.06,53.13.06,3.3,0,4.35-1,4.39-4.36.22-16,6.43-23.76,22-27.66a2.53,2.53,0,0,0,2.21-2.93c-.06-16.57.35-33.16-.31-49.7-.57-13.91-14.6-27.1-28.54-27.36q-27.12-.5-54.26,0c-14.66.27-28.32,14.09-28.86,28.71-.29,7.7-.09,15.42-.2,23.14a29.55,29.55,0,0,1-.63,6,8.44,8.44,0,0,1-8.31,6.44c-4.05-.22-7.86-3.32-7.9-7.37-.09-11.36-1.24-22.8.62-34.08a48.27,48.27,0,0,1,47.1-40.08q25.23-.15,50.46,0a48.46,48.46,0,0,1,47.87,48c.1,14.8.16,29.6-.07,44.39-.06,4,1.37,4.4,4.95,4.92,11,1.6,18.38-2.31,24.53-11.59,6.54-9.88,14.63-18.72,22-28a89.18,89.18,0,0,1,9.16-9.59c13.33-12.4,47.19-11.83,57.49,10.46,1.16,2.51,2.09,5.14,3.12,7.72Z"/><path class="cls-1" d="M388.9,88.3c-3.18,13.77-10.83,24.11-23.72,30.15-17.36,8.14-37.34,2.71-49.72-13.26-11-14.2-10.57-35.06,1.09-49.22,10.48-12.72,24-18.11,40.1-14.67S383.24,55.07,388,71c.29,1,.63,1.92.94,2.88Zm-16.83-7.24a23.62,23.62,0,0,0-23.61-23.65,24,24,0,0,0-23.85,24,23.63,23.63,0,0,0,23.77,23.5A23.34,23.34,0,0,0,372.07,81.06Z"/><path class="cls-1" d="M194.54,81.65c-22.16,0-41-18.81-41-40.86C153.6,18.35,172.21,0,194.84,0c22.3,0,40.89,18.69,40.78,40.89S216.74,81.67,194.54,81.65Zm.19-17.11c13.05-.07,24-11.22,23.7-24.13a23.84,23.84,0,0,0-47.67.26A24,24,0,0,0,194.73,64.54Z"/><path class="cls-1" d="M40.54,122A40.4,40.4,0,0,1,0,81.08,41,41,0,0,1,40.83,40.3c22.43,0,41,18.73,40.86,41.24C81.57,103.79,63,122,40.54,122Zm.08-17.08a23.64,23.64,0,0,0,24-23.68A24,24,0,0,0,40.93,57.41,23.62,23.62,0,0,0,17.12,80.86,23.35,23.35,0,0,0,40.62,104.87Z"/><path class="cls-1" d="M186.05,316c0-17.44.08-34.89-.06-52.34,0-3.55,1-5.15,4.71-4.84a83.68,83.68,0,0,0,9.1,0c2.44-.06,3.48,1.06,3.34,3.44,0,.63,0,1.27,0,1.9q0,51.78,0,103.55c0,5.33,0,5.34-5.21,5.36-2.53,0-5.07-.16-7.58,0-3.37.26-4.37-1.17-4.35-4.42C186.11,351.16,186.05,333.59,186.05,316Z"/><path class="cls-1" d="M194.4,146.25c-9.29-.14-8.35,1.27-8.33-8.19,0-9.8-1.36-8.82,8.91-8.85,9.25,0,8.07-.62,8.16,8.1v.38C203,147.64,204.25,146.09,194.4,146.25Z"/></g></g></svg>