<svg xmlns="http://www.w3.org/2000/svg" viewBox="0 0 323.83 371.82"><defs><style>.cls-1{fill:#08313a;}</style></defs><g id="Layer_2" data-name="Layer 2"><g id="Layer_1-2" data-name="Layer 1"><path class="cls-1" d="M323.8,216V362.66c0,7.63-1.54,9.16-9.21,9.16H56.79c-7.37,0-9-1.61-9-9q0-72.76.07-145.55c0-3.38-1.1-5.31-3.85-7.28C15.85,189.76.45,162.42,0,127.55-.45,91,15.21,62.46,44.92,41.48A5.93,5.93,0,0,0,47.87,36c-.14-9.48-.08-19,0-28.44C47.85,2.14,49.92,0,55.29,0q100.65,0,201.3,0a8.38,8.38,0,0,1,6.35,2.56Q292,31.69,321.17,60.74c2.28,2.28,2.66,4.85,2.66,7.82Q323.77,142.27,323.8,216Zm-12.5-.13q0-69.42.07-138.83c0-3.54-.89-4.74-4.58-4.69-15.84.19-31.68.09-47.52.07-5.86,0-7.83-2-7.84-7.9q0-23,0-46c0-5.94,0-5.94-5.79-5.94H66c-.88,0-1.75.06-2.62,0-2.24-.18-3.14.79-3.09,3.05.09,4.49.18,9,0,13.47-.15,3.12.59,3.59,3.51,2.36a94.71,94.71,0,0,1,48-7.09c36.75,4.2,63.93,23,81.28,55.67,1.6,3,3.35,4,6.64,4q46.4-.18,92.81-.06c8.26,0,7.29-1,7.35,7.41,0,5.06,0,5.08-5.21,5.08q-44,0-87.94,0c-6.84,0-6.95-1-5.33,6.61.82,3.9,2.34,4.94,6.16,4.92,28.44-.16,56.88-.11,85.33-.08,7.76,0,6.95-.83,7,7,0,5.44,0,5.45-5.58,5.45-28.69,0-57.38,0-86.07-.06-3.28,0-4.67.94-4.18,4.25a15.2,15.2,0,0,1,0,2.24c0,5,0,5,5.19,5q41.72,0,83.45,0c8,0,7.12-.93,7.17,7.22,0,5.25,0,5.27-5.39,5.27H209.5c-6.87,0-6.87,0-8.45,6.56-1.17,4.88-1.17,4.89,4,4.89q43.79,0,87.57,0c8.05,0,7.14-.93,7.19,7.21,0,5.27,0,5.28-5.37,5.28H200.16a20.89,20.89,0,0,0-3.36.06c-3.59.6-3.36,4.26-5,6.43-1,1.32.09,2.33,1,3.22q10.58,10.59,21.15,21.19c1.16,1.16,2,1.32,3.48.27,3.79-2.7,6.31-2.45,9.59.83,19.16,19.12,38.38,38.18,57.38,57.46a35.31,35.31,0,0,1,5.28,42.22c-11.92,21.2-39.68,24.76-57.42,7.25-13.85-13.67-27.54-27.5-41.3-41.26-5-5-10.09-10-15.05-15.11-2.93-3-3.29-5.82-.77-9,1.57-2,.77-3-.6-4.32-6.73-6.67-13.49-13.33-20.08-20.13-1.85-1.91-3.24-1.8-5.49-.66q-41.37,20.85-84.7,4.26c-3.93-1.5-3.93-1.54-3.93,2.68,0,43.66,0,87.32-.08,131,0,3.81,1,4.82,4.83,4.81q120.69-.15,241.38-.08c4.84,0,4.85,0,4.85-5ZM12.42,126c.73,49.08,38.37,89.21,89.28,89.42,49.41.2,89.25-38.14,89.62-88.89.35-49.53-38.21-89.38-88.69-89.82C52.93,36.24,13.34,75.33,12.42,126Zm269,156.81a25.81,25.81,0,0,0-8-18.34q-24.53-24.42-48.92-49c-2.05-2.07-3.24-2.2-5.34-.05q-13.59,13.93-27.53,27.51c-2.49,2.4-2.11,3.67.14,5.89,16.14,16,32.14,32.07,48.22,48.1a33.1,33.1,0,0,0,4.8,4.14c7.54,5.1,15.52,5.82,23.73,1.8C276.9,298.7,280.61,291.45,281.4,282.78Zm-75-72.9a16.44,16.44,0,0,0-1.17-1.57c-6.59-6.62-13.21-13.21-19.78-19.85-1.21-1.23-2-1-3,.3a97,97,0,0,1-17.65,17.65c-1.79,1.38-1.26,2.22,0,3.49q9.57,9.45,19,19c1.49,1.52,2.51,1.46,4,0,5.66-5.79,11.42-11.47,17.14-17.21A21.24,21.24,0,0,0,206.36,209.88Zm94.05-150L263.93,23.36c0,10.72,0,22.15,0,33.59,0,1.7.33,2.95,2.41,2.94C278,59.87,289.64,59.88,300.41,59.88Z"/><path class="cls-1" d="M174.1,330c0,5.9,0,5.9-5.88,5.9a22.88,22.88,0,0,1-2.62,0c-4.42-.46-7.88.79-11.41,3.89-6.9,6.05-15.34,8.6-24.6,8.06-7.84-.45-14.85-7.1-15.82-15-.09-.74,0-1.5-.15-2.23-.43-2.71-1.42-5-4.29-6.05s-5.16,0-7.12,1.91c-5.78,5.67-11.58,11.34-17.17,17.2-2.17,2.28-3.53,2.17-5.68,0-6.09-6.23-6.18-6.14-.07-12.25,4.59-4.58,9.2-9.13,13.75-13.75,5.8-5.9,12.78-7.89,20.51-5.17s11.94,8.61,12.66,16.9c.4,4.64,2.66,6.19,7.29,5.68a25.56,25.56,0,0,0,16.28-8.34,9.85,9.85,0,0,1,8.28-3.35,87.51,87.51,0,0,0,11.22,0c3.72-.28,5.42.94,4.83,4.79A11.67,11.67,0,0,0,174.1,330Z"/><path class="cls-1" d="M191.58,335.89c-6,0-6,0-6-6.47,0-6,0-6.05,6.47-6,6.73,0,6-.48,6,6.84C198.07,335.9,198,335.9,191.58,335.89Z"/><path class="cls-1" d="M101.89,186.18q-20.19,0-40.39,0c-5.62,0-7.79-2.07-7.66-7.67.21-9.08-1-18.23,1.06-27.21C58,138.13,65.41,128,76.8,120.87c2.39-1.5,2.86-2,.5-4.3-10.6-10.24-14.16-22.74-10-36.9S81.48,57,95.9,54.25c15.68-3,31.45,5.29,38.55,19.62a36.18,36.18,0,0,1-7.61,42.56c-2.43,2.22-2.12,2.85.44,4.52,15,9.78,22.88,23.55,22.86,41.62,0,5.37,0,10.73,0,16.09s-2.11,7.5-7.47,7.51C129.07,186.21,115.48,186.18,101.89,186.18ZM83.66,132.25a29.28,29.28,0,0,0-12.21,11.66c-4.8,7.93-5.23,16.69-5.23,25.62,0,3.32,1,4.24,4.29,4.22,20.93-.13,41.86-.07,62.79-.07l2.25,0a1.92,1.92,0,0,0,2.06-2.11c.54-12-.52-23.47-9-33-2.29-2.56-4.71-5-8.44-6.51,0,2.16,0,3.88,0,5.59a6.63,6.63,0,0,1-2,5.06c-3.88,3.88-7.68,7.83-11.66,11.6-3,2.79-6.27,2.66-9.32-.17-2.2-2-4.19-4.28-6.39-6.3C86.32,143.72,81.85,139.64,83.66,132.25Zm31.18-41.88c-.87,0-1.74.06-2.61,0-4.61-.37-8.88,0-11.92,4.24-1.14,1.61-3.17,1.79-5.11,1.77-4.11,0-8.22.06-12.33,0-2.52,0-3.45.56-2.33,3.25,3.54,8.51,13.94,15,22.74,14,11.39-1.28,19.88-8.82,21.76-18.91.67-3.59-.31-4.76-3.85-4.37A58.44,58.44,0,0,1,114.84,90.37ZM122,77.87c-5.67-8-12.66-11.67-21.27-11.17-9.59.55-16.53,5.59-20.38,14.56-.4.95-.75,1.87.59,2.48,2.89,1.3,12.91-.28,15-2.63a9.56,9.56,0,0,1,7.91-3.29C109.57,78,115.27,77.87,122,77.87ZM107.7,131.59c0-4.56-.81-5.28-5.85-5.23s-5.6.66-5.6,5.1c0,3.41,3.71,9.08,5.85,8.93S107.69,134.75,107.7,131.59Z"/></g></g></svg>