<svg xmlns="http://www.w3.org/2000/svg" viewBox="0 0 369.78 369.76"><defs><style>.cls-1{fill:#08313a;}</style></defs><g id="Layer_2" data-name="Layer 2"><g id="Layer_1-2" data-name="Layer 1"><path class="cls-1" d="M369.78,89.49c-2.35,5-6.3,7.68-11.79,8.28-2,.23-4,.84-6,1.21-6.79,1.24-8.82,5.87-5.05,11.54,1.73,2.6,3.55,5.15,5.17,7.83,3,5,2.65,9.94-1.26,14.28a118.2,118.2,0,0,1-8.67,8.67c-4.32,3.88-9.28,4.17-14.3,1.14-.83-.5-1.62-1.05-2.42-1.58-5.12-3.42-5.13-3.44-10-.05-2.45,1.72-5.31,2.18-8.12,2.81a37.33,37.33,0,0,1-6.71,1.3c-6.07.23-9.57,3.12-11.14,9-.56,2.1-.6,3.54.63,5.28,2.76,3.93,5.42,7.94,8,12,4,6.19,3.46,12-1.68,17.35-3.08,3.2-6.22,6.36-9.44,9.43-4.92,4.67-10.76,5.29-16.49,1.7-4.07-2.56-8.1-5.21-12-8-2.21-1.6-4.06-1.39-6.63-.68-5.47,1.51-7.63,4.89-8.16,10.21a74.12,74.12,0,0,1-2.26,11.3c-1.38,5.26-4.84,8.51-10.3,9.29a67.06,67.06,0,0,1-17.62.11c-6.28-.78-10-4.21-11.36-10.39-1.09-4.8-2.09-9.63-2.91-14.48-.41-2.45-1.84-3.43-3.87-4.62-5.13-3-9.31-2.14-13.63,1.58a56.94,56.94,0,0,1-9,6c-5.34,3.05-10.49,2.69-15-1.35a134.83,134.83,0,0,1-11.45-11.48c-4.08-4.64-4.28-10-.95-15.33,2.51-4,5.07-7.9,7.83-11.68,1.75-2.39,2.41-4.58.68-7.21a11.17,11.17,0,0,1-1.24-3,5.21,5.21,0,0,0-4.78-4.12c-4.51-.67-9-1.72-13.43-2.69-7.41-1.61-11.2-6-11.51-13.56-.18-4.2-.15-8.42,0-12.63.24-7.68,4.19-12.29,11.69-13.84,4.58-.94,9.17-1.94,13.78-2.71,2.18-.36,3-1.59,4.13-3.38,3.21-5.3,2.45-9.73-1.56-14.24a56.7,56.7,0,0,1-5.63-8.37c-3.48-5.74-2.87-11.28,1.77-16.16,3.15-3.31,6.41-6.52,9.69-9.7,5.11-4.95,11-5.54,17.08-1.65,4,2.6,8,5.28,11.94,8.09,1.86,1.33,3.37,1.18,5.59.61,6.08-1.55,8.46-5.36,8.88-11.28a58.7,58.7,0,0,1,1.91-9.53c1.61-6.79,6.19-10.4,13.19-10.47,4.33-.05,8.66-.13,13,0a6.58,6.58,0,0,0,5.7-2.4,28.62,28.62,0,0,1,3.09-3c4.4-3.81,9.33-4.28,14.3-1.22,3.17,1.95,6.18,4.16,9.33,6.16,3.39,2.16,8.76,0,9.65-3.92A73,73,0,0,0,272,11.79c.63-5.49,3.29-9.43,8.29-11.79h18.77c4.85,2.09,7.44,5.81,8.2,11,.41,2.85,1,5.67,1.67,8.48a6.65,6.65,0,0,0,10,4.18c2.93-1.88,5.77-3.92,8.72-5.77,5.34-3.36,10.57-2.85,15.14,1.47,2.61,2.48,5.16,5,7.65,7.65,4.33,4.56,4.83,9.79,1.49,15.14-1.53,2.44-3.2,4.8-4.8,7.2-4,6-2.09,10.48,4.94,11.83,2.24.43,4.45,1,6.71,1.35a13.25,13.25,0,0,1,11,8.2ZM287,68a3.2,3.2,0,0,0-1.29-2.35c-1.69-1.72-3.54-3.29-5.06-5.13-2-2.38-3.71-2.69-6.33-.74-4.53,3.36-9.37,6.32-14.06,9.47-2.6,1.76-5.26,2.21-8.13.62a70.26,70.26,0,0,0-13.63-5.63,7.32,7.32,0,0,1-5.4-6.14c-.67-3.66-1.36-7.32-2.21-10.95-2.63-11.28.38-9.37-11.95-9.69-3-.08-4.33,1-4.82,3.9-.88,5.33-2,10.62-3.08,15.92-.63,3.26-2,5.94-5.48,6.9A63.22,63.22,0,0,0,192,69.87a7.26,7.26,0,0,1-8.14-.52c-2.88-2-5.79-3.88-8.69-5.82-9.23-6.18-9.19-6.14-16.82,1.9-1.47,1.54-1.53,2.63-.36,4.31,3.49,5,6.82,10.19,10.25,15.28a7.13,7.13,0,0,1,.44,8.12A66.27,66.27,0,0,0,163,106.76a7.15,7.15,0,0,1-6.14,5.33c-3.55.63-7.09,1.33-10.6,2.14-12.23,2.83-9.72-.58-10.12,12.56-.08,2.64,1,3.57,3.44,4,5.68,1,11.31,2.26,17,3.36a8,8,0,0,1,6.74,6.17A57.28,57.28,0,0,0,168.54,153a7.4,7.4,0,0,1-.45,8.45c-2.07,3-4,6-6,9-5.82,8.71-5.76,8.64,1.72,15.94,2,1.93,3.45,1.87,5.58.37,4.71-3.32,9.6-6.4,14.36-9.66,2.76-1.88,5.46-2.16,8.43-.47A58.55,58.55,0,0,0,205.1,182a7.79,7.79,0,0,1,5.88,6.58q1,5.31,2.12,10.6c2.15,10.28,2.16,10.21,12.65,10,2.4-.06,3.41-1,3.83-3.25,1.11-6,2.39-12,3.61-18a6.81,6.81,0,0,1,5-5.62,71.2,71.2,0,0,0,14-5.8c2.86-1.56,5.53-1.16,8.13.63,3,2,6,4,9,6,8.77,5.86,8.71,5.81,16.17-1.85,1.67-1.72,1.81-3,.44-4.92-3.45-4.92-6.69-10-10.06-15a7.27,7.27,0,0,1-.46-8.15,63.56,63.56,0,0,0,5.48-13.31,7.54,7.54,0,0,1,6.34-5.65c3.54-.69,7.07-1.39,10.6-2.13,10.4-2.16,10.34-2.16,9.92-12.69-.09-2.31-.88-3.44-3.24-3.86-5.68-1-11.3-2.33-17-3.38a7.93,7.93,0,0,1-6.75-6.13,58.08,58.08,0,0,0-5.29-12.61c-1.72-3-1.39-5.92.59-8.78,3.29-4.74,6.47-9.56,9.68-14.35C286.22,69.5,286.65,68.65,287,68Zm3.44-25.5c1.43.17,2.86.33,4.29.52,14.18,1.82,24.4,9.25,30.05,22.31,5.78,13.4,3.73,26.16-5.07,37.66-2,2.56-3,4.21-.46,6.83a5.8,5.8,0,0,1,1.49,4.72c-1.21,6.63,2.65,9.88,7.74,12.51a15,15,0,0,1,3,2c2,1.73,3.65,1.35,5.18-.61A5.67,5.67,0,0,1,338,127.2c2.65-1.8,2.28-3.63.51-6-2.4-3.15-4.44-6.57-6.67-9.85a7.09,7.09,0,0,1-.45-8.12,43.26,43.26,0,0,0,4.2-9.94,7.41,7.41,0,0,1,6.23-5.73c4.25-.81,8.45-1.88,12.72-2.54,3.25-.51,2.78-2.77,2.75-4.89s.72-4.63-2.83-5.14c-4.15-.59-8.22-1.74-12.36-2.46a7.51,7.51,0,0,1-6.56-5.82,40,40,0,0,0-4-9.61c-1.81-3.07-1.47-5.91.5-8.76,2.47-3.56,4.81-7.2,7.29-10.74,1-1.42,1.1-2.54-.34-3.71a15,15,0,0,1-2.54-2.55c-1.5-2-2.92-1.86-4.83-.45-3.29,2.43-6.77,4.59-10.13,6.91-2.84,2-5.68,2.33-8.76.52a39.13,39.13,0,0,0-9.62-4,7.49,7.49,0,0,1-5.81-6.56c-.71-4.14-1.86-8.21-2.46-12.36-.51-3.55-3-2.77-5.16-2.81s-4.36-.47-4.87,2.77c-.69,4.38-1.76,8.71-2.65,13.06a7,7,0,0,1-5.31,5.75,44.64,44.64,0,0,0-10,4.16c-3.07,1.81-5.89,1.48-8.75-.52-3.34-2.34-6.76-4.59-10.19-6.81-1-.65-2.06-2.13-3.45-.84s-3.17,2.27-2.62,4.72c1.14,5.16,2.14,10.35,3.2,15.53a3.44,3.44,0,0,0,1.33,2.43c5.12,3.62,9.68,4.11,14.5.12C269.51,45.74,279.61,43.28,290.46,42.52Zm5.78,14.67c.34.46.68.93,1,1.39,4.55,6,4.7,10.76.49,17.17a85.16,85.16,0,0,1-5.65,8.33c-3.13,3.7-3.69,7.08-1.28,11.61,2.78,5.24,9.22,7.44,14.05,3.73,7.58-5.82,11-13.62,9.51-23C312.79,66.15,306.46,59.8,296.24,57.19Z"/><path class="cls-1" d="M206.68,0c.55.24,1.1.47,1.64.73,3.1,1.44,4.61,3.84,4,7.25-.58,3.26-3.14,5.3-6.8,5.19-7.81-.22-15.6-.72-23.4,0-25.77,2.4-51.33,5.92-76,14C77.93,36.46,61,56.76,51,83.73a131.32,131.32,0,0,0-5.12,18.4c-1.79,8.42-5.64,16.08-9,23.93-2.75,6.51-2.59,6.89,2.67,11.78,1.49,1.39,3.07,2.72,4.43,4.24,5.46,6.11,6.38,13,2.87,20.35a257.58,257.58,0,0,1-30.07,48.29c-4.73,6-4.58,6.65,2,10.5,2.28,1.33,4.66,2.49,7,3.78,9.88,5.5,12.25,13.79,8.53,25-.94,2.85-4,5.33-3.48,8.06s4.41,3.75,6.55,5.84c3.08,3,3.45,5.56.74,9.62-1.5,2.26-1.3,3.26,1.14,4.64,8.31,4.68,11.85,12.6,9.68,22-1.45,6.24-2,12.26.42,18.37,2.22,5.61,7,8.21,12.94,6.85C86.67,319.82,110,311.2,133.53,303c7.26-2.52,14.68-4.65,21.57-8.17a46.63,46.63,0,0,0,9.63-6.31c3.16-2.76,5.43-6,5.79-10.42.39-4.85,3.32-7.67,7.18-7.33,4.05.36,6.44,3.72,6,8.71-.72,8-4.8,14.23-10.82,19.3-8,6.71-17.4,10.59-27.1,13.94-4.32,1.49-8.64,3-13,4.4-1.69.56-2.13,1.31-.85,2.78a96.12,96.12,0,0,1,19.11,34.86c.81,2.63,2.86,2.21,4.7,2.12,15.63-.73,31.26-.35,46.89-.42,27.66-.12,55.33-.1,83-.19,1.25,0,2.95.7,3.67-.59.62-1.11-.81-2.12-1.39-3.12-8.54-14.81-12.66-31.09-15.73-47.7a162.67,162.67,0,0,1-2.85-23.59c-1.06-28.28,7.44-53.52,24.44-76,4.86-6.43,9.8-12.8,14.08-19.64a83.81,83.81,0,0,0,10.54-24.39c1.23-4.93,4.54-7.19,8.55-6.11,3.74,1,5.31,4.53,4.16,9.33-3.38,14.05-10.3,26.34-18.77,37.88-5.12,7-10.49,13.76-15.05,21.16-13.19,21.43-17,44.68-13.65,69.3,2.08,15.4,5.24,30.56,11.44,44.93a75.09,75.09,0,0,0,7,12.59,39.66,39.66,0,0,1,5.26,10.23c1.35,4.19-.7,7.77-5,8.71a19.91,19.91,0,0,1-4.3.32l-148.66.16c-6.61,0-7.81-.93-9.69-7.24-3.57-12-8.4-23.29-16.49-33-.47-.56-1-1.08-1.43-1.63-3.28-4-6.84-4.9-12-2.9-14.59,5.64-29.7,9.71-44.91,13.33A23.06,23.06,0,0,1,37.66,324.7a37.52,37.52,0,0,1-2.26-24c1.91-7.9,1.51-8.63-5.43-12.8-7.2-4.33-8.47-7.29-6.23-15.15.47-1.64.32-2.75-1.07-3.73a35.61,35.61,0,0,1-2.81-2.26c-3.9-3.35-4.83-6.45-2.94-11.23a84.07,84.07,0,0,1,4.06-8c3.42-6.49,2.68-8.86-3.8-12.35-3.07-1.65-6.16-3.29-9-5.22-8.72-5.8-10.56-14-4.87-22.71,3.35-5.12,7.25-9.88,10.85-14.85a247.88,247.88,0,0,0,20.75-35c1.45-2.91,1.07-5-1.15-7-1.42-1.3-2.92-2.51-4.29-3.86-5.74-5.66-9.8-12.43-6.29-20.35,6.85-15.47,10.28-32,16-47.79,13-36.25,38.54-59,76.26-67.73C135.73,5.89,156.28,2.16,177.16.46a14.08,14.08,0,0,0,2.1-.46Z"/><path class="cls-1" d="M130.85,32.37c3.86.06,6.59,2.34,7.24,5.37A6.19,6.19,0,0,1,134,44.89c-3.76,1.21-7.66,2-11.5,3a91,91,0,0,0-17.56,6.48c-15.06,7.38-23.6,20.36-29.81,35.23a79.65,79.65,0,0,0-4.64,15.9c-.57,3.1-1.92,3.83-5,3.06-10.2-2.57-9.16-.75-6.77-10.66A94,94,0,0,1,79.64,57.25c10.53-12,24.49-17.87,39.36-22.06C123.16,34,127.41,33.18,130.85,32.37Z"/><path class="cls-1" d="M62.24,129.43a6.51,6.51,0,1,1-6.33-6.63A6.81,6.81,0,0,1,62.24,129.43Z"/><path class="cls-1" d="M265.38,123.53a43.69,43.69,0,0,1-43.57,43.27c-23.75-.1-43.54-20.15-43.42-44s19.68-43,43.76-43S265.43,99.14,265.38,123.53Zm-13.23-.3A30.14,30.14,0,0,0,221.77,92.7a30.51,30.51,0,0,0-30.08,30.23,30.23,30.23,0,1,0,60.46.3Z"/><path class="cls-1" d="M228.47,123.33a6.52,6.52,0,0,1-13-.14,6.62,6.62,0,0,1,6.8-6.46A6.55,6.55,0,0,1,228.47,123.33Z"/></g></g></svg>