<svg xmlns="http://www.w3.org/2000/svg" viewBox="0 0 371.3 371.28"><defs><style>.cls-1{fill:#08313a;}</style></defs><g id="Layer_2" data-name="Layer 2"><g id="Layer_1-2" data-name="Layer 1"><path class="cls-1" d="M112.26,126.68c17.33-8.1,34.63-16.26,52-24.27,8.56-4,16.93-3.67,24.2,2.82C196,112,198.81,120.46,196,130.35c-1.89,6.52-6.68,10.66-12.61,13.44C163.76,153,144.19,162.12,124.5,171c-4,1.78-5.47,3.94-5.35,8.34.32,11.57.21,23.16,0,34.74,0,3.4,1.06,4.56,4.52,4.56q111.17-.12,222.35-.08c7,0,9.65-2.77,9.7-10,.06-8.49,0-17,0-25.48,0-5.73,2.87-8.94,7.7-8.94s7.69,3.2,7.73,8.93c.06,9.57.09,19.15,0,28.72a22,22,0,0,1-22.45,22.22q-62.54.09-125.07,0c-7.16,0-7.16,0-7.16,7.37,0,17.76.06,35.51-.06,53.27a9,9,0,0,0,3.45,7.55q30.17,26,60.13,52.24a42.23,42.23,0,0,1,3.38,3.17c3.16,3.38,3.39,7.69.64,10.85a7.63,7.63,0,0,1-10.83.91c-6.58-5.36-12.89-11.05-19.29-16.62q-17.31-15-34.61-30.08c-.66-.57-1.17-1.47-2.86-1.26,0,6.66.14,13.39,0,20.11a7.21,7.21,0,0,1-7.37,7.34,7.4,7.4,0,0,1-7.92-6.8,45.6,45.6,0,0,1-.09-5.1c0-5.19,0-10.39,0-16.65-8.2,7.12-15.62,13.53-23,20Q162.51,353.88,147,367.44a28.84,28.84,0,0,1-2.54,2c-3.82,2.62-8.17,2.23-10.86-.91a7.53,7.53,0,0,1,.67-10.83c6.2-5.8,12.66-11.31,19.06-16.89q22.35-19.45,44.77-38.85a7.72,7.72,0,0,0,3-6.35q-.15-28.5,0-57c0-3.33-.91-4.65-4.44-4.63q-36.6.18-73.19,0c-3.24,0-4.37,1.13-4.28,4.32.18,5.71.13,11.43,0,17.14-.1,5-3,8.1-7.53,8.19-4.68.09-7.85-3.07-7.86-8.31-.06-28.87,0-57.75,0-86.62,0-4.61,2.69-6.75,6.51-8.51,21.86-10.1,43.65-20.34,65.46-30.55,2.39-1.12,4.73-2.23,5.09-5.41.68-6.15-4.24-9.82-10.23-7.18-10,4.42-19.92,9.14-29.86,13.77q-18,8.4-36.07,16.88a14,14,0,0,1-8.9,1.22,133.39,133.39,0,0,0-63.58,3.9C21.9,156,15.69,163.62,15.59,174.29c-.22,24.86-.12,49.72,0,74.58,0,5.29,2.57,7.82,7.13,7.77s6.92-2.6,6.94-8c.09-20.85,0-41.69.05-62.54,0-1.54-.06-3.09.06-4.63a7.57,7.57,0,0,1,7.54-7.27c4.25-.07,7.5,3,7.82,7.47.12,1.69,0,3.39,0,5.09q0,77.6,0,155.18c0,7.51,2,10.74,7.33,12.34,7.1,2.13,13.14-1.71,14.08-9a42.78,42.78,0,0,0,.16-5.55q0-42.86,0-85.7a24.56,24.56,0,0,1,.19-5.08c.83-3.95,3.37-6.16,7.49-6.19s6.69,2.16,7.59,6.09a23.22,23.22,0,0,1,.2,5.08c0,29.65,0,59.29,0,88.94,0,9.59,7.45,14.59,15.86,10.89,4.76-2.1,5.6-6.29,5.65-10.75.12-8.65,0-17.29.06-25.94,0-6.15,2.72-9.43,7.66-9.47s7.76,3.22,7.79,9.33c0,9.11-.11,18.23,0,27.33.17,10.17-3.7,18.13-12.68,23-9.22,5-18.78,5-27.8-.42-3.27-2-5.31-2-8.61-.05-9,5.42-18.58,5.56-27.79.51-8.92-4.89-12.82-12.84-12.77-23,.1-22.38-.05-44.78.1-67.16,0-4.11-.86-5.21-5.25-4.61A21.59,21.59,0,0,1,.05,250.82q-.11-38.46,0-76.9c0-17,10.33-30.92,26.7-36,4.12-1.28,8.29-2.46,12.51-3.36,3-.64,3.82-1.42,1.6-4.09C19.73,105.1,33.47,69.13,63,60.74c3.07-.87,3.81-2.46,3.75-5.3-.13-6-.08-12,0-18.06.11-13,9.55-22.56,22.54-22.58q57.9-.08,115.81,0c6,0,6,0,6.17-6,.16-5.63,3.07-8.85,7.92-8.75,4.63.1,7.38,3.26,7.54,8.66.19,6.11.19,6.12,6.56,6.12h114c14.8,0,24,9.19,24,23.92q0,40.53,0,81.06a18.56,18.56,0,0,1-.23,4.61c-1,3.89-3.68,6-7.79,5.88-3.9-.12-6.34-2.28-7.22-6a22.57,22.57,0,0,1-.22-5.08q0-38.91,0-77.82c0-8.7-2.35-11.1-10.92-11.1q-125.78,0-251.53,0c-8.72,0-11.09,2.35-11.12,10.9,0,4.64.17,9.28-.06,13.9-.17,3.33,1,4.8,4.28,5.84,20.12,6.4,32.66,24,31.78,44.32C117.89,112.73,115.38,119.64,112.26,126.68ZM102.19,103.1c.07-15.34-12.66-28.33-27.74-28.31-14.92,0-27.63,12.81-27.72,27.88a27.59,27.59,0,0,0,27.29,28C89.75,130.74,102.13,118.64,102.19,103.1Z"/><path class="cls-1" d="M219.05,74.72q-34.23,0-68.48,0c-3.21,0-6.17-.34-8.25-3.16a7.77,7.77,0,0,1,4.44-12.12,15,15,0,0,1,3.22-.21q69,0,137.9,0c4.32,0,7.66,1.28,9,5.65,1.59,5.32-2.2,9.79-8.38,9.82-15.27.08-30.54,0-45.81,0Z"/><path class="cls-1" d="M261.66,163.66c-18.82,0-37.63,0-56.45,0-6.08,0-9.61-3.93-8.64-9.27.71-4,3.8-6.15,9-6.16q31.92,0,63.85,0c16.35,0,32.7,0,49.05,0,5.23,0,8.38,3.18,8.29,7.87-.08,4.47-3.16,7.33-8.17,7.54-1.23.06-2.46,0-3.7,0Z"/><path class="cls-1" d="M264.61,104.37c-17.58,0-35.17,0-52.75,0-5.91,0-9.16-3.09-8.92-8.16.21-4.46,3.27-7.23,8.42-7.26,13.42-.07,26.84,0,40.26,0q33.09,0,66.18,0c5.87,0,9.19,3.14,8.94,8.16-.23,4.56-3.41,7.26-8.91,7.27C300.09,104.4,282.35,104.37,264.61,104.37Z"/><path class="cls-1" d="M269,134q-24.75,0-49.52,0c-3.83,0-6.68-1.57-7.87-5.21a7.43,7.43,0,0,1,2.59-8.71,8,8,0,0,1,5.21-1.55q49.51,0,99,0c5.22,0,8.37,3.19,8.27,7.88s-3.28,7.5-8.66,7.52C301.73,134.05,285.38,134,269,134Z"/><path class="cls-1" d="M371.21,152.29a7.69,7.69,0,1,1-7.39-7.74A7.49,7.49,0,0,1,371.21,152.29Z"/><path class="cls-1" d="M119.21,285.55a7.69,7.69,0,1,1-7.54-7.58A7.48,7.48,0,0,1,119.21,285.55Z"/></g></g></svg>