<svg xmlns="http://www.w3.org/2000/svg" viewBox="0 0 447.35 373.19"><defs><style>.cls-1{fill:#08313a;}</style></defs><g id="Layer_2" data-name="Layer 2"><g id="Layer_1-2" data-name="Layer 1"><path class="cls-1" d="M447.35,284.43c-3.07,16-16.09,26.05-32.9,24.73-4.05-.32-8.17.19-12.22-.12s-5.58,1.09-5.52,5.36c.22,15.54.09,31.1.08,46.65a39.37,39.37,0,0,1-.1,4.35c-.77,7.09-6.72,10-12.53,5.94-11.1-7.76-22-15.72-33-23.59-16.68-11.95-33.4-23.85-50-35.88a14.18,14.18,0,0,0-8.86-2.82c-49.22.08-98.44-.24-147.65.23-16.59.15-31.7-12.69-30.53-30.66.37-5.79.09-11.63,0-17.44,0-1.39.45-2.88-.78-4.65q-7.27,5.18-14.46,10.3-17.22,12.32-34.42,24.65c-3,2.13-6,3.8-9.64,1.73-3.49-2-4.26-5.24-4.25-8.94q0-24,0-48c0-6,0-5.92-6.16-6-5.67-.09-11.34.25-17-.36C13.23,228.42,4.74,221.5.71,208c-.21-.7-.47-1.37-.71-2.06V24.56C5.38,6.87,14.65,0,33.24,0H294.81c3.05,0,6.11-.06,9.17,0,17.28.45,29.16,12.49,29.23,29.72.06,14.67.19,29.35-.09,44-.08,4.51,1.36,5.62,5.71,5.59,25.91-.19,51.82-.1,77.73-.08a36.33,36.33,0,0,1,6.52.4c13.6,2.54,21.24,11.11,24.27,24.23ZM166.44,15.18q-68.14,0-136.29,0c-9.87,0-15.1,5.24-15.11,15.1q0,84.79,0,169.6c0,9.93,5.42,15.29,15.42,15.35,8.44,0,16.89,0,25.33,0,7.47,0,9.92,2.46,9.94,10,0,14.1,0,28.19,0,42.29,0,1.13-.13,2.79.51,3.27,1.31,1,2.3-.65,3.29-1.35Q104.7,244.29,139.78,219a18.82,18.82,0,0,1,11.67-3.86q75.13.16,150.27.07c11.58,0,16.88-5.26,16.89-16.76q0-83.28,0-166.55c0-11.64-5.13-16.76-16.75-16.76ZM380.93,350.73c1-2.09.66-3.71.66-5.26,0-13.37,0-26.73,0-40.1,0-8.92,2.41-11.3,11.48-11.35,7.86,0,15.72,0,23.58,0,10.81-.05,15.65-4.89,15.65-15.72q0-84.12,0-168.24c0-10.75-4.92-15.62-15.76-15.63q-38.64,0-77.29,0c-6,0-6,0-6,6q0,50.78,0,101.55c0,8-3.14,14.62-8.77,20.19-7.1,7-16.07,8.17-25.44,8.17H154.91c-2.46,0-4.92-.21-7.12,1.41q-8.25,6.09-16.66,12a5.24,5.24,0,0,0-2.41,4.77c.07,10.6-.08,21.21.09,31.81A13.73,13.73,0,0,0,138,293.35c2.54.86,5.18.66,7.79.66q74.25,0,148.48,0a20.86,20.86,0,0,1,13.38,4.16c8.82,6.66,17.92,12.94,26.91,19.38Z"/><path class="cls-1" d="M166.43,190.53h-62c-8.51,0-10.85-2.26-10.35-10.58,1.71-29,16.07-49.71,41.86-62.64,3.25-1.63,2.89-2.35.69-4.61-11.72-12-15.77-26.38-10.82-42.48s16.05-26,32.51-29.61c24-5.31,48.33,12.52,50.88,36.94,1.43,13.65-2.78,25.22-12.13,35-2.54,2.64-2.17,3.46.93,5,25.81,13.08,39.69,34.16,41.57,63,.49,7.39-2.36,10-9.78,10Q198.1,190.55,166.43,190.53Zm0-15.06h51.93c5.86,0,6-.22,4.64-5.88-6.26-25.86-29.79-44.46-56.2-44.44a58.33,58.33,0,0,0-56.46,44.66c-1.27,5.35-1,5.65,4.6,5.65Q140.66,175.49,166.41,175.47Zm.08-65.42c15.57.07,28-12,28.08-27.3a28.14,28.14,0,0,0-27.89-28.23A27.69,27.69,0,0,0,139,82.34C139,98,150.8,110,166.49,110.05Z"/></g></g></svg>