<svg xmlns="http://www.w3.org/2000/svg" viewBox="0 0 434.59 373.03"><defs><style>.cls-1{fill:#08313a;}</style></defs><g id="Layer_2" data-name="Layer 2"><g id="Layer_1-2" data-name="Layer 1"><path class="cls-1" d="M0,180.07Q0,127.85,0,75.65c0-15,8.73-23.73,23.69-23.77,9.18,0,18.37-.1,27.55,0,2.85,0,4.57-.58,5.65-3.57a27.59,27.59,0,0,1,14.61-16,9,9,0,0,0,4.12-3.82c10.17-17.79,25.92-26.71,46-28.31,20.44-1.63,38.29,4.36,52.9,19a52.18,52.18,0,0,1,14.47,28c.62,3.35,1.91,4.81,5.51,4.68,7.1-.25,14.22-.2,21.33,0,3.39.09,4.83-.89,4.67-4.52-.26-5.61-.11-11.25-.05-16.88.16-15.46,12.37-28.27,27.84-28.33q79.1-.27,158.19,0C422,2.25,434.3,15,434.36,30.49c.1,25.63-.45,51.27.22,76.87.4,15-10.39,31-31,31-9.33,0-18.66.17-28-.07-4.1-.1-5.29,1.29-5.28,5.37.13,46.95-.22,93.91.27,140.85.14,13.66-9.1,24.64-24.69,24.57-40.13-.18-80.28-.06-120.42-.06-6.44,0-6.43,0-4.69,6A116.81,116.81,0,0,0,235,347c3.75,5.74,5.33,11.63,1.76,17.93S227.28,373,220.52,373H149.87c-7.12,0-13.22-2-16.61-8.89-2.68-5.4-1.9-10.63,1.31-15.6a123.58,123.58,0,0,0,15-33.06c1.86-6.44,1.89-6.44-4.62-6.44q-60,0-120,0c-5.74,0-11.29-.82-16-4.38A21.31,21.31,0,0,1,0,286.72Q.12,233.4,0,180.07Zm281.19,78h68.42c5.89,0,5.91,0,5.91-5.82V145.18c0-6.78,0-6.79-6.81-6.79H210.13a49.31,49.31,0,0,1-6.2-.27c-6.47-.83-11-4.2-12.94-10.56-1.86-6.18,0-11.45,4.81-15.57q10.42-9,21.15-17.64a8.43,8.43,0,0,0,3.57-7.58c-.25-5-.21-10.07,0-15.1.13-3.3-1.13-4.47-4.38-4.42-8,.14-16,.21-24,0-3.63-.11-5.71,1.12-7.21,4.44-1.2,2.66-2.72,5.7-5,7.23-8.17,5.48-8.51,13.36-7.76,21.8.07.88,0,1.78,0,2.67.19,20.87-8.6,36.8-26.4,47.65-2.44,1.49-3.23,3.22-2.84,5.83s2.59,2.37,4.43,2.69A71.48,71.48,0,0,1,206,218.59c1.88,11.31.7,22.76.74,34.14,0,4.39,1.44,5.46,5.61,5.43C235.32,258,258.27,258.07,281.23,258.07ZM207.56,121.89,208,123h4.35q95.29,0,190.59,0c11.24,0,16.58-5.34,16.6-16.63q.06-36,0-72c0-11.69-5.14-16.85-16.71-16.85-50.21,0-100.41.19-150.61-.15-12.67-.08-17.1,7.73-17,17.22.23,17.91-.18,35.84.18,53.75.15,7.38-2.33,12.72-8.11,17.17C220.53,110.72,214.13,116.41,207.56,121.89ZM156.84,104a46.72,46.72,0,0,1,0-4.88c.45-4.22-1.17-5.08-5.13-4a45.72,45.72,0,0,1-21.1.81c-16.73-3.11-29.69-12.09-39.71-25.54a7.17,7.17,0,0,1,1.49-10.58c3.35-2.51,7.09-2,10.29,1.39,1,1.07,1.85,2.3,2.77,3.46,11.63,14.63,35.41,23,55.52,10.59,14-8.63,17.68-23.06,8.95-37s-21.74-21.58-38.06-23C115.15,13.86,95.48,20,87.59,38.85a10.75,10.75,0,0,1-7.34,6.5c-5.21,1.56-8.71,5-9.67,10.49-1.13,6.51,1.92,11,7.06,14.6,4,2.84,5.06,6.51,3.26,9.93s-5.55,4.79-9.55,3.72c-5-1.35-6.43-.19-6.06,5.13.31,4.4,2.8,7,6.91,8.21,9,2.7,9.19,3.11,10.13,12.37,1.06,10.37,5.38,19.15,13.93,25.27,12.79,9.17,26.74,10.25,40.74,3.43S156.83,119.28,156.84,104ZM38,67.3v0H25.61c-9.1,0-10.73,1.68-10.73,11V251.91c0,.74.06,1.48,0,2.22-.26,2.8.84,4.08,3.79,4,4.29-.14,8.59-.16,12.88,0,3.11.13,4.15-1.11,4.09-4.16-.14-8-.06-16,0-24a71.4,71.4,0,0,1,59.1-70.41c1.91-.34,4.43.25,4.81-2.77.35-2.8-1.94-3.32-3.73-4.26q-22.65-11.85-28-36.84a6.77,6.77,0,0,0-3.74-5c-15.1-8.25-18.57-24.74-8.14-38.3.82-1.06,1.85-2,1.13-3.51s-2.06-1.53-3.39-1.54C48.4,67.29,43.22,67.3,38,67.3ZM185.49,273.49q-80.39,0-160.77,0c-11.44,0-9.73-1.37-9.82,9.94-.06,7.81,2.31,10.17,9.93,10.17H345.5c7.69,0,10-2.33,10.06-10.06V280c0-6.5,0-6.51-6.63-6.51Zm-67.93-43.87c26.27,0,47-12,58.44-31.49,2.05-3.49,1.61-5.7-1.24-8.39a58.76,58.76,0,0,0-30-15.24c-2-.39-3.44-.16-4.42,1.8-7.38,14.79-30,15.4-38.15.09-1-1.88-2.32-2.31-4.37-1.91A59.17,59.17,0,0,0,67.39,190c-2.82,2.69-2.86,4.92-.93,8.06C79,218.56,97.4,228.76,117.56,229.62ZM55.13,208.94a31.53,31.53,0,0,0-3,8.7c-2.55,11.4-1.45,23-1.64,34.5-.1,5.91,0,5.93,5.76,5.93h111.9c6.51,0,13-.12,19.53.05,3.21.09,4.56-.92,4.41-4.3-.21-4.87,0-9.76,0-14.65-.13-8.87-.43-17.74-2.84-26.37-.31-1.09-.42-2.68-1.66-3-1.42-.31-1.7,1.37-2.34,2.26C159.71,247.52,108.58,255.25,73.5,229A76.79,76.79,0,0,1,55.13,208.94ZM184.77,357.62c11.24,0,22.48,0,33.71,0,4.89,0,5-.14,2.58-4.09A135.92,135.92,0,0,1,204.64,313c-.65-2.82-1.89-4-4.77-4q-14.64.12-29.28,0c-2.87,0-4.14,1.12-4.79,4a137.09,137.09,0,0,1-16.42,40.51c-2.41,4-2.3,4.1,2.56,4.11C162.89,357.64,173.83,357.62,184.77,357.62ZM122.16,158.13c-7.84.17-7.84.17-7.73,5.54s3,9.17,7.07,9c4.36-.23,6.3-4,6.62-10.83C128.39,155.87,124.37,158.62,122.16,158.13Z"/><path class="cls-1" d="M299.44,172.75c8.73,0,17.46,0,26.19,0,5.71,0,9,2.85,9.13,7.48.07,4.35-3.15,7.71-8.5,7.77q-27.28.27-54.58,0c-5.35,0-8.56-3.43-8.46-7.79.1-4.64,3.41-7.41,9.15-7.45C281.39,172.71,290.42,172.75,299.44,172.75Z"/><path class="cls-1" d="M299.2,201.19c8.73,0,17.46,0,26.19,0,5.8,0,9.13,2.67,9.36,7.24s-3.26,8-9.13,8.07q-26.62.21-53.26,0c-5.88-.05-9.36-3.42-9.14-8.06s3.55-7.22,9.35-7.25C281.45,201.16,290.33,201.19,299.2,201.19Z"/><path class="cls-1" d="M299.17,229.64c8.88,0,17.75,0,26.63,0,5.45,0,8.71,2.76,8.95,7.2s-3.09,8-8.66,8.06q-27.06.26-54.14,0c-5.6,0-8.93-3.47-8.73-8s3.53-7.25,9.32-7.29C281.42,229.6,290.29,229.64,299.17,229.64Z"/><path class="cls-1" d="M284.91,37.72c2.37,0,4.74-.17,7.09,0,4.17.36,7.06,3.23,7.17,7.09.12,4.12-2,6.88-6,7.64a45.68,45.68,0,0,1-16.73,0c-4-.71-6.16-3.4-6.12-7.53,0-3.88,2.89-6.84,7-7.22,2.49-.22,5,0,7.53,0Z"/><path class="cls-1" d="M327.73,37.73c2.36,0,4.74-.18,7.08,0,4.14.39,7,3.35,7,7.22,0,4.13-2.17,6.82-6.12,7.53a45.51,45.51,0,0,1-16.74,0c-4-.77-6.08-3.52-6-7.64.11-3.87,3-6.74,7.18-7.09,2.49-.2,5,0,7.53,0Z"/><path class="cls-1" d="M370,37.7c2.37,0,4.74-.14,7.09,0,4.23.3,7.08,3,7.44,6.86a7.22,7.22,0,0,1-6.17,7.94,45.46,45.46,0,0,1-16.73-.06,6.82,6.82,0,0,1-5.9-7.67c.26-4.07,2.75-6.5,6.75-7a62.84,62.84,0,0,1,7.52-.05Z"/><path class="cls-1" d="M285,73.32a57.12,57.12,0,0,1,7.52.06c4,.55,6.42,3,6.62,7.12.2,3.9-1.89,6.66-5.62,7.44a42.22,42.22,0,0,1-17.59,0c-3.72-.81-5.79-3.58-5.56-7.49.23-4.08,2.67-6.55,6.67-7.06A64,64,0,0,1,285,73.32Z"/><path class="cls-1" d="M327.65,73.28c2.36,0,4.74-.18,7.09,0,4.16.38,7,3.29,7.1,7.16.07,4.12-2.1,6.85-6,7.58a45.24,45.24,0,0,1-16.73,0c-3.95-.74-6.13-3.46-6-7.58.08-3.88,2.94-6.79,7.1-7.16C322.61,73.1,325.14,73.28,327.65,73.28Z"/><path class="cls-1" d="M369.92,88.8c-2.81-.28-5.64.08-8.39-.73-3.88-1.14-6.12-3.68-5.82-7.78s2.81-6.64,6.82-6.91a123.89,123.89,0,0,1,15.05,0,7.15,7.15,0,0,1,6.92,7.29c0,4.13-2.28,6.69-6.22,7.45A72.49,72.49,0,0,1,369.92,88.8Z"/></g></g></svg>