<svg xmlns="http://www.w3.org/2000/svg" viewBox="0 0 369.79 373.19"><defs><style>.cls-1{fill:#08313a;}</style></defs><g id="Layer_2" data-name="Layer 2"><g id="Layer_1-2" data-name="Layer 1"><path class="cls-1" d="M286.26,309.31q0,27.13,0,54.27c0,8-1.59,9.61-9.44,9.61H9.42c-7.68,0-9.36-1.67-9.36-9.31Q.06,217.57,0,71.27A12,12,0,0,1,3.78,62Q33.14,32.91,62.24,3.57A11.19,11.19,0,0,1,70.8,0Q174.23.11,277.65.06c6.65,0,8.59,1.92,8.6,8.5,0,12.81.09,25.62-.05,38.42a7.73,7.73,0,0,0,3.27,6.85c20.72,16.56,34.14,37.82,38.55,64,6.34,37.66-4.52,70-32.09,96.57-2.63,2.54-3.19,4.22-1.18,7.4,4.22,6.66,8,13.58,11.89,20.46,1.23,2.19,2.27,2.91,4.78,1.5,6.44-3.64,8.81-2.91,12.52,3.51,13.91,24.07,27.89,48.11,41.64,72.28,11.77,20.69-2.47,46.47-26.19,47.12-12.64.35-22.38-5.49-28.77-16.52Q300,331.87,289.5,313.51c-.84-1.45-1.71-2.87-2.57-4.31ZM13,217.66q0,68.86-.07,137.75c0,3.62.84,4.9,4.7,4.89q125.54-.15,251.06,0c3.52,0,4.68-.93,4.65-4.57-.16-20.43-.22-40.87,0-61.3.07-5.88-.84-11.08-4.09-16.13-3.73-5.8-2.84-8.61,3.06-12,2.62-1.48,2.65-2.84,1.22-5.22q-6.29-10.47-12.2-21.17c-1.32-2.41-2.73-2.85-5.31-2-16.56,5.31-33.49,6.67-50.54,3.27-41.35-8.24-69-32.55-82.58-72.39-6.62-19.44-6.62-39.36-1.25-59.23.41-1.54,1.4-3.25-.18-4.73-3.52-3.28-6.31-8.38-12.54-5.07a3.23,3.23,0,0,1-1.91.15c-3.38-.54-5.08,1.27-6.63,4q-13.23,23.49-26.78,46.8c-1.84,3.16-2.5,5.56-.49,9.12,4,7.1,2,16.49-4,22a19.28,19.28,0,0,1-23,2.19,18.92,18.92,0,0,1-8.43-20.48c2.08-8.4,9-14.36,17.52-14.4,3.25,0,4.85-1.34,6.32-4Q75,121.45,88.76,97.79c1.73-3,2.16-5.18.3-8.44-3.88-6.81-2.41-15.53,2.85-21.26a19.2,19.2,0,0,1,21-4.84,18.62,18.62,0,0,1,11.83,17.89,33.81,33.81,0,0,1-.66,5.37c-.44,2.56,1.26,4.13,3,4.87s1.72-1.7,2.44-2.72c1-1.47,1.73-3.18,2.67-4.72C152,51.41,180.84,33.61,218.89,31.16c17.93-1.15,35,2.67,51.11,10.44,2.71,1.3,3.36.61,3.32-2.16-.1-7.37-.19-14.75,0-22.12.11-3.46-1.07-4.37-4.44-4.36q-94.68.12-189.36,0c-3.73,0-4.53,1.28-4.5,4.71.14,16.42.08,32.85,0,49.28,0,6.11-2.06,8.17-8.14,8.18q-24.45,0-48.89,0c-5,0-5,0-5,5.17Q13,149,13,217.66ZM223.7,230c51.29.06,93.18-41.39,93-92.55-.16-51-39.86-93.11-92.84-93.22-55.3-.11-93.2,45-93.1,92.47C130.9,188.72,171.76,230,223.7,230ZM356.39,336a19.9,19.9,0,0,0-2.79-10.75q-18.78-32.59-37.54-65.19c-1.27-2.22-2.35-2.49-4.53-1.19q-12.84,7.62-25.87,14.91c-2.24,1.26-2.49,2.36-1.18,4.54,4.3,7.21,8.4,14.54,12.61,21.81,8.68,15,17.22,30.06,26.14,44.9,4.25,7.06,12.58,9.71,20.33,7.32C351.13,350,356.43,342.78,356.39,336ZM62.16,23.47,23.62,62.12H59.93c2,0,2.23-1.34,2.22-2.91,0-4,0-8,0-12Zm234,227.34c-.33-.64-.78-1.56-1.3-2.46q-4.44-7.74-8.9-15.47c-4.06-7.08-4-6.95-11-3.15-2.73,1.48-2.67,2.83-1.27,5.15,3.21,5.31,6.23,10.74,9.34,16.11,4.09,7.09,5.92,7.4,12.14,2C295.78,252.51,296.47,252.08,296.18,250.81ZM105.91,86.8a5.76,5.76,0,1,0-5.76-5.75A6.1,6.1,0,0,0,105.91,86.8ZM62,168.13a6.11,6.11,0,0,0-5.62-5.89,5.75,5.75,0,1,0-.27,11.5A6.1,6.1,0,0,0,62,168.13Z"/><path class="cls-1" d="M143.16,348.35H45.37c-4.68,0-7.3-1.76-7.93-5.18-.79-4.32,2.09-7.58,6.88-7.77,5.41-.22,5.42-.22,5.42-5.58,0-8,0-16,0-24.06,0-5.37,2.21-7.57,7.52-7.61,7.63-.05,15.27-.06,22.9,0,5.06,0,7.3,2.3,7.34,7.4.06,8.54.13,17.08,0,25.61-.06,3.11.78,4.39,4.12,4.28,9.1-.28,7.75,1,7.79-7.9.07-15.26,0-30.53,0-45.79,0-6.44,2-8.43,8.26-8.46,7.24,0,14.48,0,21.73,0,5.6,0,7.78,2.17,7.8,7.74,0,16.68.1,33.37-.06,50,0,3.48,1.1,4.47,4.46,4.36,8.57-.28,7.46.87,7.47-7.46q.06-35.5,0-71c0-6.61,1.93-8.51,8.57-8.53q10.29,0,20.57,0c6.81,0,8.65,1.89,8.66,8.84,0,24.45.07,48.9-.08,73.35,0,3.7,1,5,4.78,4.82,8.17-.33,7.14.79,7.16-7.4,0-15.52,0-31,0-46.56,0-6.14,2-8.18,8.12-8.21,7.37,0,14.74,0,22.12,0,5.31,0,7.53,2.25,7.54,7.6,0,16.56.11,33.12-.06,49.67,0,3.62.83,5.09,4.71,4.9,5.1-.25,7.82,2.33,7.75,6.52s-2.83,6.35-8,6.35Zm30.77-49.56c0-10.09,0-20.19,0-30.28,0-7.91.92-6.82-7-7.19-4-.18-5,1.19-5,5.06.18,20.44,0,40.88.1,61.32,0,8.69-1.34,7.48,7.95,7.74,3.14.09,4-1.06,4-4.05C173.85,320.52,173.93,309.65,173.93,298.79Zm-49.67,12.4c0-5.82,0-11.64,0-17.46-.08-8.41,1.09-7.23-7.4-7.55-3.69-.15-4.59,1.18-4.54,4.66.18,12.16,0,24.32.1,36.48.07,9.13-1.62,7.9,8.35,8.1,2.76.06,3.58-1,3.54-3.66C124.17,324.91,124.25,318.05,124.26,311.19Zm87.48-.59c0,5.69-.05,11.38,0,17.07.1,8.72-1.33,7.52,7.93,7.77,3.09.08,4-1,4-4-.14-12.29,0-24.58-.08-36.87-.08-9.4,1.75-8.14-8.51-8.32-2.54,0-3.41.93-3.37,3.42C211.81,296.62,211.74,303.61,211.74,310.6Zm-137.16,13c0-1.42,0-2.85,0-4.27-.24-9.33,2-8.15-9-8.25-2.21,0-3,1-2.92,3.06.07,4.4,0,8.8,0,13.2.14,9.11-1.61,7.94,8.37,8,.26,0,.52,0,.78,0,2,.12,2.75-.93,2.71-2.84C74.53,329.55,74.57,326.58,74.58,323.6Z"/><path class="cls-1" d="M74.89,224.14c-12.27,0-24.54.07-36.81,0-5.53,0-8.69-5.06-6.19-9.56a6.44,6.44,0,0,1,6.1-3.36c24.55,0,49.09,0,73.63,0,4.37,0,7,2.68,6.93,6.6s-2.74,6.29-7.24,6.31C99.17,224.18,87,224.15,74.89,224.14Z"/><path class="cls-1" d="M74.43,249Q56.22,249,38,249c-3.21,0-5.56-1.39-6.54-4.43a6.21,6.21,0,0,1,2.23-7.26A6.78,6.78,0,0,1,38.07,236q36.81,0,73.62,0c4.2,0,6.78,2.53,6.86,6.29.09,3.92-2.56,6.58-6.92,6.61C99.23,249,86.83,249,74.43,249Z"/><path class="cls-1" d="M223.66,217.93c-45,0-80.77-36.11-80.77-81.41a81,81,0,1,1,80.77,81.41Zm.68-12.93a45.21,45.21,0,0,0,7.66-.62c37.92-4.11,65.27-40.38,59-78.06-5.71-34.42-37-60.38-73.5-56.88-27.1,2.61-50.58,21.45-58.48,47.5-.78,2.58-.39,4.27,1.61,6.11q13.58,12.45,26.89,25.19c2,2,3.83,2.64,6.5,1.52a13.68,13.68,0,0,1,8.41-.39c2.62.63,4-.23,5.53-2.18q10.77-14,21.78-27.78c1.87-2.34,2.35-4.24,1.2-7.29-2.65-7-1.21-13.61,3.82-19.1s11.32-7.18,18.4-5.52a18.8,18.8,0,0,1,14.23,21.78c-1.73,10-10.69,16.57-21.35,15.31a5.18,5.18,0,0,0-5.47,2.35c-7.48,9.74-15.08,19.4-22.69,29-1.37,1.74-2,3.21-1.15,5.59A18.78,18.78,0,0,1,211,182.9a19.19,19.19,0,0,1-21.48,1.63c-7.23-4.27-10.7-12-8.92-20.59a5.47,5.47,0,0,0-1.83-5.81c-6.26-5.79-12.42-11.7-18.67-17.51-.88-.81-1.63-2.58-3-1.84s-.57,2.36-.53,3.6C157.62,176.13,188.67,205,224.34,205Zm30.13-99.11a5.75,5.75,0,1,0-5.74,5.75A6.15,6.15,0,0,0,254.47,105.89Zm-49.68,61.93a5.76,5.76,0,1,0-5.58,5.92A6.11,6.11,0,0,0,204.79,167.82Z"/></g></g></svg>