<svg xmlns="http://www.w3.org/2000/svg" viewBox="0 0 411.43 373.19"><defs><style>.cls-1{fill:#08313a;}</style></defs><g id="Layer_2" data-name="Layer 2"><g id="Layer_1-2" data-name="Layer 1"><g id="Layer_2-2" data-name="Layer 2"><g id="Layer_1-2-2" data-name="Layer 1-2"><path class="cls-1" d="M0,177c2.84-3.33,6.5-4.23,10.76-4.21,26.89.08,53.78,0,80.67,0,5.64,0,5.66,0,5.66-5.46,0-17.92-1-15.18,14.11-23.67q41.79-23.5,83.64-46.9c2.71-1.51,3.27-3.33,3.25-6.15-.06-27,0-54-.06-81.07,0-4.07.89-7.53,5.06-9.08C208-1.31,212.62,2.24,213,7.79c.49,7.67.49,7.67,8.22,7.67h38.93c8.24,0,10.7,2.53,10.72,10.82a26.15,26.15,0,0,1,0,2.8c-.32,2.94.86,4,3.87,4,6.83-.17,13.65-.1,20.47,0,7.49.06,11.31,4.92,8.06,11.58-4.81,9.86-4.77,19-.16,29,3.33,7.12-.54,12-8.5,12q-26.47.12-53,0c-7.29,0-10.21-2.88-10.35-10.25-.16-8,.7-7.37-7.77-7.39-10.43,0-10.43,0-10.43,10.63,0,4.15.14,8.3,0,12.44a5.56,5.56,0,0,0,3.25,5.74c30,16.75,59.92,33.75,90,50.37,5.68,3.13,8.34,7.08,7.77,13.44-.19,2.22,0,4.54,0,6.81,0,5.42,0,5.45,5.29,5.45h81.07c8.6,0,11,2.42,11,10.92v179c0,8.39-2,10.43-10.38,10.43H10.15c-4.11,0-7.76-.53-10-4.37Zm111.9,82.11c0,31.44.06,62.87-.09,94.32,0,3.92,1.22,5.07,5,4.95,8.14-.25,16.31-.07,24.48-.08,5.32,0,5.34,0,5.35-5.27V274c0-8.29,2.22-10.51,10.4-10.51H253.8c8.51,0,10.58,2.11,10.58,10.74,0,26.35.1,52.71-.09,79.06,0,4.16,1.29,5.26,5.27,5.14,8.42-.28,16.86-.2,25.28,0,3.33.07,4.44-1,4.38-4.34-.4-63.14.6-126.27-.55-189.41a6.84,6.84,0,0,0-4-6.66q-43.1-24.09-86.06-48.33a5.62,5.62,0,0,0-6.28.09Q159,134.23,115.6,158.56c-2.91,1.62-3.78,3.48-3.76,6.66.1,31.27.06,62.57.06,93.87ZM14.66,273c0,26.76.06,53.53-.07,80.28,0,3.69.83,5.16,4.86,5.14q36.33-.27,72.66,0c3.81,0,5.06-1.11,5.06-5q-.17-80.08,0-160.15c0-3.94-1.38-5-5.13-5q-36.12.21-72.24,0c-4.1,0-5.23,1.25-5.21,5.27C14.74,220,14.66,246.45,14.66,273Zm381.7.62c0-26.75-.07-53.51.06-80.26,0-3.81-1-5.12-5-5.1q-36.33.24-72.65,0c-4,0-4.95,1.44-4.94,5.16q.13,79.89,0,159.78c0,4.06,1.2,5.25,5.25,5.23,23.94-.18,47.9-.08,71.84-.09,5.41,0,5.42,0,5.42-5.63ZM161.58,318.21c0,11.9.09,23.81,0,35.7,0,3.23.86,4.53,4.28,4.44,9.35-.19,18.72-.16,28.08,0,3.12,0,4.2-1,4.18-4.15q-.17-35.91,0-71.82c0-3.33-1.31-4.07-4.29-4-9.36.12-18.73.15-28.09,0-3.12,0-4.22,1-4.17,4.14.14,11.86.05,23.78.05,35.67Zm87.81.54c0-12-.07-24.08,0-36.12,0-3-.73-4.34-4-4.28-9.5.17-19,.13-28.49,0-2.89,0-4,.85-4,3.89q.17,36.11,0,72.22c0,3.05,1.11,3.92,4,3.88,9.23-.12,18.46-.18,27.68,0,3.6.08,4.93-.91,4.86-4.71-.13-11.64,0-23.28,0-34.92ZM234.44,52.61c5.87,0,11.74-.07,17.61,0,2.64,0,3.94-.86,3.87-3.71-.14-4.79-.12-9.6,0-14.42.05-2.51-.86-3.67-3.47-3.65q-18,.08-36,0c-2.63,0-3.5,1.17-3.44,3.67.1,4.66.17,9.34,0,14-.14,3.25,1.29,4.17,4.29,4.11C223,52.51,228.71,52.61,234.44,52.61Zm31.73,17.63h15.22c4.3,0,4.76-.52,3.1-4.32a16.26,16.26,0,0,1-.31-12.78c1.66-4.51,1.47-4.65-3.44-4.61-11.75.1-9.82-1.42-10,10-.09,6.48-2.68,9.31-9.12,9.49-4,.11-8,0-12,.06-.86,0-2.22-.26-2.32.94-.06,1.54,1.48,1.24,2.44,1.25l16.44,0Z"/><path class="cls-1" d="M235.5,158.69a30,30,0,1,1-59.92.09c0-16.51,13.78-30.26,30.15-30.11A30.15,30.15,0,0,1,235.5,158.69Zm-29.83-14.64a14.81,14.81,0,1,0-.4,29.62h0c8.61.11,15.29-6.25,15.27-14.57a14.65,14.65,0,0,0-14.25-15h-.62Z"/><path class="cls-1" d="M147.29,218H136.07c-2.3,0-3.49-1-3.5-3.33v-1.2c0-12.79-1.11-10.66,10.47-10.83,5.07-.07,10.15,0,15.22,0,2.65,0,3.94,1.05,3.94,3.78,0,13.9,1.19,11.39-10.46,11.64H147.3Z"/><path class="cls-1" d="M263.69,218h-10.8c-2.63.06-4-1-4-3.73,0-14.09-1.24-11.44,10.84-11.67,4.94-.1,9.88,0,14.82,0,2.65,0,4,1,4,3.73,0,14.17,1.22,11.39-10.82,11.68h-4Z"/><path class="cls-1" d="M147.14,251h-11.2c-3.72,0-3.78-2.8-3.33-5,.73-3.46-2.9-9.24,2.93-10,7.76-1,15.71-.25,23.57-.25a.9.9,0,0,1,.4,0c5.06,2.67,1.81,7.33,2.53,11,.45,2.22-.28,4.29-3.32,4.26H147.14Z"/><path class="cls-1" d="M263.46,251H252.65c-2.49,0-3.71-1-3.73-3.54,0-14.23-1.33-11.62,10.66-11.84,5.06-.09,10.14,0,15.21,0,2.45,0,3.53,1,3.75,3.55,1,11.7.94,11.85-10.67,11.85h-4.44Z"/><path class="cls-1" d="M205.43,218c-3.47,0-7-.08-10.43,0-2.78.07-4.22-.83-4.16-3.9.26-13.53-1.8-11.31,11-11.51,4.68-.08,9.38.11,14.05-.06,3.33-.11,4.44,1.29,4.37,4.53-.3,12.63,1.75,10.73-10.78,10.92C208.11,218,206.77,218,205.43,218Z"/><path class="cls-1" d="M205.52,251H194.28c-2.32,0-3.52-1-3.39-3.33v-.81c.19-13-1.87-11,10.86-11.19,4.94-.06,9.89,0,14.84,0,2.46,0,3.73,1,3.62,3.6-.1,2.79-.08,5.61,0,8.42,0,2.41-1.11,3.33-3.43,3.33C213,250.94,209.27,251,205.52,251Z"/><path class="cls-1" d="M45.94,217.5v10.8c0,2.44-.82,3.69-3.48,3.64-14-.26-11.17,1.94-11.47-10.74-.11-4.8.09-9.6,0-14.43-.08-2.82.84-4.18,3.85-4.16,13.41.13,10.87-1.31,11.09,10.45v4.44Z"/><path class="cls-1" d="M80.61,217.19c0,3.73-.09,7.47,0,11.2.08,2.58-1,3.54-3.56,3.49C63.39,231.65,66,233.77,65.64,221c-.09-4.8.09-9.6,0-14.43-.07-2.95,1.18-4,4-4,13.32.13,10.69-1.25,11,10.2v4.44Z"/><path class="cls-1" d="M45.94,273.67v10.8c0,2.31-1,3.5-3.33,3.44h-.8c-13-.1-10.59,1.36-10.81-10.31-.1-5.2,0-10.4,0-15.6,0-2.33.87-3.45,3.28-3.33q4.2.1,8.39,0c2.46-.07,3.33,1.16,3.33,3.44C45.9,265.94,45.94,269.81,45.94,273.67Z"/><path class="cls-1" d="M80.6,273.09v11.6c0,2.22-1,3.22-3.11,3.19h-.4c-13.84,0-11.18,1.51-11.41-10.46-.1-5.06,0-10.13,0-15.2,0-2.52,1-3.61,3.57-3.56,13.85.23,11.1-1.8,11.39,10.47v4Z"/><path class="cls-1" d="M31,328.75c0-3.46.12-6.94,0-10.39-.12-2.84.87-4.18,3.85-4.15,13.45.11,10.91-1.31,11.1,10.46.1,5.06,0,10.12,0,15.19,0,2.45-.85,3.68-3.49,3.62-14-.25-11.09,2-11.47-10.74C31,331.41,31,330.08,31,328.75Z"/><path class="cls-1" d="M80.6,328.78v11.59c0,2.22-.93,3.13-3.12,3.09-14.33-.18-11.54,2-11.81-10.84-.12-4.92,0-9.85,0-14.78,0-2.56,1.1-3.63,3.59-3.62,14.06.07,11-1.36,11.38,10.57v4Z"/><path class="cls-1" d="M330.43,217.21v-10c0-.8-.24-1.79.14-2.37,2.93-4.55,7.45-1.45,11.2-2.22,2.09-.39,3.62.58,3.61,3.09v23.19a2.52,2.52,0,0,1-2.1,2.89,2.21,2.21,0,0,1-.85,0h-.8c-13.51-.21-10.85,1.9-11.16-10.64C330.41,219.89,330.43,218.61,330.43,217.21Z"/><path class="cls-1" d="M380,217.56v11.18c0,2.22-.88,3.24-3.08,3.11h-.4c-13.74-.19-11.2,1.91-11.45-10.83-.09-4.93.06-9.85,0-14.79,0-2.54,1.05-3.64,3.57-3.63,14.07.08,11.1-1.4,11.4,10.54v4.44Z"/><path class="cls-1" d="M330.46,273V261.79c0-2.15.84-3.28,3.06-3.17h.4c13.77.17,11.24-1.85,11.48,10.82.09,4.93,0,9.87,0,14.8,0,2.5-1,3.68-3.54,3.65-14-.1-11.09,1.48-11.43-10.49V273Z"/><path class="cls-1" d="M380.07,273.45c0,3.6-.09,7.21,0,10.8.06,2.52-.92,3.69-3.5,3.67-13.91-.08-11.23,1.46-11.47-10.49-.1-5.07,0-10.14,0-15.2,0-2.49.93-3.65,3.54-3.61,14,.25,11.09-1.88,11.43,10.83C380.1,270.76,380.07,272.12,380.07,273.45Z"/><path class="cls-1" d="M330.46,328.67V317.48c0-2.22,1-3.2,3.09-3.21h.4c14,0,11.2-1.4,11.45,10.5.1,5.06,0,10.13,0,15.19,0,2.5-1,3.6-3.56,3.55-13.92-.27-11.09,1.95-11.39-10.82v-4Z"/><path class="cls-1" d="M380,329.17v11.19c0,2.21-.89,3.14-3.09,3.1-14.43-.19-11.55,2-11.83-10.82-.11-4.92,0-9.86,0-14.79,0-2.55,1.11-3.47,3.57-3.65,11.4-.81,11.4-.85,11.4,10.58v4.44Z"/></g></g></g></g></svg>