<svg xmlns="http://www.w3.org/2000/svg" viewBox="0 0 345.5 373.32"><defs><style>.cls-1{fill:#08313a;}</style></defs><g id="Layer_2" data-name="Layer 2"><g id="Layer_1-2" data-name="Layer 1"><path class="cls-1" d="M0,229.26V113.11C0,98.35,5.87,91.9,20.42,89.84a235.48,235.48,0,0,1,61.4-.77c3.58.43,5.4-.33,6.27-4.29A87,87,0,0,1,163,16.58c43.62-5.32,84.42,23.48,94.28,66.55,1.53,6.67,1.5,6.41,8.45,5.67a226.41,226.41,0,0,1,63.35,1.78c10.07,1.77,15.66,8.47,16.37,18.65.07,1.06.05,2.12.05,3.19q0,116.54,0,233.09a22,22,0,0,1-.71,6.7c-2,6.32-6.47,9-13.07,8.11-21-2.91-42.11-5-63.36-4.14-28.33,1.19-56.17,5.53-83.07,14.67-8.22,2.8-15.7,3.53-24.19.54a271,271,0,0,0-61.19-13.47,293.5,293.5,0,0,0-61.09-.51c-8.3.84-16.57,1.91-24.82,3.13C6.35,361.67.68,357.08.07,349.39,0,347.94,0,346.47,0,345Zm326.35-3.85q0-55.47,0-110.93c0-2.94-.29-5-3.89-5.61a208.33,208.33,0,0,0-54.64-1.42c-8,.87-8,1.12-9.35,9-3.32,19.56-11.71,36.45-26.23,50.14a21,21,0,0,0-7,15.44c-.22,8.42-2.86,16.34-8.61,22.57a14.76,14.76,0,0,0-4.2,12.54,18.87,18.87,0,0,1,0,2c0,19.82-8.46,34.08-27.38,41.33-2.37.91-2.79,2.44-2.79,4.59q0,41.76,0,83.5c0,3,.85,3.64,3.73,2.78a337.92,337.92,0,0,1,65-12.6A313.48,313.48,0,0,1,320.37,340c6,.77,6,.88,6-5.24Zm-307-1.25h-.18q0,35.78,0,71.56c0,13.52,0,27-.09,40.56,0,3.22.8,4.48,4.38,4A312.53,312.53,0,0,1,86.91,338a321.84,321.84,0,0,1,71.37,12.78c4.56,1.36,4.88,1.12,4.89-3.86,0-26.91,0-53.81.07-80.71,0-3.43-1.07-5.07-4.34-6.4-14.83-6.05-23.56-17-25.58-33.1a111.12,111.12,0,0,1-.39-13.89,8.09,8.09,0,0,0-2.37-6,37.1,37.1,0,0,1-10.4-25.14,19.81,19.81,0,0,0-6.37-14.47,85.72,85.72,0,0,1-27.24-55.45c-.23-2.35-1.33-3.55-3.71-3.83a232.27,232.27,0,0,0-57.84.23c-5.61.75-5.6.9-5.6,6.69Q19.39,169.5,19.4,224.16Zm162.88-47.94h0V196.1c0,.13,0,.26,0,.4-.35,3.15,1.13,4.11,4.19,4.07a19.62,19.62,0,0,0,19.49-16c.61-3.23.55-6.59,1.11-9.84,1.59-9.28,6.9-16.34,13.34-22.95,20.34-20.88,25.81-45.49,16.15-72.84-10-28.27-39.84-47.72-72.93-43.66C133.45,39,106.2,67.09,104.57,97.5c-1.15,21.61,5.61,40.13,21.32,55.2,8.1,7.77,12.69,17,13,28.43a19.92,19.92,0,0,0,19.72,19.45c3.48.08,4.63-1.05,4.59-4.53-.16-12.59-.09-25.18,0-37.77a30.49,30.49,0,0,1,.65-6.69,8.82,8.82,0,0,1,8.72-6.79c5.74-.1,9.46,3.85,9.67,10.75S182.28,169.33,182.28,176.22Zm-9.13,43c-5.82,0-11.65.08-17.47,0-2.5-.05-3.54.8-3.65,3.39a20.67,20.67,0,1,0,41.34.06c-.08-2.54-1-3.52-3.54-3.45C184.27,219.32,178.71,219.23,173.15,219.23Z"/><path class="cls-1" d="M266.39,39.71A9.15,9.15,0,0,1,258,34.62c-1.77-3.39-1.66-7,.91-9.68,7.41-7.77,15-15.39,22.77-22.78C285-1,290-.52,293.36,2.44a9.15,9.15,0,0,1,1.76,11.89,15.77,15.77,0,0,1-2.2,2.81q-9.53,9.6-19.14,19.12A10.39,10.39,0,0,1,266.39,39.71Z"/><path class="cls-1" d="M79.53,39.73a10.07,10.07,0,0,1-7.29-3.13C65.5,29.84,58.68,23.16,52,16.33c-4.12-4.23-4.14-9.67-.33-13.48S60.76-.95,64.86,3c7,6.82,14,13.79,20.82,20.79,2.84,2.89,3.73,6.39,2,10.24A9.12,9.12,0,0,1,79.53,39.73Z"/><path class="cls-1" d="M254.84,294.68c-9.28,0-18.56.07-27.85,0-6-.07-9.67-2.73-10.79-7.49a9,9,0,0,1,7.11-11,41.35,41.35,0,0,1,7.12-.55q24.66-.07,49.33,0a37.07,37.07,0,0,1,6.32.49,9.21,9.21,0,0,1,7.76,8.81A9.3,9.3,0,0,1,287,294a22,22,0,0,1-5.5.62C272.61,294.72,263.72,294.68,254.84,294.68Z"/><path class="cls-1" d="M265.34,223.48c8.21,0,16.42,0,24.64,0,6,0,10,3.54,10.25,8.76.22,5.4-3.73,9.77-9.76,9.84q-25,.28-50.06,0c-6.16-.07-9.95-4.2-9.81-9.73.13-5.28,4.08-8.82,10.1-8.87C248.91,223.44,257.12,223.48,265.34,223.48Z"/><path class="cls-1" d="M276.69,171c4.63,0,9.26-.07,13.89,0,5.45.11,9.33,3.61,9.64,8.54a9.24,9.24,0,0,1-8.73,9.94c-4.46.42-9,.19-13.47.21-4.9,0-9.8.1-14.69,0-6.38-.18-10.47-4-10.43-9.58s4.14-9,10.7-9.1h13.09Z"/><path class="cls-1" d="M87.63,276c10.47,0,20.94,0,31.41,0,6.37,0,10.3,3.47,10.41,8.95s-3.95,9.68-10.28,9.71q-31.82.15-63.61,0c-5.18,0-8.72-2.76-10-7a9.2,9.2,0,0,1,3.77-10.1c2-1.37,4.17-1.54,6.45-1.53Z"/><path class="cls-1" d="M80.1,223.48c8.21,0,16.43,0,24.64,0,6.07.05,10,3.52,10.16,8.81.18,5.54-3.61,9.72-9.75,9.79q-25,.28-50.07,0c-6-.07-10-4.38-9.82-9.78.18-5.21,4.22-8.77,10.2-8.82C63.68,223.44,71.89,223.48,80.1,223.48Z"/><path class="cls-1" d="M68.62,185.85c-4.64,0-9.27.09-13.9,0-5.49-.13-9.4-4-9.45-9.2a9.18,9.18,0,0,1,8.93-9.37q14.69-.39,29.38,0a9.16,9.16,0,0,1,9,9.67c-.13,5.11-4.08,8.82-9.69,8.92C78.15,185.92,73.38,185.85,68.62,185.85Z"/><path class="cls-1" d="M172.83,56.44c13.53.85,24.23,6.82,31.9,18,3.49,5.08,2.56,10.51-1.94,13.61s-9.87,1.91-13.46-3c-4.38-6-10.12-9.52-17.66-9.84a14.12,14.12,0,0,1-6.1-1.57,9,9,0,0,1,3.69-17.11C170.45,56.38,171.64,56.44,172.83,56.44Z"/></g></g></svg>