<svg xmlns="http://www.w3.org/2000/svg" viewBox="0 0 375.29 375.32"><defs><style>.cls-1{fill:#08313a;}</style></defs><g id="Layer_2" data-name="Layer 2"><g id="Layer_1-2" data-name="Layer 1"><path class="cls-1" d="M75,0c3.18,1.92,5,4.6,4.64,8.46-.23,2.55,1.14,3.06,3.35,3,5.85-.09,11.71,0,17.57,0,25.63,0,51.26.11,76.89,0a55.45,55.45,0,0,1,35,11.85c10.85,8.31,21.72,16.6,32.47,25.05a12,12,0,0,0,8,2.75q45-.14,90.08,0c13.1,0,20.84,7.81,20.85,21q0,54.18,0,108.38c0,12-6.79,19.45-18.67,20.62a61.33,61.33,0,0,1-6.2.34q-35.16,0-70.3,0a39.9,39.9,0,0,1-6.56-.46,7.3,7.3,0,0,1-6.41-8c.23-4,3.19-6.82,7.45-7.07,1.1-.06,2.2,0,3.3,0,15.62,0,31.24,0,46.86,0,2.36,0,3.75-.43,4.49-3,4.07-14.25,13.31-23.57,27.54-27.74,2.58-.76,3.41-1.95,3.4-4.61q-.18-24.35,0-48.7c0-2.77-.78-4-3.54-4.84-14-4.07-23.07-13.23-27.28-27.11-.79-2.62-1.79-3.7-4.7-3.7q-72.31.14-144.63.08a17.12,17.12,0,0,0-3.28.21c-3.22.63-5.76,2.28-6.45,5.67a7.25,7.25,0,0,0,3.78,8.37c10.34,5.77,20.73,11.43,31,17.26,2.31,1.31,3.49.24,5-1.29a42.77,42.77,0,0,1,32.76-13.75c21.83.33,40.51,18.17,42.22,40.08,1.69,21.63-13.64,42-34.94,45.82-17.54,3.16-32-2.63-43-16.58-1.69-2.13-3.1-3-6-2.65-6.13.8-12.06-1.36-18.07-2.26-19.59-3-38.87-7.14-57-15.57-2.25-1.05-2.76-.13-2.73,2,.06,6,.08,12,0,18,0,1.93.74,2.83,2.55,3.35,14.85,4.2,24.38,13.79,28.55,28.61.69,2.46,2.27,2.42,4.17,2.42q24.52,0,49.06,0c5.37,0,8.54,2.75,8.68,7.32a7.27,7.27,0,0,1-5.93,7.68,35,35,0,0,1-6.55.54q-35.7,0-71.4,0a45.15,45.15,0,0,1-9.45-.82A18.88,18.88,0,0,1,96.74,182c-.07-18.55-.09-37.1,0-55.65,0-3.09-1-5-3.65-6.43-3.39-1.8-6.27-4.62-10.67-4-2,.29-2.91.82-2.82,2.86.08,1.71,0,3.42,0,5.13-.13,5.32-2.87,8-8.19,8.19h-.36q-31.31,0-62.61,0c-5.59,0-8.42-2.78-8.43-8.29Q0,65.94,0,8.09A8.83,8.83,0,0,1,4.68,0ZM221.75,51l.28-.87c-6.26-4.83-12.6-9.56-18.78-14.5a41,41,0,0,0-26.15-9c-31.23-.1-62.47,0-93.71-.09-2.86,0-3.81.86-3.79,3.75q.14,33.32,0,66.63c0,3.1,1,4,4,3.93,3.82-.06,7.73-.75,11.31,1.75a162,162,0,0,0,67.66,27.19c7.93,1.28,15.83,2.91,23.8,3.92a9.87,9.87,0,0,0,11.2-7.78c1.14-4.78-1.26-9.21-6.62-12.18-12-6.61-24-13.12-35.86-19.86-9.72-5.51-14-15.88-11.17-26.17S155.58,51,166.56,51q21.6,0,43.2,0ZM64.48,65.92c0-15.75,0-31.5,0-47.24,0-2.83-.77-3.86-3.73-3.83q-20.86.2-41.74,0c-3.1,0-3.93,1-3.92,4q.13,47.05,0,94.12c0,3,.82,4,3.92,4q20.69-.21,41.38,0c3.28,0,4.14-1,4.11-4.21C64.41,97.17,64.48,81.54,64.48,65.92ZM258,126.09A27.45,27.45,0,0,0,240.9,100.3a27.86,27.86,0,0,0-29.85,5.63c-1.8,1.74-2.31,3.07-1,5.6,4.78,9,4.52,18.1-1.31,26.58-1.79,2.6-1.4,4.14.42,6.27,7.22,8.48,19.74,11.76,30.67,7.87A27.52,27.52,0,0,0,258,126.09Zm81.66-59.85v0c-1.46,0-2.93,0-4.39,0-1.76,0-2.14.76-1.47,2.29A23.34,23.34,0,0,0,346.43,81c.91.39,2.11.79,2.15-.8.08-3.52.51-7.08-.26-10.55a4.43,4.43,0,0,0-4.27-3.42C342.6,66.13,341.13,66.24,339.67,66.24ZM120.93,185.75v0h4.38c1.4,0,2.14-.5,1.51-2a23.39,23.39,0,0,0-13.13-13c-1-.39-1.76-.16-1.76,1a93.7,93.7,0,0,0,.24,10.2c.25,2.25,2.06,3.53,4.38,3.69C118,185.83,119.47,185.75,120.93,185.75Zm218.59.05h2.14c5.47,0,7-1.5,7-6.88,0-1.95-.09-3.9,0-5.84.15-2.73-1-2.79-3.06-1.78a23.53,23.53,0,0,0-9.16,7.61c-1.31,1.87-3.59,4.09-2.7,6.05S337.76,185.36,339.52,185.8Z"/><path class="cls-1" d="M375.29,370.61c-2.05,3.55-5.13,4.73-9.19,4.71-20.26-.12-40.51-.05-60.77-.06-6,0-7.5-1.06-9.36-7a2.15,2.15,0,0,0-2.33-1.78c-1.1,0-2.2,0-3.3,0q-65,0-130,0c-28.52,0-52.89-10.07-73.19-29.95-13.52-13.23-26.82-26.68-40.14-40.11-7-7.12-9.17-15.78-6.49-25.3,2.73-9.72,9.38-15.93,19.25-18.09A24.71,24.71,0,0,1,83.68,260q17.52,17.43,35,34.94a62.86,62.86,0,0,0,14.66,10.84c2.19,1.19,3,.73,3-1.86.1-18.2,10.18-28.21,28.72-28.43,12-.14,23.92-.09,35.88,0a7,7,0,0,0,6.24-2.9c9.61-12.42,21.21-22.23,36.47-27,16.29-5.14,32.43-4.79,48.33,1.64,2.34.95,4.09,1.71,5.63-1.31,1.09-2.16,3.46-2.95,5.94-2.95q32.22,0,64.44,0c3.47,0,5.63,1.94,7.35,4.64Zm-149.84-19.3q33.32,0,66.63,0c2.36,0,3.91-.19,3.9-3.26q-.14-39.36,0-78.71a4.43,4.43,0,0,0-2.59-4.38c-18.09-9.89-36.24-10.13-54.53-.56-9.73,5.08-16.24,13.54-22.92,21.76a12.41,12.41,0,0,1-10.74,4.9c-14.15-.2-28.31-.09-42.46-.06a10.65,10.65,0,0,0-10,5.68,9.57,9.57,0,0,0,.49,10.4c2.33,3.66,5.88,4.77,10.07,4.76q37.53-.09,75.05,0a29.9,29.9,0,0,1,4,.12,8,8,0,0,1,6.92,7,7.79,7.79,0,0,1-5.65,8,16.92,16.92,0,0,1-5.44.52c-25.5,0-51-.05-76.51,0-21.6.06-40-7.29-55.16-22.85-11-11.28-22.19-22.33-33.39-33.4-4.56-4.5-11-4.57-15.07-.43S54,281.32,58.36,286c2.17,2.32,4.46,4.51,6.71,6.76Q81,308.63,96.9,324.55c17.79,17.89,39.42,26.54,64.49,26.73C182.74,351.44,204.1,351.31,225.45,351.31ZM311.1,308.8c0,15.74.08,31.49-.07,47.24,0,3.25,1,4.16,4.19,4.13q20.5-.24,41,0c3.14,0,4.24-.79,4.23-4.09q-.18-47.06,0-94.11c0-3.08-1-4-4-3.94-13.55.13-27.1.18-40.65,0-3.63-.05-4.84.85-4.79,4.66C311.22,278,311.1,293.41,311.1,308.8Z"/><path class="cls-1" d="M314,125.87a7.56,7.56,0,0,1-15.1.51,7.56,7.56,0,1,1,15.1-.51Z"/><path class="cls-1" d="M237.82,193.39a7.55,7.55,0,0,1-15.1.24,7.55,7.55,0,1,1,15.1-.24Z"/></g></g></svg>