<svg xmlns="http://www.w3.org/2000/svg" viewBox="0 0 373.38 373.19"><defs><style>.cls-1{fill:#08313a;}</style></defs><g id="Layer_2" data-name="Layer 2"><g id="Layer_1-2" data-name="Layer 1"><g id="Layer_2-2" data-name="Layer 2"><g id="Layer_1-2-2" data-name="Layer 1-2"><path class="cls-1" d="M166.81,246.5a17.35,17.35,0,0,0,1.51-7.68q0-52.17.05-104.34c0-2.81-.89-4.15-3.58-5.16q-34.15-12.82-43-48.33c-.7-2.88-1.45-3.86-4.37-2.13-5.93,3.49-12,6.78-18.06,10-2.36,1.24-2.13,1.91-.26,3.57,19.53,17.41,26.56,39.06,18.92,64-7.43,24.36-24.93,38.88-50.16,42.14C33.44,203.07,6.14,178.79,1,149.48A60.43,60.43,0,0,1,49.57,79.16c1.23-.22,2.46-.41,3.7-.55a57.76,57.76,0,0,1,27.36,3.06,6.18,6.18,0,0,0,5.64-.28Q102,72.62,117.85,64.05a4.78,4.78,0,0,0,2.58-4.16c3-23.17,14.61-40.68,35.11-52,39.13-21.7,90.49,3.93,96.54,48.2.64,4.7,2.13,7.76,6.71,10,9.54,4.65,18.72,10,28,15.26a6.32,6.32,0,0,0,5.66.41c37.12-12.7,75.3,11,80.43,49.69,4.65,35.12-23.66,67.09-59.19,67.71-28.61.49-57.07-20.55-60.91-53.17-2.5-21.21,4.8-39.12,20.94-53.27,2.4-2.1,2.35-2.79-.42-4.2-5.78-3-11.42-6.23-17.06-9.4-3.76-2.09-3.77-2.09-4.78,2.07-4.25,17.44-13.76,31.2-28.73,41.14a57.12,57.12,0,0,1-14.11,6.93c-2.66.84-3.76,2.13-3.73,5,.14,14.4.11,28.8,0,43.14,0,2.51.39,3.63,3.32,3.14a16.5,16.5,0,0,1,12.19,2.64c1.57,1.06,2.85.88,4.48,0,10.86-5.64,20.4-2.87,26.36,7.7,1,1.73,1.88,2.1,3.84,1.81,12.8-1.89,21.92,6.15,21.94,19.2,0,25.41-.09,50.81,0,76.25a43.15,43.15,0,0,1-8.53,26.27,89,89,0,0,1-6.35,8.37c-2.93,3.14-3.41,6.72-3.24,10.73.09,2.24.86,3.27,3.12,3.06a4.57,4.57,0,0,1,.74,0c8.21.15,8.21.15,8.21,8.52,0,8.13-.09,16.27,0,24.4,0,2.78-1,3.69-3.71,3.69q-62.7-.09-125.4,0c-2.81,0-3.68-1-3.65-3.74q.15-14.64,0-29.29c0-2.86,1.12-3.87,3.78-3.58a1.21,1.21,0,0,0,.38,0c2.51-.4,6.29,1.38,7.31-1a13.44,13.44,0,0,0-.44-10.93c-5.76-11.95-11.26-24.07-17.43-35.76-4.59-8.73-6.76-17.92-7.77-27.58-.88-8.45-2-16.88-3.13-25.3-.88-6.43-4.77-11.47-8.26-16.65-2.3-3.45-4.46-6.89-4.47-11.32A15.9,15.9,0,0,1,123.92,192a11.43,11.43,0,0,1,1.17,0c18.53,1.18,32.86,13.32,36.92,31.42C163.71,230.8,165.11,238.24,166.81,246.5Zm14-60.64c0,18.15-.06,36.29,0,54.44a30.76,30.76,0,0,1-3.47,14.81c-6.41,12.19-2.22,9.51-16,10-3.22.1-4.41-1.25-4.94-4.18-1.18-6.64-2.54-13.25-3.89-19.87-1.16-5.75-2.11-11.58-3.69-17.23-3-10.6-13.2-18.65-23.31-18.81-1.51,0-3-.08-4,1.41s0,2.86.77,4.12c1.36,2.09,2.71,4.2,4.17,6.24A42.2,42.2,0,0,1,134,236.19c.89,6.81,1.57,13.66,2.53,20.47,1.06,7.51,1.16,15.21,4.69,22.26,5.57,11.19,10.78,22.58,16.54,33.68,3.41,6.58,6.1,13.12,5.07,20.68-.35,2.63.88,3.47,3.47,3.47q38.28-.11,76.58,0c2.53,0,4-.73,3.5-3.4-1.35-8.11,1.77-14.57,7.16-20.29,1.37-1.46,2.39-3.22,3.65-4.78,5.09-6.32,7.23-13.61,7.24-21.62V213.77a12.84,12.84,0,0,0-.59-4.81,5.44,5.44,0,0,0-10.31,0c-.72,1.82-.55,3.69-.59,5.56-.22,9.71,1.73,8.35-8.94,8.56-2.83.06-3.7-1.07-3.64-3.76.13-6,.06-12,0-18.06,0-5.17-2.21-8.18-5.82-8.11s-5.62,3-5.65,8.28c0,4.25.07,8.51,0,12.76-.19,10.09,1.81,8.62-9,8.85-2.93.07-3.59-1.24-3.55-3.84.11-6.25.09-12.51,0-18.77-.06-4.52-2.49-7.41-5.89-7.28s-5.48,2.88-5.55,7.24c-.08,5,0,10,0,15-.09,8.58,1.09,7.53-7.6,7.6-4.9,0-4.92,0-4.93-5V129.73c0-5.61-2-8.59-5.62-8.7s-5.86,3-5.86,8.82q0,28,0,56ZM216.9,52.51c.14,9.63-2.46,16.37-7.66,22.07-1.41,1.56-1.77,2.32.44,3.5a46.76,46.76,0,0,1,18.26,17.39c1.55,2.55,2.46,2.15,3.83-.07a54.77,54.77,0,0,0,8.15-34c-2.17-27.29-27.56-51.36-59-48.09-39.31,4.11-61,48.89-39.51,82,1.63,2.52,2.51,2.48,4-.07a45.25,45.25,0,0,1,17.37-16.73c2.58-1.38,2.9-2.07.83-4.41a29.89,29.89,0,0,1-2.44-36.24A30.6,30.6,0,0,1,195,25.34C208,29.1,216.88,40.83,216.9,52.51ZM60.69,102.21c1.93.23,4,.3,5.89.72,23,5,32,31.86,16.57,49.61-2,2.23-1.22,2.88.83,4a37.26,37.26,0,0,1,11.18,8.73c2.36,2.8,3.62,1.93,5.21-.63,6.87-11,9.47-22.9,6.63-35.55-4.29-19-16.06-31.62-34.91-36.42-19.18-4.88-35.61,1-48.49,16C10.39,124,9.32,148.39,20.73,164.93c1.5,2.18,2.63,3,4.73.57a39.45,39.45,0,0,1,11.47-9c2-1.08,2.78-1.73.83-4-8.47-9.73-10.1-20.84-4.86-32.49S47.86,102.75,60.69,102.21Zm251.36,0a50.75,50.75,0,0,1,5.65.4c11.46,2.29,19.67,8.75,23.59,19.79s2,21.24-5.75,30.09c-1.77,2-1.66,2.82.66,4a38.07,38.07,0,0,1,11.48,9c2,2.33,3.22,2,4.74-.43,7.07-11,9.75-23.07,6.91-35.83-4.22-19.06-16.05-31.67-34.82-36.5-19.17-4.93-35.61.89-48.53,15.87-13.24,15.33-14.35,39.63-3,56.31,1.66,2.44,2.84,3,5,.46a36.17,36.17,0,0,1,11.18-8.73c2.41-1.23,2.61-2,.73-4.23-8.28-9.67-9.87-20.68-4.72-32.2,5.24-11.76,14.9-17.39,26.88-17.93Zm-92.68,5c-.11-.28-.3-.88-.53-1.46-4.66-11.85-18.57-20.88-32.18-20.93s-27.38,8.91-32.27,20.81c-.79,1.9-.73,3.26,1.07,4.52A59.49,59.49,0,0,0,168,116.83c1.71.65,2.72.21,3.89-1.1,9.1-10.12,20.41-10.16,29.32-.1,1.12,1.27,2.09,1.91,3.85,1.24A55,55,0,0,0,217.93,110a2.77,2.77,0,0,0,1.44-2.64ZM204.26,360.69q25.14,0,50.31.05c2.89,0,4.27-.78,3.88-3.82a23.07,23.07,0,0,1,0-2.63c0-5.08,0-5.09-5.18-5.09H157.91c-7.91,0-6.82-1-7.14,6.94-.14,3.71,1.14,4.64,4.69,4.61C171.71,360.6,188,360.69,204.26,360.69ZM186.59,72.23c9.52,0,17.79-8.33,17.69-17.79a18.07,18.07,0,0,0-17.52-17.59c-9.44-.19-17.78,8-17.87,17.6A18.05,18.05,0,0,0,186.59,72.23ZM78.13,132.56C78,123,69.68,114.77,60.25,115a18.06,18.06,0,0,0-17.49,17.61c-.09,9.48,8.18,17.77,17.7,17.76S78.24,142,78.13,132.56ZM312.78,115a18.06,18.06,0,0,0-17.7,17.76c.07,9.56,8.39,17.79,17.84,17.61a18,18,0,0,0,17.53-17.56c.12-9.46-8.14-17.79-17.67-17.81ZM60.86,186.33a49.84,49.84,0,0,0,24.71-7.2c2.69-1.64,2.66-2.95.57-5.15-13.59-14.34-37.91-14.31-51.44.05-2.17,2.31-1.87,3.55.72,5.13A50.13,50.13,0,0,0,60.86,186.33Zm253.72.06c6.79-.1,16.65-3.09,23.25-7.23,2.6-1.62,2.81-2.87.67-5.14-13.53-14.35-37.85-14.37-51.44,0-2.11,2.24-2,3.52.62,5.14,7.78,4.71,16.23,6.94,26.9,7.23Z"/><path class="cls-1" d="M72.22,285.21v-35.3c0-2.46-.56-4-2.93-5.41a18.32,18.32,0,1,1,18.57-.13c-2.61,1.52-3.19,3.3-3.18,6,.08,23.27,0,46.54,0,69.82,0,4.92,0,5-5,4.93-8.5-.06-7.48.94-7.52-7.29C72.15,307,72.22,296.09,72.22,285.21Zm11.83-56.58a5.56,5.56,0,1,0-5.39,5.71h0A5.88,5.88,0,0,0,84,228.63Z"/><path class="cls-1" d="M336.53,285.4c0-11.77-.06-23.53.05-35.3,0-2.63-.63-4.27-3.1-5.69a18.28,18.28,0,1,1,18.87-.15c-2.77,1.6-3.33,3.47-3.32,6.33.08,23.28,0,46.55.13,69.83,0,3.84-1.16,5-4.92,4.82-8.77-.33-7.65.89-7.69-7.56C336.48,306.93,336.53,296.16,336.53,285.4Zm11.83-56.46a5.56,5.56,0,1,0-5.71,5.4,5.91,5.91,0,0,0,5.71-5.4Z"/><path class="cls-1" d="M48.7,250.25c0,11.76.06,23.53,0,35.29,0,2.63.6,4.27,3.09,5.71a18.33,18.33,0,1,1-18.56,0c2.53-1.46,3-3.17,3-5.75q-.09-34.92,0-69.83c0-5.12,0-5.17,5.18-5.13,8.35,0,7.3-.91,7.34,7.45C48.74,228.74,48.7,239.49,48.7,250.25ZM48,307a5.88,5.88,0,0,0-5.45-5.67,5.56,5.56,0,1,0-.22,11.11h0A5.88,5.88,0,0,0,48,307Z"/><path class="cls-1" d="M313,250.41c0,11.75.05,23.52,0,35.28,0,2.45.5,4.07,2.88,5.45a18.33,18.33,0,1,1-18.23,0c2.37-1.38,2.88-3,2.87-5.45q-.06-35.12,0-70.23c0-5,0-5,5-5,8.67.06,7.52-1,7.57,7.6C313.08,228.89,313,239.64,313,250.41Zm-6.15,50.92a5.56,5.56,0,1,0,5.44,5.67,5.86,5.86,0,0,0-5.41-5.67Z"/></g></g></g></g></svg>