<svg xmlns="http://www.w3.org/2000/svg" viewBox="0 0 375.3 375.32"><defs><style>.cls-1{fill:#08313a;}</style></defs><g id="Layer_2" data-name="Layer 2"><g id="Layer_1-2" data-name="Layer 1"><path class="cls-1" d="M161.05,375.32c-2.48-.21-5-.4-7.45-.6-5.4-.42-11-.86-16.45-1.44-33-3.5-71.44-9.49-106.09-27.4a78.17,78.17,0,0,1-20-14.57C3.64,323.79-.17,315.13,0,306.24s4.32-17.45,12-24.7a86.72,86.72,0,0,1,17.89-12.93,10,10,0,0,1,4.72-1.3,7,7,0,0,1,6.14,3.6c2.23,3.76,1,8-3.16,10.56l-.72.45c-5.06,3.15-10.3,6.4-14.78,10.94-9.3,9.42-9.3,18.6,0,28.05,8.37,8.53,18.48,13.61,31.07,18.61,19,7.57,40.48,12.86,67.56,16.68a466,466,0,0,0,64.81,4.51q3.32,0,6.63,0c42.27-.58,76.44-4.88,107.54-13.53,12-3.33,27.64-8.29,42.15-17.07a54.42,54.42,0,0,0,13.65-11.29c6.73-7.93,6.63-16.26-.28-24.1-5.23-5.92-11.67-10-16.71-12.85-2.92-1.67-4.34-3.59-4.6-6.22a6.9,6.9,0,0,1,3.27-7.08,7.28,7.28,0,0,1,4.05-1.33,8.48,8.48,0,0,1,4.1,1.21c12,6.75,25,15.86,30,32.28V313c-3,10.39-9.42,18.81-20.25,26.43a103.45,103.45,0,0,1-14.84,8.74c-34.47,16.45-70.78,21.93-101.75,25.12-5.45.56-11,1-16.42,1.43-2.48.19-5,.39-7.45.6Z"/><path class="cls-1" d="M186.69,329.84c-22.55-.39-52.12-1.84-81-9.62-11.43-3.08-23.34-7.06-33-15.3-5.07-4.31-7.87-9.77-7.88-15.38s2.81-11.19,8-15.58c8.18-7,18.21-10.72,27.83-13.72a220.73,220.73,0,0,1,42.41-8.34c1.41-.15,4.7-.5,6.13-3.33s-.18-5.47-1.12-7.09c-17.83-30.42-31.29-55.93-42.33-80.29A340.56,340.56,0,0,1,91,122.91c-6.56-20.88-4.82-42.28,5.19-63.6C112.75,24,140.43,4.25,178.45.51c3.4-.34,6.84-.51,10.22-.51a97.55,97.55,0,0,1,63.84,23.4,103.31,103.31,0,0,1,34.14,57.51c3.62,17.34,1.39,35.1-7.22,57.58-12.13,31.66-27.78,61.2-47.55,95.81-.38.65-.75,1.31-1.12,2-1.11,2-2.16,3.84-3.3,5.67-.77,1.23-2.37,3.79-1.05,6.53s4.56,3.16,5.77,3.3c18.82,2.19,33,5.1,45.94,9.42,7.52,2.51,16.21,5.88,23.68,11.84,5.84,4.67,9.08,10.47,9.13,16.33s-3,11.52-8.66,16.17c-10,8.29-22.59,12.28-34.65,15.36a270.82,270.82,0,0,1-49.4,7.61C209.19,329.08,198.56,329.72,186.69,329.84Zm-29.57-64.33c-.37,0-.77,0-1.18.06-14.18,1.54-28.85,3.13-43.35,7-9.89,2.62-18.74,5.21-26.87,10.49-1.8,1.16-4.8,3.11-4.81,6.44s2.93,5.26,4.69,6.41c6.93,4.56,14.49,7.06,20.3,8.72,22.56,6.46,47.81,9.71,77.2,9.94,30.45,0,53.64-2.16,75.21-7,12-2.67,21.87-5.6,31-11.22,2.14-1.32,5.37-3.3,5.4-6.78s-3.08-5.46-5.14-6.79a60.24,60.24,0,0,0-12.27-5.86c-17.12-6.2-34.72-8.68-52.74-10.88a26.91,26.91,0,0,0-3.1-.2c-7.17,0-10.77,4.07-13.35,8-4.7,7.27-11.29,11-19.58,11a32.13,32.13,0,0,1-5.07-.43c-7.6-1.24-13.43-5.52-17.82-13.11C164.47,269.29,162.28,265.51,157.12,265.51ZM188.48,15.15c-2.25,0-4.55.09-6.81.27-28.72,2.28-51,15.72-66.3,39.94C101.73,77,98.76,99.6,106.53,122.54A378.45,378.45,0,0,0,124,164.79c14,29.23,30.81,59.61,54.45,98.5,3.27,5.39,6.91,6.52,9.38,6.52s6.15-1.15,9.48-6.61c11.68-19.15,21.57-36.11,30.22-51.85,13.55-24.62,27.66-51.06,38.34-79.64,4-10.56,7.49-21,7.49-32.56a80.85,80.85,0,0,0-.66-9C268,48.08,231,15.15,188.48,15.15Z"/><path class="cls-1" d="M187.4,131.6c-21.19-.08-37.73-17.06-37.66-38.67.07-20.62,17.11-37.55,38-37.75h.35A37.25,37.25,0,0,1,214.6,66.26a38.51,38.51,0,0,1,11.29,27.51c0,21.21-16.89,37.83-38.33,37.83Zm.33-61.35A23.56,23.56,0,0,0,164.55,93.5a23.26,23.26,0,0,0,46.52-.16,22.71,22.71,0,0,0-6.79-16.17,23.46,23.46,0,0,0-16.47-6.92h-.08Z"/></g></g></svg>