<svg xmlns="http://www.w3.org/2000/svg" viewBox="0 0 375.88 375.21"><defs><style>.cls-1{fill:#08313a;}</style></defs><g id="Layer_2" data-name="Layer 2"><g id="Layer_1-2" data-name="Layer 1"><path class="cls-1" d="M188,375.2H10.72c-8.63,0-10.7-2-10.71-10.54s0-16.92,0-25.38c0-6,2.73-8.67,8.8-8.75,1,0,2-.07,2.95,0,2.25.18,3-.88,3-3-.08-5.89-.05-11.77,0-17.66s2.74-8.65,8.83-8.73c1,0,2-.07,2.94,0,2.28.18,3-.93,3-3.08-.08-5.4,0-10.79,0-16.19,0-7.88,2.22-10.13,10-10.18a12,12,0,0,1,1.47,0c2.66.31,3.36-1,3.32-3.47-.11-6.74,0-13.49,0-20.23,0-22.32-.07-44.64.07-67,0-3.51-1-4.67-4.53-4.58-8.09.2-10.25-2.13-10.26-10.17,0-5.39-.07-10.79,0-16.19,0-2.22-.83-3.15-3-3a36.3,36.3,0,0,1-4,0c-4.67-.21-7.53-3-7.62-7.68-.11-6.13-.13-12.26,0-18.39.05-2.6-.93-3.58-3.45-3.36a28.82,28.82,0,0,1-4.05,0C3,117.3.11,114.53.08,110.26,0,97.88,0,85.49,0,73.11c0-4.39,2.86-6.47,6.59-7.83Q30.12,56.7,53.58,48.07C95.69,32.6,137.83,17.22,179.87,1.56a21.7,21.7,0,0,1,16.25,0q85.33,31.59,170.82,62.82c8.05,3,8.91,4,8.91,12.49q0,15.63,0,31.27c0,6.88-2.49,9.39-9.22,9.45-5.49,0-5.49,0-5.49,5.67,0,5,0,10.06,0,15.09-.06,5.85-2.75,8.59-8.52,8.66-6.72.09-6.17-.81-6.19,6.46,0,4.9,0,9.81,0,14.71-.07,5.36-2.85,8.17-8.17,8.26-7.1.13-6.52-1.06-6.52,6.86q0,41.76,0,83.51c0,4.78,0,4.78,4.88,4.8,7.52.05,9.82,2.36,9.83,10,0,5.15.19,10.31-.06,15.45-.17,3.34,1.1,4.47,4.24,4.06a15.87,15.87,0,0,1,2.58,0c5.08.17,7.86,2.95,7.94,8.12.08,5.51.23,11-.05,16.55-.19,3.62.79,5.39,4.65,4.77a13,13,0,0,1,2.57,0c4.49.23,7.45,3,7.51,7.4q.18,14.9,0,29.8c-.06,4.45-3,7.19-7.49,7.42-1.34.07-2.7,0-4.05,0Zm0-228.14c-26.74,0-53.48.06-80.21-.07-3.44,0-4.5,1-4.34,4.4.25,5,.07,10.05.07,15.08,0,7.75-2.28,10.2-10.12,9.94-3.85-.13-4.7,1.18-4.68,4.82.14,28,.08,55.93.08,83.89,0,7.57-.47,6.44,6.47,6.55,5.35.09,8.16,2.86,8.22,8.2.08,5.89.14,11.78,0,17.66-.07,2.74.89,3.66,3.61,3.61,7-.15,14-.25,21,0,3.7.15,4.48-1.24,4.46-4.65-.15-19.26-.08-38.52-.06-57.77a54.1,54.1,0,0,1,.24-7c3.73-28.07,28.39-51.19,60.61-48.28,30.78,2.77,50.65,29.76,50.12,55.42-.4,19.25,0,38.51-.16,57.77,0,3.63,1.16,4.6,4.63,4.48,7-.24,14-.15,21,0,2.52,0,3.51-.8,3.44-3.39-.14-5.27,0-10.54,0-15.82,0-8.06,2.17-10.39,10.24-10.19,3.56.09,4.57-1,4.55-4.56C287,239.09,287,211,287,182.91c0-7.26.51-6.33-6.22-6.42-5.76-.08-8.44-2.82-8.48-8.7-.05-5.27,0-10.55,0-15.82,0-4.89,0-4.9-4.79-4.9Zm-.52-44.67H333.19c7.85,0,15.7-.12,23.54.06,3.12.08,4-1,3.94-4-.2-5-.27-10.06,0-15.07.2-3.51-1-5.11-4.38-6.34Q274.62,47.2,193.07,17a13.61,13.61,0,0,0-10.19,0C159.46,25.78,136,34.35,112.51,43Q65.57,60.21,18.62,77.4c-2.43.89-3.54,2-3.43,4.75.21,5,.05,10.06.06,15.08s0,5.16,5.27,5.16ZM187.93,360H351.67c8.95,0,8.95,0,8.94-8.85,0-5.35,0-5.36-5.44-5.36H24.37c-9.14,0-9.14,0-9.12,9,0,5.16,0,5.16,5.26,5.16Zm0-242.34h-149c-8.95,0-8.95,0-8.94,8.85,0,5.34,0,5.35,5.44,5.35H336.77c9.14,0,9.14,0,9.13-9,0-5.17,0-5.17-5.27-5.17Zm0,212.9H337c8.95,0,8.95,0,8.95-8.85,0-5.35,0-5.35-5.45-5.35H39.09c-9.14,0-9.14,0-9.12,9,0,5.16,0,5.17,5.26,5.17Zm7.62-80.32q0,23.53,0,47.08c0,2.11,0,3.87,3,3.84,8.95-.12,17.9-.08,26.86,0,2.06,0,2.83-.85,2.8-2.86-.06-4.78.06-9.57,0-14.35-.27-16.42.82-32.87-.56-49.26a39.15,39.15,0,0,0-27.83-34.07c-4.05-1.24-4.19-1.15-4.19,2.93Q195.53,226.85,195.55,250.21Zm-15.24,0q0-23.18,0-46.35c0-4.6-.05-4.62-4.56-3.15-16.92,5.49-27.72,20.26-28,39.1-.26,19.25,0,38.5-.11,57.75,0,2.73.88,3.65,3.6,3.61,8.34-.14,16.68-.2,25,0,3.35.09,4.11-1.14,4.08-4.27C180.24,281.32,180.31,265.75,180.31,250.18ZM73.6,224.44V186.17c0-9.7,0-9.52-9.58-9.76-3.82-.09-4.72,1.14-4.7,4.81.15,26.86.08,53.72.08,80.58,0,10,0,9.83,10.14,9.93,3.3,0,4.16-1.07,4.13-4.24C73.52,253.14,73.6,238.79,73.6,224.44Zm242.86-.35V186.2c0-9.73,0-9.55-9.57-9.79-3.78-.09-4.73,1.09-4.71,4.78.15,26.86.08,53.73.08,80.59,0,10,0,9.85,10.12,10,3.27,0,4.18-1,4.14-4.22C316.37,253,316.46,238.57,316.46,224.09Zm-249.66-77H55c-10.5,0-10.38,0-10.41,10.4,0,3.21,1.22,3.9,4.12,3.86,9.69-.14,19.38,0,29.07,0,10.94,0,10.86,0,10.58-11-.07-2.68-1.13-3.33-3.55-3.29C78.82,147.14,72.81,147.07,66.8,147.06Zm242.56,0c-6.26,0-12.51.05-18.77,0-2.17,0-3.17.72-3.07,3a68.55,68.55,0,0,1,0,7.72c-.19,2.79,1,3.59,3.65,3.56,9.81-.12,19.62-.05,29.43,0,11,0,10.9,0,10.65-10.88-.06-2.59-1-3.41-3.48-3.36C321.62,147.15,315.49,147.07,309.36,147.07Zm-242.87,154c6.25,0,12.51,0,18.76,0,2.16,0,3.19-.7,3.09-3a68.55,68.55,0,0,1,0-7.72c.19-2.78-1-3.61-3.63-3.57-9.81.11-19.63,0-29.44,0-11,0-10.9,0-10.66,10.86.06,2.58.94,3.43,3.46,3.38C54.22,301,60.36,301.09,66.49,301.09Zm242.54,0c6.38,0,12.75-.06,19.13,0,2.21,0,3.13-.8,3-3a68.56,68.56,0,0,1,0-7.72c.21-2.84-1-3.55-3.68-3.52-9.93.11-19.87,0-29.8,0-10.41,0-10.3,0-10.26,10.54,0,3,1.11,3.78,3.9,3.71C297.25,301,303.14,301.09,309,301.09Z"/><path class="cls-1" d="M213.94,62.28c0,14.65-11.46,25.94-26.22,25.9-14.57,0-25.85-11.54-25.8-26.32a26,26,0,0,1,52,.42Zm-15.31,0c.08-5.45-5-10.66-10.51-10.81s-10.67,4.9-10.9,10.43,5.1,11,10.71,11C193.39,72.88,198.56,67.76,198.63,62.27Z"/></g></g></svg>