<svg xmlns="http://www.w3.org/2000/svg" viewBox="0 0 448.98 375.32"><defs><style>.cls-1{fill:#08313a;}</style></defs><g id="Layer_2" data-name="Layer 2"><g id="Layer_1-2" data-name="Layer 1"><path class="cls-1" d="M0,236.76c7.64-8.86,16.32-16.69,24.5-25,8.9-9.06,18-17.9,26.88-27a16.12,16.12,0,0,1,12.44-5.16c36.21.12,72.42.07,108.63.06,6.25,0,6.27,0,6.27-6.32,0-13.87,0-27.74,0-41.61,0-3.06-.62-5.18-3.31-7.35-10.38-8.38-10.25-8.55-.89-17.91,12.6-12.59,25.14-25.24,37.84-37.73a11.69,11.69,0,0,0,3.88-9.2c-.17-18,0-35.92-.15-53.87,0-4.18,1.33-5.52,5.52-5.62a47.69,47.69,0,0,1,20.84,3.9c8.81,3.88,17.85,7.25,26.8,10.81,4,1.57,7.67,3.49,7.64,8.46s-3.51,7-7.55,8.56c-11.13,4.38-22.19,9-33.37,13.23-2.83,1.08-3.69,2.56-3.72,5.46-.14,14.11-.21,14.11,9.88,24.2,12.39,12.39,24.72,24.83,37.22,37.11,2.59,2.55,2.8,4.34,0,6.67s-4.89,5.44-8.05,7.37c-1.91,1.16-1.45,3-1.45,4.72,0,14.6.11,29.21-.11,43.8-.06,4.33,1.53,5.41,5.61,5.4,35.92-.13,71.84,0,107.75-.18,6.17,0,10.79,1.77,15.11,6.2q22.49,23,45.52,45.53c3.75,3.67,5.66,7.55,5.18,12.78-.28,3,0,6.13-.06,9.2-.07,6.48-2.71,9.77-9.11,9.71-5.07-.05-5.94,1.94-5.88,6.46.23,18.39.17,36.79,0,55.19,0,3.54,1,4.87,4.68,4.83,8-.09,10.26,2.44,10.28,10.57,0,8.61,0,17.22,0,25.84,0,5.92-2.74,8.77-8.69,9.35-1.45.14-2.92.08-4.38.08q-211.56,0-423.11.05c-4.86,0-9.33-.52-12.66-4.52V334c2.46-4,6.2-5.07,10.56-4.66,3,.29,4.1-1,4.08-4q-.15-29.1,0-58.22c0-2.72-.82-4.15-3.74-4A12.66,12.66,0,0,1,0,258.66ZM89.21,247c23.07,0,46.13-.1,69.2.08,4.27,0,5.5-1.36,5.44-5.51-.22-13.72-.15-27.45,0-41.17,0-3.26-.88-4.72-4.45-4.71q-46.64.15-93.28,0A7.12,7.12,0,0,0,60.64,198q-21.47,21.57-43,43.07c-1.24,1.24-2.78,2.52-2.14,4.49.74,2.33,2.94,1.43,4.53,1.44Q54.61,247.08,89.21,247Zm269.53,0H414.8c5,0,9.92,0,14.89,0,1.25,0,2.79.34,3.37-1.31.48-1.39-.22-2.55-1.13-3.57-.59-.65-1.2-1.28-1.82-1.9q-20.75-20.74-41.46-41.53a9,9,0,0,0-6.9-3q-46,.12-92,0c-3.8,0-5.12,1.15-5.07,5,.18,13.58.24,27.16,0,40.73-.09,4.46,1.32,5.72,5.73,5.68C313.19,246.92,336,247,358.74,247ZM224.26,345.39H22.81c-1.6,0-3.21,0-4.81.07-.9,0-2,.18-2.24,1.06a21,21,0,0,0-.07,11.21c.83,2.71,4.11,1.38,6.27,1.39q202.33.08,404.65,0c1.32,0,2.63,0,3.94,0,.9,0,2.06-.1,2.27-1a21.78,21.78,0,0,0,0-11.22c-.85-2.75-4.1-1.49-6.26-1.49Q325.41,345.35,224.26,345.39Zm-44.39-83.14c0,19.27-.08,38.54,0,57.8,0,10.52-1.92,9.12,9.68,9.33,3.07.05,4.15-1.2,4.11-4.15q-.13-11.16,0-22.33c.28-21.88-.89-43.79.61-65.65.8-11.79,7.28-20.29,18-24.95,10.9-4.73,21.42-3.2,30.87,4.14,9.13,7.1,11.71,17,11.71,28q0,37.89,0,75.76c0,10.38-1,8.93,9.1,9.22,3.62.11,4.77-1.1,4.76-4.73q-.17-62,0-123.93c0-3.79-1.06-5.06-4.95-5q-39.41.21-78.82,0c-4,0-5.23,1.24-5.19,5.25C180,221.38,179.87,241.81,179.87,262.25Zm-82.63.89h-60c-6.62,0-6.64,0-6.64,6.46q0,25.41,0,50.8c0,10.15-1,8.73,9.31,9,3.44.09,4.61-1.06,4.54-4.51-.18-8.61-.21-17.23,0-25.84A23,23,0,0,1,65.93,277c11.26-.87,21.8,7.53,23.75,19,1.39,8.12.48,16.31.66,24.47.23,10.15-1.27,8.73,9.26,9,3.47.09,4.6-1.15,4.52-4.55-.17-8.17-.23-16.36,0-24.52.4-13.38,10.37-23.42,22.93-23.42,12.74,0,22.75,10.33,22.95,23.81.1,6.71,0,13.43,0,20.14.07,9.53-1.11,8.21,8.33,8.56,4.25.16,5.51-1.28,5.47-5.47q-.28-27.58,0-55.17c0-4.44-1.35-5.77-5.75-5.73C137.82,263.25,117.53,263.14,97.24,263.14Zm254.1,0c-20.44,0-40.87.08-61.31-.07-4,0-5.36,1.18-5.32,5.24.17,17.22,0,34.45.09,51.67.05,10.61-1.51,9.18,9.71,9.4,3.1.06,4.09-1.13,4-4.11-.12-8-.1-16.06,0-24.09.13-13.82,10-24.26,22.93-24.27,12.72,0,22.65,10.2,23,23.83.16,6.56,0,13.13.05,19.7.11,10.09-1.41,8.68,9.25,9,3.52.09,4.56-1.26,4.5-4.61-.16-8-.27-16.06,0-24.08.51-14,10.69-24.15,23.46-23.8,13,.36,22.35,10.71,22.41,24.74,0,6.42,0,12.85,0,19.27.08,9.46-1.18,8.15,8.38,8.5,4.25.16,5.53-1.31,5.49-5.49q-.27-27.58,0-55.17c.05-4.49-1.48-5.74-5.82-5.7C391.92,263.25,371.63,263.14,351.34,263.14ZM223.83,179.63c8.6,0,17.2-.07,25.81,0,2.9,0,4.2-.83,4.18-4q-.15-25.16,0-50.31c0-3.28-1.25-4.31-4.38-4.3q-25.16.14-50.31,0c-3.11,0-4.43,1-4.41,4.28q.18,25.15,0,50.31c0,3.12,1.23,4,4.16,4C207.2,179.55,215.51,179.63,223.83,179.63ZM209.68,297.91c0,9.19.07,18.38,0,27.57,0,2.79.9,3.95,3.79,3.9,7.14-.13,14.3-.15,21.44,0,3.07.06,4.06-1.09,4-4.1q-.14-27.35,0-54.71c0-2.7-.43-3.81-3.45-2.51a27.31,27.31,0,0,1-22.12.08c-3.18-1.35-3.73-.36-3.69,2.62C209.75,279.81,209.68,288.86,209.68,297.91Zm39.83-193.12c-8.29-8.31-15.79-15.82-23.28-23.34-1.73-1.73-3.08-.88-4.45.51-3.8,3.83-7.59,7.66-11.45,11.43-3.6,3.51-7.29,6.93-10.94,10.39l.76,1ZM224.42,254.21a14.19,14.19,0,0,0,14.34-14.44,14.71,14.71,0,0,0-14.41-14.13c-7.84,0-14.63,6.69-14.56,14.41A14.17,14.17,0,0,0,224.42,254.21ZM133.89,313c0-4.08.08-8.17,0-12.25-.13-4.82-2.55-7.54-6.6-7.64-4.25-.11-6.93,2.69-7,7.66q-.16,9.63,0,19.26c.16,10.56-2,9.21,10.11,9.35,2.69,0,3.63-1.14,3.58-3.69C133.84,321.44,133.9,317.21,133.89,313Zm194.44.3c0-4.09.06-8.17,0-12.26-.1-5.09-2.55-7.9-6.76-7.93s-6.78,2.72-6.87,7.8c-.1,6.27-.12,12.55,0,18.82.18,10.91-2.09,9.53,10.28,9.64,2.41,0,3.45-1,3.41-3.38C328.28,321.74,328.33,317.51,328.33,313.28ZM74.21,313c0-4.08.11-8.17,0-12.24-.16-4.86-3-7.81-7.1-7.7s-6.43,2.81-6.53,7.69c-.12,6.41-.12,12.82,0,19.23.14,10.55-1.76,9.21,10.16,9.35,2.67,0,3.64-1.08,3.58-3.65C74.15,321.48,74.23,317.26,74.21,313Zm300.13,0h0c0,2.33,0,4.66,0,7,.19,10.63-1.77,9.19,9.61,9.41,3,.06,4.18-1.05,4.14-4.07-.11-8.16,0-16.32-.08-24.48-.08-4.91-2.48-7.61-6.48-7.74s-7,2.8-7.15,7.64C374.23,304.81,374.34,308.9,374.34,313ZM247.58,23.3c-3.32-1.38-5.56-2.34-7.82-3.25-7.89-3.17-8.21-2.88-7.44,5.85.21,2.34.92,3.19,3.26,2.21C239.18,26.59,242.83,25.19,247.58,23.3Z"/><path class="cls-1" d="M232.35,140.32a39.79,39.79,0,0,0,0,4.37c.7,6.18-1.51,11-6.24,15a121,121,0,0,0-9.3,9.24c-1.69,1.78-3,1.75-4.72,0-10.68-11.17-10.33-7.15-.49-17.08,3.36-3.39,5.26-6.77,4.6-11.5a19.08,19.08,0,0,1,0-2.62c0-10.59,3-12.85,13.52-10.44,2,.45,2.59,1.61,2.59,3.41q0,4.81,0,9.62Z"/></g></g></svg>