<svg xmlns="http://www.w3.org/2000/svg" viewBox="0 0 367.78 375.32"><defs><style>.cls-1{fill:#08313a;}</style></defs><g id="Layer_2" data-name="Layer 2"><g id="Layer_1-2" data-name="Layer 1"><path class="cls-1" d="M366.41,239.19c-3.4-8.76-6.93-17.61-10-25.41-2.91-7.3-6.57-9.76-14.5-9.77h-63c-2.38,0-4,0-4.38-.44s-.45-2.1-.45-4.56,0-5.12,0-7.68c0-6,0-12.12,0-18.17a19.18,19.18,0,0,0-6.71-15.25c-1.67-1.46-3.31-3-5.13-4.61q-8.74-8-17.44-16c-14.76-13.59-30-27.64-45.44-41-6-5.19-9.49-10.11-8.42-18.58.07-.53.13-1,.18-1.44.18-1.62.31-2.69.66-3s1.94-.35,3.83-.35h13.7q17,0,34,0c3.08,0,7.34-.57,8.77-5.32,1.49-4.92-2.1-7.67-4.92-9.31l-6.5-3.74c-4.08-2.35-8.29-4.77-12.4-7.21a16.47,16.47,0,0,0-2.07-1c-1.78-.75-2.94-1.31-2.95-2.2,0-.63,1.72-1.38,2.86-1.88a17.07,17.07,0,0,0,2.06-1q5.63-3.3,11.29-6.55c3-1.71,5.92-3.41,8.87-5.14,3.23-1.88,4.58-4.67,3.9-8s-3-5.27-6.85-5.72a39.82,39.82,0,0,0-4.47-.22H195c-1.83,0-3.27,0-3.61-.32s-.32-1.69-.33-3.46c0-.51,0-1,0-1.54a28.5,28.5,0,0,0-.11-4,7,7,0,0,0-3.13-5.13,6.9,6.9,0,0,0-5.87-.78c-4.56,1.43-5.09,5.29-5.08,8.06q0,13,0,26c0,15.6,0,31.74.11,47.61,0,5.08-1.19,7.89-4.87,11.14-17.73,15.66-35.48,31.89-52.65,47.58q-9.57,8.75-19.14,17.48a18.87,18.87,0,0,0-6.41,14.61c0,6.69,0,13.37,0,20.06v6.89c0,2,0,3.54-.36,3.9s-1.78.36-3.75.36l-17.21,0c-15.49,0-31.51,0-47.26-.06h-.12c-6.56,0-11,3-13.4,9.14C8.51,221.36,5.1,230,1.39,239.54c-1,2.5-1.87,5.5-1.1,8.75,1.76,7.48,7,11.15,15.88,11.22,2,0,3.39,0,3.73.37s.34,1.79.34,3.63v19.57c0,27.25,0,55.44-.06,83.15,0,2.71.4,6.17,3.57,8.86l.27.23H343.89l.27-.23c3.16-2.61,3.58-6.13,3.57-9.23-.06-26.69-.06-53.84-.05-80.08V264.24c0-2.3,0-3.82.43-4.24s2-.46,4.38-.49c5.86-.07,10.53-2.24,13.14-6.1S368.48,244.54,366.41,239.19ZM94,242a3.37,3.37,0,0,1-.52,2.39,3.45,3.45,0,0,1-2.42.56c-5.72-.06-11.49-.07-17.21-.07H44c-8.81,0-17.91,0-26.86.05-1.68,0-2-.28-2-.32s-.21-.37.41-1.88c2.83-6.86,5.77-14.27,9-22.66a2.56,2.56,0,0,1,2.89-1.9h0c23.84.05,43.85.06,64,0a3,3,0,0,1,2,.48c.35.35.49,1,.47,2.24C93.85,227.06,93.78,234.42,94,242ZM34.44,322.61q0-6.19,0-12.4t0-12.42c0-11.45,0-23.29-.08-34.94,0-1.45.18-2.33.62-2.77s1.28-.64,2.7-.63c18.71.15,36,.14,52.83,0,1.45,0,2.32.2,2.78.66s.69,1.4.68,3c-.1,32-.1,64,0,95.06,0,1.43-.19,2.3-.61,2.72s-1.31.62-2.73.61c-8.76-.08-17.63-.11-26.55-.11s-17.75,0-26.64.11a3.65,3.65,0,0,1-2.51-.57c-.4-.41-.58-1.22-.57-2.63C34.46,346.4,34.45,334.3,34.44,322.61Zm181.41-291c-3.21,1.86-6.53,3.78-9.78,5.73s-4.83,4.32-4.84,6.92,1.68,5,4.76,6.91,6.21,3.7,9.25,5.47l2.83,1.66H192.4a1.3,1.3,0,0,1-1.05-.27,1.94,1.94,0,0,1-.3-1.22q0-12.54,0-25.09a2,2,0,0,1,.31-1.28,1.43,1.43,0,0,1,1-.26h26ZM207.43,333c.06,4.35,0,8.78,0,13.07s0,8.5,0,12.76a2,2,0,0,1-2.54,2.59c-15.34-.11-29-.11-41.85,0a2.15,2.15,0,0,1-2.69-2.82c.1-5.48.08-10.85.07-17.05,0-2.54,0-5.17,0-8,.15-3,.08-6.21,0-9.61a115.49,115.49,0,0,1,.54-17.26c1.49-11.35,11.14-19.57,23-19.57h.07A22.7,22.7,0,0,1,206.91,307a123.86,123.86,0,0,1,.57,17.73C207.43,327.45,207.39,330.26,207.43,333Zm51.94-12.72v36.94c0,2,0,3.44-.36,3.8s-1.84.36-3.88.36l-8.74,0c-7.17,0-14.58,0-21.87.08a3.43,3.43,0,0,1-2.4-.53,3.47,3.47,0,0,1-.54-2.41c.12-16.28.09-32.5,0-47.72-.06-20.14-14.82-36.55-34.34-38.16a38,38,0,0,0-40.63,31.89,34.42,34.42,0,0,0-.34,5.89v.45l0,10c0,12.13-.07,24.67.1,37,0,1.57-.19,2.52-.66,3s-1.44.67-3.1.63q-7.53-.17-15.26-.17c-5.09,0-10.23.05-15.38.16a4,4,0,0,1-2.82-.61c-.47-.46-.67-1.37-.67-2.95.09-23.72.08-47.83.07-71.14V245.08c0-23.06,0-46.9-.07-70.34a9.1,9.1,0,0,1,3.23-7.49c15.76-14.28,31.74-28.86,47.19-43l20.91-19.08c3.54-3.22,4.78-3.21,8.35,0l21.21,19.36c15.26,13.93,31,28.34,46.61,42.45a9.49,9.49,0,0,1,3.45,7.76C259.36,223.31,259.36,272.63,259.37,320.32Zm18.06-60.86c19.13.12,36.41.12,52.82,0a3.86,3.86,0,0,1,2.7.63c.44.44.63,1.32.62,2.77-.11,11.74-.09,23.67-.08,35.21q0,6.26,0,12.51t0,12.39c0,11.58,0,23.55.07,35.33,0,1.41-.16,2.22-.56,2.63a3.64,3.64,0,0,1-2.51.57c-8.52-.07-17.31-.11-26.51-.11-8.62,0-17.59,0-27,.09a3.68,3.68,0,0,1-2.42-.54,3.47,3.47,0,0,1-.55-2.4c.09-35.81.09-67.15,0-95.79a3.75,3.75,0,0,1,.64-2.65C275,259.65,275.92,259.45,277.43,259.46Zm-.53-14.52a3.28,3.28,0,0,1-2.41-.55A3.38,3.38,0,0,1,274,242c.16-6.91.16-14,0-21.14a3,3,0,0,1,.48-2.16,3.25,3.25,0,0,1,2.29-.54h.05c18.9.08,39.6.09,63.29,0h0c1.91,0,2.73.55,3.38,2.25,2.76,7.3,5.74,14.82,8.84,22.34.61,1.5.43,1.84.41,1.87s-.29.34-2,.32c-9.14-.08-18.44-.06-27.44-.05H303.45C294.75,244.86,285.75,244.84,276.9,244.94Z"/><path class="cls-1" d="M225.15,168.3a40.47,40.47,0,0,0-40-39.87H185a40.43,40.43,0,0,0-28.32,12.21,39.22,39.22,0,0,0-11.55,28c.28,21.7,18.49,39.87,39.87,39.87h.36C207,208.31,225.26,189.89,225.15,168.3Zm-14.65.33a25.42,25.42,0,0,1-25.42,25.27h0a25.41,25.41,0,1,1,.24-50.82h.07A25.38,25.38,0,0,1,210.5,168.63Z"/><path class="cls-1" d="M165.3,219.7c-9.16-.37-18.59-.38-28.81,0-9.39.33-15.23,5.82-16,15.07a94.61,94.61,0,0,0,0,15.79c.74,8.86,7.14,14.7,16.28,14.87,1.81,0,3.62,0,5.43,0h8.59c1.39,0,2.77,0,4.16,0,3.11,0,6.33,0,9.5,0,10.16-.12,16.66-6.49,16.94-16.63.12-4.11.08-8.22,0-12C181.21,226.47,175.2,220.1,165.3,219.7Zm-30.38,20.09v-3.22a2.54,2.54,0,0,1,.54-1.82,2.48,2.48,0,0,1,1.8-.55H164.5a2.17,2.17,0,0,1,1.73.58,2.88,2.88,0,0,1,.51,1.9v2.67c0,2.94,0,6,0,9a2.61,2.61,0,0,1-.5,1.91,2.65,2.65,0,0,1-2,.53c-3.17-.05-6.39,0-9.51,0H146.8c-3,0-6.06,0-9.1,0a3.12,3.12,0,0,1-2.27-.58,2.67,2.67,0,0,1-.54-2C134.94,245.4,134.93,242.55,134.92,239.79Z"/><path class="cls-1" d="M231.77,219.72c-10.22-.41-20.16-.4-29.53,0s-15.27,6.5-15.65,15.89c-.21,5-.2,9.51,0,13.91.46,9.47,7,15.7,16.53,15.87,3.14.06,6.33,0,9.41,0l4.07,0,4.61,0,4.4,0c1.85,0,3.72,0,5.57-.06,9.17-.25,15.38-5.81,16.2-14.51a87.77,87.77,0,0,0,0-16.53C246.51,225.41,240.83,220.08,231.77,219.72Zm-30.59,17.15a2.82,2.82,0,0,1,.57-2.08,3,3,0,0,1,2.16-.61h0c8.93,0,18,0,26.53,0h0a2.73,2.73,0,0,1,2,.58,2.69,2.69,0,0,1,.56,2c0,4.7,0,8.29,0,11.64a2.54,2.54,0,0,1-.52,1.85,2.77,2.77,0,0,1-2.09.56c-3.17,0-6.39,0-9.51,0H217c-1.33,0-2.66,0-4,0-3,0-6.06,0-9.1,0a3,3,0,0,1-2.18-.55,2.79,2.79,0,0,1-.52-2.07C201.26,244.4,201.23,240.68,201.18,236.87Z"/><path class="cls-1" d="M56.34,327.34c2.63.11,5.27.16,7.9.16s5.25-.05,7.84-.16c8.42-.37,14.64-6.87,14.79-15.47,0-3.44,0-6.94,0-10.33,0-1.54,0-3.08,0-4.62V296c0-1.27,0-2.54,0-3.81,0-3.46,0-7.05,0-10.58A14.81,14.81,0,0,0,72,266.74c-5.22-.11-10.5-.07-15,0-8.6.1-15.24,6.47-15.45,14.82-.26,10.27-.26,20.7,0,31A15.17,15.17,0,0,0,56.34,327.34Zm-.22-44c0-1.64.72-2.36,2.42-2.38,4-.06,7.92-.06,11.61,0,1.34,0,2.58.4,2.56,3.05,0,3,0,6,0,9v7.47c0,3.26,0,6.52,0,9.78a2.8,2.8,0,0,1-.56,2,2.6,2.6,0,0,1-1.86.54h-.06c-2.16,0-4.31,0-6.47,0H58.2a2.2,2.2,0,0,1-1.61-.47,2.32,2.32,0,0,1-.48-1.66q0-10.92,0-21.83Z"/><path class="cls-1" d="M281.06,311.87c.14,8.58,6.35,15.09,14.77,15.47q3.87.18,7.83.18c2.62,0,5.27-.06,7.92-.18a15.2,15.2,0,0,0,14.81-14.76c.26-10.22.26-20.65,0-31-.21-8.35-6.85-14.73-15.45-14.84-4.41-.06-9.64-.1-15,0a14.81,14.81,0,0,0-14.9,14.86c-.08,3.46-.06,7,0,10.38,0,1.65,0,3.29,0,4.94,0,1.46,0,2.93,0,4.39C281,304.77,281,308.35,281.06,311.87Zm14.18-11.19c0-1.26,0-2.53,0-3.79s0-2.55,0-3.83c0-2.92,0-5.93,0-8.9a3.53,3.53,0,0,1,.68-2.61,3.07,3.07,0,0,1,2.27-.68h.06c4.16,0,7.62,0,10.91,0a2.86,2.86,0,0,1,2.08.6,3.08,3.08,0,0,1,.63,2.2c0,9.36-.05,17.82,0,26.51a2.18,2.18,0,0,1-2.74,2.62c-4.3-.09-7.78-.09-10.95,0a3.16,3.16,0,0,1-2.33-.59,3.54,3.54,0,0,1-.64-2.58C295.27,306.64,295.26,303.61,295.24,300.68Z"/><path class="cls-1" d="M193.37,160.23c-.62-.63-.75-2.26-1-5.23-.36-4.49-3.34-7.61-7.27-7.61h-.05c-3.91,0-6.95,3.27-7.23,7.72-.11,1.71-.09,3.43-.07,5.1,0,.62,0,1.25,0,1.87,0,5.81.15,9.48,2.2,11.53s5.39,2.17,10.75,2.17c1,0,2,0,3,0l2.16,0c.9,0,1.8,0,2.69-.08,4.39-.29,7.65-3.47,7.58-7.38s-3.17-6.83-7.73-7.17C195.57,161,194,160.85,193.37,160.23Z"/></g></g></svg>