<svg xmlns="http://www.w3.org/2000/svg" viewBox="0 0 461.28 375.32"><defs><style>.cls-1{fill:#08313a;}</style></defs><g id="Layer_2" data-name="Layer 2"><g id="Layer_1-2" data-name="Layer 1"><path class="cls-1" d="M461.28,199.41c-3.17,7.33-8.7,10.89-16.72,10.19-3.57-.31-4.63,1.1-4.62,4.62q.15,56.25,0,112.51c0,3,.73,4.44,3.88,5.28,6.61,1.78,10.43,7.17,10.55,14,.09,5.1.14,10.2,0,15.3a14.24,14.24,0,0,1-13.77,13.92c-1.05,0-2.1,0-3.15,0q-206.57,0-413.13.06c-5.79,0-10.65-1.37-14.23-6.09-4.26-5.6-4-26.88.36-32.41a13.46,13.46,0,0,1,8.25-5.09c2.52-.47,3-1.8,3-4.06q-.06-57.15,0-114.3c0-2.65-.88-4-3.64-3.75a30.89,30.89,0,0,1-3.6,0A14.58,14.58,0,0,1,.69,190.49,34.3,34.3,0,0,1,3,185.12c11-22,22.13-43.93,32.93-66,3.73-7.63,9.07-11.49,17.71-11,6,.36,12,0,18,.1,5.19.08,8.25,2.93,8.25,7.47s-3.06,7.42-8.21,7.51c-5.55.09-11.1.12-16.65,0-2.53-.06-4.18.67-5.36,3.07q-8.8,18-17.89,35.83c-1.3,2.58-1.17,3.75,2.15,3.74q46.14-.09,92.26,0c1.76,0,3.46-.16,3.47-2.48,0-8.79,0-17.58,0-27.3-4.19,3.4-7.65,6.18-11.07,9-4.94,4.1-10.4,5.34-16.31,2.56s-8.82-7.79-8.61-14.51a126.45,126.45,0,0,0,0-13.49c-.52-6.79,2.18-11.75,7.33-16,16.8-13.81,33.45-27.79,50.16-41.72Q185,33.67,218.88,5.43c8.7-7.26,15.28-7.24,24,.07q58.22,48.57,116.54,97c5.88,4.87,9.36,10.22,8.61,18.11-.42,4.46-.1,9-.08,13.49,0,6.19-2.85,10.65-8.23,13.41s-10.54,2-15.25-1.49c-4-2.92-7.71-6.17-11.47-9.21-1.47.41-1,1.48-1,2.26,0,7.5.08,15-.07,22.5-.06,3,.86,4.28,4.09,4.27q45.68-.14,91.35,0c3.14,0,4.14-.65,2.53-3.81-6.07-11.89-12-23.85-17.92-35.82a4.78,4.78,0,0,0-4.92-3c-5.7.12-11.41.1-17.1,0-5.14-.08-8.2-3-8.16-7.56s3.08-7.34,8.3-7.41c6.3-.09,12.61.17,18.9-.08,7.68-.31,12.78,3,16.14,9.82q17.58,35.47,35.34,70.86l.8,1.6ZM316.94,226.84c0-33,0-66,.07-99a8.85,8.85,0,0,0-3.62-7.61Q274.08,87.69,235,54.83c-3.19-2.69-5.25-2.54-8.37.08q-39.06,32.86-78.41,65.4a8.88,8.88,0,0,0-3.53,7.65q.12,99,.11,198c0,2.09-1.25,5,2.7,5.51,6.81.85,8.78.11,10-4.33,1.26-4.78,2.29-9.63,3.8-14.33,2-6.19,7.09-10.16,13.43-10,4.37.09,5.55-1.35,5.53-5.64-.18-28.8-.11-57.59-.08-86.38,0-10.52,5.6-16.11,16.09-16.12q34.42,0,68.84,0c10.93,0,16.5,5.64,16.5,16.68q0,43.18-.05,86.38c0,3.52.76,5.09,4.7,5.06,7.47-.06,12.39,3.8,14.57,11,1.34,4.44,2.3,9,3.49,13.49s2.45,4.79,9.58,4.26c4.3-.33,3-3.4,3-5.64Q317,276.32,316.94,226.84ZM36.72,270.08c0,18.9.07,37.8-.06,56.71,0,3.46,1,4.72,4.59,4.7q41.85-.19,83.71,0c3.8,0,4.82-1.27,4.81-4.93q-.15-56,0-112.07c0-3.65-1-5-4.81-4.93q-41.62.21-83.26,0c-4,0-5.09,1.28-5.05,5.17C36.82,233.17,36.72,251.62,36.72,270.08Zm295.26.11c0,18.75.1,37.51-.09,56.26,0,4,1.29,5.07,5.17,5.05q41.42-.22,82.82,0c3.88,0,5.18-1,5.16-5.05q-.21-55.81,0-111.62c0-4.24-1.34-5.3-5.4-5.28q-41.17.24-82.36,0c-4.06,0-5.46,1-5.41,5.28C332.1,233.28,332,251.74,332,270.19Zm-101.59,90H430.68c1.8,0,3.6,0,5.4,0,1.05,0,2.48.1,2.78-1a22.26,22.26,0,0,0,.16-11.11c-.75-3.06-4.14-1.59-6.32-1.59q-201.85-.11-403.72-.06c-1.35,0-2.71-.06-4,.07-.7.06-1.82.34-2,.77a21.18,21.18,0,0,0-.24,11.49c.6,2.55,3.63,1.39,5.57,1.39Q129.35,360.27,230.39,360.23ZM108.77,133.14c1.43-1.16,2-1.61,2.58-2.08q56.16-46.77,112.32-93.54c5.93-4.93,8.47-4.92,14.49.1Q294,84.1,349.81,130.57c.81.68,1.41,2,3.14,1.45a72.84,72.84,0,0,1,.06-8.49c.54-4.51-1.31-7.45-4.73-10.29Q291.49,66.17,235,18.8c-3.22-2.71-5.3-2.5-8.36.13-11.84,10.15-23.89,20-35.86,30Q151.67,81.5,112.64,114c-1.66,1.38-3.89,2.46-3.88,5.18C108.78,123.53,108.77,127.84,108.77,133.14Zm86.39,122.53c0,14.26.06,28.51,0,42.76,0,3.06.92,4.32,4.12,4.24,6.74-.18,13.5-.16,20.25,0,3,.07,3.89-1.14,3.88-4q-.11-42.54,0-85.07c0-3.31-1.4-4.06-4.34-4-6.45.14-12.91.22-19.35,0-3.65-.14-4.63,1.24-4.59,4.71C195.24,228.07,195.15,241.87,195.16,255.67Zm43.2.14c0,14.11.07,28.21-.05,42.31,0,3.17.76,4.67,4.26,4.56,6.75-.22,13.5-.14,20.25,0,2.69,0,3.74-.94,3.74-3.68q-.09-42.75,0-85.51c0-3-1.19-3.91-4-3.85-6.44.12-12.9.21-19.35,0-3.7-.14-4.95,1.07-4.9,4.84C238.47,228.21,238.36,242,238.36,255.81Zm-7.73,75.61c18,0,36-.07,54,.06,3.71,0,5.09-1,3.64-4.65a20.8,20.8,0,0,1-.67-2.61c-1.66-6.57-1.66-6.57-8.61-6.57-31.34,0-62.68-.06-94,0-10.68,0-8.49-1.83-11.57,9.14-1.07,3.81,0,4.68,3.71,4.65C194.94,331.35,212.78,331.42,230.63,331.42ZM72.63,194.6c16.32,0,32.65,0,49,0,9.07,0,7.84,1,8.19-8.21.16-4.24-1.06-5.66-5.49-5.64-30.55.18-61.11.1-91.66.1-10.39,0-10.39,0-14.89,9.34-2.06,4.29-2,4.41,2.75,4.42Q46.57,194.62,72.63,194.6Zm316.26,0h48.53c8.73,0,8.46.12,4.89-7.94-2-4.48-4.54-6-9.5-6-30.71.25-61.41.09-92.12.15-9.85,0-8.48-1.4-8.78,8.94-.11,3.72,1.12,4.91,4.86,4.88C354.14,194.5,371.51,194.6,388.89,194.6Z"/><path class="cls-1" d="M230.82,93.78a29.12,29.12,0,1,1-.2,58.23c-16.28,0-28.89-12.81-28.89-29.23A28.7,28.7,0,0,1,230.82,93.78Zm14,29.42c.4-7.29-6.11-14-13.85-14.26-6.95-.23-13.54,6-14,13.16-.49,7.42,5.84,14.4,13.36,14.73S244.35,130.89,244.77,123.2Z"/><path class="cls-1" d="M231.13,180.82c-13.93,0-27.86,0-41.79,0-6,0-9.14-2.65-9.18-7.44s3.12-7.56,9.05-7.56q41.56,0,83.13,0c6,0,9.15,2.65,9.18,7.44s-3.14,7.56-9,7.57C258.69,180.85,244.91,180.82,231.13,180.82Z"/><path class="cls-1" d="M83.12,223.41c6.14,0,12.29-.1,18.44,0,8.16.17,14.23,6.13,14.32,14.27q.23,18.43,0,36.88c-.1,8.17-6.13,14.12-14.36,14.21q-18.21.19-36.43,0a14.3,14.3,0,0,1-14.56-14.52q-.16-18.23,0-36.44c.09-8.45,6.06-14.27,14.59-14.42C71.12,223.33,77.12,223.41,83.12,223.41Zm-.32,15c-4.5,0-9,.09-13.5,0-2.63-.06-3.83.82-3.8,3.62.1,9.45.08,18.9,0,28.35,0,2.51,1,3.47,3.5,3.45,9.45-.07,18.9-.09,28.35,0,2.83,0,3.59-1.26,3.57-3.84q-.12-14,0-27.91c0-2.73-1-3.75-3.73-3.68C92.4,238.53,87.6,238.44,82.8,238.44Z"/><path class="cls-1" d="M83.58,302.62c7.93,0,15.87-.05,23.8,0,5.46.05,8.59,2.94,8.51,7.63-.07,4.5-3.15,7.33-8.35,7.35q-24.24.09-48.49,0c-5.46,0-8.59-2.95-8.51-7.64.07-4.52,3.12-7.3,8.34-7.35C67.12,302.57,75.35,302.62,83.58,302.62Z"/><path class="cls-1" d="M378.24,288.83c-6,0-12,.1-18,0a14.35,14.35,0,0,1-14.47-14.62q-.15-18,0-36c.07-8.78,6-14.7,14.69-14.77q18-.16,36,0c8.64.07,14.63,6.11,14.7,14.81q.15,18,0,36c-.08,8.47-6,14.41-14.47,14.57C390.54,288.93,384.39,288.83,378.24,288.83Zm17.91-32.39c0-4.66-.09-9.31,0-14,.08-2.77-.73-4.12-3.8-4.08-9.3.13-18.6.1-27.9,0-2.68,0-3.76.94-3.74,3.68q.15,13.95,0,27.9c0,2.57.72,3.88,3.56,3.85q14.18-.15,28.35,0c2.89,0,3.56-1.38,3.51-3.9C396.08,265.44,396.15,260.94,396.15,256.44Z"/><path class="cls-1" d="M378.49,317.64c-8.08,0-16.16.06-24.25,0-5.42-.05-8.55-3-8.45-7.7.1-4.49,3.17-7.27,8.4-7.29q24.26-.08,48.5,0c5.42,0,8.56,3,8.45,7.69-.1,4.48-3.19,7.25-8.4,7.29C394.66,317.7,386.57,317.64,378.49,317.64Z"/></g></g></svg>