<svg xmlns="http://www.w3.org/2000/svg" viewBox="0 0 372.94 372.9"><defs><style>.cls-1{fill:#08313a;}</style></defs><g id="Layer_2" data-name="Layer 2"><g id="Layer_1-2" data-name="Layer 1"><path class="cls-1" d="M0,172.11c1.4-10.68,2.79-21.35,5.58-31.79C19.22,89.41,48.78,50.64,94.45,24.37a179.41,179.41,0,0,1,103-24C239.6,3.17,277.1,18.21,309,46.2c30.69,26.91,50.67,60.43,59.35,100.27,9.93,45.59,3.64,89.08-18.79,130.15a183,183,0,0,1-46,55.2,23,23,0,0,1-2,1.56c-3.74,2.37-7.92,1.81-10.47-1.36a7.26,7.26,0,0,1,.78-10.19c3.92-3.79,8.18-7.21,12.16-10.94,19-17.8,32.82-39.07,42.09-63.34,8.87-23.23,12.08-47.32,10.87-72.07-.11-2.29-.48-4.57-.84-7.82a36.05,36.05,0,0,1-8.91,12c-5.78,5.48-11.6,4.29-14.4-3.11-3-7.82-5.66-15.74-8.65-23.55-2.19-5.7-6.87-9.58-10.89-13.9a3,3,0,0,0-3.38-.75c-1.43.69-.3,1.93-.17,2.88a8.13,8.13,0,0,1-2.74,7.19,99.55,99.55,0,0,1-39,23.27c-4.09,1.34-7.51.13-9.59-3.74-6.35-11.86-12.5-23.83-18.68-35.78a8.05,8.05,0,0,1-.93-3.11c-.45-9.21-7.18-13-14.23-16.39-2.16-1-4.6-1.55-6.78-2.58-3.85-1.82-5.52-5.7-4.25-9.31,1.37-3.86,5.16-5.75,9.35-4.94,12.7,2.43,21.35,10.8,29.45,20a8.54,8.54,0,0,1,1.74,6.53,14.67,14.67,0,0,0,2.06,8.31c3.79,7,7.54,14.11,11,21.31,1.28,2.63,2.59,2.87,5,1.73A85.62,85.62,0,0,0,289.92,143c1.43-1.14,2.17-2.05,1.05-3.86-4-6.53.37-15.69,9.29-16.31a61.92,61.92,0,0,1,15.21.54,12,12,0,0,1,6.26,2.77c6.95,6.58,14,13.11,17.26,22.54.94,2.73,2,5.43,3.19,8.74,1.14-5.6,3.45-9.87,7.36-13.16,1.8-1.52,1.68-3.18,1.09-5.22a166.71,166.71,0,0,0-30.95-59.62c-27.9-34.3-64-54.58-107.42-62l-.36,0c-11-.94-7.88-3-15.33,6.26-4.42,5.47-8.85,10.93-13.12,16.51a15.89,15.89,0,0,1-7.83,5.55C162,50.43,148.41,55.33,134.77,60A7.05,7.05,0,0,0,130,64.4c-2.62,6.66-5.39,13.25-8.16,19.84-.65,1.56-.86,2.87.27,4.38,2.64,3.48,5.15,7,7.62,10.65,1,1.5,1.7,1.68,2.91.12,7.66-9.89,17.88-14,30.25-13.37,4.81.26,8.16,3.22,8.21,7.48s-3.28,7.38-8.07,7.58c-3.75.16-7.52.26-11,1.83a17.78,17.78,0,0,0-7.25,5.91c-.75,1-2,2.18-1.32,3.52s2.22.65,3.36.59c6.76-.35,13.51-1.31,20.28,0,7.5,1.51,11,5.45,11.85,12.94.37,3.48,4.07,3.68,6.28,5.33,1.55,1.16,2.28-.49,3.26-1.31,4.21-3.52,8.87-5.34,14.43-3.64,4.64,1.42,9.27,2.85,13.94,4.13,9.68,2.65,15.69,9.18,19.49,18.12,2.84,6.7,5.61,13.42,8.52,20.08,1.21,2.77,2.64,5.46,4.11,8.1a13.9,13.9,0,0,0,11.29,7.53A35.73,35.73,0,0,1,268,186c7.07,2.44,9.94,8.68,7.3,15.71-2.13,5.72-6.27,10-10.52,14.2s-8.47,7.95-12.17,12.48c-3.1,3.8-4.29,7.9-2.56,12.5,4.15,11,1.63,20.42-6.65,28.52a19.11,19.11,0,0,0-4.78,7.63,8.72,8.72,0,0,1-.87,2c-4.54,6.82-7.59,14.43-11.38,21.59a36.43,36.43,0,0,1-25.55,18.8c-5.94,1.21-10.7-1-14.58-5.38a29.48,29.48,0,0,1-5-8.4c-4.39-10.64-8.75-21.29-12.94-32a29.24,29.24,0,0,1-.27-21c.56-1.6.9-3.27,1.37-4.9a11.72,11.72,0,0,0-3-12.08c-4.95-5.15-7.61-11.15-7.28-18.36.15-3.4-1.79-4.44-4.8-4.43-3.31,0-6.44,1.09-9.64,1.7-27.24,5.16-50.85-14.54-50.23-42.18a43.56,43.56,0,0,1,10.93-28.27c6.47-7.41,11.93-15.6,18.41-23,1.43-1.62.76-2.74-.23-4.12-5.45-7.58-10.75-15.27-16.33-22.75-2.85-3.83-3.24-7.47-1.34-11.85,4.11-9.44,7.93-19,11.79-28.56a11.08,11.08,0,0,1,7.17-6.67c13.63-4.7,27.18-9.63,40.85-14.21a16.77,16.77,0,0,0,8.91-6.35c2.44-3.45,5.21-6.67,8.07-10.3-3.24-1.11-6.24-.61-9.11-.39A170.89,170.89,0,0,0,83.3,49.92c-2.27,1.69-1.76,2.4.1,3.89,15.46,12.4,17.16,33.12,3.36,47.29-9,9.24-14.41,20.63-20.49,31.59-4.53,8.14-9.73,15.29-18,19.85-2.8,1.55-2.62,3.1-.83,5.4a100.45,100.45,0,0,1,6.35,9.31c3.2,5.25,1,10.86-5,12-7,1.34-14.09,2.32-21.18,3.15-4.08.48-8.32.72-11.86-3.76a93.41,93.41,0,0,0-.25,16c.08,2.11,1.64,1.3,2.7,1,4.4-1.36,8.84-2.62,13.14-4.25,4.07-1.55,7.43-.88,10.81,1.77,7.35,5.76,15.06,11.07,22.2,17.06a32.86,32.86,0,0,0,17.24,7.63c6.48.88,13,2.19,17.93,7.1,5.72,5.64,8.57,12.38,6.95,20.38a25.25,25.25,0,0,0,1,13.51c4.66,13.95-.57,25.3-14.15,30.92a5.33,5.33,0,0,0-3.57,4.49c-1.6,8.7-3.24,17.38-5,26-.58,2.82,0,4.58,2.51,6.35a169.58,169.58,0,0,0,74.95,29.84,166.88,166.88,0,0,0,79.17-7.72c1.83-.64,3.65-1.29,5.51-1.84,5-1.5,9,.16,10.53,4.34s-.67,8.31-5.7,10.19a198.15,198.15,0,0,1-24.71,7.37c-8.38,2-16.93,2.82-25.42,4.07H171c-.94-.18-1.87-.44-2.83-.54-23-2.48-45-8.36-65.55-19C53.06,327.81,21,287.92,5.82,234.39,2.87,224,1.54,213.31,0,202.67Zm153.24-44.26c-3.51.27-7.5.53-11.48.89a11.08,11.08,0,0,0-8.55,4.83,241.16,241.16,0,0,1-16,20.25,27.73,27.73,0,0,0-5.24,8.69c-3.62,9.89-3,19.42,3.61,27.84,6.81,8.59,15.94,11.37,26.63,9.13,3-.62,5.91-1.38,8.9-1.82,12.09-1.79,22,5,23.15,16.81.54,5.54,2,10,5.92,13.82a6.39,6.39,0,0,1,.81,1.21c5.11,8,5.38,16.59,2.32,25.13A23,23,0,0,0,184,272.2c3.66,8.71,7.14,17.5,10.77,26.22a35.7,35.7,0,0,0,2.41,4.47A2,2,0,0,0,199.9,304c5.63-2.55,11.34-5.81,13.43-11.59,2.38-6.6,4.86-12.84,9.58-18.09a7.26,7.26,0,0,0,1.3-2.59A31.65,31.65,0,0,1,233,258.09c3.43-3.2,4.31-6.74,2.82-11.15-4.37-13-.63-23.75,9-32.94,4.12-3.92,8.06-8.05,12.12-12,1.91-1.86,1.51-2.61-1.06-3-10.07-1.33-16.44-7.58-21.07-16.09A121.53,121.53,0,0,1,225,161c-3.25-10.46-9.57-16.8-20.55-18.24a6.24,6.24,0,0,1-1.4-.35,3.2,3.2,0,0,0-3.85,1.11c-5,5.71-11.06,5.85-17.55,3.12-6-2.51-11.08-6.46-16.56-9.8a8.27,8.27,0,0,1-4.35-6.35c-.23-2.29-1.46-2.8-3.42-2.68C156.15,127.91,154.93,127.85,153.24,127.85ZM91.47,242.11a7.47,7.47,0,0,0-6.13-7.82c-3.88-.93-7.83-1.59-11.74-2.39-4.13-.84-8.26-1.39-11.76-4.3-5.21-4.33-10.69-8.34-16.17-12.34-3.88-2.85-7.21-7.71-11.77-8s-9.17,2.61-13.82,4c-2.23.65-3.07,1.58-2.61,4.14A186.88,186.88,0,0,0,22,234.76c8.65,29.49,24.36,54.7,46.27,76.12.57.56,1.06,1.6,2,1.23s.71-1.43.86-2.24c1.42-7.37,3.19-14.69,4.16-22.11.83-6.37,3.79-9.86,10-11.6,8.51-2.38,9.85-5.53,7-14.1-2-6-3.25-11.92-1.08-18.13A7.1,7.1,0,0,0,91.47,242.11Zm-57.39-76.6c-1.71-2.54-3.44-5-5-7.53-2.95-4.66-2.21-8.81,2.18-12.08,3.4-2.53,6.78-5.13,10.37-7.36,4.26-2.65,7-6.32,9.61-10.57,7.88-13.13,13.71-27.65,25.36-38.29a5.13,5.13,0,0,0,.65-.88,16.63,16.63,0,0,0-5.64-24.63c-2-1.11-3.74-1.21-5.48.7-3.6,3.93-7.42,7.64-10.84,11.74A171.36,171.36,0,0,0,18,156a5.77,5.77,0,0,0,0,3.56C20.56,165.12,27.77,167.9,34.08,165.51Z"/><path class="cls-1" d="M271.92,308.38c-9.4,0-16.92-8-17.49-16.69a27.51,27.51,0,0,1,2.25-12,18.56,18.56,0,0,0,1.41-9.2c-1.16-10.06,3.48-16.77,12.38-20.74a14.3,14.3,0,0,0,7.67-7.78,41.69,41.69,0,0,1,3.3-6.45c3.32-5,10.87-4.76,13,.84,2.91,7.83,6,15.66,2.62,24.55-3.72,9.82-5.84,20.21-9.51,30.1-1.74,4.69-3.87,9.14-7.35,12.82C277.47,306.63,274.24,308.36,271.92,308.38Zm-1.54-16.82c4.58-9,6.51-18,9.28-26.73.24-.74.5-1.76-.85-1.92-2.27-.26-5.85,3.25-5.43,5.63,1,5.69,0,11-2.22,16.27A9.54,9.54,0,0,0,270.38,291.56Z"/><path class="cls-1" d="M193.61,101.24a7.69,7.69,0,0,1-7.56-8A7.42,7.42,0,0,1,194,86.09a7.94,7.94,0,0,1,7.62,8A7.55,7.55,0,0,1,193.61,101.24Z"/><path class="cls-1" d="M283.2,342a7.91,7.91,0,0,1-8,7.35,7.52,7.52,0,0,1-7.27-7.93,7.78,7.78,0,0,1,8-7.31A7.39,7.39,0,0,1,283.2,342Z"/></g></g></svg>