<svg xmlns="http://www.w3.org/2000/svg" viewBox="0 0 375.56 373.32"><defs><style>.cls-1{fill:#08313a;}</style></defs><g id="Layer_2" data-name="Layer 2"><g id="Layer_1-2" data-name="Layer 1"><path class="cls-1" d="M51,261.08V366.94c0,6.11,0,6.11-6,6.13-7.54,0-7.54,0-7.54-7.69q0-55.47,0-110.94c0-5.43,0-5.48-5.25-5.5C13.88,248.88.77,233.91.5,218.73c-.42-22.78-1-45.57.27-68.32,1.12-20.35,20.72-38.51,41.38-38.6,43.49-.17,87,0,130.46-.09,8.76,0,7.66,1.11,7.68-7.67,0-29.3,0-58.59,0-87.89,0-12.13,12-19.69,22.76-14.5a14.65,14.65,0,0,1,8.78,12.91c.19,3.53,1.45,4.27,4.7,4.25,27.74-.11,55.47-.06,83.2-.06,5.22,0,5.24,0,5.25,5.15,0,4.81.22,9.64-.06,14.45-.21,3.73,1,5,4.84,4.93,19.78-.16,39.58-.08,59.37-.08,1,0,2.08,0,3.12,0,3.11-.15,3.91,1,2.67,4C370.9,57.05,367.1,67,363,76.87a9.78,9.78,0,0,0,0,8.18c4,9.61,7.81,19.3,11.66,29,1.65,4.14,1.44,4.48-2.85,4.48-31.38,0-62.76,0-94.14.08-3.53,0-4.5-1.28-4.38-4.58.2-5.33-.05-10.68.09-16,.08-2.79-.81-4-3.76-4q-27,.12-53.9,0c-2.69,0-3.75,1-3.65,3.71.14,3.51.13,7,0,10.54-.09,2.46.77,3.43,3.35,3.51,9.14.29,9.2.38,9.12,9.46,0,5.19.42,10.4-.71,15.57-1.35,6.15-4,11.67-8.65,15.85-2.56,2.28-3.13,4.68-3.13,7.84q.09,102.72,0,205.45c0,1.31,0,2.61,0,3.91.07,2.1-.88,3.17-3,3.17H183.25c-2.16,0-3-1.12-2.94-3.2.05-1.3,0-2.6,0-3.9v-198c0-5.7,0-5.7-5.8-5.7h-43c-6.23,0-6.24,0-6.24,6.08q0,99.21-.05,198.43c0,2,1.23,5.09-1.44,5.91a19.43,19.43,0,0,1-10.77-.07c-.94-.26-1.1-1.39-1.15-2.31-.07-1.43-.09-2.86-.09-4.29V155.78c0-.52,0-1.05,0-1.57,0-5.28.28-5.55,5.48-5.55,24.87,0,49.74-.08,74.6,0,6.15,0,11.16-1.92,15.17-6.6,3.79-4.41,4.24-9.62,3.89-15.07a2.08,2.08,0,0,0-2.22-2.2c-1.3,0-2.6,0-3.9,0H47.4c-21.17,0-33.79,12.63-33.8,33.78,0,19.27,0,38.54,0,57.81,0,11.75,7.7,19.08,19.46,19.11,3.5,0,4.43-1.26,4.42-4.58-.1-25.39-.06-50.78,0-76.17,0-6.06,0-6.06,6-6.07,7.49,0,7.49,0,7.49,7.36ZM252.07,80.55c12,0,23.93-.08,35.89,0,3,0,4.1-.91,4.07-4q-.19-20.3,0-40.58c0-3.16-.88-4.3-4.18-4.28q-35.9.16-71.79,0c-3,0-4.1.89-4.07,4,.13,13.53.17,27.06,0,40.58-.05,3.6,1.35,4.34,4.6,4.3C228.4,80.46,240.23,80.55,252.07,80.55Zm69.36,24.94c10.68,0,21.36,0,32,0,2.58,0,3.28-.65,2.21-3.17-2.38-5.63-4.44-11.4-6.89-17a9.78,9.78,0,0,1-.07-8.56c2.44-5.46,4.43-11.13,6.75-16.65,1-2.35,1-3.5-2.11-3.47q-22.26.15-44.53,0c-2.89,0-3.89,1-3.84,3.86.15,7.42,0,14.84,0,22.26C305,94,305,94,293.64,94c-8.21,0-7.12-.59-7.39,7.37-.11,3.37,1.2,4.18,4.32,4.14C300.86,105.4,311.15,105.49,321.43,105.49Zm-122.84,155v-93c0-1.17,0-2.34,0-3.51,0-1.68-.85-2.17-2.52-2-2.9.24-2.7,2.21-2.7,4.22q0,94.71,0,189.42c0,.65,0,1.31.06,1.95.1,1.52,1.1,1.93,2.42,1.93s2.41-.32,2.58-1.79a35.87,35.87,0,0,0,.18-4.28Q198.6,306.93,198.59,260.45Zm0-197.25c0-14.7,0-29.39,0-44.09,0-2.17.8-5.52-2.63-5.46s-2.56,3.36-2.56,5.57q-.06,43.91,0,87.8c0,.91,0,1.82.06,2.73.07,1.51,1,2,2.36,2s2.43-.2,2.65-1.69a24,24,0,0,0,.18-3.5Q198.6,84.86,198.59,63.2Z"/><path class="cls-1" d="M81.33,99.93A37.47,37.47,0,1,1,119,62.68,37.64,37.64,0,0,1,81.33,99.93Zm24.21-37.44A24.16,24.16,0,1,0,81.32,86.77,24.12,24.12,0,0,0,105.54,62.49Z"/><path class="cls-1" d="M74.84,313.17c0-18.08.09-36.17-.07-54.25,0-3.79,1.24-5,4.94-4.9,9.57.2,8.13-.38,8.14,8.22q.08,52.69,0,105.39c0,5.39,0,5.4-5.43,5.42-8.72,0-7.57.19-7.59-7.58C74.81,348,74.84,330.61,74.84,313.17Z"/></g></g></svg>