<svg xmlns="http://www.w3.org/2000/svg" viewBox="0 0 306.48 373.19"><defs><style>.cls-1{fill:#08313a;}</style></defs><g id="Layer_2" data-name="Layer 2"><g id="Layer_1-2" data-name="Layer 1"><path class="cls-1" d="M301.81,0c3.53,2,4.68,5.11,4.67,9.14q-.09,161-.05,321.92c0,6.91-2.49,9.33-9.5,9.35H275.45c-5.67,0-5.67,0-5.67,5.85s.07,11.41,0,17.11c-.14,7.2-2.86,9.81-10,9.81H9.53c-7.16,0-9.53-2.41-9.53-9.68V47.41c0-7.48,2.31-9.77,9.79-9.79,6.55,0,13.11-.09,19.66,0,2.55.05,3.4-.88,3.37-3.4-.11-8.37.09-16.75-.1-25.12C32.63,5.1,33.87,2,37.4,0ZM15.08,205.3q0,74.28-.05,148.58c0,3,.55,4.3,4,4.3q115.62-.14,231.24,0c3.28,0,4.07-1.09,4.07-4.2q-.11-115.8,0-231.61c0-3.15-.86-4.2-4.1-4.17-17.36.14-34.72.07-52.08.06-6.89,0-9.41-2.54-9.42-9.48q0-25.48,0-51c0-5.08,0-5.09-5.25-5.09H20.29c-5.2,0-5.21,0-5.21,5.11Zm276.27-35.22V20.79c0-6,0-6-5.81-6H53.6a17.62,17.62,0,0,1-2.18,0c-2.65-.3-3.71.75-3.61,3.5.17,4.72,0,9.46,0,14.2,0,5.1,0,5.11,5.2,5.11q70.27,0,140.55-.07a13.32,13.32,0,0,1,10.28,4.28c20,20.16,40,40.3,60.28,60.21a17.78,17.78,0,0,1,5.69,13.81q-.18,101.22-.08,202.45c0,1.21.07,2.43,0,3.64-.17,2.47.84,3.5,3.4,3.43,4.48-.14,9,0,13.47,0,4.7,0,4.71,0,4.71-4.88Zm-50.16-66.91-36.94-37c0,10.88,0,22.63,0,34.37,0,2.43,1.56,2.61,3.43,2.6,7.4,0,14.79,0,22.19,0Z"/><path class="cls-1" d="M76.66,167.68c-11.29,0-22.58,0-33.86,0-7.45,0-10.33-2.75-10-10.11.78-15.31,8.07-27,20.86-35.14,2.92-1.86,3.68-2.73,1.57-6.13C49,106.16,49.11,95.14,53.79,84.58,58.61,73.72,71.16,68.21,82.4,70.92a25.85,25.85,0,0,1,20.12,24.94c.19,8-.11,15.81-5.49,22.43-1.54,1.89.1,2.43,1.36,3.18,12,7.12,19.28,17.47,21.84,31.17.11.59.24,1.19.31,1.79,1.16,10.25-1.52,13.25-11.83,13.25Zm0-15.58c8,0,16,0,24,0,3.55,0,3.91-.51,2.33-3.78-5.19-10.78-13.73-16.8-25.79-17-12.38-.18-21.19,5.79-26.61,16.81-1.69,3.45-1.33,3.94,2.45,4C60.9,152.12,68.77,152.1,76.65,152.1ZM66,99a41.61,41.61,0,0,0,.31,4.34c1,5.56,5.25,9.35,10.41,9.36s9.45-3.74,10.44-9.32A24.1,24.1,0,0,0,87.39,99c0-8.14-4.21-13.44-10.64-13.46S66.08,90.88,66,99Z"/><path class="cls-1" d="M134.59,290.5h91.34c7.13,0,10.92,2.78,10.82,7.91s-3.81,7.66-10.72,7.66q-91.35,0-182.7,0a19.83,19.83,0,0,1-4.69-.4,7.61,7.61,0,0,1,.26-14.86,23,23,0,0,1,4.7-.29Q89.1,290.48,134.59,290.5Z"/><path class="cls-1" d="M134.44,271.21q-46.41,0-92.83,0c-5.72,0-9-2.92-8.8-7.81a7.25,7.25,0,0,1,6.45-7.16,29.45,29.45,0,0,1,3.64-.09H226.37c1.09,0,2.19-.05,3.27,0a7.51,7.51,0,0,1,.17,15c-1.32.12-2.66.06-4,.06Q180.14,271.23,134.44,271.21Z"/><path class="cls-1" d="M151.05,202q-38.4,0-76.81,0c-5.63,0-8.87-3-8.65-7.95a7.25,7.25,0,0,1,6.59-7,33.91,33.91,0,0,1,3.64-.08h150.7a29.29,29.29,0,0,1,3.63.09,7.51,7.51,0,0,1-.12,14.9,38,38,0,0,1-4,.09Z"/><path class="cls-1" d="M87.67,236.87c-15.29,0-30.59,0-45.88,0-5.19,0-8.47-2.59-8.95-6.73-.53-4.6,2.41-8.26,7.22-8.72,2.41-.23,4.85-.1,7.28-.1H130c1.21,0,2.43,0,3.64,0,5.22.2,8.81,3.4,8.78,7.8s-3.62,7.68-8.87,7.71C118.25,236.92,103,236.86,87.67,236.87Z"/><path class="cls-1" d="M87.54,340.41c-15.53,0-31.05,0-46.58,0-4.67,0-7.72-2.59-8.13-6.62a7.3,7.3,0,0,1,7.43-8.39c6.43-.14,12.86-.05,19.28-.05q37.11,0,74.23,0c3.29,0,5.95.9,7.61,3.93a7.2,7.2,0,0,1-.4,7.9c-1.71,2.64-4.27,3.3-7.24,3.29C118.34,340.39,102.94,340.41,87.54,340.41Z"/><path class="cls-1" d="M189.49,152.1h37.13a13.57,13.57,0,0,1,5,.62A7.59,7.59,0,0,1,231.8,167a12.94,12.94,0,0,1-5,.71h-75a13,13,0,0,1-5.36-.81,7.55,7.55,0,0,1,.52-14.22,15,15,0,0,1,5-.56Z"/><path class="cls-1" d="M40.4,187a7.51,7.51,0,1,1-.35,15,7.51,7.51,0,0,1,.35-15Z"/></g></g></svg>