<svg xmlns="http://www.w3.org/2000/svg" viewBox="0 0 321.75 373.19"><defs><style>.cls-1{fill:#08313a;}</style></defs><g id="Layer_2" data-name="Layer 2"><g id="Layer_1-2" data-name="Layer 1"><path class="cls-1" d="M167.55,78.25c0,5.62,0,11.24,0,16.86,0,8.08-2.78,10.37-10.61,8.82-6.67-1.33-12.35,1.94-14.45,8.33A12.21,12.21,0,0,0,156.33,128l2-.38c6-1.14,9.17,1.46,9.24,7.64.06,5.08.13,10.17,0,15.25-.09,2.84,1,4,3.76,3.65a14.41,14.41,0,0,1,1.61,0c6.16,0,6.16,0,7.64-5.92,3.12-12.52,13.69-20.22,27.11-19.75,11.64.41,22,9.58,23.84,21.73.53,3.45,1.88,4,4.89,4,8.56-.15,17.13-.08,25.69,0,6.07,0,8.44,2.21,8.25,8.2-1.42,43.73-22,75.58-60.14,96.4-2,1.07-4.08,1.65-4.13,4.71-.11,6.22-.26,6.25,5.93,6.32,11.6.12,19.71,8.16,19.82,19.69,0,4.42.07,8.83,0,13.25a19.16,19.16,0,0,1-18.92,19,20.27,20.27,0,0,1-2.81,0c-2.9-.31-4.1.79-4,3.84.19,5.22.08,10.44,0,15.66a32,32,0,0,1-32,31.89q-13.44.11-26.89,0a32.07,32.07,0,0,1-31.59-31.5c0-5.08-.25-10.18.06-15.25.23-3.83-1.23-4.74-4.83-4.7-10.55.12-18-4.92-20.15-14.2a55.89,55.89,0,0,1-.13-23.11c1.75-9,9.65-14.37,19.14-14.63,2-.06,4.82,1.46,5.8-1.82,1.22-4.12-.1-7.13-3.57-9-33.25-17.54-53.32-44.82-59.43-81.88C43,119.64,83.54,63.17,141.1,53a92.81,92.81,0,0,1,18.75-1.64c5.27.15,7.62,2.37,7.68,7.59C167.6,65.4,167.55,71.82,167.55,78.25Zm0,172.36c0,5.35.05,10.7,0,16.05,0,2.17.75,3.18,3,3.16,6.42-.07,12.84-.06,19.25,0,2.05,0,2.91-.89,2.87-2.91-.06-2.8.18-5.63-.05-8.42-.39-4.81,1.6-7.67,6.07-9.57A93.16,93.16,0,0,0,233.92,223a96.85,96.85,0,0,0,22.22-50.71c.44-3.33-.37-4.89-4.18-4.78-8.55.24-17.11.08-25.67.07-7.73,0-10-2.87-8.52-10.51,1.43-7.29-2.61-13.53-9.73-15-6.54-1.37-12.89,3.2-14.44,10.21-.52,2.37.27,4.49.64,6.71.84,5-1.75,8.39-6.84,8.56-3.74.13-7.49,0-11.23.05-9.78.21-8.5-2-8.64,9.17,0,2.19.87,2.89,3,3.25,13.79,2.29,22.7,12.55,22.7,25.85s-8.89,23.51-22.73,25.8c-2.53.42-3,1.54-3,3.71C167.61,240.45,167.56,245.53,167.56,250.61Zm-13.42-5.3q0-9.23,0-18.46c0-8.37,2.67-10.62,10.77-9,5.12,1,9.33-.54,12.38-4.61,3.17-4.22,3.45-8.87.86-13.57-2.69-4.86-7.83-6.93-14.11-5.68-6.79,1.35-9.84-1.12-9.89-8.05,0-3.34,0-6.69,0-10-.16-9.46,1.63-8.19-8.64-8.37-2.44,0-3.41.67-3.83,3.29-2.1,13.4-12.56,22.4-25.67,22.43-13.35,0-23.72-8.91-25.93-22.6-.39-2.41-1.29-3.16-3.57-3.12-5.48.1-11,0-16.45,0-4.55,0-5,.52-4.4,5.19a96.46,96.46,0,0,0,18.44,45.59,93.52,93.52,0,0,0,39,30.57c4.27,1.82,6.36,4.54,6,9.23-.2,2.53.15,5.1-.08,7.62-.29,3.28,1.13,4.17,4.2,4.06,5.61-.18,11.24-.19,16.85,0,3.1.1,4.29-.85,4.19-4.09C154,259,154.14,252.13,154.14,245.31Zm-71-91.14v0c4.81,0,9.63-.1,14.44,0,4.22.11,7,2.88,6.93,6.72a31.11,31.11,0,0,1-.85,4.73c-1.54,8.6,6.89,16.06,15.32,13.77a12.79,12.79,0,0,0,8.73-15.73c-1.66-6.19,1.19-9.45,7.55-9.53,3.48-.05,7,0,10.43,0,9.55-.16,8.26,1.61,8.44-8.57,0-2.38-.55-3.47-3.23-3.89-13.45-2.12-22.45-12.53-22.49-25.62,0-13.38,8.9-23.84,22.53-26,2.72-.43,3.23-1.59,3.19-3.93-.1-5.21,0-10.43,0-15.64s-.51-5.55-5.53-4.83C124.17,69.19,103.78,80.2,87.71,99c-12.43,14.51-19.56,31.42-22.13,50.31-.47,3.48.31,5.28,4.36,5C74.33,153.91,78.76,154.17,83.18,154.17Zm77.63,154.18h47.32c8.47,0,10.24-1.8,10.25-10.43,0-1.73,0-3.47,0-5.21,0-7.43-2.08-9.47-9.59-9.48q-28.06,0-56.14,0-19.64,0-39.29,0c-8.21,0-10,1.87-10,10.22,0,1.87,0,3.75,0,5.62,0,7.17,2.15,9.27,9.39,9.28Q136.76,308.37,160.81,308.35Zm0,51.07v.31c3.88,0,7.77.08,11.64,0,12.18-.29,19.92-8.08,20.2-20.31q.11-4.62,0-9.23c-.19-9.53,1.88-8.3-9-8.44-2.4,0-3.37.85-3.32,3.28.09,5.22.1,10.44,0,15.66-.11,4-2.74,6.64-6.47,6.74-3.93.09-6.69-2.55-6.85-6.76-.13-3.48,0-7-.05-10.44-.2-9.58,1.85-8.31-8.93-8.49-2.75-.05-3.43,1.19-3.38,3.65.11,5.08.12,10.17,0,15.25-.11,4.23-2.9,6.87-6.82,6.79-3.73-.08-6.34-2.68-6.49-6.71-.13-3.48,0-7-.06-10.44-.23-9.63,2.13-8.42-9.28-8.52-2.3,0-3,1-3,3.18.08,5.22-.17,10.45.1,15.66.52,10.4,6.6,17.32,16.93,18.72C150.87,360,155.89,359.42,160.83,359.42Z"/><path class="cls-1" d="M295,116.18H278.17c-8.37,0-10.58-2.66-8.93-10.83a11.6,11.6,0,0,0-4.35-12.13,11.72,11.72,0,0,0-13.19-1.39c-5,2.44-8,7.87-6.47,13.31,2.16,7.87-1.84,11.54-9.21,11.13-7.6-.42-15.25,0-22.87-.12-5.24,0-7.53-2.38-7.6-7.66-.06-4.81-.07-9.63,0-14.45,0-2.15-.42-3.29-3-3.72-13.88-2.3-22.74-12.5-22.74-25.81S188.73,41,202.57,38.69c2.52-.42,3-1.53,3-3.7-.05-8.69,0-17.39,0-26.09,0-6.89,2-8.89,8.78-8.9C265.45,0,312,39.73,320.16,90.36a97.39,97.39,0,0,1,1.56,18.35c-.14,5-2.42,7.39-7.41,7.45C307.88,116.24,301.46,116.18,295,116.18ZM219,31.71h0c0,4.95.15,9.9,0,14.85-.18,4.61-3.62,7.18-8.19,6.43-1.06-.17-2.1-.44-3.15-.63-8.61-1.57-16.25,6.81-13.85,15.2,1.95,6.81,7.73,10.28,14.81,8.89,7.6-1.49,10.42.83,10.45,8.6,0,3.08-.05,6.16,0,9.23.22,9.63-2.09,8.4,9.28,8.5,1.95,0,2.73-.7,3.1-2.72,2.61-14.33,12.51-23,26-23,13.23,0,23.3,8.87,25.71,22.83.39,2.26,1.31,2.9,3.39,2.87,5.48-.07,11,0,16.44,0,4.75,0,5.26-.58,4.53-5.43C302.92,67.28,287.93,44,262.24,27.7a93.08,93.08,0,0,0-38.3-13.44c-4.52-.58-5-.11-5,4.62C218.93,23.16,219,27.43,219,31.71Z"/><path class="cls-1" d="M56.44,225.29a7.06,7.06,0,0,1-3.53,5.78c-7.26,4.22-14.49,8.5-21.85,12.52-4,2.18-7.83,1-9.69-2.42s-.77-7.12,3.18-9.46c7-4.15,14-8.3,21.13-12.16C50.93,216.71,56.48,219.76,56.44,225.29Z"/><path class="cls-1" d="M271.92,218.42a8.07,8.07,0,0,1,4.57,1.33c6.93,4,13.9,7.91,20.76,12,3.9,2.32,4.95,6.06,3,9.52-1.85,3.28-5.59,4.48-9.36,2.42C283.4,239.63,276,235.33,268.7,231a6.33,6.33,0,0,1-3-7.9C266.62,220,268.85,218.64,271.92,218.42Z"/><path class="cls-1" d="M83.85,20.48a7.32,7.32,0,0,1,6,3.8c4.08,7.06,8.25,14.07,12.19,21.21,2.27,4.09,1.35,7.83-2,9.85-3.53,2.14-7.35,1.1-9.84-3.07-4.19-7-8.31-14.05-12.15-21.23C75.38,26,78.39,20.56,83.85,20.48Z"/><path class="cls-1" d="M28.1,77.11A9,9,0,0,1,32,78.6C38.6,82.38,45.24,86.11,51.79,90c4.47,2.64,5.72,6.32,3.64,10s-5.94,4.42-10.48,1.88c-7-3.9-13.91-8-20.81-12-3.17-1.87-4.2-4.8-3.09-8.27C22,78.51,24.32,77.12,28.1,77.11Z"/><path class="cls-1" d="M167.54,19.6c0,4.13.08,8.27,0,12.4-.11,4.32-2.67,7-6.54,7.06-4,.07-6.76-2.66-6.81-7.17q-.12-12.4,0-24.82c0-4.32,2.64-7,6.52-7,4.06-.07,6.72,2.64,6.82,7.16C167.61,11.33,167.54,15.46,167.54,19.6Z"/><path class="cls-1" d="M19.66,154.18c4.13,0,8.27-.08,12.4,0,4.29.11,6.94,2.72,7,6.61s-2.62,6.65-6.86,6.71q-12.6.16-25.21,0c-4.28-.06-6.93-2.73-7-6.62s2.6-6.59,6.85-6.71S15.39,154.19,19.66,154.18Z"/><path class="cls-1" d="M302.18,154.18c4.13,0,8.27-.07,12.4,0,4.34.1,7,2.61,7.11,6.48.1,4-2.62,6.81-7.12,6.86q-12.4.14-24.81,0c-4.49,0-7.2-2.81-7.1-6.87.1-3.87,2.76-6.37,7.11-6.47C293.91,154.11,298,154.18,302.18,154.18Z"/></g></g></svg>