<svg xmlns="http://www.w3.org/2000/svg" viewBox="0 0 332.39 359.15"><defs><style>.cls-1{fill:#08313a;}</style></defs><g id="Layer_2" data-name="Layer 2"><g id="Layer_1-2" data-name="Layer 1"><path class="cls-1" d="M0,220.56V108.82c0-14.2,5.64-20.41,19.63-22.39a226.41,226.41,0,0,1,59.07-.74c3.45.42,5.2-.32,6-4.13A83.73,83.73,0,0,1,156.81,16c42-5.12,81.22,22.59,90.7,64,1.47,6.43,1.45,6.17,8.13,5.46a218.4,218.4,0,0,1,60.95,1.71c9.68,1.7,15.06,8.15,15.74,18,.07,1,.05,2,.05,3.06q0,112.13,0,224.25a21.15,21.15,0,0,1-.68,6.44c-1.9,6.08-6.23,8.69-12.57,7.81-20.23-2.8-40.52-4.85-61-4-27.24,1.15-54,5.33-79.91,14.12-7.91,2.69-15.1,3.4-23.27.52a261.48,261.48,0,0,0-58.87-13,281.57,281.57,0,0,0-58.77-.49c-8,.8-15.94,1.84-23.88,3C6.1,347.94.65,343.53.07,336.13c-.11-1.4-.06-2.8-.06-4.21Zm314-3.7q0-53.37,0-106.73c0-2.83-.28-4.85-3.74-5.39a200.79,200.79,0,0,0-52.57-1.37c-7.7.84-7.72,1.08-9,8.64-3.19,18.82-11.26,35.07-25.23,48.24a20.15,20.15,0,0,0-6.72,14.85c-.21,8.1-2.75,15.73-8.28,21.72a14.23,14.23,0,0,0-4.05,12.07,17.37,17.37,0,0,1,0,1.91c0,19.06-8.14,32.78-26.34,39.76-2.28.87-2.69,2.35-2.69,4.42q0,40.16,0,80.33c0,2.88.82,3.5,3.59,2.67a325,325,0,0,1,62.53-12.12,301.41,301.41,0,0,1,66.73,1.23c5.73.74,5.75.85,5.75-5Q314,269.46,314,216.86ZM18.66,215.65h-.17q0,34.42,0,68.85c0,13,0,26-.09,39,0,3.09.77,4.31,4.22,3.83a299.67,299.67,0,0,1,61-2.18,309.49,309.49,0,0,1,68.67,12.29c4.38,1.31,4.69,1.08,4.7-3.72,0-25.88,0-51.76.07-77.64,0-3.3-1-4.87-4.18-6.16-14.27-5.82-22.66-16.35-24.61-31.84a108.46,108.46,0,0,1-.37-13.36,7.87,7.87,0,0,0-2.28-5.8,35.68,35.68,0,0,1-10-24.18,19.05,19.05,0,0,0-6.13-13.92,82.48,82.48,0,0,1-26.2-53.35c-.23-2.26-1.28-3.42-3.57-3.68a223.35,223.35,0,0,0-55.65.22c-5.4.72-5.39.87-5.39,6.43Zm156.71-46.12h0v19.13a2.41,2.41,0,0,1,0,.38c-.33,3,1.09,4,4,3.92a18.9,18.9,0,0,0,18.76-15.4c.58-3.11.52-6.34,1.06-9.47,1.53-8.93,6.64-15.72,12.83-22.08,19.57-20.09,24.84-43.76,15.54-70.08C218,48.74,189.29,30,157.46,33.93,128.39,37.5,102.17,64.54,100.6,93.8c-1.11,20.79,5.4,38.61,20.51,53.11,7.79,7.47,12.22,16.33,12.53,27.35a19.18,19.18,0,0,0,19,18.71c3.35.08,4.46-1,4.42-4.36-.15-12.11-.09-24.23,0-36.34a29,29,0,0,1,.63-6.44A8.47,8.47,0,0,1,166,139.3c5.52-.09,9.11,3.71,9.3,10.35S175.37,162.9,175.37,169.53Zm-8.79,41.38c-5.6,0-11.2.08-16.8,0-2.41,0-3.42.77-3.52,3.26a19.89,19.89,0,1,0,39.77.06c-.07-2.44-.92-3.38-3.41-3.32C177.28,211,171.93,210.91,166.58,210.91Z"/><path class="cls-1" d="M256.28,38.2a8.78,8.78,0,0,1-8-4.9c-1.7-3.25-1.59-6.72.88-9.31,7.12-7.47,14.41-14.8,21.9-21.91,3.19-3,8-2.58,11.21.26a8.82,8.82,0,0,1,1.7,11.45,15,15,0,0,1-2.12,2.7q-9.18,9.24-18.41,18.39A10,10,0,0,1,256.28,38.2Z"/><path class="cls-1" d="M76.51,38.22a9.62,9.62,0,0,1-7-3c-6.49-6.5-13-12.93-19.45-19.5-4-4.07-4-9.31-.32-13S58.46-.91,62.4,2.9c6.78,6.57,13.42,13.28,20,20,2.73,2.78,3.58,6.14,2,9.85A8.78,8.78,0,0,1,76.51,38.22Z"/><path class="cls-1" d="M245.17,283.5c-8.93,0-17.86.06-26.79,0-5.8-.07-9.31-2.62-10.38-7.21a8.64,8.64,0,0,1,6.84-10.6,40.15,40.15,0,0,1,6.85-.54q23.73-.06,47.45,0a35.48,35.48,0,0,1,6.09.48,8.83,8.83,0,0,1,7.46,8.47,9,9,0,0,1-6.59,8.82,21.79,21.79,0,0,1-5.29.59C262.26,283.53,253.72,283.5,245.17,283.5Z"/><path class="cls-1" d="M255.27,215c7.9,0,15.8,0,23.7,0,5.8,0,9.67,3.41,9.87,8.43.21,5.19-3.59,9.39-9.39,9.46q-24.08.28-48.17,0c-5.92-.07-9.57-4-9.43-9.36.13-5.08,3.93-8.49,9.72-8.54C239.47,215,247.37,215,255.27,215Z"/><path class="cls-1" d="M266.19,164.5c4.46,0,8.91-.08,13.36,0,5.25.11,9,3.48,9.28,8.22a8.89,8.89,0,0,1-8.4,9.56c-4.29.4-8.64.18-13,.2-4.71,0-9.42.1-14.13,0-6.14-.18-10.07-3.89-10-9.22s4-8.68,10.3-8.76h12.59Z"/><path class="cls-1" d="M84.3,265.52c10.08,0,20.15,0,30.22,0,6.13,0,9.91,3.34,10,8.61s-3.8,9.31-9.89,9.34q-30.6.15-61.2,0c-5,0-8.38-2.66-9.58-6.77A8.84,8.84,0,0,1,47.5,267c1.89-1.32,4-1.48,6.2-1.48Q69,265.54,84.3,265.52Z"/><path class="cls-1" d="M77.06,215c7.9,0,15.8,0,23.7,0,5.84,0,9.62,3.39,9.78,8.48.17,5.32-3.47,9.34-9.38,9.41q-24.07.28-48.17,0c-5.81-.07-9.62-4.22-9.44-9.42.17-5,4.05-8.44,9.81-8.48C61.26,215,69.16,215,77.06,215Z"/><path class="cls-1" d="M66,178.8c-4.45,0-8.91.08-13.37,0-5.28-.13-9-3.87-9.09-8.85a8.82,8.82,0,0,1,8.6-9q14.12-.39,28.26,0a8.81,8.81,0,0,1,8.68,9.3c-.13,4.92-3.93,8.48-9.33,8.58C75.18,178.87,70.6,178.8,66,178.8Z"/><path class="cls-1" d="M166.27,54.3c13,.81,23.31,6.56,30.69,17.29,3.36,4.88,2.47,10.11-1.86,13.09s-9.5,1.84-12.95-2.92c-4.22-5.82-9.74-9.16-17-9.48a13.3,13.3,0,0,1-5.86-1.5,8.74,8.74,0,0,1-4.59-9.61,8.83,8.83,0,0,1,8.14-6.86C164,54.24,165.13,54.3,166.27,54.3Z"/></g></g></svg>