<svg xmlns="http://www.w3.org/2000/svg" viewBox="0 0 371.34 373.19"><defs><style>.cls-1{fill:#08313a;}</style></defs><g id="Layer_2" data-name="Layer 2"><g id="Layer_1-2" data-name="Layer 1"><path class="cls-1" d="M311.55,0c13.71,13.75,27.37,27.56,41.18,41.2,2.46,2.43,2.66,3.9.07,6.37-7.09,6.81-14,13.82-20.8,20.91-2.13,2.21-3.81,2.82-5.78.08s-3.79-2.79-6.24-.15c-5,5.34-10.15,10.45-15.43,15.46-2,1.94-1.92,3.17.08,4.94,2.45,2.16,4.55,4.73,7,6.88,2.26,2,1.91,3.41-.11,5.3-3.88,3.66-7.5,7.61-11.39,11.26-1.88,1.77-1.77,2.89.06,4.64a173.09,173.09,0,0,1,51.86,144,171.38,171.38,0,0,1-18.56,60.5c-1.45,2.74-.63,3.34,2.09,3.25,8.15-.29,16,.76,22.83,5.76,8.7,6.37,12.47,15.21,12.84,25.7.16,4.61,0,9.23.05,13.84,0,2.28-1,3.38-3.3,3.19-.85-.07-1.7,0-2.55,0H137.17c-5.73,0-5.73,0-5.74-5.77,0-3.52,0-7,0-10.56.07-19.23,13-32.13,32.3-32.16,25.36-.05,50.73,0,76.09,0,5.2,0,5.2,0,5.2-5.15,0-4.37-.23-8.75.1-13.1.27-3.67-.84-4.81-4.61-4.79-22.45.17-44.9.09-67.35.08-6.12,0-6.12,0-6-6,.43-17.52,13.34-30.6,30.88-30.71,30-.17,59.95,0,89.93,0a32.8,32.8,0,0,1,10.7,1.9c2.18.76,3.5.27,3.75-2.18.06-.61.15-1.21.24-1.81.37-2.64,1.61-5.54.9-7.84-.84-2.69-4.55-1.88-6.93-2.77-8.91-3.35-15.51-12.17-15.85-21.64a23.86,23.86,0,0,1,14.87-23.32c3.07-1.2,3.42-2.48,2.44-5.35A126.18,126.18,0,0,0,266,151.43c-1.92-1.85-3.16-1.92-5.06,0Q247,165.59,232.89,179.5c-2,1.93-1.94,3.2.06,5,2.62,2.34,5,5,7.51,7.42,1.46,1.4,1.42,2.59,0,4q-11.61,11.57-23.14,23.2c-1.64,1.66-2.69.79-3.91-.44q-9-9-18-18c-19.14-19.14-38.22-38.34-57.48-57.35-2.74-2.7-2.47-4.16.1-6.63,7.1-6.79,14-13.78,20.87-20.84,2.11-2.18,3.57-2.24,5.55,0,2.15,2.47,4.72,4.57,6.88,7,1.74,2,2.92,1.72,4.65,0,7-7.12,14-14.11,21.08-21.15Q225.25,73.5,253.44,45.3c3.87-3.86,3.87-3.86,7.85.11,2,2,4,3.88,5.9,5.94,1.53,1.68,2.68,1.47,4.19-.07q8.3-8.45,16.77-16.7c1.56-1.52,1.71-2.51.05-4.1-4.3-4.09-4.48-3.24.13-8Q299.24,11.27,310.1,0ZM251.09,360.42h46.6c18.69,0,37.38-.08,56.07.06,3.58,0,4.59-1.25,4.5-4.66-.3-11.15-7.38-18.31-18.68-18.36-16.87-.07-33.74,0-50.6,0-9.29,0-8,1.28-8.28-8.42-.09-3.34,1.07-4.46,4.39-4.4,9.34.16,18.69,0,28,.09,2.52,0,3.47-.89,3.41-3.41-.13-5.21.09-10.44-.13-15.65-.6-14.65-11.68-26.2-27.32-27.68-12.93-1.23-25.74,7.07-29.86,20.24-2.5,8-1.08,16.15-1.38,24.23-.07,1.76,1.12,2.23,2.64,2.22,2.07,0,4.13.05,6.19,0s3.14.91,2.81,2.85c-.56,3.25,1.74,7-1.63,9.72-.47.37-1.42.17-2.15.18-1.69,0-3.39,0-5.09,0q-48.8,0-97.57,0c-11.34,0-18.72,7.24-18.82,18.22-.05,4.7,0,4.74,4.93,4.74Zm44.46-262.5a20.56,20.56,0,0,0-1.32-1.59c-11.57-11.59-23.17-23.14-34.7-34.77-1.68-1.69-2.82-1.63-4.47,0q-35.19,35.31-70.49,70.5c-1.4,1.39-1.63,2.36-.11,3.87q17.55,17.43,35,35c1.46,1.47,2.57,1.39,3.93,0,2.18-2.29,4.45-4.47,6.68-6.7q31.53-31.51,63-63C294,100.24,295.21,99.5,295.55,97.92ZM328.93,300.6c.71-1.42,1-1.94,1.23-2.49a160.66,160.66,0,0,0,10.22-50.4A157.75,157.75,0,0,0,333.84,196a160.47,160.47,0,0,0-42.28-69.93c-2.06-2-3.37-2-5.3.07q-5.34,5.73-11.07,11.07c-2.05,1.92-2.2,3.33,0,5.31a114.25,114.25,0,0,1,12,13.18,137.35,137.35,0,0,1,24.65,47.5,6.43,6.43,0,0,0,3.3,4.45c17.3,9.06,19.21,29.44,4,41.5-1.07.84-2.06,1.6-2.18,3.14a155.19,155.19,0,0,1-3,19.76c-.26,1.2-.38,2.32.77,3.3C322.23,281.79,326.63,290.11,328.93,300.6ZM223.69,193.76c-.37-1.39-1.54-2.15-2.46-3.07q-26.73-26.77-53.5-53.51c-6-6-5.91-5.9-12.1.07-2.31,2.22-2.3,3.47,0,5.74,18.1,17.91,36.06,36,54.06,54,5.82,5.82,5.83,5.83,11.62-.07C222.22,196,223.42,195.21,223.69,193.76Zm32.78,84.37a12.38,12.38,0,0,0-1.87-.39c-19.29,0-38.58-.11-57.87.06-5.95.05-10.59,3.07-13.94,8-1.53,2.26-1.14,3.13,1.69,3.12,20.63-.05,41.25,0,61.88,0,1.2,0,2.54.2,3.28-1.05A82.28,82.28,0,0,1,256.47,278.13ZM299.13,41.91a19.1,19.1,0,0,0-1.78,1.4c-5.76,5.72-11.46,11.51-17.28,17.16-1.56,1.51-1.31,2.48.09,3.84,3.75,3.62,7.46,7.29,11,11.06,1.61,1.68,2.7,1.34,4.17-.16q8.13-8.31,16.45-16.45c1.6-1.57,2-2.76.16-4.48-3.78-3.58-7.39-7.34-11.09-11A18.53,18.53,0,0,0,299.13,41.91Zm30.15,10.78a13.09,13.09,0,0,0,1.54-1.17c1.65-1.61,3.18-3.35,4.91-4.87s1.74-2.75,0-4.43c-6.08-5.93-12-12-18-18-7.18-7.21-7.14-7.17-13.85.6-1.28,1.48-1.13,2.36.15,3.62q11.5,11.4,22.93,22.88A3.34,3.34,0,0,0,329.28,52.69ZM316.46,229.4a11.45,11.45,0,1,0-22.89.24,11.45,11.45,0,0,0,22.89-.24Z"/><path class="cls-1" d="M66.09,355.53c-13.59,0-27.18.12-40.77-.07-3.38,0-4.8,1.29-5.52,4.31a41.61,41.61,0,0,0-1,10.12c0,2.22-.81,3.34-3.22,3.29-11.19-.24-9.64,1.63-9.39-9.26.2-9,4.38-16.8,9.29-24.13C23.2,328.31,33,318.67,42.9,309.2c3.69-3.51,7.24-7.18,11.08-10.53,2.4-2.09,2.49-3.48.13-5.77a248.78,248.78,0,0,1-29.36-33.74C13.59,243.61,5.31,226.71,1.86,207.72-3,181,1.81,155.91,14.74,132.19c9.63-17.66,22.71-32.6,36.52-47a27,27,0,0,1,2.84-2.82c2.63-2,2.18-3.57-.14-5.73C43.12,66.55,32.21,56.52,22.69,45.14,15.24,36.23,8.73,26.76,6.57,15a22.18,22.18,0,0,1-.4-4c0-10.27-1.56-8.85,9-9C17.9,2,18.94,3.06,18.85,5.67A31.74,31.74,0,0,0,20.43,17.5a3.42,3.42,0,0,0,3.7,2.67q41.88-.06,83.75,0c2.22,0,3.25-.87,3.91-2.89a32,32,0,0,0,1.52-11.48C113.17,3,114.37,1.93,117.18,2c10.3.22,9-1.23,8.81,8.88-.16,8.92-4.06,16.65-8.82,23.93-9.72,14.9-23,26.52-35.63,38.78-7.21,7-7.43,4.78-.29,12.12,15.46,15.91,29.82,32.63,39.38,52.89,16.78,35.6,15.17,70.69-3.49,105.1-10,18.43-23.81,33.91-38.46,48.68-3.39,3.42-3.36,3.4,0,6.73,10.91,10.7,22.49,20.75,32.07,32.75,6.93,8.69,13,17.84,14.91,29.14a16.51,16.51,0,0,1,.33,2.88c0,11,1.65,9.05-9.4,9.31-2.35.05-3.32-.93-3.28-3.22a37.3,37.3,0,0,0-1.11-10.45c-.78-2.9-2.17-4.09-5.35-4.05C93.28,355.64,79.69,355.53,66.09,355.53Zm0-161.55C51,194,36,194,21,194c-8.8,0-8.31-1.39-7.1,8.26.26,2.11,1.24,3,3.31,2.94q5.28-.07,10.55,0c10.06.17,8.61-1.65,8.79,9.33,0,2.46-.84,3.53-3.38,3.46-4.24-.1-8.49,0-12.73,0-2,0-2.69.68-1.93,2.6A26.78,26.78,0,0,1,19.71,224c1,4,3.17,5.39,7.52,5.34,25.23-.25,50.47-.12,75.7-.12,7.76,0,7.62-.05,10.39-7.41,1.2-3.19.45-3.88-2.8-3.85-18.32.12-36.64.09-55,0-8.75,0-7.64,1.07-7.92-8.08-.12-3.7,1.15-4.79,4.79-4.76,19.53.15,39.07.07,58.6.07,6.69,0,6.69,0,7.69-6.59.65-4.34.44-4.62-3.87-4.62Zm-.36-36.71h42.6c6.3,0,6.17,0,4.13-6-1.24-3.64-3.14-5.3-7.13-4.89a103.27,103.27,0,0,1-10.56.07c-5.17,0-5.35-.2-5.38-5.28,0-8.83-.12-7.29,7.42-7.51,1.87,0,4.47,1,5.42-.86s-1.5-3.32-2.28-5c-2-4.31-5.17-5.49-9.89-5.39-15,.33-30.12.58-45.14-.07-7.22-.32-11.77,1.88-14.51,8.33-.36.86-1.55,1.55-1,2.54s1.77.5,2.69.51c13,0,26,0,39,0,7.9,0,7.54-1.26,7.53,7.71,0,4.93-.1,5-5.17,5-14.81,0-29.61-.06-44.42,0-8.06.05-6.72-1.42-10,6.93-1.45,3.75-1.35,3.85,2.65,3.86Zm.39,23.95q24.39,0,48.78,0c1.36,0,3.43.67,3.83-1.12a15.53,15.53,0,0,0-.89-8.19c-.73-2.18-3.09-1.48-4.82-1.48q-46.24-.06-92.48,0c-6.15,0-6.15,0-7.08,6.13-.67,4.36-.37,4.71,4.23,4.71Zm0,60.74c-9.59,0-19.18-.09-28.77.06-2.56,0-6.22-1.43-7.41.89-1,1.83,2.28,4.17,3.4,6.42,1.56,3.13,3.95,4,7.37,3.92,15.66-.18,31.34-.54,47,.13,7.12.3,10.95-2.4,13.92-8.24,1.46-2.86.71-3.22-2-3.21C88.45,242,77.28,242,66.12,242Zm36.94,100.63c-2.38-2.87-4.31-5-6-7.35-2.14-2.89-4.84-3.81-8.45-3.75-13.46.19-27,.57-40.39-.12-7.57-.39-12.84,1.87-16.66,8.15-.54.9-2,1.58-1.5,2.68s2,.56,3,.56q33.12.06,66.24,0C100.2,342.78,101.14,342.69,103.06,342.59ZM29.63,33.07c2.08,3.47,4.62,5.76,6.7,8.42a5.79,5.79,0,0,0,5,2.27q24.72-.06,49.45,0c1.2,0,2.55.18,3.45-.77,2.85-3,5.9-5.92,8.18-9.9ZM86,109.64c-6-7.22-12.11-13.43-18.31-19.53-1.49-1.46-2.58-.65-3.68.5-4.44,4.64-8.94,9.22-13.3,13.93-1.4,1.5-3.11,2.85-4.12,5.1ZM85.71,266c-13,0-25,0-37,0-2,0-1.51,1.13-.66,2.09,5.29,6,10.75,11.88,16.49,17.47.92.89,1.75,1.2,2.79.18A250.31,250.31,0,0,0,85.71,266ZM53.42,318.5H80.59l-13-12.23a2.06,2.06,0,0,0-3.22.09C60.6,310.46,56.91,314.61,53.42,318.5ZM51.79,57.14c4.78,4.53,9,8.5,13.17,12.46a1.48,1.48,0,0,0,2.26,0L80.3,57.14Z"/></g></g></svg>