<svg xmlns="http://www.w3.org/2000/svg" viewBox="0 0 372.98 370.76"><defs><style>.cls-1{fill:#08313a;}</style></defs><g id="Layer_2" data-name="Layer 2"><g id="Layer_1-2" data-name="Layer 1"><path class="cls-1" d="M50.63,259.3V364.42c0,6.08,0,6.08-6,6.09-7.49,0-7.49,0-7.49-7.64V252.7c0-5.39,0-5.45-5.22-5.46-18.19-.06-31.2-14.93-31.48-30-.41-22.62-1-45.25.27-67.85,1.12-20.21,20.58-38.25,41.1-38.33,43.19-.18,86.38,0,129.57-.1,8.7,0,7.61,1.11,7.62-7.61,0-29.1,0-58.19,0-87.29,0-12,11.92-19.56,22.6-14.4a14.54,14.54,0,0,1,8.73,12.82c.19,3.51,1.44,4.24,4.67,4.22,27.54-.11,55.09-.06,82.63-.05,5.18,0,5.2,0,5.21,5.1,0,4.79.21,9.58-.06,14.35-.21,3.71,1,4.93,4.8,4.9,19.66-.16,39.31-.07,59-.07,1,0,2.07,0,3.1,0,3.09-.15,3.88,1,2.66,3.94-4,9.8-7.82,19.71-11.91,29.48a9.74,9.74,0,0,0,0,8.13c4,9.54,7.76,19.17,11.58,28.78,1.64,4.11,1.44,4.45-2.83,4.45-31.16,0-62.33,0-93.49.07-3.51,0-4.48-1.27-4.35-4.54.2-5.3-.05-10.61.09-15.91.07-2.76-.81-4-3.74-4q-26.76.12-53.53,0c-2.67,0-3.72,1-3.62,3.69.14,3.48.12,7,0,10.47-.09,2.44.76,3.41,3.33,3.49,9.08.29,9.13.37,9,9.39,0,5.16.42,10.33-.71,15.46-1.34,6.11-3.94,11.6-8.58,15.74-2.54,2.27-3.12,4.65-3.11,7.79q.07,102,0,204c0,1.29-.05,2.59,0,3.88.07,2.08-.88,3.14-3,3.14q-12.81,0-25.6,0c-2.15,0-3-1.12-2.93-3.18.05-1.29,0-2.59,0-3.88q0-98.34,0-196.68c0-5.66,0-5.66-5.76-5.67H130.63c-6.19,0-6.2,0-6.2,6q0,98.54-.05,197.07c0,2,1.23,5.05-1.43,5.87a19.24,19.24,0,0,1-10.69-.07c-.94-.26-1.1-1.38-1.14-2.3-.08-1.42-.1-2.84-.1-4.26V153.16c0-5.25.28-5.52,5.45-5.52,24.69,0,49.39-.08,74.09,0,6.1,0,11.08-1.9,15.07-6.55,3.75-4.39,4.2-9.56,3.86-15a2.08,2.08,0,0,0-2.21-2.19c-1.29,0-2.58,0-3.87,0q-78.18,0-156.34,0c-21,0-33.55,12.54-33.56,33.55q0,28.69,0,57.41c0,11.67,7.65,19,19.34,19,3.47,0,4.4-1.25,4.38-4.55-.1-25.22-.05-50.43-.05-75.65,0-6,0-6,6-6,7.44,0,7.44,0,7.44,7.31ZM250.34,80c11.88,0,23.77-.08,35.65,0,3,0,4.07-.91,4-4q-.19-20.14,0-40.29c0-3.15-.88-4.28-4.15-4.26q-35.65.16-71.3,0c-3,0-4.07.88-4,4,.13,13.43.16,26.86,0,40.29-.05,3.59,1.34,4.32,4.56,4.28C226.83,79.91,238.59,80,250.34,80Zm68.89,24.77c10.6,0,21.21,0,31.81,0,2.56,0,3.26-.64,2.2-3.14-2.37-5.59-4.42-11.32-6.85-16.89a9.68,9.68,0,0,1-.06-8.5c2.42-5.42,4.39-11,6.69-16.53,1-2.34,1-3.47-2.09-3.45q-22.11.16-44.23,0c-2.86,0-3.86,1-3.81,3.83.15,7.37.05,14.74.05,22.12,0,11.15,0,11.14-11.31,11.16-8.16,0-7.08-.59-7.34,7.32-.11,3.34,1.2,4.15,4.29,4.11C298.8,104.68,309,104.77,319.23,104.77Zm-122,153.9V166.35c0-1.17,0-2.33,0-3.49,0-1.68-.84-2.16-2.51-2-2.88.24-2.68,2.2-2.68,4.19q0,94.07,0,188.13c0,.64,0,1.29.06,1.94.1,1.5,1.1,1.91,2.4,1.91s2.4-.32,2.57-1.78a35.46,35.46,0,0,0,.18-4.25Q197.24,304.82,197.23,258.67Zm0-195.9c0-14.6,0-29.2,0-43.79,0-2.16.79-5.49-2.61-5.42S192,16.89,192,19.09q-.06,43.59,0,87.2c0,.9,0,1.81.05,2.71.07,1.5,1,2,2.35,1.94s2.41-.2,2.63-1.67a23.8,23.8,0,0,0,.18-3.48Q197.24,84.28,197.23,62.77Z"/><path class="cls-1" d="M80.78,99.24a37.21,37.21,0,1,1,37.45-37A37.38,37.38,0,0,1,80.78,99.24Zm24-37.17A24,24,0,1,0,80.76,86.18,24,24,0,0,0,104.82,62.07Z"/><path class="cls-1" d="M74.33,311c0-18,.09-35.92-.07-53.88,0-3.76,1.23-4.95,4.91-4.87,9.5.2,8.07-.38,8.08,8.17q.07,52.32,0,104.66c0,5.36,0,5.37-5.4,5.39-8.65,0-7.51.18-7.53-7.53C74.3,345.66,74.33,328.34,74.33,311Z"/></g></g></svg>