<svg xmlns="http://www.w3.org/2000/svg" viewBox="0 0 302.78 373.19"><defs><style>.cls-1{fill:#08313a;}</style></defs><g id="Layer_2" data-name="Layer 2"><g id="Layer_1-2" data-name="Layer 1"><path class="cls-1" d="M64.61,373.19c3.87-11.39,8.85-22.35,13.37-33.48q19.17-47.08,38.5-94.12c.57-1.4,1.58-2.81-.63-4-1.18-.61-.92-2.15-.92-3.35,0-9.72.06-19.45-.05-29.17,0-3.07,1.25-4,4.17-3.91,5.34.16,10.7-.07,16,.08,2.77.08,4.22-.78,3.84-3.71-.26-2.1,1.11-5-.83-6.11-1.69-1-3.5,1.6-5.32,2.46a15.78,15.78,0,0,0-2.78,1.74c-2.68,2.05-5,2.84-6.92-1-1.27-2.62-3-1.11-4.46-.07l-32.7,22.58c-4.6,3.18-9.17,6.4-13.81,9.51-1.54,1-2,2-.69,3.5a2,2,0,0,1,.21.3c4.55,7.17,4.57,7.2-2.49,12.22-6.53,4.65-13.16,9.17-19.64,13.91-2.1,1.53-3.21,1.21-4.64-.85Q23.07,228.26,1.09,196.91c-1.77-2.52-1.36-3.84,1.07-5.5,7.74-5.26,15.41-10.63,22.94-16.18,2.65-1.94,4.51-2.11,6,1,1.58,3.37,3.33,3,6.09,1Q59,161.43,81.11,146c2.76-1.93,3-3.35,1-6-5.31-7.41-5.18-7.47,2-13q60.89-47,121.78-94c2.76-2.12,3.31-3.51,1.12-6.59-5.11-7.15-5.77-5.56,1.91-11l18.7-13.33c3.82-2.72,3.83-2.74,6.45,1.06q22.16,32.1,44.29,64.22c7.73,11.21,15.38,22.47,23.22,33.6,1.8,2.56,1.7,4-1,5.83q-11.46,7.78-22.6,16c-2.48,1.83-3.8,1.46-5.46-1-4.33-6.48-4.45-6.44-11-2.41q-29.4,18-58.8,35.92c-1.93,1.18-3,2.43-3,4.88.1,13.85.12,27.71,0,41.57,0,3,1.11,3.76,3.87,3.68,5.47-.15,10.95.07,16.41-.08,2.89-.07,3.84,1.11,3.81,3.88-.09,9.85,0,19.69-.05,29.54,0,.72.13,1.83-.26,2.1-3.37,2.35-1.19,4.85-.23,7.21Q248,308.67,272.86,369.38c.5,1.23,1.27,2.39,1.05,3.81H236.72c-7.68-18.77-15.4-37.53-23-56.33-1-2.4-2.24-3.39-4.86-3.28-4.61.19-9.23,0-13.85.06-7.64.07-7.11-1-7.12,6.94q0,17.69,0,35.36c0,5.75,0,5.75-5.91,5.75H156.83c-5.68,0-5.69,0-5.69-5.52,0-13-.06-26,0-39,0-2.7-.86-3.65-3.57-3.58q-9.11.23-18.22,0c-2.37-.06-3.5.92-4.27,3-1.3,3.53-2.82,7-4.26,10.46q-9.52,23.06-19.06,46.12ZM257.81,77.88a2.34,2.34,0,0,1-1.27,2.35,52.29,52.29,0,0,0-4.77,3.36c-2.63,2.36-4.26,1.89-6.24-1-8.81-13.11-17.88-26-26.77-39.09-1.46-2.16-2.45-2.68-4.78-.87Q155.83,87.73,97.5,132.66c-2.5,1.92-2.81,3.2-1,5.81q15.54,21.83,30.74,43.88c1.55,2.26,2.71,2.37,5,1Q195,144.85,257.88,106.55c2.37-1.44,2.6-2.56,1.06-4.83-4.49-6.62-4.4-6.67,2.28-11.17a3.21,3.21,0,0,0,.3-.21c2.33-2.12,4-1.83,5.76,1,2.83,4.53,6.09,8.79,9,13.27,1.24,1.9,2.41,2.15,4.07.69.45-.4,1-.69,1.48-1.06,4.58-3.46,4.87-2.34,1.41-7.37Q257.6,59.6,231.92,22.42c-4.27-6.18-2.92-5.48-8.89-1.61-2.69,1.74-2.45,3-.79,5.39,11.4,16.34,22.66,32.78,34,49.19C256.81,76.28,257.38,77.21,257.81,77.88ZM113.69,185.46a14.12,14.12,0,0,0-.77-1.41Q103,169.88,93.07,155.69c-1.06-1.52-2-1.3-3.3-.37q-23.42,16.74-46.9,33.4c-1.49,1.06-1.81,1.9-.67,3.51q9.55,13.54,18.95,27.21c1.17,1.7,2.23,1.79,3.88.64q23.5-16.31,47.06-32.54C112.77,187.07,113.6,186.69,113.69,185.46Zm89.16,56.6c-6,0-6,0-3.95,4.93,14.84,36.27,29.75,72.53,44.43,108.87,1.55,3.83,3.51,5.2,7.52,4.9,4.64-.34,4.68-.09,2.91-4.4q-22.45-54.93-44.89-109.87C207.57,243.27,206.11,241.1,202.85,242.06ZM89.07,360.68c3.56,1.31,4.92-1.49,6.28-4.84q16.38-40.32,32.92-80.57,6.14-15,12.21-30c.38-1,1.73-2.17-.13-3.05-3.59-1.69-8.82.37-10.36,4.11q-10.84,26.44-21.65,52.91-11.91,29.16-23.86,58.3c-1,2.32-.87,3.45,2,3.17C87.05,360.63,87.66,360.68,89.07,360.68Zm97.84-175.55c0-5.71-.08-11.42,0-17.13.05-2.79-.82-2.78-2.88-1.48-6.48,4.07-13.07,8-19.54,12-4.09,2.57-9.67,4-11.79,8.13s-.47,9.78-.66,14.75c0,.12,0,.24,0,.36-.18,2.45.83,3.5,3.39,3.47q14-.14,28.06,0c2.51,0,3.48-.83,3.42-3.38C186.82,196.31,186.91,190.72,186.91,185.13ZM170,218.05c-12.49,0-25,.11-37.49-.07-3.57-.06-4.9,1.19-4.46,4.61a13.82,13.82,0,0,1,0,1.82c0,4.85,0,4.86,4.84,4.86q35.49,0,71,0c8,0,6.85,1.11,7.14-7.24.12-3.35-1.2-4.06-4.25-4C194.5,218.13,182.25,218.05,170,218.05Zm-.61,82.81c11.16,0,22.32,0,33.48,0,1.21,0,2.91.66,3.45-1.12.94-3-4.28-9.69-7.52-9.69q-27.84,0-55.68,0c-7.89,0-6.71-.89-9.84,6.74-1.62,4-1.55,4.08,2.63,4.09Q152.64,300.88,169.38,300.86ZM58.31,238c-.57-.9-1.1-1.84-1.71-2.72q-13.5-19.41-27-38.79c-4.68-6.7-2.94-6.25-9.95-1.8-2.74,1.73-2.43,3.08-.79,5.4,9.45,13.36,18.76,26.82,28.11,40.25,3,4.3,3,4.35,7.2,1.25C55.56,240.54,57.35,239.87,58.31,238Zm105.6,93.28c0,3.64,0,7.28,0,10.92,0,7.39-.69,6.49,6.59,6.77,3.49.13,4.37-1.24,4.31-4.45-.16-7.88,0-15.77-.06-23.65,0-8,.94-7.12-7.56-7.27-2.64-.05-3.36,1.1-3.31,3.49C164,321.82,163.91,326.55,163.91,331.28Zm0-71.85v10.91c0,6.7,0,6.58,6.83,6.59,3,0,4.11-1,4.06-4-.14-7.88-.05-15.76-.05-23.64,0-7.61,0-7.54-7.62-7.26-2.3.09-3.28.88-3.24,3.23C164,250,163.92,254.7,163.91,259.43Zm-12.77-4.93-.48-.13q-3.56,8.65-7.1,17.29c-2.18,5.34-2.17,5.2,3.7,5.27,3,0,4-1,3.93-4C151,266.78,151.14,260.64,151.14,254.5Zm37.47,1.18-.66.14c0,6.24,0,12.48,0,18.73a2,2,0,0,0,2.28,2.24c2.1-.11,4.35.84,6.26-.69.2-.16.06-.94-.1-1.36Q192.53,265.2,188.61,255.68Z"/><path class="cls-1" d="M119.29,144.4c-1.21-.22-1.74-1.27-2.37-2.11-6.7-8.94-6.71-6.29,1.36-12.61,15-11.75,30.21-23.29,45.18-35.1,2.77-2.18,4.12-1.66,6,.88,5.1,6.72,5.2,6.65-1.58,11.89Q145.15,125,122.38,142.57C121.44,143.3,120.62,144.27,119.29,144.4Z"/><path class="cls-1" d="M190.79,88.65c-.43,1.72-1.79,2.43-2.91,3.27-6.74,5.08-5.06,5.07-10-1.21-3.53-4.5-3.48-4.54,1-8,.87-.67,1.77-1.29,2.58-2,1.46-1.32,2.66-1.37,3.88.37,1.39,2,3,3.82,4.42,5.76A15.52,15.52,0,0,1,190.79,88.65Z"/></g></g></svg>