<svg xmlns="http://www.w3.org/2000/svg" viewBox="0 0 373.19 373.19"><defs><style>.cls-1{fill:#08313a;}</style></defs><g id="Layer_2" data-name="Layer 2"><g id="Layer_1-2" data-name="Layer 1"><path class="cls-1" d="M228.7,0h5.09c1.46,1.27,3,2.46,4.37,3.83,6.9,7,13.75,14.05,20.62,21.08,5,5.13,5,7.71-.07,12.88q-16.94,17.3-33.88,34.58c-.65.67-1.83,1.21-1.54,2.29s1.42.73,2.22.73q25.31,0,50.61,0c2.25,0,3.18-.92,3.35-3.24,1.93-26.34,24.9-44.23,48.21-43.45,24.66.83,45.43,21.09,45.46,45.85q.14,111.77.05,223.53a40.72,40.72,0,0,1-1.17,9.72A46.71,46.71,0,0,1,326.31,344c-32.16.09-64.32,0-96.48,0-1.37,0-2.82-.32-4.61.63,5.84,5.8,11.41,11.35,17,16.87,2.24,2.21,3.56,4.69,2.23,7.83s-4.06,3.89-7.19,3.79c-1.34,0-2.67,0-4,0H32.31c-7.6,0-9.27-1.64-9.28-9.1,0-5.46-.08-10.92,0-16.38.05-2.65-1-3.76-3.64-3.67-3.63.12-7.28-.11-10.92.06-3.36.16-6.23-.65-8.49-3.22V78.66c2.26-2.89,5.34-3.3,8.78-3.29q70.46.07,140.89.09a9.79,9.79,0,0,0,7.68-3.2q28.05-28.83,56.31-57.47C218.59,9.79,223.2,4.44,228.7,0ZM141.16,88.61l-.57-.94h-123c-5.62,0-5.62,0-5.62,5.64V326c0,1.09,0,2.18,0,3.28,0,.9.26,1.85,1.17,2.07a14.62,14.62,0,0,0,8.59,0c2.28-.86,1.25-3.43,1.26-5.24q.06-82.49,0-165a39.61,39.61,0,0,1,.08-4.36,6,6,0,0,1,9.5-4.46,26.35,26.35,0,0,1,3.76,3.42l79.57,79.56c1.45,1.44,2.73,3.21,5.07,3.22,5.22,0,10.44,0,15.66,0,1.93,0,2.91-.92,2.88-2.91,0-2.55.12-5.11-.08-7.64-.32-4.08-2.46-6-6.63-6.26-1.94-.11-3.89,0-5.82-.09a17.67,17.67,0,0,1-16.57-17.16c-.2-10.3,7.18-18.12,17.53-18.3,9-.15,18,0,27-.1,5.82-.07,7.81-2.18,7.92-8,.05-2.31,0-4.62.07-6.92,0-1.16.29-2.3,1.71-2.35,3.24-.1,6.88-1.2,9.59.57,2,1.29.63,4.54.84,6.91a32.59,32.59,0,0,1,0,3.28c-.08,11.51-7.37,18.76-19,18.82-8.25,0-16.51,0-24.76,0a17.45,17.45,0,0,0-3.62.23c-2.77.59-4.68,2.19-4.67,5.21a4.88,4.88,0,0,0,4.6,5.19c2.4.33,4.83.35,7.25.45a17.44,17.44,0,0,1,16.83,16.81c.1,2.79.16,5.59,0,8.37s.91,4,3.78,3.92c3.27-.12,6.55,0,9.83,0,10.65-.08,9,1.13,9.16-9,.08-6.33,1.66-8.22,8-8.79q7.61-.67,15.25-.86a4.56,4.56,0,0,0,4.81-3.47,103,103,0,0,1,4.47-10.74c1.08-2.23.7-3.76-.94-5.5-3.66-3.89-7.2-7.89-10.69-11.94-3.66-4.24-3.56-7,.42-11.07Q206.87,166,218,155c4-3.95,6.82-4,11.08-.37q6.07,5.22,11.94,10.68a4.3,4.3,0,0,0,5.53.87,105.72,105.72,0,0,1,10.73-4.49c2.26-.81,3.3-2,3.41-4.47.28-5.81.64-11.63,1.22-17.41.43-4.21,2.5-5.94,6.72-6.11,2.31-.09,4.62-.13,6.92,0,2.78.14,4-.94,3.87-3.82-.15-4.61,0-9.23,0-13.84,0-5,0-5-5.11-5-27.68,0-55.35,0-83-.06a9.33,9.33,0,0,0-7.35,3c-16.74,17.24-33.6,34.37-50.41,51.55a18.32,18.32,0,0,1-6.11,4.48Q108.15,177.79,89,185.66c-3,1.23-5.89,1.62-8.42-.95s-1.89-5.31-.79-8.14c2.15-5.54,4.78-10.95,6.4-16.64a89.28,89.28,0,0,1,29.43-45.24c1-.86,2.4-1.66,2.54-3.46a9.29,9.29,0,0,0-1.44-.23q-39,0-77.93,0c-2.78,0-3.57,1.25-3.52,3.79.09,5.7.1,11.41,0,17.11-.15,9.21,1.68,8.2-8.73,8.25-.12,0-.25,0-.37,0-2.1.13-3.1-.75-3.09-3,0-10.81,0-21.61,0-32.41a5.45,5.45,0,0,1,4-5.53,19,19,0,0,1,5.4-.46q47.16,0,94.32,0c1.8,0,3.83.45,5.26-.9C135.17,94.84,138.12,91.69,141.16,88.61ZM361,264.93V84.78c0-4.24-.13-8.46-.54-12.71-2-20.95-23.06-35.4-43.24-29.56-16.06,4.65-25.54,17.85-25.55,36q-.09,91.58,0,183.15c0,.88-.46,1.94.5,2.68C311.8,245,341.83,245.83,361,264.93ZM35.7,173.28c-.81,1-.44,2.11-.44,3.15q0,89.93-.08,179.85c0,3.43,1,4.69,4.52,4.69q89.56-.14,179.12-.08c1.17,0,2.83.52,3.38-.65.7-1.51-1.13-2.19-2-3.05q-90.83-90.9-181.73-181.75C37.66,174.62,37.07,173.45,35.7,173.28Zm96.36,77.54a13.33,13.33,0,0,0,1,1.59q27,27,54.06,54.08a6.89,6.89,0,0,0,5.25,2q41.88,0,83.75,0c3.19,0,4.49-1,3.78-4.31a32.14,32.14,0,0,1-.5-6.51c0-13.72,0-27.44,0-41.15,0-5.7,0-5.71-5.55-5.71H132.06ZM130,151c.57-.52,1.21-1.06,1.8-1.66q7.89-8.06,15.77-16.12Q177.24,103,207,72.84c2.32-2.34,2.58-3.9.13-6.2a134.81,134.81,0,0,1-10.17-10.4c-2.5-2.91-4.09-2.49-6.6.1-18,18.51-36.15,36.88-54.24,55.3-6.88,7-13.7,14.08-20.62,21-1.73,1.74-1.81,2.39.58,3.81A36.6,36.6,0,0,1,128.42,149C128.85,149.71,128.81,150.73,130,151ZM279.4,166.17c0-5.34,0-10.68,0-16,0-1.91.38-4.12-2.63-4.19-2.65-.06-2.78,1.83-2.9,3.7-.33,5-.63,9.92-.93,14.88-.23,3.89-2.25,6.25-6,7.21a81.68,81.68,0,0,0-19.77,8.17c-4.2,2.35-6.13,2-9.86-1.2S230,172.31,226.48,169c-1.78-1.68-3.16-1.73-4.9.08-3.77,4-7.62,7.83-11.59,11.57-2,1.89-1.74,3.32,0,5.16,3.4,3.62,6.66,7.38,10,11.06,2.5,2.76,3,5.69,1.06,9a81,81,0,0,0-8.5,20.42c-.93,3.57-3.16,5.54-7,5.72-5.32.25-10.64.71-15.95,1.1-1.85.13-2.92,1-2.83,3s1.3,2.44,2.93,2.44h34.56a3.08,3.08,0,0,0,3.4-3,28.89,28.89,0,0,1,.56-3.22c6.41-25,22.23-40.2,47.54-45.39,2.58-.52,3.76-1.61,3.69-4.36C279.29,177.09,279.39,171.63,279.4,166.17Zm46.89,165.17c18.89.16,34.06-14.79,34.47-34,.4-18.57-15.27-34.85-34.29-34.71-19.24.13-34.36,14.37-34.55,34.34A33.85,33.85,0,0,0,326.29,331.34Zm-66.64-92.8c5.34,0,10.67,0,16,0,2.52,0,3.8-.75,3.78-3.54-.09-10.9-.06-21.81,0-32.71,0-2.62-1-3.33-3.6-2.79-17.27,3.55-31.76,18-35.39,35.21-.67,3.17.44,3.88,3.24,3.83C249,238.48,254.32,238.55,259.65,238.54Zm-57,82.2L202,321.8c2.9,2.73,5.83,5.42,8.68,8.2a6.23,6.23,0,0,0,4.6,1.78q37.47,0,74.94,0c.94,0,2.18.32,2.68-.65s-.71-1.64-1.27-2.35a42.38,42.38,0,0,1-3.82-4.83c-1.47-2.57-3.46-3.25-6.29-3.24-25.23.09-50.45.05-75.68.05Zm-3.11-223.5.77,1.47H272.5c7.12,0,7,0,6.95-7.28,0-2.86-1.12-3.8-3.9-3.79-21,.07-41.93,0-62.9,0a5.52,5.52,0,0,0-4,1.3C205.61,91.76,202.54,94.49,199.49,97.24Zm47.39-65.51a2.47,2.47,0,0,0-.95-2.14c-4.33-4.41-8.68-8.79-13-13.21-1.2-1.23-2.21-1.1-3.37.08-4.23,4.34-8.46,8.67-12.76,12.92-1.47,1.45-1.36,2.54.06,3.94,4.13,4.09,8.24,8.2,12.22,12.43,1.67,1.77,2.85,1.62,4.45-.06,3.91-4.13,8-8.13,11.94-12.2A20.51,20.51,0,0,0,246.88,31.73ZM107,146.5c-1.48-.49-2.21.32-2.71,1.6-2.34,6-4.7,11.93-7,17.9-.26.65-.74,1.42-.19,2s1.38.15,2-.1q8.58-3.47,17.13-7c1.34-.55,2.21-1.3,2-3C117.6,153.76,111.19,147.07,107,146.5Zm99-105.5a4.82,4.82,0,0,0-2.57,2.36c-.7,1.26.32,2,1.06,2.79,3.94,4.09,7.92,8.14,11.87,12.22,1.17,1.21,2.29,2.18,4,.62s1.45-2.81,0-4.3c-4.08-4.12-8.1-8.3-12.15-12.45C207.62,41.64,207.1,40.92,206.06,41Z"/><path class="cls-1" d="M175.08,151.2c0,6.38,0,6.38-5.85,6.39-6.36,0-6.36,0-6.37-5.87,0-6.4,0-6.4,6.22-6.4C175.08,145.33,175.08,145.33,175.08,151.2Z"/><path class="cls-1" d="M52.16,282.23c0-17.6,0-35.2,0-52.8,0-3.34.27-6.47,3.85-7.87s6,.49,8.34,2.86Q118,278.15,171.7,331.8c2.56,2.56,4.53,5.22,2.59,9-1.59,3.07-4.49,3.29-7.52,3.29q-47.16,0-94.32,0c-4.24,0-8.49,0-12.74,0-5.35-.07-7.52-2.21-7.53-7.54Q52.12,309.36,52.16,282.23Zm12.48-39.16a9.77,9.77,0,0,0-.24,1.32c0,20.12,0,40.25-.07,60.38,0,3.31,1.67,3.73,4.34,3.72,19-.05,38.07,0,57.11,0,1.15,0,2.81.51,3.29-.79s-1.13-2-1.95-2.79Q97.32,275,67.46,245.2C66.7,244.44,66.12,243.45,64.64,243.07Zm44.28,88.7c13.22,0,26.43,0,39.64,0,1.29,0,3.09.61,3.72-.67.72-1.45-1.2-2.09-2-3-1-1.2-2.34-2.15-3.3-3.38-2.44-3.14-5.52-4-9.5-4-22.3.18-44.6.09-66.91.09-6.22,0-6.22,0-6.19,6.14,0,4.76.13,4.89,4.91,4.89Z"/><path class="cls-1" d="M229.78,297.43c-11.16,0-22.32-.1-33.48.06-3.33,0-4.45-1.06-4.36-4.38.27-9.1-.92-7.9,8-7.93,21.23-.06,42.45.06,63.68-.09,3.67,0,4.87,1.09,4.74,4.76-.31,8.56.8,7.52-7.67,7.57C250.4,297.47,240.09,297.43,229.78,297.43Z"/><path class="cls-1" d="M221.69,267.73c0,6.39,0,6.39-5.85,6.39-6.36,0-6.36,0-6.36-5.87,0-6.4,0-6.4,6.21-6.39C221.69,261.86,221.69,261.86,221.69,267.73Z"/><path class="cls-1" d="M245,268.2c0,5.93,0,5.93-6.32,5.92-5.9,0-5.9,0-5.9-6.34,0-5.93,0-5.93,6.33-5.92C245,261.86,245,261.86,245,268.2Z"/><path class="cls-1" d="M262,274.12c-5.94,0-5.94,0-5.94-6.29,0-6,0-6,6.27-6,6,0,6,0,5.95,6.66C268.3,274.13,268.3,274.13,262,274.12Z"/><path class="cls-1" d="M326.2,273.56a23.58,23.58,0,1,1-23.48,23.53A23.3,23.3,0,0,1,326.2,273.56Zm.19,34.48A11,11,0,0,0,337.47,297a11.18,11.18,0,1,0-22.36.21A11,11,0,0,0,326.39,308Z"/></g></g></svg>