<svg xmlns="http://www.w3.org/2000/svg" viewBox="0 0 371.94 371.99"><defs><style>.cls-1{fill:#08313a;}</style></defs><g id="Layer_2" data-name="Layer 2"><g id="Layer_1-2" data-name="Layer 1"><path class="cls-1" d="M144,42H281.72c5.21,0,5.21,0,5.9-5.24,2.56-19.5,19.61-35.52,38.32-36.69,23.91-1.48,41,14.77,45,33.14a42.05,42.05,0,0,1-30.68,49.82c-3.44.87-4.48,2.22-4.47,5.75q.19,54.08,0,108.15a7.63,7.63,0,0,0,2.92,6.42c39.4,33.69,44.53,93.55,11.13,133.54-21.5,25.75-49.54,37.35-82.85,34.71-44.79-3.55-81.63-39.74-86.63-84.07-.62-5.46-.62-5.47-6.07-5.47H5.91c-5.9,0-5.91,0-5.91-5.88V47.91C0,42,0,42,5.91,42Zm60.13,169.24c1.32-1.17,1.9-1.62,2.41-2.15A95.63,95.63,0,0,1,320.74,191c2.4,1.29,2.65.44,2.65-1.74q0-50.9,0-101.79c0-2.46-.89-3.52-3.29-4a34.78,34.78,0,0,1-13-5.47c-1.91-1.34-3.11-1.17-4.75.49q-15.76,16-31.74,31.77a4.42,4.42,0,0,0-1.34,4.93c2.06,7.57.14,14.23-5.95,19.15s-13,5.59-20,2c-7.2-3.7-11.11-10.13-9.44-17.84,1.31-6-1.33-8.94-4.95-12.21a44.53,44.53,0,0,1-3.43-3.44,3.53,3.53,0,0,0-4.28-1.18,16,16,0,0,1-10.65,0c-2-.7-3.23,0-4.58,1.34-8.34,8.42-16.7,16.83-25.16,25.12-1.66,1.64-2.07,3.13-1.29,5.27a15.4,15.4,0,0,1,.31,8.51,18.31,18.31,0,1,1-35.73-8,18,18,0,0,1,22.41-13.38c2.36.64,3.86.32,5.58-1.44,8.2-8.38,16.52-16.64,24.86-24.89a4.38,4.38,0,0,0,1.4-4.91c-2.06-7.54-.24-14.2,5.86-19.18s13.05-5.61,20-2.1,11.13,9.86,9.52,17.44c-1.37,6.44,1.39,9.68,5.41,13.15a24.91,24.91,0,0,1,2.9,2.91c1.29,1.58,2.71,1.83,4.62,1.17a14.52,14.52,0,0,1,9.56-.15c2.53.88,4.1.22,5.88-1.59,9.45-9.59,19-19.08,28.54-28.61,4.61-4.61,4.6-4.6,1.64-10.19a13.57,13.57,0,0,1-1.43-3c-.87-3.66-3.06-4.62-6.76-4.62q-133.23.16-266.45.09c-5.14,0-5.15,0-5.15,5.08V219.4c0,15.34.09,30.69-.07,46,0,3.34,1.06,4.21,4.3,4.21q79.51-.13,159,0c2.74,0,4.13-.7,4.37-3.62.8-9.47,2.61-7.67-6.89-7.88a10.58,10.58,0,0,0-1.49,0c-3,.37-4.16-.82-4.14-4q.16-32.19,0-64.37c0-3,.93-4.15,4-4.1q14.22.23,28.44,0c3.1-.05,4.15,1,4.07,4.09C204,196.61,204.13,203.44,204.13,211.26Zm65.11-6.93h.23c0-2.5-.18-5,0-7.48.33-3.61-1.4-4.21-4.48-3.74-23.85,3.63-43.38,14.72-57.21,34.57-17.58,25.24-20.1,52.43-8.71,81,.95,2.37,2,3.07,4.39,1.54,4.21-2.67,8.52-5.2,13-7.46,3.2-1.62,3.92-3.21,2.6-6.89a60.07,60.07,0,0,1,40.38-78.09c3.27-.91,8,.05,9.51-3.11C270.32,211.81,269.24,207.81,269.24,204.33Zm89.93,72c-.24-15.27-3.54-28.86-10.78-41.28-14-24.08-35-37.92-62.5-42-2.91-.44-4.08.52-4,3.58.19,5.11.23,10.23,0,15.33-.16,3.15,1.26,4.15,4,4.52a48.5,48.5,0,0,1,10.82,2.85,59.92,59.92,0,0,1,35.44,77c-1.14,3.18-.57,4.62,2.27,6.09,4.53,2.34,9,4.9,13.27,7.65,2.53,1.61,3.58,1,4.67-1.57A87.47,87.47,0,0,0,359.17,276.35Zm-82.11,83c3.51-.37,8.39-.58,13.16-1.45,21.71-3.94,39.12-14.95,52.53-32.41,1.37-1.79,1.31-2.91-.81-4.08-4.93-2.69-9.78-5.52-14.59-8.41-2.09-1.26-3.44-1-5.08.92-25.77,29.73-67.26,29.73-93.09,0-1.65-1.89-3-2.18-5.09-.92-4.59,2.77-9.19,5.54-13.94,8-2.76,1.45-2.86,2.73-1,5.08C226.15,347.59,248.38,358.59,277.06,359.34ZM228.11,276c.22,25.93,21.74,47.67,47.57,47.39,26.74-.28,47.39-21.06,47.57-47.68.18-25.91-21.66-47.67-47.48-47.39C249.17,228.58,228.67,249.21,228.11,276ZM329.59,71.89c15.93,0,29.6-13.6,29.64-29.58s-13.59-29.6-29.58-29.64S300.05,26.26,300,42.26,313.6,71.85,329.59,71.89ZM180.18,221.94c0,6.86,0,13.72,0,20.58,0,1.34-.22,2.87,1.82,3.06a2.85,2.85,0,0,0,3.15-2c4.22-9.2,8.09-18.43,6.53-29-.42-2.81,0-5.73-.07-8.6-.16-8.8,1.54-7.61-8.07-7.8-2.67-.06-3.46,1-3.41,3.53C180.26,208.47,180.18,215.2,180.18,221.94Zm41.2-137.56a5.54,5.54,0,1,0-5.71,5.36A5.9,5.9,0,0,0,221.38,84.38Zm35.93,35.81a5.54,5.54,0,1,0-5.6,5.48A5.88,5.88,0,0,0,257.31,120.19Zm-89.83,17.95a5.54,5.54,0,1,0-5.57,5.5A5.85,5.85,0,0,0,167.48,138.14Z"/><path class="cls-1" d="M156.22,210.15c0,14.58-.08,29.17.06,43.76,0,3.26-1,4.34-4.26,4.28-9.47-.19-19-.15-28.43,0-2.94,0-3.87-1-3.87-3.9q.12-44.33,0-88.65c0-2.91.93-3.93,3.88-3.89q14.39.21,28.8,0c2.94,0,3.89,1,3.87,3.9C156.16,180.47,156.22,195.31,156.22,210.15Zm-12.5-.12c0-9.6,0-19.21,0-28.82,0-7.77,1-6.7-7-7-3.42-.12-4.5.91-4.48,4.41.16,19.83,0,39.67.1,59.5,0,8.47-1.29,7.3,7.59,7.53,2.93.08,3.94-.83,3.9-3.83C143.63,231.24,143.72,220.64,143.72,210Z"/><path class="cls-1" d="M24,227.92c0-8.72.1-17.45-.06-26.17,0-3.08,1-4.13,4.07-4.08q14.2.22,28.42,0c3.09,0,4.09,1,4.07,4.08q-.16,26.17,0,52.35c0,3.07-1,4.13-4.07,4.08q-14.2-.23-28.42,0c-3.09.05-4.12-1-4.07-4.08C24.06,245.38,24,236.65,24,227.92Zm23.95.21c0-3.37.05-6.74,0-10.11-.16-8.84,1.53-7.64-8-7.84-2.63-.05-3.48.93-3.44,3.5.11,8,0,16,.06,23.95.11,9.06-1.67,7.85,8.21,8,2.46,0,3.31-.91,3.25-3.3C47.82,237.61,47.9,232.87,47.91,228.13Z"/><path class="cls-1" d="M108.31,233.91c0,6.85-.09,13.71,0,20.56.06,2.75-.93,3.73-3.68,3.69q-14.58-.17-29.16,0c-2.75,0-3.71-.94-3.69-3.68q.15-20.56,0-41.13c0-2.74.93-3.72,3.68-3.69q14.58.17,29.17,0c2.75,0,3.74.94,3.68,3.69C108.22,220.2,108.31,227.05,108.31,233.91Zm-12.5.2c0-1.37,0-2.74,0-4.11-.17-8.84,1.53-7.7-8-7.8-.25,0-.5,0-.75,0-1.92-.11-2.68.83-2.66,2.7,0,6,0,12,0,18,0,1.33.21,2.36,1.86,2.73,7.41,1.68,9.58.05,9.58-7.37Z"/><path class="cls-1" d="M89.7,78.48c-12.46,0-24.93-.11-37.39.06-3.42,0-4.57-1-4.46-4.46.3-9.43-1.05-8.06,8.22-8.08,23.81-.07,47.62,0,71.42-.1,3.77,0,5,1,4.85,4.85-.34,8.87.93,7.66-7.86,7.71C112.89,78.53,101.29,78.48,89.7,78.48Z"/><path class="cls-1" d="M90.06,102.43c-12.59,0-25.18-.1-37.77.07-3.45,0-4.55-1.07-4.44-4.48.29-9.33-1-8,7.86-8.07,23.94-.06,47.87.06,71.8-.1,3.8,0,5,1.1,4.83,4.87-.34,8.84.94,7.65-7.88,7.7C113,102.48,101.53,102.43,90.06,102.43Z"/><path class="cls-1" d="M90.49,113.88c12.46,0,24.93.11,37.39-.06,3.44,0,4.56,1.05,4.45,4.47-.3,9.42,1,8-8.24,8.07-23.8.07-47.61,0-71.42.1-3.79,0-5-1.08-4.84-4.86.34-8.86-.93-7.65,7.88-7.7C67.3,113.83,78.89,113.88,90.49,113.88Z"/><path class="cls-1" d="M90.11,150.34c-12.59,0-25.18-.1-37.77.06-3.37,0-4.61-.94-4.5-4.43.31-9.46-1-8.09,8.2-8.11,23.81-.07,47.61,0,71.42-.1,3.72,0,5,1,4.89,4.81-.36,8.9.92,7.7-7.84,7.75C113,150.39,101.58,150.34,90.11,150.34Z"/><path class="cls-1" d="M29.91,78.48c-6,0-6,0-6-6.55,0-6,0-6,6.55-6,6,0,6,0,6,6.92C36.45,78.48,36.45,78.48,29.91,78.48Z"/><path class="cls-1" d="M36.46,96.21c0,6.22,0,6.22-6.29,6.22s-6.22,0-6.22-6.65c0-5.86,0-5.86,6.66-5.85C36.46,89.93,36.46,89.93,36.46,96.21Z"/><path class="cls-1" d="M30.4,113.88c6.06,0,6.08,0,6.05,6.45,0,6.76.48,6-6.82,6-5.69,0-5.69,0-5.68-6.82C24,113.88,24,113.88,30.4,113.88Z"/><path class="cls-1" d="M36.46,144.24c0,6.1,0,6.12-6.41,6.09-6.81,0-6.05.48-6.09-6.77,0-5.73,0-5.73,6.77-5.72C36.46,137.84,36.46,137.84,36.46,144.24Z"/><path class="cls-1" d="M239.54,275.84a36.19,36.19,0,1,1,36,36.17A35.86,35.86,0,0,1,239.54,275.84Zm36.12,23.61c12.72.08,23.73-10.91,23.68-23.66A24,24,0,0,0,276,252.2c-12.61-.31-23.66,10.56-23.87,23.47C251.9,288.31,262.85,299.37,275.66,299.45Z"/></g></g></svg>