<svg xmlns="http://www.w3.org/2000/svg" viewBox="0 0 448.39 373.19"><defs><style>.cls-1{fill:#08313a;}</style></defs><g id="Layer_2" data-name="Layer 2"><g id="Layer_1-2" data-name="Layer 1"><path class="cls-1" d="M448.39,326.63c-2.74,3.09-6.19,3.84-10.22,3.83-41.56-.09-83.11,0-124.66-.12a9.37,9.37,0,0,0-8.13,3.82c-22.82,27.65-52.36,41-88,38.79-30-1.84-54.73-15.12-73.76-38.52-2.36-2.9-4.69-4.12-8.44-4.11-41,.13-81.93.08-122.9.08-1.46,0-2.92,0-4.38,0-3.36-.06-6-1.41-7.28-4.6a7.44,7.44,0,0,1,1.89-8.44c4.65-4.63,9.37-9.18,14.05-13.79l28.63-28.27c4.44-4.39,4.42-4.38.24-8.74q-20.88-21.8-41.71-43.63a15.36,15.36,0,0,1-2.89-3.8c-2.5-5.23,1.1-10.7,7.4-10.63,4.24,0,5.53-.81,5.41-5.5A56.72,56.72,0,0,1,22,171.75a12,12,0,0,1,6.56-5.42,170.55,170.55,0,0,0,33.5-15.93c5.85-3.57,9.51-2.52,13,3.45,3.1,5.28,6.19,10.57,9.18,15.91,1.32,2.37,2.26,2.18,3.5,0q4.48-8,9.13-15.93c3.51-5.95,7.09-6.95,13.07-3.4A227.84,227.84,0,0,0,132,162c2.93,1.34,4.08.76,4.65-2.45a70.13,70.13,0,0,1,6.53-19.85,11.63,11.63,0,0,1,7-6.19,217.7,217.7,0,0,0,44.15-21c6.54-4,10.14-3,14,3.54,4.64,7.92,9.29,15.84,13.74,23.87,1.69,3,2.61,3.81,4.6.17,4.47-8.19,9.22-16.22,14-24.26,3.7-6.31,7.42-7.23,13.7-3.41,14,8.49,28.56,15.81,44.15,20.95a11.75,11.75,0,0,1,7,6.12,73.69,73.69,0,0,1,6.74,20.25c.55,2.85,1.58,3.5,4.42,2.22a189.51,189.51,0,0,0,20.17-10.44c8.51-5.16,11.34-4.37,16.32,4.43,2.44,4.31,5.07,8.52,7.34,12.93,1.88,3.65,3,2.9,4.66-.16,2.77-5.13,5.74-10.15,8.72-15.16,3.37-5.68,7.08-6.68,12.75-3.22a174.83,174.83,0,0,0,33.9,16.1,10.83,10.83,0,0,1,6,4.85A58.39,58.39,0,0,1,435,204.65c-.15,3.18.91,3.85,3.59,3.7,4-.22,7.52.83,9.76,4.53V219c-1,1.23-2,2.52-3.09,3.68q-21,22-42,43.93c-4.11,4.29-4.14,4.27,0,8.42l45.05,44.6ZM224.2,358.08c45.12.93,88.28-35.44,89-87.9.7-48.75-39.34-89-87.59-89.53-47.76-.5-89.82,36.82-90.05,88.29C135.37,322.48,179.2,358.79,224.2,358.08ZM423.42,223.8c-2.25-.11-3.53-.23-4.8-.23H322.4c-4.75,0-4.73,0-2.89,4.44,11.53,27.61,11.62,55.23,0,82.84-1.85,4.39-1.91,4.4,3,4.4q47.67,0,95.34,0c1.23,0,2.61.48,3.7-.58-.12-1.23-1.18-1.65-1.86-2.33q-17.42-17.24-34.84-34.44c-4.9-4.87-4.89-8.46-.09-13.48,7.34-7.7,14.73-15.36,22.07-23.06C412.18,235.76,417.44,230.13,423.42,223.8Zm-397.22.29c.09,1.39,1.21,2,2,2.79q17.63,18.52,35.3,37c5.4,5.65,5.43,9,0,14.43q-16.77,16.62-33.56,33.22c-.85.85-2.58,1.56-1.92,3.05.52,1.18,2.1.65,3.21.66q47.86,0,95.74.06c3.25,0,4.09-.6,2.64-3.93-12-27.64-11.9-55.39-.41-83.17,1.91-4.62,1.94-4.63-3-4.63q-47.87,0-95.74,0C29,223.59,27.5,223.12,26.2,224.09ZM81,208.34c15.89,0,31.77-.07,47.65.06,3.39,0,4.63-1,4.54-4.53-.19-7.13-.08-14.28.11-21.42.07-2.76-.94-4.24-3.48-5.26a117.54,117.54,0,0,1-18.89-9.07c-3.06-1.92-4.6-1-6.16,1.87-3.57,6.52-7.32,12.94-11.09,19.34-4.56,7.74-10.83,7.77-15.33.08-3.83-6.54-7.69-13.06-11.29-19.72-1.49-2.76-2.78-3.46-5.69-1.72-6,3.58-12.21,7.21-18.92,8.94-8.82,2.28-11.38,8.55-12.88,16.15a43.39,43.39,0,0,0-1,9.1c.08,6.11.08,6.18,6,6.18Zm286.92,0c15.73,0,31.47-.08,47.2.07,3.77,0,5.18-1.21,5.12-5A49.25,49.25,0,0,0,415.83,183a7.15,7.15,0,0,0-4.33-4,149.92,149.92,0,0,1-24.19-11.12c-2.62-1.49-4-1.23-5.42,1.48-3.68,6.78-7.6,13.44-11.51,20.1-4.4,7.48-10.7,7.54-15.11.11q-5.91-10-11.54-20.08c-1.44-2.6-3-3.17-5.57-1.57a118.31,118.31,0,0,1-18.88,9.08c-3,1.17-3.88,2.9-3.77,5.95.23,6.4.17,12.82.16,19.23,0,6.09-.05,6.11,5.88,6.11ZM219.69,165.61c-6.82-11.78-13.44-23.06-19.89-34.43-1.51-2.67-2.89-2.9-5.51-1.38a202.93,202.93,0,0,1-34,15.91,9.38,9.38,0,0,0-6.36,6.5,116.91,116.91,0,0,0-5.44,29.1c-.34,5.69-1.64,11.41-.37,17.78a105.7,105.7,0,0,1,32.71-23.84C193.11,169.53,206.08,166.63,219.69,165.61Zm9.36,0c28.14,1.83,52,12.85,71.72,33.49.94-6.86-.21-12.78-.62-18.7a116.24,116.24,0,0,0-5.37-28.22,9.43,9.43,0,0,0-6.37-6.5,212.15,212.15,0,0,1-32.49-15c-5.08-2.82-5-2.84-8,2.36C241.76,143.68,235.63,154.26,229.05,165.63Z"/><path class="cls-1" d="M224.32,0c27.56,0,48.22,23.53,45.12,51.14-1.67,14.8-4.89,29-13.46,41.51-5.95,8.66-13.63,15.19-24.33,17.2-14.38,2.69-25.91-3.06-35-13.48C182.13,79.62,176.76,59.5,179.6,37.82,182.47,15.91,202.17,0,224.32,0ZM193.89,46.87a67.89,67.89,0,0,0,3.17,19.77c3.06,9.94,7.86,18.85,16.67,25,8,5.48,16.35,5.16,23.85-.74,5.19-4.08,8.58-9.49,10.91-15.55,4.42-11.52,7.82-23.47,5.78-35.8-2.69-16.17-17.56-26-34.7-24.12C204.91,17,193.61,30.87,193.89,46.87Z"/><path class="cls-1" d="M362.9,57.73a36.86,36.86,0,0,1,36.33,42.35c-1.36,9.12-3.14,18.08-7.46,26.32-4.85,9.24-11.49,16.59-22,19.17s-19.59-1-27.21-8.2c-10.65-10-14.74-23-16.32-37.15-1.66-14.92,3.34-26.89,15.39-35.79A34.91,34.91,0,0,1,362.9,57.73Zm21.44,39.65c.52-14.55-8.42-24.21-20.83-24.45-13-.26-22.56,9.11-22.59,21.93a49.45,49.45,0,0,0,1.13,10.4c1.8,8.56,4.95,16.49,11.94,22.28,6.36,5.26,13.44,5,19.27-.59a27.09,27.09,0,0,0,5.66-8.24A61.54,61.54,0,0,0,384.34,97.38Z"/><path class="cls-1" d="M49.13,97.8c-.19-22.46,15.44-39.35,34.62-40,20.9-.74,38.56,14.24,39,34.71.3,14.84-3.18,29.27-12.55,41.48-11.53,15-30.52,16.49-44.29,3.53C53.71,126,50,111.15,49.13,97.8ZM86,72.92c-10.74,0-20.34,7.53-21.37,17.48-1.2,11.64,1.1,22.67,8,32.36,8.58,12,21,11.23,28.23-1.65,4.46-7.93,6.35-16.6,6.85-25.52C108.39,82.71,98.78,72.92,86,72.92Z"/><path class="cls-1" d="M181.24,321.94c1.22-9.09,2.46-19.35,4-29.56a8.15,8.15,0,0,0-2.5-7.79c-6.76-6.84-13.33-13.86-20-20.81-2.56-2.68-5.06-5.43-3.67-9.59s4.81-5.06,8.55-5.72c9.32-1.63,18.59-3.55,27.94-5,3.78-.58,5.84-2.38,7.51-5.66,4.3-8.44,8.91-16.71,13.39-25.05,1.71-3.2,3.73-6.08,7.82-6.09s6.13,2.85,7.84,6.05c4.68,8.73,9.45,17.41,14,26.2a7.56,7.56,0,0,0,6,4.35c9.76,1.64,19.48,3.51,29.22,5.24,3.6.64,6.84,1.74,8.15,5.61s-.85,6.7-3.32,9.29c-6.64,7-13.21,14-20,20.81a8.77,8.77,0,0,0-2.76,8.54c1.57,9.32,2.71,18.71,3.86,28.1.45,3.62.81,7.4-2.81,9.93s-7,1-10.31-.57c-8.67-4.16-17.36-8.26-26-12.57a7.93,7.93,0,0,0-7.82,0c-9.13,4.54-18.29,9-27.57,13.24C185.82,334.13,181,330.76,181.24,321.94ZM251,312c-1-7.59-1.8-14.49-2.93-21.34-.86-5.25-.18-9.63,4.05-13.45,4.42-4,8.33-8.57,12.53-12.83,2.46-2.5,1.62-3.49-1.48-4-6.32-1.05-12.58-2.45-18.92-3.36a10.85,10.85,0,0,1-8.71-6.38c-2.92-5.71-6.16-11.26-9.1-17-1.47-2.86-2.47-3.26-4.09-.09-3.07,6-6.41,11.79-9.53,17.72A10,10,0,0,1,205,257c-6.18,1-12.33,2.24-18.48,3.38-1.39.26-3.29-.09-3.82,1.47-.46,1.33,1.13,2.23,2,3.15,3.89,4.14,7.66,8.44,11.87,12.24s5,8.18,4.09,13.44c-1.13,6.86-1.91,13.77-3,21.44,6.79-3.31,13-6.06,19-9.35,5.23-2.88,10-3,15.24,0C237.92,306,244.19,308.73,251,312Z"/></g></g></svg>