<svg xmlns="http://www.w3.org/2000/svg" viewBox="0 0 385.5 376.39"><defs><style>.cls-1{fill:#08313a;}</style></defs><g id="Layer_2" data-name="Layer 2"><g id="Layer_1-2" data-name="Layer 1"><path class="cls-1" d="M385.33,288.41c-.49-1-1-2-1.46-2.93-1.05-2.12-2.13-4.31-3.34-6.41-10.77-18.76-19.61-34-27.83-48.13-1.17-2-1.13-2.9.22-4.52,20.51-24.65,23.5-56.42,8-85a73.31,73.31,0,0,0-39.46-33.5,74.33,74.33,0,0,0-51.81-.23,76.81,76.81,0,0,0-37.62,30.76A73.94,73.94,0,0,0,221,185.69c2.46,22.46,12.81,40.41,30.77,53.36,17,12.23,36,16.59,56.61,13,2.31-.41,3.29,0,4.35,2.07,2.24,4.24,4.69,8.43,7.07,12.49.92,1.58,1.85,3.15,2.76,4.74,2,3.46,4,6.94,6,10.41,4.55,7.95,9.24,16.17,14.05,24.16a23.65,23.65,0,0,0,19.59,11.78h.54A23.33,23.33,0,0,0,382,307.07a28.94,28.94,0,0,0,2.41-4.78c.31-.7.61-1.41.94-2.1l.15-.31V288.73ZM326,246.86s.1-.26,1-.66a53.07,53.07,0,0,0,11.91-6.92,3.85,3.85,0,0,1,.88-.57s.27.17.64.82q5.85,10.22,11.76,20.39c5.68,9.81,11.55,19.95,17.22,30a8.79,8.79,0,0,1,.3,8.76,7.73,7.73,0,0,1-6.87,3.79h0a7.6,7.6,0,0,1-7.28-4.09L345.45,280.9q-9.49-16.44-19-32.86C325.9,247.14,326,246.86,326,246.86ZM355.48,178A60.43,60.43,0,0,1,338,220.76a59.17,59.17,0,0,1-42.26,17.39h-.22a59.68,59.68,0,0,1-59.84-60c.14-33.59,26.43-59.84,59.88-59.84h.15A59.73,59.73,0,0,1,338.2,136,58.78,58.78,0,0,1,355.48,178Z"/><path class="cls-1" d="M314.26,276.91c-1.05-.07-2.11-.06-3.13-.05h-290c-5.8,0-6.43-1.14-6.43-5.63q0-112.73,0-225.45c0-4.69.6-5.29,5.34-5.33,2.48,0,5,0,7.46,0,5.15,0,10.47,0,15.72-.19a8.6,8.6,0,0,0,6.27-2.58,7.22,7.22,0,0,0,1.71-5.5c-.31-4.25-3.54-6.81-8.64-6.83-6.63,0-15.39-.08-24.28,0C7.38,25.42,0,32.82,0,43.76c0,75.55,0,152.78,0,229.55,0,10.87,7.4,18.21,18.42,18.27,6.52,0,13.15,0,19.56,0h8.44c3.91,0,6.5,0,7.25.75s.77,3.41.78,7.4c0,11.67,5.54,17.11,17.33,17.12h7.82c13.34,0,27.14,0,40.71,0a9.13,9.13,0,0,1,1.46.09,7.67,7.67,0,0,1-.56,1.28c-4.8,9.15-9.58,18.49-14.21,27.53l-3.91,7.64c-.48.94-1,1.88-1.46,2.82-1.56,3-3.17,6.11-4.59,9.25-1.69,3.73-.78,7.28,2.42,9.48a7.55,7.55,0,0,0,4.32,1.46,6.75,6.75,0,0,0,4.73-2,13.8,13.8,0,0,0,2.57-3.77l1.56-3c8.11-15.75,16.5-32,24.64-48.12,1-2,2-2.61,4.1-2.62,18.19.11,36.4.11,54.14,0h.07c2.1,0,3.09.63,4,2.57,3.21,6.5,6.59,13.05,9.86,19.38q1.78,3.45,3.55,6.9l3.57,7c3.12,6.11,6.35,12.42,9.59,18.6a9.17,9.17,0,0,0,5.29,4.88,7.19,7.19,0,0,0,5.62-.8c3.83-2.19,4.67-6.35,2.24-11.13q-7.56-14.93-15.19-29.81-3.69-7.2-7.36-14.41c-.59-1.14-1.19-2.32-1.44-3,.71-.08,2-.08,3.24-.08h14.58c11,0,22.38,0,33.58-.05,9.87-.06,15.81-6,15.91-16,0-.58,0-1.16,0-1.74,0-1.79.06-3.63-.06-5.46-.08-1.23.13-1.65.27-1.79s.56-.38,1.77-.32c3.05.13,6.13.1,9.11.07l3.65,0h4.8c3.94,0,8,0,12-.07,4.44-.12,7.4-3.08,7.37-7.36S318.81,277.18,314.26,276.91Zm-245,17.9a14.56,14.56,0,0,1,.14-3.11,15,15,0,0,1,3.1-.11l2.24,0q34,0,68,0H263.91a13.9,13.9,0,0,1,3.4.19,12.77,12.77,0,0,1,.22,3.49v1.94c0,1.92,0,3.91-.26,4.23a12.58,12.58,0,0,1-3.63.2l-2.33,0H73.91c-2.08,0-4,0-4.38-.34s-.32-2.31-.31-4.23C69.23,296.22,69.22,295.47,69.21,294.81Z"/><path class="cls-1" d="M238.05,101.25c2.24-3.19,3.16-4,5-3.17l.27.12h.3a22.4,22.4,0,0,0,18.08-7.74,18.93,18.93,0,0,0,4.12-16c-1.81-8.81-7.22-14.5-15.63-16.48-8.06-1.9-15,.47-20.24,6.84-5.6,6.87-6.46,14.65-2.48,22.5.71,1.4.68,2.09-.11,3.19C219.74,101,212,111.81,204.58,122.23l-4.39,6.15c-.83,1.16-1.21,1.36-2.14,1.16-5.26-1.18-10.43-.1-15.36,3.22-1.12.75-1.83.74-3.17-.07l-.43-.25c-3.14-1.88-6.39-3.83-9.76-5.47-5-2.44-7.16-4.38-6.24-8.85a4.1,4.1,0,0,0-.25-2.09c0-.14-.09-.27-.12-.4a20.64,20.64,0,0,0-22.35-15.54,20.27,20.27,0,0,0-17.86,20.48c0,2.28-.57,3.31-2.4,4.23a136.35,136.35,0,0,0-12.46,7.07c-2.3,1.48-3.79,1.5-6.14.08-7.39-4.44-16-3.77-23,1.8a20.38,20.38,0,0,0-6.83,21.37c3,10.36,12.32,16.27,23.21,14.7,9.63-1.39,16.85-10.06,16.8-20.15,0-2.32.56-3.37,2.35-4.3,4.52-2.36,9-5,13.31-7.5l1-.61a2.17,2.17,0,0,1,2.82.07c7.51,4.87,15.46,4.92,23,.11a2.44,2.44,0,0,1,3.14-.12c4.57,2.71,9.43,5.57,14.34,8.15,1.75.92,2.22,1.76,2.15,3.91a20,20,0,0,0,12.67,19.27,20.38,20.38,0,0,0,22.56-5,20.07,20.07,0,0,0,3.41-23.14c-.88-1.71-.81-2.55.31-4.09C221.85,124.09,230.1,112.58,238.05,101.25ZM194.22,155.1a5.22,5.22,0,0,1-3.73-1.64,5.19,5.19,0,0,1,3.68-9.07h.07a5.36,5.36,0,0,1,0,10.71ZM240.2,78a5.1,5.1,0,0,1,1.42-3.69,5.38,5.38,0,0,1,3.85-1.64,5,5,0,0,1,5.44,5.13,5.3,5.3,0,0,1-5.2,5.47A5.38,5.38,0,0,1,242,81.76,5.51,5.51,0,0,1,240.2,78ZM148,120.58a5.53,5.53,0,0,1-1.7,4,4.94,4.94,0,0,1-3.6,1.39,5.9,5.9,0,0,1-5.36-5.56,5.17,5.17,0,0,1,5.45-5.12h.08a5.25,5.25,0,0,1,3.79,1.44A5.33,5.33,0,0,1,148,120.58ZM96.89,149.63a5.55,5.55,0,0,1-1.73,3.85,5.24,5.24,0,0,1-3.64,1.63,5.32,5.32,0,0,1-5.31-5.42,5.26,5.26,0,0,1,1.43-3.86,5.14,5.14,0,0,1,3.76-1.44h0A5.31,5.31,0,0,1,96.89,149.63Z"/><path class="cls-1" d="M65,39.87a41.21,41.21,0,0,0,7.32.56q48.29,0,96.56,0H316.43c5.55,0,5.55,0,5.56,5.61,0,15.18,0,30.36,0,45.63a21.72,21.72,0,0,0,.69,6.65,7.28,7.28,0,0,0,5.37,5,7,7,0,0,0,1.63.19,7.39,7.39,0,0,0,5.43-2.41c1.93-2.09,2.09-4.58,2.08-7V45.63c0-13.48-6.83-20.32-20.27-20.32H209c-3.75,0-6.22,0-6.93-.72s-.73-3.23-.75-7C201.31,6.87,194.73.17,184.21.07s-21-.09-31.39,0c-9.6.1-15.85,5.59-17.14,15.08a29.89,29.89,0,0,0-.26,7,3.52,3.52,0,0,1-.36,2.56c-.4.44-1.38.63-3,.64-15.91-.13-32.09-.11-47.73-.09H68.82a18.57,18.57,0,0,0-3.47.18c-3.88.73-6.16,3.29-6.26,7A6.84,6.84,0,0,0,65,39.87Zm85.53-16.3c0-.87,0-1.66,0-2.39,0-2.8,0-5,.48-5.49s1.76-.43,3.65-.43h8.88c6.54,0,13.08,0,19.62,0,1.09,0,2.59.06,3,.48s.46,2,.46,3.08,0,2.06,0,2.88a18.58,18.58,0,0,1-.1,3.44,12.68,12.68,0,0,1-3,.14c-.9,0-2,0-3.25,0-2.71,0-5.48,0-8.16,0l-8.16,0c-3.82,0-7.77,0-11.66.05-1,0-1.36-.18-1.45-.27S150.52,24.65,150.52,23.57Z"/><path class="cls-1" d="M124,250.61c0,5.88,2.91,8.77,8.79,8.84,3.41,0,6.81.05,10.15.05s6.75,0,10-.06c5.86-.07,8.72-3,8.73-8.92.05-24.38.05-49.61,0-75,0-6-3-9-9-9.06-5.66-.06-11.4,0-17,0H134c-7.4,0-10,2.62-10,9.91q0,13.56,0,27.12v9.45c0,3.78,0,7.57,0,11.35C124,232.91,124,241.83,124,250.61Zm22.58-66.2c-.17,6.84-.14,13.79-.1,20.51,0,2.75,0,5.51,0,8.26s0,5.43,0,8.15c0,6.63-.07,13.49.1,20.24a3.56,3.56,0,0,1-.48,2.28c-.5.5-1.85.53-3.08.52a7.81,7.81,0,0,1-3.17-.38c-.19-.11-.78-.45-.76-2.51.19-19.15.19-38.37,0-57.11,0-2.7.64-2.72,3.44-2.78l.58,0h.64a2.2,2.2,0,0,1,2.83,2.85Z"/><path class="cls-1" d="M110.24,204c0-5.84-3-8.87-8.68-9-6.43-.16-13.23-.16-20.22,0-5.72.13-8.76,3.24-8.79,9-.08,14.84-.09,30.09,0,46.64,0,5.89,2.9,8.79,8.8,8.86,3.26,0,6.57.05,10,.05s6.67,0,10.19-.05c5.91-.06,8.68-2.86,8.73-8.83,0-5.42,0-10.94,0-16.27,0-2.29,0-4.57,0-6.86s0-4.69,0-7C110.27,215.06,110.28,209.47,110.24,204ZM89.37,244.3a2,2,0,0,1-1.32-.26,1.93,1.93,0,0,1-.31-1.31c0-10.49,0-21.07,0-31.3,0-.82.18-1.06.24-1.12a1.36,1.36,0,0,1,.84-.16c.32,0,.64,0,1,0H90c2.22-.06,4.33-.12,4.69.24s.37,2.42.37,4.61v16.56q0,4.58,0,9.14c0,1.23,0,3.09-.27,3.38a10.18,10.18,0,0,1-3.18.25H89.37Z"/><path class="cls-1" d="M175.47,250.62c0,6,2.8,8.77,8.7,8.83,3.14,0,6.37.05,9.73.05s6.56,0,10.07-.05c6.21-.05,9.12-2.87,9.17-8.89.1-14.92.1-30.61,0-46.64,0-5.74-3.09-8.84-8.84-9-7.18-.15-13.79-.15-20.21,0-5.76.14-8.58,3.09-8.62,9,0,5.41,0,10.91,0,16.24v13.9C175.44,239.63,175.43,245.13,175.47,250.62ZM198,242a3.09,3.09,0,0,1-.47,2.11,2.64,2.64,0,0,1-1.79.26c-.23,0-.45,0-.67,0h-1a13.55,13.55,0,0,1-3.67-.22,12.66,12.66,0,0,1-.23-3.56c0-3.09,0-6.18,0-9.27v-4.12c0-1.41,0-2.81,0-4.21,0-3.63,0-7.39,0-11.09,0-1.44.1-1.7,1.84-1.75h.23c2.67-.08,4.78-.15,5.24.3s.47,2.68.47,5.49q0,3.67,0,7.36C197.92,229.36,197.91,235.71,198,242Z"/><path class="cls-1" d="M241.66,237.6v-.52c0-.34,0-.68,0-1-.26-4.77-3.07-7.74-7.34-7.76h0c-4.41,0-7.21,3-7.32,7.75-.11,5-.11,10.14,0,15.35s2.89,7.92,8.26,8c1.3,0,2.6,0,3.9,0l3.11,0h3.1l1.36,0,2.22,0c2.76,0,5.6.07,8.42-.08a6.92,6.92,0,0,0,6.94-6.91c.22-4-2-6.76-6-7.64a32.37,32.37,0,0,0-7.43-.49c-.72,0-1.44,0-2.16,0H246c-2,0-3.84,0-4.17-.24a10.9,10.9,0,0,1-.17-3.17C241.67,240,241.68,238.89,241.66,237.6Z"/><path class="cls-1" d="M331.63,160.28a25.12,25.12,0,0,0,1.37,4.13,36.53,36.53,0,0,1,2.11,19c-2.74,21.22-22,36.41-43.91,34.6-19.59-1.64-35.51-19.55-35.49-39.93a39.55,39.55,0,0,1,39.34-39.77c8.38-.16,16.33,2.37,24.37,7.59a8.58,8.58,0,0,0,6.69,1.45,7.16,7.16,0,0,0,4.53-3.44c2.18-3.69.93-7.73-3.26-10.54-18.11-12.14-37-13.59-56.24-4.34-22.23,10.72-34.68,35.83-29.6,59.72,5.37,25.27,26.67,43.55,51.81,44.46.67,0,1.34,0,2,0a55.26,55.26,0,0,0,55.15-59.17,50,50,0,0,0-5-18.85c-1.92-3.89-5.79-5.55-9.63-4.13C332.33,152.46,330.65,156.05,331.63,160.28Z"/></g></g></svg>