<svg xmlns="http://www.w3.org/2000/svg" viewBox="0 0 377.99 373.4"><defs><style>.cls-1{fill:#08313a;}</style></defs><g id="Layer_2" data-name="Layer 2"><g id="Layer_1-2" data-name="Layer 1"><path class="cls-1" d="M0,373.4v-2.21c3-7.15,5.69-14.43,9-21.42,5.54-11.66,14.72-19.38,27.28-22.42,11.34-2.75,22.85-4.8,34.28-7.19,1.12-.24,2.79.13,3-1.48.19-1.28-1.3-1.64-2.16-2.24a47.65,47.65,0,0,1-18.29-24.37,6.94,6.94,0,0,0-4.63-4.65C39.73,284,33.88,277.61,33,268.06a233.82,233.82,0,0,1-.06-39.78,60.94,60.94,0,0,1,10.38-29.62,7.78,7.78,0,0,0,1-7.23A147.31,147.31,0,0,1,49,95.59q21-52.1,70.52-78.44C146.44,2.85,175.26-2.3,205.58.92a146.32,146.32,0,0,1,69.33,26.14c27.61,19.32,46.63,45.15,57.34,77.1a147.3,147.3,0,0,1,1.47,87.54c-.67,2.23-.77,4.14.67,6.25,7.93,11.65,11.36,24.68,11.39,38.68,0,11.69,0,23.38,0,35.07a41.62,41.62,0,0,0,.43,7c1.83,10.76,7.84,18.68,17,24.27,2.47,1.5,2.84,2.84,1,5.18-4.92,6.15-9.66,12.46-15.69,17.6-2.28,2-2.34,2.85.57,4.2A40.86,40.86,0,0,1,370,351.44c2.05,4.74,4,9.53,5.84,14.35,2.72,7.07,4.64,7.55-5.16,7.55H6.64C4.43,373.34,2.21,373.38,0,373.4ZM285.47,157.12h0c-3.07,0-6.15,0-9.22,0-10.89-.09-8.79-.22-9.69,9.39-.22,2.31.6,2.64,2.74,2.4a71.62,71.62,0,0,1,12.86-.77,66.85,66.85,0,0,1,37.75,14.13c2,1.55,2.88,1.27,3.4-1.26a143.9,143.9,0,0,0,2.39-16c.67-7.61.85-7.57-6.77-7.9-1.54-.06-3.59.33-4-1.77-.61-3.38-1.29-7.09.39-10.12,1.22-2.18,4.32-.7,6.55-1a10.45,10.45,0,0,1,1.48,0c2,0,2.9-1,2.8-3-.05-1.11,0-2.22-.13-3.32a137.83,137.83,0,0,0-41.71-86.51c-1.78-1.72-2.9-1.59-4.52.15a88.71,88.71,0,0,1-28,20.1c-2.64,1.21-3.1,2.42-1.8,5a159.44,159.44,0,0,1,9.32,23.26c4,12.71,6.87,25.63,7.6,39,.28,5,.79,5.32,5.8,5.33,7.5,0,15-.08,22.51,0,9,.12,8.41-1.72,8.49,8.88,0,3.11-1.36,4.11-4.24,4C294.82,157.05,290.15,157.12,285.47,157.12ZM81.11,144.19h19.2c10.06,0,10.06,0,11.07-9.86,0-.25.06-.49.09-.74A176.9,176.9,0,0,1,128,76.84c1.48-3.06.67-4.18-2.14-5.49A86,86,0,0,1,98.72,51.89c-2.2-2.38-3.46-2-5.58,0A137.38,137.38,0,0,0,65.19,90.63,134.19,134.19,0,0,0,52,139.11c-.36,4.71,0,5.07,4.75,5.08Zm-35.8,91.34c0,1.35.08,2.71,0,4.05-.19,2.63.7,3.32,3.21,2.26a19.82,19.82,0,0,1,7.53-1.6,52.69,52.69,0,0,0,39.13-17c3.71-3.88,3.86-3.87,7.67.06,9,9.24,19.6,15,32.53,16.45,5.09.56,10.34.15,15.21,2.38,1.83.84,2-.61,2-2a102.68,102.68,0,0,0-.55-12.51,53.54,53.54,0,0,0-64.27-45.47C62.71,187.69,45.41,209.4,45.31,235.53Zm180.19.2a28.26,28.26,0,0,1,0,3.32c-.37,3.28.86,3.9,3.77,2.62a18.27,18.27,0,0,1,7.18-1.44c15.3-.16,28.2-5.8,38.8-16.83,3.84-4,4-4,7.93.1,9,9.24,19.68,14.95,32.6,16.33,5,.53,10.09.14,14.84,2.3,2.11,1,2.19-.66,2.19-2.11a102.55,102.55,0,0,0-.58-12.5c-3.89-30.49-33.69-51.76-63.74-45.38C242.92,187.56,225.58,209.18,225.5,235.73Zm-91.1,34.43c0-5.66,0-9.72,0-13.78,0-2.26-.64-3.65-3.18-4.06a63.75,63.75,0,0,1-30.1-13.14,3,3,0,0,0-4.27,0,64.25,64.25,0,0,1-30.1,13.15c-2.51.4-3.25,1.71-3.23,4,.07,7.5-.11,15,.14,22.52.52,15.54,11.82,28.59,27.93,32.57,13.88,3.43,30.29-3.86,37.8-16.44C134.33,286.7,134.79,277.75,134.4,270.16Zm180.16,0c0-5.7,0-9.77,0-13.83,0-2.3-.73-3.6-3.24-4a64.25,64.25,0,0,1-30.1-13.15,3,3,0,0,0-4.27,0,63.24,63.24,0,0,1-29.74,13.06c-2.57.43-3.58,1.59-3.55,4.14.11,7.51-.11,15,.17,22.52.58,15.62,11.86,28.58,28,32.53,13.92,3.4,30.21-3.92,37.75-16.53C314.55,286.62,314.92,277.67,314.56,270.14ZM182.47,114.29c0-8.12,0-16.23,0-24.35,0-4.82-.67-5.51-5.52-5.72a119.4,119.4,0,0,1-30.45-5.13c-3.68-1.14-5.26,0-6.75,3.22-8.52,18.34-14.29,37.37-15.84,57.63-.26,3.43.63,4.31,3.86,4.3q25.08-.15,50.17,0c3.36,0,4.62-1.15,4.57-4.49C182.38,131.26,182.47,122.78,182.47,114.29Zm42.62,29.9H247.6c6.69,0,6.79,0,6.26-6.67-1.58-20-7.62-38.74-16.29-56.71-.94-2-2.09-2.73-4.37-2.06a132.79,132.79,0,0,1-33,5.51c-3.05.1-4.64,1.4-4.62,4.79q.16,25.46,0,50.91c0,3.19,1.24,4.33,4.41,4.28C208.37,144.09,216.73,144.19,225.09,144.19Zm-126.5,216h76c4.54,0,4.86-.54,2.91-4.58-4.44-9.22-11.89-14.5-21.76-16.53s-19.52-3.89-29.26-5.92c-2.82-.59-4.55-.31-6.09,2.74C116,344.49,108.59,349.07,99,349.1s-17-4.63-21.43-13.22c-1.54-3-3.22-3.38-6.07-2.78C61.74,335.14,52,337,42.22,339c-9.59,2-16.93,7-21.43,15.86-2.46,4.82-2.18,5.26,3.28,5.26Zm180.82,0H354.3c5.17,0,5.44-.46,3.07-5.16C353,346.39,346,341.21,336.7,339.22,326.49,337,316.22,335.15,306,333c-2.54-.53-3.94-.07-5.21,2.46-4.4,8.79-11.79,13.59-21.56,13.62s-17.22-4.68-21.65-13.46c-1.35-2.66-2.83-3.15-5.48-2.6-10.1,2.12-20.25,4-30.34,6.14-9.29,2-16.39,7.05-20.77,15.63-2.5,4.89-2.23,5.34,3.16,5.34Zm-97-173c0-8.61,0-17.21,0-25.82,0-2.88-1-4.27-4.08-4.26q-25.64.1-51.27,0c-2.69,0-3.42,1.11-3.08,3.62.45,3.28.75,6.59.93,9.9a4.65,4.65,0,0,0,2.9,4.28c17.18,8.54,28.63,22,34.49,40.28.75,2.35,2,2.91,4.43,2.53a78.65,78.65,0,0,1,11.35-1.05c3.2,0,4.38-1.27,4.34-4.4C182.4,203.91,182.47,195.55,182.46,187.19Zm13.17-.51q0,12.16,0,24.34c0,5.28.18,5.38,5.26,5.63a48.69,48.69,0,0,1,9.15.9c3.8.94,5.1-.55,6.26-4,5.68-16.81,16.38-29.52,32.17-37.73,3-1.57,4.93-3.29,4.85-6.92a41.41,41.41,0,0,1,.68-7.69c.52-3.06-.46-4.18-3.64-4.16q-25.08.15-50.16,0c-3.66,0-4.67,1.53-4.62,4.89C195.72,170.2,195.64,178.44,195.63,186.68Zm1.57,114.23a149.59,149.59,0,0,1-50.14-6c-2.47-.72-3.59.49-4.54,2.5a47,47,0,0,1-16.33,19.11c-.85.58-2.29,1-1.85,2.39.33,1.06,1.59,1,2.54,1.15,9.75,2,19.48,4.05,29.26,5.85,13.56,2.5,24.3,9.05,31.32,21.12,1.22,2.09,1.9,2.19,3.14,0a41.09,41.09,0,0,1,19-17.37c2.23-1,2.58-1.86.58-3.54-5.29-4.46-9.64-9.81-13.95-15.19s-4.19-5.27.89-9.59C197.2,301.33,197.17,301.16,197.2,300.91ZM170.77,14.55a132.42,132.42,0,0,0-62.18,24.36c-2.3,1.63-2.07,2.76-.31,4.54a85.46,85.46,0,0,0,24.33,17c2.52,1.19,3.77.4,5-1.76a231.61,231.61,0,0,1,20.06-28.67C161.9,24.8,166.29,19.7,170.77,14.55Zm36.57-.32c.08.49,0,.79.17.93A258.92,258.92,0,0,1,241,59.51c1.16,2,2.55,1.86,4.34,1a85.62,85.62,0,0,0,24.41-16.95c2.28-2.25,1.64-3.38-.66-5a138.49,138.49,0,0,0-28-15.47A127.53,127.53,0,0,0,207.34,14.23ZM182.47,258.8c0-8.35-.05-16.7,0-25.05,0-2.91-1-4.43-4.11-4.12-2.8.29-5.61.63-8.42.72-3.26.11-4.49,1.55-4.43,4.85.16,8.71,0,17.44.08,26.15.1,7.95-1.86,15.06-7.77,20.72-1.56,1.5-1.08,2.12.85,2.56a142.08,142.08,0,0,0,19.26,2.9c3.43.3,4.61-1.1,4.56-4.41C182.39,275,182.47,266.91,182.47,258.8Zm13.16-.12v25.1c0,.12,0,.25,0,.37.17,1.39-.34,3,1.77,3.53,8.53,2.06,14.6-2,14.87-10.91.44-14.26.18-28.55.24-42.82a3.07,3.07,0,0,0-3.06-3.43c-3.17-.35-6.36-.54-9.54-.89s-4.35,1.21-4.31,4.31C195.7,242.18,195.64,250.43,195.63,258.68ZM182.47,47c0-6.89,0-13.77,0-20.65,0-1.05.49-2.54-.67-3s-1.82,1-2.52,1.75A246.36,246.36,0,0,0,150.1,63.46c-1.61,2.62-.57,3.37,1.83,4a160.51,160.51,0,0,0,26.16,4.08c3.38.29,4.46-.68,4.41-3.89C182.4,60.75,182.47,53.87,182.47,47Zm13.16-24v9.51c0,11.68,0,23.35,0,35,0,1.9-.34,4.32,2.76,4.11a151.53,151.53,0,0,0,28-4.22c2.79-.74,2.85-1.89,1.45-4.15a246.14,246.14,0,0,0-28.43-37.56C198.55,24.73,197.87,23.47,195.63,23Zm-114,134.16q-12.35,0-24.69,0c-4.86,0-5.3.36-4.92,5.34a145.35,145.35,0,0,0,2.66,17.82c.68,3.29,1.59,3.45,4.21,1.5,13.5-10.09,28.62-14.85,45.56-13.31,7.23.66,7.1.62,6.87-6.76-.11-3.53-1.61-4.7-5-4.64C98.07,157.23,89.84,157.14,81.61,157.13ZM231.91,324c5.67-1.14,12.16-2.42,18.64-3.76,1.15-.24,2.82.09,3.2-1.31s-1.35-1.84-2.27-2.5c-7.91-5.64-13.93-12.86-17.21-22-1.46-4.06-3.41-6.66-7.62-7.9-2.1-.62-3.06-.73-3.78,1.54a43,43,0,0,1-10.33,17.2c-1.73,1.77-1.8,3.17-.12,5a72.72,72.72,0,0,0,13.5,11.89A10,10,0,0,0,231.91,324Zm94.33,0a8,8,0,0,0,4.47-.86c6.19-3.5,11.22-8.35,15.82-13.7,1.12-1.31.77-2.46-.31-3.57a47,47,0,0,1-11-18.16c-.27-.8-.45-1.68-1.58-1.78-2-.17-7.77,3.53-8.43,5.58a48.91,48.91,0,0,1-6.38,12.84A48.06,48.06,0,0,1,306,316.87c-.68.46-1.68.8-1.53,1.87.12.87.95,1,1.68,1.18C313,321.3,319.9,322.66,326.24,323.92ZM98.92,336.21A11.74,11.74,0,0,0,110.28,327c.43-2,0-3.2-2.32-2.77a49.29,49.29,0,0,1-17.92,0c-2.23-.41-2.87.54-2.43,2.68A11.8,11.8,0,0,0,98.92,336.21Zm180.33,0a11.81,11.81,0,0,0,11.26-9.39c.44-2.23-.36-3-2.51-2.62a49.23,49.23,0,0,1-17.91,0c-2-.37-2.66.5-2.34,2.48A11.81,11.81,0,0,0,279.25,336.21ZM50.58,273.38c0-5.48.14-10.71-.07-15.92-.08-2-1.38-1.21-2.21-.3C44.07,261.78,44.53,270.39,50.58,273.38Zm96.73.1c6.34-3.5,6.35-11.93,2.28-16.36-.41-.45-.86-1-1.54-.79s-.74.93-.74,1.54C147.3,262.89,147.31,267.91,147.31,273.48Zm83.49,0c0-5.56,0-10.58,0-15.6,0-.6,0-1.34-.69-1.57-.86-.27-1.32.45-1.79,1C224.31,262,224.73,270.11,230.8,273.53Zm96.69,0c6.23-3.66,6.35-11.74,2.46-16.23-.47-.54-.93-1.26-1.79-.95-.7.25-.66,1-.66,1.59C327.49,263,327.49,268,327.49,273.56Z"/></g></g></svg>