<svg xmlns="http://www.w3.org/2000/svg" viewBox="0 0 373.5 373.4"><defs><style>.cls-1{fill:#08313a;}</style></defs><g id="Layer_2" data-name="Layer 2"><g id="Layer_1-2" data-name="Layer 1"><path class="cls-1" d="M373.5,191.92c-2.14,5.05-5.07,9.37-10.2,11.88A18.73,18.73,0,0,1,339,197.08c-1.6-2.6-3.27-3.62-6.34-3.61q-67.23.15-134.46,0c-3.8,0-5,1.23-4.63,4.82.25,2.65,0,5.34,0,8,0,5.07,0,5.08,4.94,5.08h93.28c11.77.09,19.82,8.17,19.88,20,0,9,.08,18,0,27,0,2.57.66,4.14,3,5.52A18.75,18.75,0,0,1,323,286.55c-3.13,8.49-11.82,13.84-20.38,12.56A19.06,19.06,0,0,1,286,280.67a18.13,18.13,0,0,1,9.25-16.7,5.56,5.56,0,0,0,3.1-5.54c-.13-9,0-18-.07-27,0-4.84-1.77-6.7-6.58-6.71-31.46,0-62.92,0-94.37-.07-2.89,0-3.9,1.09-3.75,3.88a69.23,69.23,0,0,1,0,9.11c-.28,3.5,1,4.62,4.54,4.6,19.68-.14,39.36-.06,59-.07a19.16,19.16,0,0,1,6.5.68,6.08,6.08,0,0,1,4.34,6.44c-.11,3.18-1.89,5.16-4.9,6a9.18,9.18,0,0,1-2.17.2c-1.09,0-2.19,0-3.28,0-19.92,0-39.84.07-59.76-.07-3.42,0-4.41,1.08-4.31,4.37.26,8.76-.88,7.49,7.62,7.55,9.47.06,18.95,0,28.42,0,11.87.07,19.85,7.9,20,19.86.16,10.81.13,21.63,0,32.43,0,3.08.73,5,3.55,6.78A18.43,18.43,0,0,1,261,348.09c-2.67,8.47-9.87,13.42-19.17,13.17A18.89,18.89,0,0,1,233.49,326a4.84,4.84,0,0,0,2.82-4.89c-.09-11.05,0-22.11-.05-33.16,0-5-2.08-7.38-6.92-7.45-11.78-.16-23.56-.06-35.34-.07-1,0-2,0-2.66.88-4.49,6.11-10.8,5.59-17.19,4.73a100.23,100.23,0,0,1-86.4-86.13c-7.16-52.52,29.6-102.64,81.8-111.45a102.94,102.94,0,0,1,11.2-1.29,11.19,11.19,0,0,1,9.39,4,5.53,5.53,0,0,0,4.67,2.17c11.3-.08,22.59,0,33.89-.06,5.33,0,7.54-2.28,7.56-7.55,0-11.06,0-22.11.05-33.16a4.87,4.87,0,0,0-2.88-4.86A18.79,18.79,0,0,1,225,24.75a19.22,19.22,0,0,1,21.61-12.18C255,14,262,22.24,262,31c0,7-3,12.79-9.14,16.4-2.48,1.45-3.24,3.14-3.21,5.85.12,10.81.08,21.62,0,32.43,0,5.65-1.51,10.77-5.64,14.92a17.62,17.62,0,0,1-13,5.6c-11.06,0-22.11.14-33.16-.06-3.45-.06-4.38,1.13-4.29,4.41.26,8.75-.87,7.48,7.64,7.51,19.07.06,38.14,0,57.21,0,1.21,0,2.44,0,3.64.07a6.49,6.49,0,0,1,.85,12.82,25.83,25.83,0,0,1-5.42.45q-29.52,0-59,0c-4.79,0-4.8,0-4.82,4.92,0,3,.1,6.08,0,9.11-.1,2.49.9,3.64,3.41,3.45.6,0,1.21,0,1.82,0q45.54,0,91.09,0c7.06,0,8.38-1.31,8.39-8.22,0-8.14-.12-16.28.06-24.42.08-3.23-.79-5.22-3.72-7-8-4.95-10.7-14.76-7-23.35,3.47-8.14,12.73-13,21.18-11.1A19.11,19.11,0,0,1,324.08,94.3,18.35,18.35,0,0,1,314.37,110a4.63,4.63,0,0,0-2.67,4.62c.09,9.23.08,18.47,0,27.7-.07,11.86-8.11,19.93-19.92,19.94q-46.65,0-93.29,0c-4.87,0-4.88,0-4.89,4.75,0,3.41.05,6.81,0,10.21,0,2,.78,3,2.8,2.86.73,0,1.46,0,2.19,0q66.86,0,133.73.06c3.12,0,4.95-.87,6.69-3.63,7.77-12.32,26-11.35,32.73,1.58.62,1.18,1.15,2.4,1.73,3.6Zm-193.29-5.11q0-40.06,0-80.14c0-7,1.19-6.63-6.61-5.41A86.59,86.59,0,0,0,102,203.85c7.08,36.27,38.58,65.42,74.17,69,3.89.39,4.11-1,4.11-4.05Q180.15,227.79,180.21,186.81ZM310.66,93.6A5.43,5.43,0,0,0,305,87.9a5.64,5.64,0,0,0-.13,11.27A5.42,5.42,0,0,0,310.66,93.6ZM305,274.48a5.64,5.64,0,1,0,.27,11.27,5.64,5.64,0,0,0-.27-11.27ZM248.61,31.41a5.43,5.43,0,0,0-5.47-5.59,5.28,5.28,0,0,0-5.82,5.54,5.56,5.56,0,0,0,5.37,5.76A6,6,0,0,0,248.61,31.41Zm111.75,155.4a5.37,5.37,0,0,0-5.71-5.61,5.64,5.64,0,1,0,.08,11.27A5.33,5.33,0,0,0,360.36,186.81Zm-117.57,161a5.48,5.48,0,0,0,5.82-5.25,6,6,0,0,0-5.57-6.07,5.57,5.57,0,0,0-5.72,5.78A5.3,5.3,0,0,0,242.79,347.85Z"/><path class="cls-1" d="M170.88,373.4c-6.71-1.06-12.2-4-15.37-10.29A30.72,30.72,0,0,1,152.67,350c-.22-8.66-3.92-12.74-12.61-14.64-11.27-2.47-21.65-7.88-31.56-13.86-2.35-1.42-4-1.37-6.17.29-4.33,3.33-8.78,6.51-13.3,9.57-7.31,4.95-15.52,4.48-22.2-1.23a191.39,191.39,0,0,1-22-21.75c-7.19-8.49-7.65-16.07-1.31-25.14,3-4.28,6-8.55,9.12-12.74a3.29,3.29,0,0,0,.17-4.25A151.3,151.3,0,0,1,36,225.73a3.65,3.65,0,0,0-3.45-3.09c-5.64-.84-11.26-1.8-16.87-2.82A17.8,17.8,0,0,1,.84,203.57a166.82,166.82,0,0,1,0-33.44,17.77,17.77,0,0,1,15.1-16.34c5.5-.95,11-1.92,16.51-2.73,1.94-.28,3-1,3.5-3a148.78,148.78,0,0,1,16.8-40.57,3.54,3.54,0,0,0-.25-4.56q-5-6.72-9.75-13.64C37.41,81.5,37.89,73.46,44,66.21A183.48,183.48,0,0,1,66.67,43.6c7.06-5.92,15.27-6.28,22.81-1,4.58,3.2,9.13,6.45,13.61,9.78a3.6,3.6,0,0,0,4.6.22,149.28,149.28,0,0,1,40.2-16.76,3.79,3.79,0,0,0,3.28-3.66c.76-5.53,1.77-11,2.74-16.51,1.49-8.39,7.27-13.81,15.63-15A75,75,0,0,1,180.43,0c7.33.05,13,5,13.09,12.36q.34,25.14,0,50.29c-.1,7.4-5.6,12.35-13.27,12.83a111.49,111.49,0,0,0-99.67,77.73c-20.3,64.38,20.75,132,87.18,143.53A100.91,100.91,0,0,0,180,298.19c8.34.43,13.53,5.74,13.57,14.06.08,15.91,0,31.83,0,47.74,0,6.49-3.33,10.68-8.91,13.41Zm9.28-335.49h0c0-6.8-.14-13.61.06-20.41.09-3.23-1-4.5-4.23-4-.95.14-1.94.06-2.91.12-4.38.26-5.71,1.5-6.42,5.85-1.09,6.71-2.42,13.38-3.26,20.12-.62,4.9-3.25,7.13-7.85,8.11a134.91,134.91,0,0,0-45.46,19c-3.5,2.27-6.7,2.28-10.08-.21-5.77-4.24-11.67-8.31-17.43-12.57-2.78-2.06-5.21-2.07-7.85.21a174.5,174.5,0,0,0-20.1,20c-3,3.54-3,4.88-.3,8.69q6.23,8.76,12.52,17.47c2.09,2.88,2.36,5.82.42,8.81a143.92,143.92,0,0,0-20,48.17,6.93,6.93,0,0,1-6.19,5.8c-7.18,1.16-14.34,2.51-21.54,3.51-3.45.48-5.33,2.13-5.63,5.52a161.63,161.63,0,0,0,0,29.43c.31,3.34,2.1,5.09,5.59,5.58,6.84.94,13.62,2.41,20.47,3.31,4.57.61,6.82,3,7.74,7.36a135.22,135.22,0,0,0,19,45.82c2.46,3.8,2.27,7.1-.44,10.68-4.1,5.42-8,11-11.91,16.56-2.79,3.93-2.67,5.23.5,9a175,175,0,0,0,19.33,19.27c3.6,3.12,4.9,3.16,8.93.28q8.61-6.14,17.18-12.31c3-2.16,6-2.4,9.14-.37A142.57,142.57,0,0,0,157,326.42c3.67.81,5.64,2.88,6.21,6.61,1.08,7.08,2.36,14.12,3.52,21.18.7,4.24,2,5.52,6.08,5.82,1.45.11,2.92.07,4.37.18,2.2.16,3-.85,3-3q0-21.31,0-42.64c0-2.18-1-3-3-3.21-2.9-.28-5.78-.67-8.66-1.08-66.71-9.5-114.69-72-105.42-139.06C69.81,123,96.65,89.45,141.54,70.54a109.57,109.57,0,0,1,34.25-8c2.88-.22,4.63-1,4.46-4.59C179.93,51.28,180.16,44.59,180.16,37.91Z"/></g></g></svg>