<svg xmlns="http://www.w3.org/2000/svg" viewBox="0 0 373.18 373.19"><defs><style>.cls-1{fill:#08313a;}</style></defs><g id="Layer_2" data-name="Layer 2"><g id="Layer_1-2" data-name="Layer 1"><path class="cls-1" d="M17,373.19C8.83,370.37,2.89,365.34.59,356.65A23.53,23.53,0,0,1,0,350.52Q0,186.65,0,22.78C0,9.41,9.36,0,22.68,0q132,0,264,0c13.16,0,22.58,9.36,22.62,22.41q.09,39,0,77.93c0,4.35-1.81,7-5.36,8.12s-6.15-.17-8.31-2.9c-1.48-1.86-1.39-4.07-1.39-6.26V27.23c0-1.21,0-2.43,0-3.64-.35-5.65-2.78-8.1-8.41-8.47-1.21-.08-2.43,0-3.64,0H27.27c-1.09,0-2.19,0-3.28,0-6,.26-8.59,2.76-8.89,8.75-.06,1.21,0,2.42,0,3.64V346.12c0,1.22,0,2.43,0,3.64.33,5.81,2.83,8.28,8.68,8.58,1.21.06,2.43,0,3.64,0h257.1c7-.12,9.69-2.69,9.71-9.76.06-16,0-32,0-48.06a29.56,29.56,0,0,1,.12-4,7.48,7.48,0,0,1,14.83.1,35.17,35.17,0,0,1,.12,4.36c0,15.42-.36,30.84.11,46.25.4,13-4.78,21.66-17.12,25.94Z"/><path class="cls-1" d="M373.18,127.73c-4.19,12.7-12,23.51-18.55,35-25,43.58-50.19,87-75.28,130.55a22.37,22.37,0,0,1-6.26,7q-21.28,15.58-42.5,31.31c-3.16,2.34-6.41,3.67-10.06,1.5s-4.09-5.49-3.61-9.49c2.13-17.93,4-35.88,6-53.84a17.87,17.87,0,0,1,2.55-7.12q42.88-74.23,85.75-148.47c2.9-5,5.39-10.39,9.73-14.43,17.54-16.34,44.18-9.26,51.4,13.62.29.92.57,1.85.85,2.77ZM267.43,281c1.91-.08,2.22-1.77,2.89-2.93q34.79-60.16,69.54-120.33c1.25-2.15,1.14-3.24-1.14-4.5-7.11-3.92-14.17-8-21.12-12.17-2.48-1.51-3.71-1.12-5.08,1.34-4.49,8.05-9.17,16-13.78,24Q270.91,214.6,243,262.77c-1.44,2.49-1.18,3.71,1.33,5.09,7,3.86,13.9,7.94,20.84,11.92C265.94,280.2,266.69,280.59,267.43,281Zm74.16-174.9a15.25,15.25,0,0,0-12.11,7.27c-2.16,3.35-4,6.89-6.12,10.31-.95,1.56-.78,2.59.88,3.53q11.37,6.48,22.66,13.09c1.33.77,2.47.95,3.34-.63,2.27-4.14,5.13-8,6.8-12.41C360.93,117,353.45,106.1,341.59,106.1ZM234.08,308.52l.9.59q10.38-7.61,20.74-15.2c1.32-1,.46-1.58-.48-2.12-5.26-3-10.53-6-15.76-9.1-1.74-1-2.47-.38-2.67,1.33C235.88,292.18,235,300.35,234.08,308.52Z"/><path class="cls-1" d="M221.93,106.52a67.26,67.26,0,1,1-67.06-67.18A67,67,0,0,1,221.93,106.52Zm-93.71-4.36c0-1.71-.06-2.92,0-4.13.62-11.12,6.08-19.17,16.21-23.47s19.33-2.32,27.86,4.56c10.49,8.46,11.31,28,5.27,37.88-1.29,2.12-.93,3,1.21,4.1a43,43,0,0,1,15.59,12.83c2,2.67,3.11,2.2,4.65-.36a52.37,52.37,0,0,0,7.32-31.66c-1.54-20.34-15.75-38.26-35.73-44.81C151.29,50.76,129,56.9,115.87,72c-10.58,12.18-14.69,26.3-12.56,42.17a47.56,47.56,0,0,0,7.41,20c1.24,1.89,2.24,2.35,3.77.32a46.5,46.5,0,0,1,16.71-13.74c1.51-.74,1.89-1.54.93-3.1A25,25,0,0,1,128.22,102.16Zm26.51,56.52c10.16-.43,19.84-3,28.59-8.77,2.11-1.41,2-2.47.78-4.33-13.25-19.92-44.92-20.15-58.5-.44-1.66,2.42-1.2,3.67,1.14,5.19C135.21,155.84,144.58,158.21,154.73,158.68Zm11.33-57.56c0-7.75-4.12-12.9-10.58-13.26s-10.89,3.56-12,10.57c-1.23,7.72,2.15,14.38,8.08,16C159.7,116.56,166.09,110.72,166.06,101.12Z"/><path class="cls-1" d="M142.11,211.74c-16.75,0-33.5,0-50.25,0-3.41,0-6.24-.89-7.94-4a7.46,7.46,0,0,1,5.39-10.89,25.4,25.4,0,0,1,4-.15h97.95a26.66,26.66,0,0,1,4,.15,7.49,7.49,0,0,1,0,14.77,26.66,26.66,0,0,1-4,.15Z"/><path class="cls-1" d="M142.28,252.53c-16.87,0-33.74,0-50.61,0-3.78,0-6.68-1.28-8.13-4.89a7.45,7.45,0,0,1,5.61-10,23.05,23.05,0,0,1,4-.17q49.15,0,98.32,0a32.38,32.38,0,0,1,3.27.07,7.35,7.35,0,0,1,6.76,7.65,7.24,7.24,0,0,1-6.78,7.25c-2.65.21-5.33.1-8,.1Z"/><path class="cls-1" d="M142.26,293.32q-25.3,0-50.61,0c-5.29,0-8.49-2.85-8.57-7.36a7.33,7.33,0,0,1,6.44-7.57,27.62,27.62,0,0,1,3.64-.12h98.32a29.69,29.69,0,0,1,3.27.08,7.48,7.48,0,0,1-.06,14.89c-2.9.22-5.82.1-8.73.1Z"/><path class="cls-1" d="M174.32,334.11c-6.19,0-12.38,0-18.57,0-5.29,0-8.49-2.84-8.57-7.35-.09-4.69,3.16-7.67,8.61-7.69q18.57-.06,37.13,0c5.29,0,8.49,2.84,8.57,7.36.09,4.69-3.16,7.64-8.6,7.68C186.7,334.15,180.51,334.11,174.32,334.11Z"/><path class="cls-1" d="M59.32,211.69a7.49,7.49,0,1,1,.27-15,7.49,7.49,0,1,1-.27,15Z"/><path class="cls-1" d="M67,245a7.47,7.47,0,0,1-7.71,7.47,7.49,7.49,0,0,1,0-15A7.47,7.47,0,0,1,67,245Z"/><path class="cls-1" d="M59.55,278.29a7.49,7.49,0,1,1-.19,15,7.49,7.49,0,1,1,.19-15Z"/></g></g></svg>