<svg xmlns="http://www.w3.org/2000/svg" viewBox="0 0 361.28 361.18"><defs><style>.cls-1{fill:#08313a;}</style></defs><g id="Layer_2" data-name="Layer 2"><g id="Layer_1-2" data-name="Layer 1"><path class="cls-1" d="M93.19,361.17H19.05c-11.9,0-18.92-7.08-18.94-19q0-22.36,0-44.71c0-10.9,7.33-18.17,18.29-18.19,14.78,0,29.56-.07,44.34,0,2.61,0,4.28-.71,5.5-3.1,1.87-3.67,4-7.18,6.09-10.75,2.44-4.22,2.44-4.19-1.93-6a115,115,0,0,1-52.07-42.14A116.49,116.49,0,0,1,43.51,60.74,8.3,8.3,0,0,0,46.8,54.4c2.5-23.58,15-39.86,36.72-49.08A65.69,65.69,0,0,1,110.05,0c11.24.11,22.45-.35,33.5,2.94C168.5,10.39,184.72,30,186.7,56a5.1,5.1,0,0,0,2.19,3.9C212.77,79,227.3,103.55,232,133.7A112.8,112.8,0,0,1,220,205.5c-1.53,2.87-1.28,4.49,1,6.77q47.92,47.68,95.66,95.57c11.26,11.29,12.94,27.44,4.33,39.8-11.25,16.15-33.31,18.23-47.46,4.21-24.17-24-48.17-48.12-72.25-72.19-8.14-8.14-16.33-16.23-24.38-24.46-1.73-1.76-3-2.1-5.29-.89-16.95,9.11-35,14-54.33,13.76-2.54,0-2.92.53-1.65,2.82,4.61,8.3,4.54,8.34,14,8.34,13,0,25.93,0,38.9,0,10.93,0,18.18,7.3,18.2,18.28q.06,22.73,0,45.44c0,10.83-7.42,18.19-18.31,18.2Q130.81,361.21,93.19,361.17ZM198.45,151.34c-.14,3.77-.18,7.5-.68,11.25a81.64,81.64,0,0,1-80.83,71c-22.26.22-41.73-7.95-57.71-23.59C28,179.41,26.64,129.42,56,96.87c1.9-2.11,2.17-3.5.45-5.82a49.69,49.69,0,0,1-7-13.92c-1.4-4.18-1.46-4.2-4.65-1-25.47,25.09-36.45,55.46-31.1,90.8,5.67,37.44,26.72,63.93,60.88,80,8,3.75,8.09,3.52,12.51-3.81l.18-.32c3.44-5.56,8.87-5.51,12.28.16q3,5,5.77,10.09a4.28,4.28,0,0,0,3.72,2.39A92.14,92.14,0,0,0,139,253.33c55.84-12.6,90.72-65.84,79.87-122.08-4.24-22-14.8-40.57-31.11-55.92-2-1.87-2.89-2.07-3.71.92a46.35,46.35,0,0,1-7.29,15c-1.6,2.2-1.37,3.53.43,5.54C191.18,112.25,198.15,130.51,198.45,151.34ZM93.05,349q36.53,0,73.05,0c6.57,0,8.5-1.91,8.5-8.41q0-20.36,0-40.7c0-6.7-1.9-8.53-8.75-8.53-15.63,0-31.26-.13-46.88.07-4.34.05-7-1.58-9-5.29-4.72-8.6-9.67-17.07-14.57-25.57-1.76-3.06-2.19-3.06-3.94,0-4.84,8.39-9.79,16.73-14.36,25.27-2.25,4.18-5.22,5.69-9.92,5.62-15.5-.23-31-.1-46.52-.08-6.51,0-8.4,1.93-8.41,8.49q0,20.17,0,40.35c0,7,1.81,8.8,8.83,8.8Zm221-18.7a20.65,20.65,0,0,0-6.42-14.07q-47-47-94-94.07c-1.77-1.78-2.78-2-4.43.18a101.42,101.42,0,0,1-21,21c-2.88,2.13-2.59,3.36-.23,5.7q46.22,46,92.29,92.18a36.85,36.85,0,0,0,4.33,3.87c6.17,4.45,12.79,4.89,19.52,1.51S313.66,337.34,314.07,330.33ZM157.16,87.07c0-3.76.09-7.52,0-11.27a33.07,33.07,0,0,0-5.06-17.21c-1.45-2.27-2.5-2.58-4.76-.9a63,63,0,0,1-30,12.15c-7.6,1-15.24.28-22.87.5C84.14,70.63,77.21,76.79,76.37,87a73.94,73.94,0,0,0,.81,19.93,40.07,40.07,0,0,0,39.29,32.56c19.6-.05,34.64-12.76,39.22-30.35C157.57,101.88,157.19,94.45,157.16,87.07ZM64.71,80.14c.39-1,.64-1.49.85-2,4.68-12.63,14.93-19.85,28.3-19.9,4.48,0,9,.05,13.44,0,12.21-.16,23.42-3.4,33.25-10.85,2.42-1.83,4.8-3.71,7.32-5.38,2.94-1.95,6.23-1.8,8.2.82,5.39,7.16,10.59,14.46,12.5,23.54.82,3.91.6,7.86.84,12.68a37.66,37.66,0,0,0,5-20.56c-.9-20.5-11.32-34.45-30.34-42-11.57-4.6-23.65-4.62-35.8-4a60.22,60.22,0,0,0-27.27,8C60.34,32.25,52.51,60.17,64.71,80.14ZM118.07,221c2.83-.33,7.2-.58,11.47-1.38,16.85-3.16,30.55-11.64,41.38-24.9,1.53-1.86,1.56-3.29-.26-4.93a69.58,69.58,0,0,0-6.33-5.42c-7.05-5-15.15-6.67-23.46-8a16.87,16.87,0,0,0-10.11,1.24,33.45,33.45,0,0,1-27.49.22,20,20,0,0,0-11.53-1.37C81.1,178,71.32,181.21,63.43,189c-2.44,2.41-2.42,4.06-.23,6.61C77.26,212,95.05,220.4,118.07,221Zm-24.9-66c0-1.94-.1-3.88,0-5.81.13-2.1-.79-3.3-2.57-4.32-13.67-7.88-22-19.68-25.58-35-.21-.89.18-2.28-1-2.53s-1.77,1.07-2.38,1.91c-15.32,21-18.36,43.66-9.37,68,1,2.76,1.94,3.34,4.45,1.08a55.1,55.1,0,0,1,27.78-13.29C94.74,163.24,93,165.39,93.17,155Zm47.05-1.23v4.34c0,5.5,0,5.6,5.59,6.44,11.65,1.73,22.2,5.94,31,14,2.37,2.18,3.28,1.49,4.23-1.06,9-24.46,6-47.25-9.43-68.32-.55-.75-1.06-2-2.1-1.78-1.42.25-.93,1.77-1.16,2.73-3.16,13.53-10,24.78-21.76,32.26C141.48,145.55,138.85,148.88,140.22,153.75Zm-34.9,4.49a15.36,15.36,0,0,1,0,2.54c-.7,4,1.38,5.7,5,6.43a26.87,26.87,0,0,0,11.5.24c6.22-1.41,6.29-1.39,6.29-7.87,0-1.94-.08-3.88,0-5.81.1-2.34-1-3.06-3.14-2.59-4.19.94-8.44.62-12.67.49C105.32,151.46,105.32,151.38,105.32,158.24Z"/><path class="cls-1" d="M247.54,34.92c3.64,0,7.3-.27,10.9.07,4.07.39,6.33-1,8.06-4.82,3.61-8.06,7.84-15.85,11.75-23.78C279.8,3.25,281.41.16,285.5.21c3.89.05,5.49,3,7,6,4.13,8.37,8.42,16.65,12.44,25.07,1.26,2.63,2.76,3.76,5.81,3.69,8.6-.22,17.2,0,25.81-.1,3.06,0,5.57.77,6.79,3.77s.1,5.37-2.07,7.52c-7.49,7.42-14.8,15-22.44,22.29-2.6,2.46-3,4.62-2,7.93,3.13,10.18,5.89,20.48,8.85,30.71,1,3.38,1.24,6.6-2.13,8.75s-6.2.65-8.89-1.62c-8.71-7.33-17.56-14.51-26.15-22-2.5-2.18-4-1.89-6.33.12-8,6.87-16.16,13.54-24.26,20.28-.83.7-1.7,1.37-2.52,2.08-2.54,2.21-5.33,3-8.3,1.07s-3.08-4.94-2.17-8.1c1.8-6.28,3.57-12.58,5.36-18.87,1.25-4.42,2.36-8.9,3.82-13.26.95-2.83.23-4.72-1.85-6.74-7.3-7.09-14.4-14.39-21.65-21.53-2.43-2.4-4.65-4.83-3.24-8.53s4.75-4,8.18-3.88C239.54,35,243.54,34.92,247.54,34.92Zm.28,12.14c6,6,11,11.37,16.47,16.32,3.77,3.43,4.51,7,3,11.7-1.81,5.47-3.22,11.07-4.82,16.69,1.57.21,2.09-.77,2.79-1.35,5.24-4.31,10.41-8.71,15.69-13,3.13-2.52,5.73-2.48,8.92-.14,1,.72,1.87,1.54,2.8,2.31l15,12.44A126.65,126.65,0,0,0,303.27,74c-1.22-3.91-.52-7,2.53-9.81,4.69-4.38,9.14-9,13.65-13.6.95-1,2.24-1.73,2.75-3.49-6.12,0-11.93-.15-17.73.06-3.92.14-6.38-1.46-8-4.92-3.05-6.33-6.25-12.58-9.4-18.86-.37-.73-.59-1.82-1.49-1.92-1.24-.13-1.4,1.18-1.8,2-3.07,6.05-6.19,12.08-9.06,18.22-1.81,3.86-4.4,5.72-8.8,5.51C260.22,46.86,254.54,47.06,247.82,47.06Z"/><path class="cls-1" d="M265,151.26c4.36,0,8.73-.15,13.08.05,2.58.11,3.93-.91,5-3.17,4.23-8.71,8.67-17.33,13-26,1.46-3,3.19-5.59,6.9-5.56s5.38,2.7,6.84,5.66c4.18,8.48,8.56,16.86,12.59,25.4,1.35,2.86,3.09,3.78,6.16,3.71,8.48-.19,17,0,25.45-.09,3.05,0,5.6.71,6.83,3.72s.15,5.37-2,7.53c-7.83,7.77-15.55,15.64-23.43,23.35a4.75,4.75,0,0,0-1.41,5.44c3.16,10.69,6.12,21.43,9.21,32.13,1,3.36,1.23,6.51-2.06,8.8-2.61,1.81-5.56,1.2-9.17-1.82-8.84-7.37-17.73-14.69-26.47-22.18-2-1.72-3.22-1.65-5.18,0-8.19,7-16.53,13.84-24.83,20.73-1,.86-2.05,1.7-3.09,2.53-2.42,1.95-5.05,2.41-7.73.7s-3.18-4.47-2.41-7.39c1.21-4.56,2.56-9.09,3.86-13.63,1.85-6.52,3.61-13.08,5.6-19.55a5.4,5.4,0,0,0-1.64-6.14c-7.62-7.46-15.08-15.08-22.68-22.57-2.35-2.32-3.77-4.82-2.37-8.08s4.16-3.67,7.27-3.6C256.46,151.33,260.7,151.26,265,151.26Zm75.5,12.14c-6.91,0-12.71-.15-18.51,0-3.91.14-6.38-1.43-8.05-4.89-3.05-6.33-6.25-12.59-9.4-18.86-.37-.74-.59-1.83-1.48-1.94-1.25-.15-1.41,1.16-1.81,2-2.9,5.73-6,11.38-8.55,17.26-2.07,4.72-5.09,6.89-10.39,6.51s-10.73-.09-17-.09c6,6,11,11.36,16.5,16.3,3.77,3.42,4.53,7,3,11.69-1.82,5.48-3.22,11.08-4.81,16.63a168.22,168.22,0,0,0,16.16-12.4c6-5,7.67-5,13.74.09,5.06,4.26,10.16,8.46,15.25,12.69A108.23,108.23,0,0,0,320.88,191c-1.42-4.41-.68-7.82,2.85-11.06C329.25,174.91,334.4,169.44,340.45,163.4Z"/><path class="cls-1" d="M93.42,325.76c21.8,0,43.61.08,65.41-.07,3.62,0,4.88.95,4.73,4.68-.34,8.64.91,7.51-7.62,7.52q-63.76.06-127.54,0c-5,0-5,0-5-5,.05-8.12-.88-7.14,7.17-7.16Q62,325.71,93.42,325.76Z"/><path class="cls-1" d="M93.8,302.49c17.8,0,35.61.1,53.41-.07,3.66,0,4.86,1,4.72,4.7-.34,8.62.9,7.49-7.64,7.5q-52.14.06-104.27,0c-5,0-5,0-5-5,0-8.11-.87-7.12,7.19-7.14C59.41,302.46,76.6,302.49,93.8,302.49Z"/></g></g></svg>