<svg xmlns="http://www.w3.org/2000/svg" viewBox="0 0 373.04 372.62"><defs><style>.cls-1{fill:#08313a;}</style></defs><g id="Layer_2" data-name="Layer 2"><g id="Layer_1-2" data-name="Layer 1"><path class="cls-1" d="M185.73,372.62C97.12,372.62,20.45,309,3.44,221.44A184.21,184.21,0,0,1,32.89,80.91,185.68,185.68,0,0,1,154.7,2.67,161.11,161.11,0,0,1,182.06,0c1.08,0,2.15,0,3.2.05h.19l2.81,0a181,181,0,0,1,59,9.92c5.12,1.74,6.07,4.21,6.33,6.62a7.75,7.75,0,0,1-1.73,6.13A7.37,7.37,0,0,1,246.24,25a11,11,0,0,1-3.24-.52,193.65,193.65,0,0,0-35.14-8,186.74,186.74,0,0,0-22.56-1.4A160.14,160.14,0,0,0,117.9,29.6C61.06,55.75,27.28,99.73,17.5,160.34,6,231.56,41.64,302.73,106.17,337.43c24.83,13.36,51.05,20.13,77.92,20.13l2.29,0c57.89-.82,104.63-24.72,138.91-71,19.72-26.63,30.56-57.54,32.2-91.84a172.42,172.42,0,0,0-8.26-62c-.11-.34-.22-.68-.34-1-.27-.79-.52-1.54-.7-2.24-1.13-4.59.74-8.52,4.64-9.79a8.78,8.78,0,0,1,2.7-.45c3.25,0,5.88,2.17,7.23,6a169.73,169.73,0,0,1,9,38.43c4.35,39.28-2.08,75.39-19.12,107.3-30.56,57.26-77.76,90.84-140.27,99.82A187.07,187.07,0,0,1,185.73,372.62Z"/><path class="cls-1" d="M284.7,283.21a7.26,7.26,0,0,1-6.47-3.75c-.72-1.26-1.39-2.53-2.1-3.88a69.47,69.47,0,0,0-5.35-9c-13.3-18.14-31.69-27.57-54.66-28-11.27-.23-21.39-.34-30.91-.34-9.89,0-19,.11-27.94.36-27.86.77-48.29,13.57-60.7,38.06-1.81,3.57-3.18,5.5-5.67,6.18a10.74,10.74,0,0,1-2.74.4,6.47,6.47,0,0,1-5.06-2.34c-2.34-2.6-2.73-5.24-1.27-8.57a81.36,81.36,0,0,1,32.56-37,68.18,68.18,0,0,1,14.24-6.75c1.45-.47,4.85-1.59,5.55-4.84s-1.87-5.63-3.1-6.77a81.93,81.93,0,0,1-25-44c-4.6-21.54.22-44.6,13.22-63.28s32.72-31,54.31-34.17a87,87,0,0,1,12.47-.82h.37c42.3,0,77.41,31.35,81.73,72.93,2.76,26.59-5.74,49.7-25.27,68.69-2.69,2.61-4.6,4.47-4,7.39s3.11,3.89,6.58,5.23c19.74,7.57,34.74,21.2,44.61,40.52,1.38,2.71,2.41,5,2.05,7.25a7.75,7.75,0,0,1-5.63,6.42A9,9,0,0,1,284.7,283.21ZM186.42,89.62c-37.53.14-66.83,29.6-66.69,67.07.14,37.22,28.92,66,67,66.9h.23c38.1-1.18,66.71-30.1,66.57-67.28-.15-37.4-29.49-66.69-66.78-66.69Z"/><path class="cls-1" d="M306.53,104.27h-.42l-.25,0h-.61c-1.89,0-3.57-.86-5.61-2.89l-4.22-4.2c-7.91-7.87-16.09-16-24-24.08-3.48-3.54-3.77-8.18-.69-11.3a7.08,7.08,0,0,1,5.12-2.2A9,9,0,0,1,282,62.33l1.27,1.22c5.25,5.07,10.68,10.31,15.63,15.74,1.45,1.59,3.75,3.72,6.9,3.72s5.28-1.91,7.11-3.77c10.22-10.42,20.73-20.91,30.89-31q7.38-7.36,14.75-14.74c2.62-2.63,4.46-3.61,6.77-3.61,3.26,0,5.33,1.16,6.7,3.76a7.39,7.39,0,0,1-.49,8.15,7.65,7.65,0,0,1-1,1.16l-58.89,58.91A7.11,7.11,0,0,1,306.53,104.27Z"/></g></g></svg>