<svg xmlns="http://www.w3.org/2000/svg" viewBox="0 0 346 373.4"><defs><style>.cls-1{fill:#08313a;}</style></defs><g id="Layer_2" data-name="Layer 2"><g id="Layer_1-2" data-name="Layer 1"><path class="cls-1" d="M178.29,373.4q-26.73-17-53.46-34c-3.09-2-5.3-4.32-5.34-8.1-.17-13.08-1.18-26.23,1.61-39.16,3.61-16.74,12.9-29.61,27.27-38.84,3.84-2.46,3.8-2.29.11-5.05-13.76-10.32-21.52-23.93-23-41.22-2.41-29,18.83-55.33,48.66-59.54,28.52-4,57.55,17.19,61.87,45.72,3.5,23.11-4.29,41.73-23.11,55.61-2.29,1.69-2.37,2.46.05,4,19.86,12.58,29.58,30.76,29.7,54.2,0,7,.13,14.08.45,21.11.25,5.54-1.86,9.27-6.67,12.24-17.56,10.84-34.92,22-52.35,33Zm-43.52-59.93c0,3.28.16,6.57-.05,9.83-.21,3,.84,4.89,3.45,6.52,13.49,8.42,26.88,17,40.25,25.6,1.87,1.2,3.32,1.4,5.27.15q20.72-13.23,41.55-26.27a4.33,4.33,0,0,0,2.41-4.1c-.24-8.73.5-17.49-.74-26.18a45.56,45.56,0,0,0-17.62-30.37c-1.87-1.48-3-1.43-4.23.81a26.46,26.46,0,0,1-8.9,9.46c-13.19,8.52-30.59,4.56-39.11-9.05-1.53-2.46-2.54-2.59-4.65-.86a48.9,48.9,0,0,0-12.58,15.4C135.06,293.57,134.31,303.41,134.77,313.47Zm46.41-69.94c26.23,0,45.73-24.77,39.39-49.86-.71-2.81-1.72-3.45-4.48-2.67a127.67,127.67,0,0,1-69.33.16c-3.67-1-4.61.07-5.31,3.3A40.47,40.47,0,0,0,181.18,243.53Zm-.49-63.25a107.36,107.36,0,0,0,17.76-1c3.47-.54,6.88-1.4,10.34-2,2.3-.41,2.61-1.13,1-3-13.94-15.47-42.7-15.57-57-.18-1.72,1.85-1.64,2.59.95,3.2A109.18,109.18,0,0,0,180.69,180.28Zm.63,87.92a13.18,13.18,0,0,0,11.3-7.86c.72-1.91.43-2.81-1.83-2.34a47.54,47.54,0,0,1-19.41-.06c-2.11-.42-3.08,0-2.14,2.38C171,264.73,176.32,268.27,181.32,268.2Z"/><path class="cls-1" d="M178.87,371.4l-13-8.28c-13.09-8.34-26.63-17-40-25.4-3.09-2-4.37-3.82-4.4-6.43,0-2.38-.09-4.76-.15-7.14-.26-10.43-.52-21.22,1.71-31.58,3.43-15.88,12.31-28.52,26.4-37.57l.32-.21c2.13-1.37,3.42-2.19,3.47-3.81s-1.15-2.52-3.17-4l-.39-.29c-13.53-10.15-20.78-23.17-22.17-39.79-2.34-28.14,18.28-53.35,46.94-57.39a49,49,0,0,1,6.75-.47c25.43,0,49.15,20,52.87,44.51,3.37,22.23-4.14,40.3-22.32,53.7-1.26.93-2.61,2.07-2.55,3.77s1.34,2.65,2.72,3.53c19,12,28.65,29.69,28.77,52.52,0,5.82.11,13.48.45,21.19.22,4.78-1.44,7.81-5.72,10.45-12.76,7.87-25.61,16-38,23.94l-13.84,8.78ZM154.69,265.85a5.82,5.82,0,0,0-3.56,1.62,51,51,0,0,0-13.08,16c-5.41,10.4-5.66,21.53-5.28,30.07,0,.92,0,1.93,0,2.93,0,2.21.07,4.49-.08,6.68-.25,3.72,1.1,6.3,4.39,8.35,14.31,8.93,28.37,18,40.23,25.58a7.07,7.07,0,0,0,3.87,1.32h0a6.58,6.58,0,0,0,3.56-1.16c14-8.94,28.19-17.88,41.53-26.27a6.33,6.33,0,0,0,3.35-5.84c-.08-2.85-.05-5.77,0-8.59a118.84,118.84,0,0,0-.74-17.82,47.72,47.72,0,0,0-18.37-31.66,5.54,5.54,0,0,0-3.35-1.44c-2.29,0-3.47,2.14-3.86,2.85a24.43,24.43,0,0,1-8.23,8.75,25.81,25.81,0,0,1-14,4.16,26.31,26.31,0,0,1-22.33-12.59C157.83,267.34,156.63,265.85,154.69,265.85Zm15.48-10.05a3.14,3.14,0,0,0-2.78,1.3,4.21,4.21,0,0,0,0,3.95c2,5.13,8.08,9.15,13.81,9.15h.17A15.13,15.13,0,0,0,194.49,261c.26-.68.95-2.5,0-3.92a3,3,0,0,0-2.65-1.24,6.59,6.59,0,0,0-1.44.17,43.68,43.68,0,0,1-8.94.92,49.12,49.12,0,0,1-9.66-1A8.49,8.49,0,0,0,170.17,255.8Zm-25.62-67c-3.92,0-4.68,3.54-5.05,5.23a42.6,42.6,0,0,0,75.33,35,41.47,41.47,0,0,0,7.68-35.84c-.31-1.23-1.13-4.49-4.62-4.49a8.62,8.62,0,0,0-2.34.38,126.74,126.74,0,0,1-34.31,4.81,129.09,129.09,0,0,1-34-4.64A10.28,10.28,0,0,0,144.55,188.8Zm36.69-28.2c-11.88,0-22.8,4.41-30,12.11-.74.8-2.12,2.28-1.59,4s2.56,2.25,3.54,2.48a112.33,112.33,0,0,0,25.7,3.07l1.79,0h2a102.93,102.93,0,0,0,16-1.08c2.05-.32,4.09-.74,6.06-1.16,1.44-.3,2.88-.6,4.32-.86.87-.16,2.91-.52,3.5-2.27s-.8-3.33-1.4-4C204.18,165.09,193.24,160.6,181.24,160.6Z"/><path class="cls-1" d="M58.51,150.7c-3.06-1.92-6.17-3.76-9.16-5.78-2.11-1.42-4.06-3.07-6.07-4.64-3.27-2.57-5.27-7-8.78-8.52-3.32-1.42-7.79.08-11.72-.2-11.42-.81-21.62-11-22.25-23.29-.72-14-1.34-28.2,2.61-42C13.35,30.8,36.61,8.61,72.74,1.63c41.47-8,81.14,14.05,97.38,52.55A87,87,0,0,1,177,86.39c.13,6.31.11,12.63,0,18.94-.2,17.36-14,28.85-31.17,25.85a4.4,4.4,0,0,0-4.7,1.81,60.6,60.6,0,0,1-17.47,14.67c-2.3,1.29-2.73,2.26,0,3.38a17,17,0,0,1,1.93,1c4.22,2.41,5.78,6.12,4.23,10s-4.91,5.4-9.62,4.1c-2.31-.64-2.67.47-3.25,2.1-2.75,7.62-7.18,14.11-13.92,18.67-12,8.14-27.51,5.29-37.45-6.65a33.7,33.7,0,0,1-5.38-8.62c-.78-1.9-1.35-2.53-3.21-.87-10.61,9.5-16.9,21.15-17.83,35.47-1.23,18.8-.23,37.62-.6,56.43,0,2.49,1.27,3.64,3.11,4.83q28,18.08,55.94,36.25a34,34,0,0,1,3.86,2.73,7.78,7.78,0,0,1,1.5,10.2A7.11,7.11,0,0,1,93.36,319c-5.06-2.88-9.89-6.15-14.78-9.32-16.51-10.7-32.95-21.5-49.52-32.1-3.89-2.49-5.6-5.56-5.56-10.2.15-18.33,0-36.67.08-55,.13-25.78,10.8-45.84,32.69-59.73C57.07,152.13,58.06,151.82,58.51,150.7Zm103-56.86c0-6.92.06-13.83-1.35-20.67-7.33-35.59-40.69-61-78.19-57.6C51.89,18.26,25.53,40,18.09,69.2,14.85,81.9,15.77,94.76,16,107.6c.08,5,4.93,9.05,9.78,9,5.48-.06,10-4,10.23-9.39.25-5.58,0-11.17.15-16.76.2-9.06,1.83-17.77,5.94-26,2.37-4.78,5.75-6.78,11-6.68,9,.17,18-.17,27,.14,4,.15,5.79-1.31,6.23-5.12.36-3.13.88-6.25,1.51-9.33,1.07-5.31,4.42-7.57,9.77-6.79,22.13,3.24,41.31,23.87,43.18,46.11.67,7.9.22,15.78.54,23.66a10.18,10.18,0,0,0,10.24,10.18c5.26.1,9.76-4.29,10-10C161.61,102.34,161.48,98.09,161.48,93.84Zm-35.89,2.57c0-3.4.24-6.82,0-10.2Q123.77,65,104.8,55c-2.3-1.21-3.41-.9-3.94,1.86A78.23,78.23,0,0,1,98.36,66c-1.81,5.68-4.1,7.33-10.14,7.35-9.1,0-18.21,0-27.32,0-6.86,0-6.88,0-8.34,6.68-.07.36-.11.72-.18,1.08-1.45,7.84-.51,15.75-.7,23.62A30.28,30.28,0,0,1,49,117.05c-2.48,5.29-2.52,5.34,1.8,9.45,13,12.33,28.41,17.31,46.09,14.77a51.13,51.13,0,0,0,31.9-17.42c.85-1,2.11-2,1.13-3.48C125.14,113,125.42,104.69,125.59,96.41ZM88.7,176.34a12.07,12.07,0,0,0,7.21-3.22,27,27,0,0,0,8-14.41c.58-2.65-.2-3.18-2.77-2.65a62,62,0,0,1-22.07.51c-7.6-1.14-8.13-.56-5.47,7S82.18,176.22,88.7,176.34Z"/><path class="cls-1" d="M97.06,318a5.45,5.45,0,0,1-2.71-.76c-4-2.27-7.91-4.84-11.72-7.33l-3-1.93L63.45,297.43c-10.9-7.09-22.17-14.43-33.31-21.55a8.93,8.93,0,0,1-4.64-8.5c.08-10.13.07-20.43.06-30.39,0-8.07,0-16.42,0-24.62.13-25.23,10.81-44.76,31.77-58.05l.42-.24a5.23,5.23,0,0,0,2.59-2.64l.63-1.55L59.57,149c-.92-.58-1.85-1.15-2.77-1.71-2.1-1.3-4.27-2.63-6.33-4-1.52-1-2.94-2.16-4.45-3.36l-1.5-1.19a22.69,22.69,0,0,1-3.32-3.54c-1.68-2-3.41-4.18-5.91-5.25a11.06,11.06,0,0,0-4.42-.78c-1.22,0-2.46.12-3.66.23a33.77,33.77,0,0,1-3.37.22c-.31,0-.61,0-.91,0-10.69-.75-19.84-10.35-20.4-21.39C1.87,95.24,1.12,80.58,5.07,66.85c10.11-35.21,33-56.49,68.05-63.25A87.56,87.56,0,0,1,89.68,2c34.18,0,65,20.79,78.6,53A85.24,85.24,0,0,1,175,86.43c.14,6.92.1,13.73,0,18.88-.16,14.11-10.17,24.35-23.8,24.35a28.85,28.85,0,0,1-5-.45,8.52,8.52,0,0,0-1.47-.13,6.39,6.39,0,0,0-5.12,2.64,58.64,58.64,0,0,1-16.89,14.19c-1,.55-3,1.7-2.91,3.73s2.33,2.91,3.16,3.25a12.22,12.22,0,0,1,1.37.72l.32.18c1.94,1.11,5,3.57,3.37,7.54a4.75,4.75,0,0,1-4.74,3.28,9.28,9.28,0,0,1-2.49-.37,6.33,6.33,0,0,0-1.68-.25c-2.69,0-3.49,2.21-4,3.53-2.81,7.79-7.23,13.74-13.18,17.76a24.46,24.46,0,0,1-13.72,4.28c-7.81,0-15.49-3.84-21.07-10.55a31.55,31.55,0,0,1-5.07-8.1c-.41-1-1.26-3.07-3.36-3.07a4.8,4.8,0,0,0-3,1.47c-11.33,10.16-17.56,22.55-18.49,36.83-.76,11.72-.67,23.62-.57,35.12,0,7,.11,14.28,0,21.4-.06,3.61,2,5.27,4,6.56,17.1,11,34.46,22.3,51.25,33.2l5.18,3.36a27.73,27.73,0,0,1,3.14,2.24,5.77,5.77,0,0,1,1.15,7.57A5.18,5.18,0,0,1,97.06,318ZM74.69,154.12a4.53,4.53,0,0,0-3.92,1.58c-1.3,1.85-.53,4.45.9,8.51,3,8.45,9.64,14,17,14.13h.22a14.11,14.11,0,0,0,8.39-3.74,28.81,28.81,0,0,0,8.55-15.45c.28-1.27.48-2.88-.49-4.09a3.33,3.33,0,0,0-2.76-1.17,9,9,0,0,0-1.88.23,58.51,58.51,0,0,1-11.87,1.21,64.24,64.24,0,0,1-9.5-.73A33.84,33.84,0,0,0,74.69,154.12ZM60.9,71.32c-7.77,0-8.64.69-10.29,8.26-.06.25-.09.5-.13.75l-.06.39c-1,5.52-.91,11.06-.79,16.43,0,2.47.11,5,0,7.5a28,28,0,0,1-2.45,11.55c-2.86,6.1-2.67,7.09,2.23,11.75,11.14,10.59,24.16,16,38.69,16h0a64,64,0,0,0,9.06-.66,53.18,53.18,0,0,0,33.12-18.08l.28-.31c.82-.89,2.74-3,1-5.59-4.38-6.7-4.23-14.25-4.06-22.25v-.57c0-1.1,0-2.15,0-3.21a66.56,66.56,0,0,0-.09-7.19c-1.25-14.86-8.59-25.91-21.81-32.84a6.3,6.3,0,0,0-3-.9c-1.4,0-3.21.72-3.86,4.16a74.52,74.52,0,0,1-2.36,8.6l-.09.28c-1.53,4.82-3.07,5.93-8.24,6-3.79,0-7.59,0-11.39,0H60.9Zm27.7-58c-2.27,0-4.57.1-6.84.3C50.7,16.36,23.72,39,16.15,68.7c-2.83,11.12-2.56,22.4-2.3,33.31.05,1.87.09,3.75.12,5.62.09,5.84,5.55,11,11.68,11h.12c6.68-.07,11.93-4.93,12.21-11.3.14-3.25.13-6.55.12-9.73,0-2.32,0-4.72,0-7.07.22-9.64,2.09-17.88,5.73-25.18,2-4,4.52-5.57,8.81-5.57H53c2,0,4,0,6,0s3.87,0,5.81,0l5.79,0c3.66,0,6.63,0,9.33.14h.6c4.64,0,7.16-2.26,7.7-6.9.33-2.89.83-6,1.48-9.17,1-4.78,3.8-5.33,5.85-5.33a11,11,0,0,1,1.67.13c21.08,3.08,39.69,23,41.48,44.3.39,4.59.39,9.28.39,13.82,0,3.19,0,6.49.14,9.76.29,7,5.3,12,12.2,12.09h.21a12.08,12.08,0,0,0,11.81-11.92c.12-3,.09-6,.06-8.93,0-1.3,0-2.6,0-3.9,0-6.84.08-13.92-1.39-21.07C155,38.29,124.08,13.27,88.6,13.27Z"/><path class="cls-1" d="M272.32,0a75,75,0,0,1,73.51,60.81c.81,4.25-1.41,7.27-3.92,10.1a10.07,10.07,0,0,0-2.51,5.81c-3,22.63-14.3,39.85-33.79,51.7-3.37,2.05-3.41,2.05-.11,4,18.19,10.92,28.76,27.06,32.38,47.81a74.55,74.55,0,0,1,.88,12.32c.07,24.77,0,49.55.1,74.32,0,4.75-1.59,8-5.58,10.59-21.85,14.06-43.62,28.25-65.43,42.37a16.06,16.06,0,0,1-3.54,1.83,7,7,0,0,1-8.43-2.54,7.77,7.77,0,0,1,.42-9.46,16.84,16.84,0,0,1,3.4-2.7q29.93-19.47,59.91-38.82c2.66-1.71,3.76-3.56,3.74-6.76-.18-24.89.32-49.8-.39-74.67-.47-16.22-8.62-29-21.55-38.76-1.92-1.45-2.69-1.1-3.6,1.07-3.66,8.67-9.65,15.12-18.68,18.28-14.22,5-29.79-1.82-36.8-16.22-1.51-3.1-2.68-3.06-4.84-1a60.87,60.87,0,0,1-5.74,5c-3.52,2.61-7.49,2.24-10.18-.71a7.4,7.4,0,0,1,.12-10.25,58.59,58.59,0,0,1,15-12.09c2.09-1.19,2.54-1.84.13-3.23a68,68,0,0,1-30.52-35.85,6,6,0,0,0-3.8-3.62c-3.6-1.38-5.21-4.17-5.4-7.89-1.65-31.7,11.41-55.67,38.34-72.1C246.22,2.86,258.8,0,272.32,0ZM253.12,69.6c-3,0-6.08.17-9.1-.06-2.15-.16-3.17.25-3.85,2.57A26.54,26.54,0,0,1,224.85,89.6c-2.49,1.1-2.64,2.17-1.46,4.36,6.73,12.57,16.87,21,30.25,25.85,27.81,10,60.49-6.65,68.69-35,.79-2.74.75-4.11-2.74-4.43-10.43-.94-18.38-6-22.93-15.59-1.41-3-2.74-3.3-5.55-2.12A89.13,89.13,0,0,1,253.12,69.6Zm16.95-54.5c-2.06.25-5.6.43-9,1.14-28,5.8-46.8,27.36-48.94,55.9-.32,4.34.81,5.26,5,4.1,5.81-1.62,8.92-6.5,9-14.16.11-7.19,3.66-10.27,10.63-9,16.22,2.85,32.1,2,47.59-4,4.66-1.81,8.93-4.36,13.4-6.54,5.66-2.75,11,.6,11.21,6.85a32.24,32.24,0,0,0,.68,6.5,12.06,12.06,0,0,0,17.24,7.93c2.53-1.3,3.33-2.78,2.46-5.79C322.05,32.79,298.25,15.05,270.07,15.1Zm-.39,138.66c7,.1,15.35-8,15.42-15,0-2-1.23-2.15-2.66-1.86a62.93,62.93,0,0,1-25.57-.47c-2.35-.49-2.73.52-2.64,2.48C254.58,146.35,262.16,153.65,269.68,153.76Z"/><path class="cls-1" d="M261.56,320.21a5,5,0,0,1-4.09-2.25,5.75,5.75,0,0,1,.32-6.9,15.12,15.12,0,0,1,3-2.37l7.3-4.74c17.22-11.2,35-22.79,52.6-34.07a9,9,0,0,0,4.66-8.45c-.06-8.85,0-17.86,0-26.56.05-15.79.09-32.11-.37-48.16s-8-29.46-22.34-40.3a5.32,5.32,0,0,0-3.05-1.28c-2.27,0-3.21,2.22-3.61,3.17-3.62,8.6-9.5,14.38-17.49,17.17a26.37,26.37,0,0,1-8.81,1.51c-10.73,0-20.51-6.4-25.53-16.72-.52-1.06-1.74-3.57-4.18-3.57a5.88,5.88,0,0,0-3.85,2,57.44,57.44,0,0,1-5.54,4.88,6.26,6.26,0,0,1-3.69,1.36,5.14,5.14,0,0,1-3.82-1.81,5.41,5.41,0,0,1,.14-7.58,56.48,56.48,0,0,1,14.45-11.67c1.1-.63,2.76-1.58,2.77-3.36s-1.77-2.84-2.63-3.34a66.37,66.37,0,0,1-29.65-34.82,8,8,0,0,0-4.95-4.79c-2.65-1-4-3-4.13-6.12-1.58-30.54,11-54.19,37.39-70.3C246.38,5.1,258.33,2,271.94,2h.37a73.09,73.09,0,0,1,71.56,59.18c.58,3.11-.82,5.44-3.46,8.4a12.11,12.11,0,0,0-3,6.88c-2.86,21.82-13.91,38.73-32.85,50.25-2.22,1.36-3.52,2.15-3.52,3.78s1.29,2.4,3.42,3.67c17.3,10.39,27.87,26,31.44,46.44a72.78,72.78,0,0,1,.85,12q0,15.9,0,31.79c0,13.93,0,28.35.07,42.53,0,4.17-1.33,6.75-4.67,8.9-14.47,9.32-29.15,18.84-43.35,28.06q-11,7.16-22.07,14.31a14.7,14.7,0,0,1-3.1,1.62A6.69,6.69,0,0,1,261.56,320.21Zm-5.72-185.87a3.51,3.51,0,0,0-2.62,1,4.81,4.81,0,0,0-1,3.68c.4,8.47,8.86,16.6,17.42,16.72h.16c8,0,17.21-9,17.29-16.95a4,4,0,0,0-1.05-3,3.48,3.48,0,0,0-2.59-1,7.7,7.7,0,0,0-1.41.16A53.82,53.82,0,0,1,271.28,136a68.81,68.81,0,0,1-14-1.52A7.1,7.1,0,0,0,255.84,134.34ZM243.28,67.51c-2.66,0-4.21,1.25-5,4A24.55,24.55,0,0,1,224,87.77a4.46,4.46,0,0,0-2.42,7.14A55.9,55.9,0,0,0,253,121.69a51.81,51.81,0,0,0,17.61,3c24.51,0,47.09-16.58,53.68-39.42.47-1.63.88-3.49-.15-5s-2.85-1.82-4.33-2c-10-.9-17.17-5.77-21.31-14.46-.86-1.81-2.2-3.89-4.91-3.89a8.34,8.34,0,0,0-3.21.78,87.36,87.36,0,0,1-33.94,6.88c-1.07,0-2.13,0-3.21-.06h-.11c-1,0-1.84,0-2.72,0s-1.8,0-2.7,0c-1.36,0-2.47,0-3.49-.11C243.86,67.53,243.56,67.51,243.28,67.51ZM270,13.1l-.12,0-2,.2a64.92,64.92,0,0,0-7.21,1c-28.95,6-48.31,28.12-50.53,57.71-.15,1.93-.12,4.08,1.17,5.47a4.13,4.13,0,0,0,3.16,1.24,12,12,0,0,0,3.2-.54c6.64-1.85,10.36-7.55,10.49-16,.1-6.51,3.18-7.34,5.86-7.34a14.47,14.47,0,0,1,2.42.23,103,103,0,0,0,17.71,1.6,85.08,85.08,0,0,0,30.95-5.72,89.43,89.43,0,0,0,9.14-4.35c1.45-.75,2.94-1.53,4.41-2.25a7.08,7.08,0,0,1,3.09-.77c3,0,5.14,2.36,5.25,5.89a33.56,33.56,0,0,0,.73,6.9,14,14,0,0,0,13.68,10.79h0a14,14,0,0,0,6.41-1.55c3.51-1.79,4.58-4.3,3.47-8.13-7.67-26.5-32.21-44.31-61.07-44.31Z"/></g></g></svg>