<svg xmlns="http://www.w3.org/2000/svg" viewBox="0 0 373.29 373.19"><defs><style>.cls-1{fill:#08313a;}</style></defs><g id="Layer_2" data-name="Layer 2"><g id="Layer_1-2" data-name="Layer 1"><path class="cls-1" d="M55.62,342.89q9.51-16.44,19-32.86c1-1.69.54-2.77-.82-4a25.48,25.48,0,0,1-3.78-4.38c-4.41-6.39-5-6.69-12.44-5.12a20.52,20.52,0,0,1-24.8-21.8,22.68,22.68,0,0,1,.55-3.05c1.44-6.57.91-7.9-4.68-11.56-6.12-4-9.76-9.47-10-17C18.5,235,22.17,229,28.87,224.7c5.21-3.35,6-5.06,4.56-10.89s-.8-11.34,2.53-16.36c1.33-2,1.38-4.08,1.38-6.28V77.82c0-8,1.57-9.52,9.53-9.52q47.37,0,94.72,0c3.2,0,5.95.58,7.47,3.71,2.1,4.35-.88,9.07-6,9.23s-10.35.05-15.53.05c-24.2,0-48.39.08-72.59-.08-3.82,0-4.76,1.2-4.75,4.86q.2,48.52,0,97.05c0,3.63,1.26,4.13,4.63,5.12,8.21,2.4,12.5-.74,17.24-7.23,7.79-10.65,24.62-9.28,32,1.69,2.55,3.79,2.15,7.69-1,10-3,2.13-6.7,1.37-9.54-2-4.36-5.1-9.3-4.81-13,.77-6.4,9.72-12.73,12.38-24.43,10.24-7.32-1.34-11.14,2.31-9.61,9.6,2.27,10.8-1,19-10.55,24.72-5.56,3.33-5.65,9.56-.13,12.84,10,5.92,13,14.33,10.66,25.4-1.42,6.62,2.39,10.48,9.06,9.05,11.29-2.43,19.68.89,25.63,11,2.94,5,9.22,5.05,12.14.1,6-10.23,14.51-13.52,26-11.08,6.86,1.46,10.22-2.71,8.69-10.08-1.48-7.12-.59-13.61,4.32-19.28a27.78,27.78,0,0,1,6.08-4.77c5.81-3.79,5.79-9.54,0-13.35-9.62-6.34-12.5-13-10.37-24,1.24-6.46-.37-9-6.74-10.64-4.28-1.1-6.66-4.11-6-7.67.64-3.77,4-5.91,8.51-5.47,11.57,1.13,20.46,12.87,17.62,24.28-1.56,6.22-.11,9.83,5.3,13.18,9.11,5.66,11.75,16.52,7.18,26.28-.37.78-1.15,1.44-.86,2.51,1.18.73,2.5.37,3.74.37q74.34,0,148.68,0c5.19,0,5.19,0,5.23-5.38.1-11.68,7.8-19.37,19.52-19.47,5.32,0,5.32,0,5.32-5.29q0-49.68,0-99.37c0-5.45,0-5.34-5.45-4.58a458.93,458.93,0,0,1-88.61,3.53c-15.24-.86-30.37-2.61-45.47-4.76-6.56-.93-10.47-2.79-9.55-10.21.26-2.13-.77-3.15-2.94-3-.51,0-1,0-1.55,0-7.1,0-7.1,0-7.39,7.13-.4,10.15-8.8,17.83-19.34,17.7a18.54,18.54,0,0,1-18.43-18.22c-.12-6.61-.12-6.61-6.84-6.61-8.54,0-17.09.1-25.62,0-3.06-.06-4.65.66-4.3,4.06a18.93,18.93,0,0,1-20.88,20.82c-3.08-.32-4,.94-4,4,.17,8.53.09,17.08,0,25.62,0,4.84-2.33,7.56-6.32,7.64-4.19.08-6.6-2.66-6.61-7.73q-.06-17.47,0-34.94c0-5.31,2.25-7.44,7.63-7.51,3.36,0,6.73.08,10.09-.06,4.59-.19,6.85-2.46,7.06-7,.14-3,0-6,0-8.93,0-6.94,1.84-8.81,8.68-8.81,20.31,0,40.63-.11,60.94.08,4,0,5-1.1,5-5-.2-18.37-.1-36.75-.08-55.12,0-5.55,1.37-7.39,6.78-8.75q47.79-12,95.59-23.87a13.21,13.21,0,0,1,6.52-.11c7.65,1.9,15.32,3.77,22.94,5.78,5,1.31,7.13,4.34,6.23,8.24-.94,4.06-4.46,5.78-9.52,4.65a4.59,4.59,0,0,1-.75-.2c-14.86-5.89-29.47-4.84-44.56,0-14.25,4.55-29,7.47-43.58,11.12a7.22,7.22,0,0,0-3.52,1.81c2.44.64,4.88,1.3,7.33,1.92Q234.57,41,264.1,48.43a12.32,12.32,0,0,0,6.12.17q32.36-8.12,64.72-16.19c.73-.19,1.43-.51,3.27-1.19-3.79-1-6.55-1.81-9.33-2.53-4-1-8.06-1.91-12-3.05-4.56-1.31-6.66-4.56-5.6-8.26s4.45-5.66,8.93-4.57c12.57,3.07,25.1,6.24,37.64,9.38,3.39.85,6.78,1.66,10.14,2.61,3.17.89,5.2,2.87,5.26,6.34.07,3.66-2,5.79-5.33,6.69-5.36,1.45-10.75,2.83-16.16,4.08-2.43.56-3.4,1.73-3.34,4.29q.23,9.3,0,18.63c-.07,2.8,1.1,3.58,3.7,3.5,4.65-.13,9.31-.09,14,0,4.86.08,7.18,2.32,7.19,7.16q.06,42.71,0,85.4c0,4.69-2.59,7.41-6.66,7.3-3.86-.1-6.25-2.77-6.26-7.3,0-25-.09-49.95.06-74.92,0-3.79-1.13-4.91-4.84-4.77-8,.31-7.1-.76-7.11,7.06q0,72.6,0,145.19c0,7.63-1.68,9.3-9.36,9.31-2.72,0-5.44-.07-8.15,0-4.82.19-7.1,2.43-7.29,7.22-.12,3,0,5.95,0,8.93,0,6.8-1.91,8.65-8.85,8.66q-17.85,0-35.71,0H145.11c-4.68,0-4.83,0-3.63,4.69.57,2.24-.73,5.18,1.26,6.6s5,.55,7.59.55q101.89.06,203.79,0c6.19,0,6.19,0,6.19-6.37q0-42.49,0-85c0-5.17,2.26-7.91,6.39-8a6.2,6.2,0,0,1,6.46,5.47,33.78,33.78,0,0,1,.1,4.27q0,46.38,0,92.77c0,8.26-1.52,9.8-9.66,9.8H154c-.91,0-1.82.08-2.72,0-3.3-.34-3.85.58-2.11,3.54,7.8,13.27,15.44,26.63,23.14,40,.39.67.83,1.31,1.17,2,1.45,2.89,1.67,5.76-.65,8.29s-5.27,2.68-8.19,1.28c-6.54-3.12-13-6.39-19.5-9.6-2.66-1.32-5.38-2.56-8-4-2.37-1.31-3.29-.5-3.47,1.93-.36,5-.76,10-1.09,15.07s-.62,9.81-.84,14.71c-.16,3.58-1.44,6.41-5.13,7.32s-6.19-.87-8-4q-11.82-20.51-23.69-41c-1.87-3.25-3.83-6.46-5.6-9.76-1.48-2.77-2.58-2.72-4.13,0-7.63,13.37-15.36,26.68-23.05,40-2.14,3.7-4.28,7.4-6.39,11.1C54,372.35,51.44,373.77,48,373s-4.94-3.46-5.14-6.9q-.81-13.54-1.63-27.09c0-.77-.13-1.55-.17-2.32-.16-3.1-1.17-4-4.3-2.4-7.67,4-15.5,7.76-23.27,11.61-1,.52-2.07,1.06-3.14,1.53-3.07,1.37-6.08,1.56-8.56-1.13s-2.16-5.67-.48-8.61c4-7,8-13.9,12-20.85,2.78-4.82,5.52-9.66,8.37-14.44,2.49-4.16,6.31-5.44,9.75-3.42s4.11,5.69,1.83,9.84a189.28,189.28,0,0,0-8.74,16.81l11.89-5.89c2.2-1.09,4.37-2.25,6.61-3.26,5.43-2.47,9.9.21,10.33,6.16q.72,10,1.42,20.08ZM199.37,76.15c0,8.41.24,16.82-.1,25.21-.17,4.08,1.37,5.33,5.13,5.82a476.08,476.08,0,0,0,76.51,4.09c16.81-.53,33.49-2.12,50.16-4.19,3.22-.4,4.53-1.64,4.49-5.19-.21-17.06-.09-34.13-.1-51.2,0-4.64,0-4.67-4.55-3.54-19.06,4.76-38.12,9.48-57.14,14.35a24.35,24.35,0,0,1-12.57,0C242.06,56.6,222.84,52,203.7,47c-3.59-.92-4.49-.06-4.4,3.54C199.52,59.08,199.37,67.62,199.37,76.15ZM149.79,325.44c.15-.75.32-1.06.23-1.21-5.44-9.55-10.92-19.08-16.36-28.63-.86-1.51-1.95-1.4-3.26-.72-5.11,2.69-10.42,2.69-15.83,1.13-3.8-1.1-6.59.35-8.61,3.48-1.49,2.28-2.82,4.71-5,6.41-2,1.59-1.74,3-.58,5,4,6.67,7.78,13.43,11.67,20.15,2.31,4,4.63,8,7.28,12.48,1.61-6.79,1.1-13,1.73-19.14.88-8.55,4.56-10.82,12.4-7Zm24.74-259.2c0,6.46-.05,12.93,0,19.4.08,8.48-1.21,7.29,7.75,7.56,3.27.1,4.21-1.06,4.17-4.23-.14-12.68-.06-25.36-.06-38,0-8.51,0-8.39-8.46-10.33-2.75-.63-3.47.12-3.44,2.73C174.58,51,174.53,58.61,174.53,66.24Zm-24.67,45.52a5.76,5.76,0,1,0,6-5.49C153.06,106.09,150,108.85,149.86,111.76Z"/><path class="cls-1" d="M205.36,136.62h60.12c6.4,0,8.39,2,8.41,8.29,0,7.37.06,14.74,0,22.11,0,5.08-2.3,7.38-7.36,7.39q-61.27,0-122.55,0c-5,0-7.2-2.34-7.24-7.5q-.07-11.24,0-22.49c0-5.6,2.17-7.77,7.74-7.78Q174.92,136.58,205.36,136.62Zm.3,13c-17.34,0-34.67.06-52-.06-3,0-4.36.91-4,4a22.42,22.42,0,0,1,0,2.72c0,5.21,0,5.22,5.39,5.22q49.31,0,98.6,0c8.12,0,7,1,7.34-7.22.16-3.87-1.25-4.75-4.88-4.72C239.31,149.68,222.48,149.59,205.66,149.59Z"/><path class="cls-1" d="M87,273.8a31,31,0,0,1-31-31.45c0-17.64,13.83-31.24,31.64-31.19,17.39,0,31,13.87,31,31.44S104.8,273.84,87,273.8Zm18.57-31.74c-.17-9.53-8.51-17.82-18-17.85-10.15,0-18.77,8.56-18.56,18.47S77.88,261,87.6,260.74A18.56,18.56,0,0,0,105.55,242.06Z"/><path class="cls-1" d="M224,224.12H164.65a27.71,27.71,0,0,1-3.87-.11,6.17,6.17,0,0,1-5.38-6.52,6,6,0,0,1,5.29-6.19,19.94,19.94,0,0,1,3.87-.14H283.22a20.76,20.76,0,0,1,3.87.13,6,6,0,0,1,5.39,6.11,6.17,6.17,0,0,1-5.29,6.59,25,25,0,0,1-3.87.13Z"/><path class="cls-1" d="M242.62,186.31h53.12a19.94,19.94,0,0,1,3.87.14,6,6,0,0,1,5.29,6.19,6.16,6.16,0,0,1-5.39,6.51,26.26,26.26,0,0,1-3.87.12H189.4a25,25,0,0,1-3.87-.13,6.18,6.18,0,0,1-5.29-6.6,6,6,0,0,1,5.39-6.11,21.69,21.69,0,0,1,3.87-.12Z"/></g></g></svg>