<svg xmlns="http://www.w3.org/2000/svg" viewBox="0 0 411.46 373.2"><defs><style>.cls-1{fill:#08313a;}</style></defs><g id="Layer_2" data-name="Layer 2"><g id="Layer_1-2" data-name="Layer 1"><path class="cls-1" d="M201,373.19H64.77c-1.19,0-2.38,0-3.56,0-4.41-.17-7.41-2.79-7.55-6.55-.14-3.95,2.86-7.13,7.42-7.24q11.79-.28,23.58,0c3.3.06,4.55-1.13,4.37-4.41-.19-3.55-.09-7.12,0-10.68.12-6,2.59-8.68,8.67-8.86q8.67-.26,17.36,0c3.28.08,4.57-1.23,4.41-4.46s0-6.23,0-9.35c.08-7.35,2.56-10,9.88-10.09,11.42-.13,22.85-.19,34.27,0,4.16.08,5.7-1.11,5.68-5.5q-.22-53.17,0-106.37c0-4.09-1.45-5.48-5.28-6.5-26.93-7.16-48.94-21.57-64.53-45-6.3-9.48-5-20.17,3-26.83s18.93-6,27.27,2.09a156.64,156.64,0,0,0,41,28.79,28.88,28.88,0,0,0,13.66,3.19c10.38-.25,20.78-.33,31.15,0a34.36,34.36,0,0,0,17.06-3.93,166.33,166.33,0,0,0,40.36-28.91c10-9.6,25.69-6.87,31.33,5.39,3.17,6.89,2.31,13.55-1.81,19.87a104.67,104.67,0,0,1-37.23,34.38,102.64,102.64,0,0,1-28,11.12c-3.57.79-4.72,2.45-4.71,6.09.12,35.31.06,70.62.07,105.93,0,6,.14,6.11,6.35,6.12,10.68,0,21.36-.06,32,0,8.46.07,10.75,2.48,10.78,11,.06,12.92.06,12.92,13.2,12.9,2.82,0,5.64-.05,8.46,0,6.13.19,8.61,2.69,8.71,8.75.05,3.71.16,7.43,0,11.13-.16,3.17,1.19,4.13,4.2,4.09,7.86-.12,15.72-.13,23.58,0,4.6.09,7.67,3.09,7.71,7s-3.08,6.64-7.73,6.81c-.89,0-1.78,0-2.67,0H201ZM183.55,249.12v5.34q0,25.8,0,51.61c0,1.82-.61,4,1.78,5,5,2.13,8.59-.24,8.6-5.61,0-1.78,0-3.56,0-5.34,0-13.79,0-27.59,0-41.38,0-4.67,2.8-7.75,6.72-7.86s6.8,3,7.09,7.61c.11,1.62.06,3.26.06,4.89,0,14.39,0,28.77,0,43.16,0,1.67-.59,3.66,1.7,4.57,5.07,2,8.56-.29,8.56-5.76q0-56.3,0-112.58c0-8.31,1.5-10,9.56-11.63,25-5,45.58-17.19,60.86-37.84,3.92-5.3,4.37-8.64,1.74-11.06s-5.95-1.6-10.67,3a162,162,0,0,1-45,30.67,33.33,33.33,0,0,1-15,3.36c-11.42-.22-22.85-.42-34.26.06a42.17,42.17,0,0,1-21.77-5c-4.46-2.34-8.93-4.68-13.25-7.27a168.91,168.91,0,0,1-30.82-24c-2.28-2.22-4.87-3.1-7.58-1.15-2.93,2.1-2.72,5-1.22,7.95a24.11,24.11,0,0,0,2,3c15,20.76,35.53,32.74,60.17,38.17,9.45,2.09,10.64,3.17,10.66,12.95Q183.59,221.53,183.55,249.12Zm16.82,110.12c31,0,62-.05,92.95.06,3.53,0,4.89-.89,5-4.7.13-4.67-2.3-4.91-5.82-4.9q-81.16.12-162.32.13c-7.71,0-15.41-.08-23.12-.07-1.58,0-3.32-.21-4.06,1.86-1.7,4.76.25,7.62,5.31,7.62Zm.62-24c20.74,0,41.49-.06,62.23.06,3.41,0,4.56-1,4.72-4.53.2-4.54-2-5-5.64-5q-58,.12-116,.06c-3,0-5.93,0-8.89,0-1.52,0-2.88.16-3.44,2-1.45,4.85.24,7.34,5.25,7.35Z"/><path class="cls-1" d="M398.79,165.06c.58-.36,1.19-.7,1.78-1.09a6.9,6.9,0,0,1,10.09,8.73c-3.33,6.79-6.59,13.63-10.27,20.23-2.86,5.14-8.3,5.53-12.13,1-4.69-5.55-9.15-11.29-13.65-17a7,7,0,0,1-.95-7.93,6.23,6.23,0,0,1,7-3.63c3.75.68,3.12-1.49,2.66-3.62a177.78,177.78,0,0,0-19.52-51.83C334.88,60,292.29,28.3,235.52,17.69c-57.86-10.81-109.93,3.4-155.43,41-2.4,2-4.69,4.1-7.06,6.12-3.54,3-7.58,3.08-10.32.16-3-3.19-2.72-7.11,1-10.55,22.66-21,48.58-36.5,78.24-45.26C195.36-6.66,247.19-2.24,296.11,24.55c54.61,29.91,88.3,76,101.41,137,.19.87.37,1.73.61,2.59C398.2,164.42,398.46,164.63,398.79,165.06Z"/><path class="cls-1" d="M345.07,114.6c.54-1.07.86-1.69,1.16-2.32,1.66-3.51,4.33-5.35,8.21-4.24s5.51,4,4.92,7.86c-1.18,7.76-2.35,15.53-3.92,23.21a6.51,6.51,0,0,1-9.81,4.25c-6.92-4.29-13.7-8.86-20.22-13.74-4.15-3.11-3.38-9,1.43-11.34,2.72-1.35,2.71-2.26,1.14-4.49Q290.68,60.87,227.05,49.06c-11-2-22.09-2.17-33.21-1.91-2.08,0-4.17.24-6.12-.72-3-1.46-4.62-3.88-4.13-7.16.5-3.43,2.74-5.37,6.26-6,9.48-1.57,19-.69,28.37.36Q279.5,40.58,322.54,85A164.25,164.25,0,0,1,345.07,114.6Z"/><path class="cls-1" d="M200.77,92.17c15.7,0,29,12.84,29.09,28.25s-13.45,29-29,29c-15.73,0-29.1-13.3-29-28.88S185,92.21,200.77,92.17ZM200.58,135c8.61.05,14.88-5.9,14.93-14.15a14.48,14.48,0,0,0-14.94-14.79c-7.76.05-14.64,6.74-14.76,14.34C185.69,128.36,192.39,135,200.58,135Z"/><path class="cls-1" d="M344.14,282.1c-4.93.15-8.69-4.54-7-8.81,2.87-7.31,6.06-14.5,9.38-21.61,1.59-3.41,4.73-4.47,8.27-3.31s5.21,3.92,4.39,7.31a79.42,79.42,0,0,1-10.4,23.93A6.24,6.24,0,0,1,344.14,282.1Z"/><path class="cls-1" d="M130.4,63.52c-4.67,0-7-1.47-8.07-4.65s-.14-6.13,2.66-7.76a92.54,92.54,0,0,1,22.41-9.36c3.16-.86,5.81.86,7.27,3.79s1.22,6.08-1.32,7.67C145.84,57.9,137.17,60.08,130.4,63.52Z"/><path class="cls-1" d="M100.22,81a7.22,7.22,0,0,1-2.55,5.44c-4.47,4.51-8.9,9-13.38,13.55-3.55,3.56-7,4-10.16,1.23s-3.37-6.51-.08-10.52A118.08,118.08,0,0,1,88.63,75.87c2.24-1.94,4.87-2.83,7.77-1.32A6.49,6.49,0,0,1,100.22,81Z"/><path class="cls-1" d="M48.06,158.52c-5,.11-8.4-3.75-7.25-8.34a91.73,91.73,0,0,1,8.65-21.86c1.84-3.34,5.14-4,8.51-2.75,3.57,1.37,5,4.52,3.83,8-2.52,7.27-5.43,14.42-8.42,21.52A6,6,0,0,1,48.06,158.52Z"/><path class="cls-1" d="M33,203.07c0-3.1-.18-6.21,0-9.3.31-4.22,3.47-7.16,7.13-7s6.55,3.14,6.61,7.44c.1,6.35,0,12.68.64,19,.46,5-2.23,8.22-6.32,8.57-4.34.37-7-1.94-7.65-7.24-.49-3.79-.49-7.65-.71-11.48Z"/><path class="cls-1" d="M58.47,283.16A7.09,7.09,0,0,1,52,279.1a118.16,118.16,0,0,1-8.86-19.88,6.82,6.82,0,0,1,4-8.79c3.4-1.41,7.1,0,8.86,3.74,3,6.44,5.92,12.94,8.63,19.51A6.8,6.8,0,0,1,58.47,283.16Z"/><path class="cls-1" d="M14.74,210.4c0,2.47,0,5.43,0,8.38-.08,3.78-2,6.2-5.75,6.69C5,226,2,224,1.42,220.25c-1-7.13-2-14.37-1-21.6.47-3.76,3-6.16,7-6.1s6.29,2.48,6.74,6.32C14.51,202.52,14.52,206.23,14.74,210.4Z"/><path class="cls-1" d="M23.39,142.39c-1.89,6.94-3.6,14.15-5.87,21.18-1.09,3.38-4.31,4.5-7.68,3.69-3.57-.86-5.83-3.48-5.27-7.17a98.46,98.46,0,0,1,5.55-21c1.35-3.44,4.36-4.85,8-3.85C21.51,136.18,23.16,138.69,23.39,142.39Z"/><path class="cls-1" d="M28.86,274.15c-.28,4.18-1.79,6.55-4.92,7.66s-6.19.09-7.71-2.73a80.15,80.15,0,0,1-7.76-21.63c-.65-3.11,1.38-5.64,4.49-6.88s6.45-.33,7.72,2.48C23.88,260.17,26.37,267.6,28.86,274.15Z"/><path class="cls-1" d="M49.21,89.35A8.93,8.93,0,0,1,47.69,94c-3.13,5-6.19,10.09-9.45,15-2.66,4-6.4,5.08-9.84,3s-4.44-5.91-2-10c3.2-5.49,6.63-10.86,10.18-16.13a6.29,6.29,0,0,1,7.76-2.69A6.85,6.85,0,0,1,49.21,89.35Z"/><path class="cls-1" d="M372.85,297c-4.93-.09-8.23-4.55-6.58-9.12a77.17,77.17,0,0,1,5.73-12,6.47,6.47,0,0,1,8.91-2.39c3.16,1.84,4.73,4.7,3.3,8.25a122.31,122.31,0,0,1-5.74,12A6.6,6.6,0,0,1,372.85,297Z"/><path class="cls-1" d="M354.43,205.79c.16-1.41.3-3.79.72-6.11a6.51,6.51,0,0,1,6.86-5.75c3.72,0,6.12,2.36,6.66,6a33.77,33.77,0,0,1-.36,11.94c-.88,4.13-3.85,6.58-7.38,6.21s-6.18-3.24-6.48-7.32C354.35,209.42,354.43,208.08,354.43,205.79Z"/><path class="cls-1" d="M311.1,325.61c-5.55.09-9.29-5.57-6.65-10a32.55,32.55,0,0,1,10.28-10.28c2.67-1.75,5.44-1.1,7.77,1s3.06,5.15,1.57,7.69a31.6,31.6,0,0,1-11.23,11.1A6.06,6.06,0,0,1,311.1,325.61Z"/><path class="cls-1" d="M33.77,308.47c0-1.88,1.44-4,4.08-5.23a5.76,5.76,0,0,1,7,1,43.51,43.51,0,0,1,8.27,11.48c1.22,2.6.36,5-1.5,6.94a6.22,6.22,0,0,1-6.89,1.83C41.08,323.23,33.81,313.39,33.77,308.47Z"/><path class="cls-1" d="M388.83,240.44a6.85,6.85,0,0,1,6.77,7.31A37.17,37.17,0,0,1,392,260.52a6.14,6.14,0,0,1-7.79,3.47c-3.32-1-5.34-3.41-5-7a41.35,41.35,0,0,1,3.7-13.19C384.06,241.47,386.33,240.62,388.83,240.44Z"/><path class="cls-1" d="M360,303.31a6.94,6.94,0,0,1,6.63,9.82,37.2,37.2,0,0,1-7.5,10.4c-2.65,2.65-5.86,2.88-8.84.53s-3.88-5.4-1.87-8.65a111.8,111.8,0,0,1,7.31-10A6.15,6.15,0,0,1,360,303.31Z"/><path class="cls-1" d="M83.32,304.16a6.28,6.28,0,0,1,4.26,1.54,97.56,97.56,0,0,1,8.47,8.42,6.73,6.73,0,0,1-8.73,10,33.66,33.66,0,0,1-9.75-9.53,6.2,6.2,0,0,1,0-7.11A7,7,0,0,1,83.32,304.16Z"/><path class="cls-1" d="M125.74,222.1a28,28,0,0,1,0,3.55c-.55,4.1-3.3,6.8-7,6.74-4-.07-6.19-2.44-7-6.22a24.23,24.23,0,0,1-.12-8c.6-4.5,3.34-7.09,7.17-7s6.47,2.9,6.92,7.33a35,35,0,0,1,0,3.55Z"/><path class="cls-1" d="M289.69,250.62c0,7-2.56,10.8-7.23,10.72s-7.21-3.82-7.15-10.85c.06-6.82,2.46-10.37,7.08-10.45C287.19,240,289.68,243.55,289.69,250.62Z"/><path class="cls-1" d="M125.84,249.59c0,1.82,0,2.41,0,3-.19,5.24-2.92,8.68-6.94,8.76-4.18.09-7-3.05-7.34-8.36a32.8,32.8,0,0,1,.34-6.64c.56-3.86,2.81-6.28,6.82-6.26s6.18,2.5,6.87,6.29A20.33,20.33,0,0,1,125.84,249.59Z"/><path class="cls-1" d="M289.77,222.38a28.36,28.36,0,0,1-.47,4.46c-.91,3.59-3.31,5.64-7.05,5.52-3.55-.11-5.69-2.2-6.43-5.67a23.9,23.9,0,0,1-.15-9.27c.69-3.85,2.9-6.18,6.92-6.14s6.15,2.55,6.88,6.29A37.51,37.51,0,0,1,289.77,222.38Z"/><path class="cls-1" d="M267.82,243.09c-6.92.08-10.38-2.21-10.43-6.8s3.49-7,10.34-7a41,41,0,0,1,4.44.09c3.95.43,6.94,3.49,6.63,7-.34,3.89-2.64,6.19-6.54,6.66A36.52,36.52,0,0,1,267.82,243.09Z"/><path class="cls-1" d="M104.05,243.12c-7,.06-10.38-2.17-10.49-6.76s3.51-7.09,10.71-7.07a37.9,37.9,0,0,1,4,.08c4,.43,6.82,3.4,6.75,7s-2.93,6.42-7,6.77C106.73,243.22,105.39,243.12,104.05,243.12Z"/><path class="cls-1" d="M133.25,243a29.29,29.29,0,0,1-4.87,0c-3.69-.65-5.84-3.05-5.84-6.75a6.35,6.35,0,0,1,5.82-6.74,42.27,42.27,0,0,1,8.42-.15c4.23.24,7.08,3.28,7,7.1-.11,3.64-2.92,6.37-6.95,6.67-1.18.09-2.37,0-3.55,0Z"/><path class="cls-1" d="M297.05,243.08a36.35,36.35,0,0,1-4.43,0c-3.82-.46-6.26-3.19-6.15-6.86.12-4,2.33-6.34,6.23-6.78a47.3,47.3,0,0,1,7.53-.08c4.36.19,7.25,2.91,7.35,6.72.09,4-2.88,6.85-7.43,7.09-1,.06-2.07,0-3.1,0Z"/></g></g></svg>