<svg xmlns="http://www.w3.org/2000/svg" viewBox="0 0 373.29 373.35"><defs><style>.cls-1{fill:#08313a;}</style></defs><g id="Layer_2" data-name="Layer 2"><g id="Layer_1-2" data-name="Layer 1"><path class="cls-1" d="M139.42,0c7.39,1.91,14.17,4.9,19.79,10.29A37.5,37.5,0,0,1,169.7,27.06c.81,2.82,2.26,3.57,5,3.51,5.83-.14,11.66-.08,17.48,0,7.49.05,10.63,3.19,10.75,10.64.08,5.18.08,5.08,5.2,5.22,8.36.23,16.8-1,25.07.68A39,39,0,0,1,264.9,85.34c.12,15.06.05,30.11,0,45.17,0,5.92-3.15,9.56-8.12,9.6s-8.26-3.64-8.27-9.81c0-14.57,0-29.14,0-43.71,0-14.21-9.53-23.74-23.72-23.85-5.71,0-11.41,0-17.12,0-4.74,0-4.79,0-4.78,4.95,0,8.49-2.64,15.74-9.55,21a22.18,22.18,0,0,1-13.84,4.78c-31.33,0-62.65,0-94,0A23.45,23.45,0,0,1,62,70.14c-.17-8.08,1.33-7.38-7.77-7.4-5.34,0-10.69-.08-16,0A22.06,22.06,0,0,0,16.44,84.71c-.15,25.74-.07,51.48-.07,77.22q0,62.28,0,124.57c0,11,5.43,19,15.08,22.59a24.83,24.83,0,0,0,9,1.2q51.72,0,103.44,0a28.07,28.07,0,0,1,5.43.36,8.12,8.12,0,0,1,6.72,8.64,7.9,7.9,0,0,1-8.11,7.3c-7.89.1-15.78,0-23.68,0q-42.06,0-84.13,0C16.86,326.62,0,309.88,0,286.75Q0,186.4,0,86.06c0-22.72,16.9-39.59,39.54-39.68,6.32,0,12.63-.11,18.94,0,2.75.07,3.75-1,3.53-3.62a22.79,22.79,0,0,1,0-4.37c.51-4.87,3.75-7.71,9.29-7.85,6.43-.15,12.86-.07,19.3,0,1.83,0,3.3-.25,4-2.34,4.79-15.46,15.46-24.49,31-28.2Zm-7.29,77.15q22.58,0,45.15,0c6.4,0,9.12-2.66,9.22-9,.09-5.94-.09-11.89.07-17.84.08-2.81-1.07-3.53-3.66-3.47-5.7.14-11.41,0-17.12,0-7.53,0-10-2.33-10.57-9.76a23,23,0,0,0-29.34-20.19,22.62,22.62,0,0,0-16.21,20.26c-.55,7.13-3.27,9.67-10.39,9.69-5.83,0-11.66.09-17.48,0-2.5-.06-3.47.81-3.42,3.36.13,5.7,0,11.4,0,17.11,0,7.61,2.17,9.82,9.66,9.83Q110.1,77.18,132.13,77.15Z"/><path class="cls-1" d="M373.29,283.41c-1.68,10.58-4.08,21-8.8,30.65-16.24,33.32-42.56,53.46-79.4,58.38-54.21,7.24-101.07-29.62-112-79.1-12.13-54.72,25-110.66,80.1-121S360.58,198,371.59,251.55c.63,3.08,1.14,6.18,1.7,9.28Zm-16.11-11.24c.8-43.23-34.09-85.28-85.1-85.21-47.27.06-84.79,37.35-84.85,84.84-.06,50.87,41.67,85.4,84.83,85.19C319.24,356.76,357.1,319.31,357.18,272.17Z"/><path class="cls-1" d="M132.51,140.14q-38.43,0-76.85,0c-5.57,0-8.91-3-9-7.8a7.76,7.76,0,0,1,5.7-7.93,19,19,0,0,1,5.77-.62H206.75a19,19,0,0,1,5.41.53,8.3,8.3,0,0,1,6.06,8.47,8.08,8.08,0,0,1-7.77,7.3c-4.36.15-8.74.06-13.11.06Z"/><path class="cls-1" d="M108.82,186.77c-17.85,0-35.7,0-53.54,0-5.55,0-8.9-3.42-8.6-8.54.22-3.71,2.26-6,5.71-7.18a18,18,0,0,1,5.76-.62h102a23.4,23.4,0,0,1,4.35.3c4.54.85,7.49,4.53,7.11,8.7s-3.85,7.29-8.51,7.32c-11.89.07-23.79,0-35.69,0Z"/><path class="cls-1" d="M93.44,233.39q-18.54,0-37.09,0c-6.19,0-9.61-2.79-9.68-7.82s3.44-8.45,9.65-8.49c16-.1,32,0,48,0,8.85,0,17.7-.08,26.55.05,5.85.08,9.32,3.11,9.51,7.89s-3.15,8.36-8.39,8.39C119.14,233.43,106.29,233.39,93.44,233.39Z"/><path class="cls-1" d="M224.89,263.83a10.53,10.53,0,0,1,7.55,3.43c7.1,7.15,14.32,14.18,21.31,21.42,2.07,2.15,3.08,1.94,5-.24,14.93-17.25,30-34.36,45-51.56,2.7-3.1,5.79-4.86,9.92-3.62,3.2,1,4.94,3.37,5.5,6.63.52,3.05-.94,5.41-2.82,7.56q-16.05,18.36-32.13,36.69c-6.47,7.39-12.91,14.82-19.4,22.2-5.65,6.43-9.77,6.55-15.8.53-9.45-9.43-18.92-18.84-28.3-28.33-4.59-4.64-4.12-10.62,1-13.53A17.78,17.78,0,0,1,224.89,263.83Z"/></g></g></svg>