<svg xmlns="http://www.w3.org/2000/svg" viewBox="0 0 382.5 373.4"><defs><style>.cls-1{fill:#adcf62;}</style></defs><g id="Layer_2" data-name="Layer 2"><g id="Layer_1-2" data-name="Layer 1"><path class="cls-1" d="M382.5,298a51.68,51.68,0,0,1-3.25,6.69c-9.18,13.7-28.3,13.18-36.9-1.12-6.87-11.39-13.36-23-20-34.54-3.29-5.71-6.73-11.35-9.8-17.17-1.41-2.68-3.07-3.36-5.94-2.86-20.26,3.57-38.89-.76-55.48-12.71C233.34,223.51,223.36,205.89,221,184c-3.63-33.22,16.64-64.7,47.73-76.42,32.95-12.42,72.61,2,89.42,33,15.06,27.78,12.15,59.26-7.85,83.31-1.9,2.28-1.73,3.91-.37,6.24q14,24,27.83,48.12c1.73,3,3.19,6.18,4.77,9.27Zm-27-121.57c.12-33.65-27.4-61.1-61.32-61.17a61.43,61.43,0,0,0-.2,122.86C328.19,238.28,355.36,211,355.48,176.47Zm5.87,126c7.61-.07,11.87-7.71,7.86-14.79-9.53-16.86-19.35-33.56-29-50.37-1.15-2-2.19-1.92-3.76-.67a50.83,50.83,0,0,1-11.57,6.71c-2.1.92-2.44,2-1.27,4q14.61,25.11,29.1,50.3A9.09,9.09,0,0,0,361.35,302.44Z"/><path class="cls-1" d="M165.24,276.86H308.57c1.37,0,2.74,0,4.1,0,3.75.23,6,2.41,6,5.78s-2.21,5.75-5.91,5.85c-5.59.15-11.19.06-16.79.06-4.23,0-8.47.14-12.69,0-2.83-.12-3.79,1-3.61,3.71.16,2.35.05,4.73,0,7.09-.09,9-5.37,14.44-14.42,14.49-16,.1-32.1,0-48.15,0-5.81,0-5.82,0-3.14,5.26q11.28,22.11,22.55,44.22c2.1,4.13,1.42,7.4-1.65,9.14-3.33,1.9-6.66.68-8.83-3.47-4.45-8.48-8.78-17-13.15-25.55-4.49-8.74-9-17.44-13.41-26.25a5.3,5.3,0,0,0-5.46-3.41q-27.07.17-54.13,0c-2.77,0-4.22,1-5.44,3.43q-13,25.64-26.2,51.15a12.67,12.67,0,0,1-2.28,3.37c-2.19,2.12-4.78,2.06-7.16.42-2.76-1.9-3.21-4.74-1.9-7.63,1.84-4.07,4-8,6-12,6-11.74,12-23.49,18.11-35.17,1.51-2.89.85-3.58-2.24-3.56-16.17.09-32.35.05-48.52,0-10.91,0-15.8-4.86-15.83-15.62,0-9.65,0-9.65-9.53-9.65-9.33,0-18.66,0-28,0C6.74,288.52,0,281.92,0,271.81Q0,157,0,42.26C0,32.08,6.69,25.41,16.83,25.33c8.09-.07,16.17,0,24.26,0,4.38,0,6.91,2,7.16,5.43.26,3.68-2,6.31-6.55,6.48-7.71.3-15.42.15-23.14.21-5.55,0-6.82,1.27-6.82,6.83q0,112.73,0,225.45c0,5.68,1.66,7.13,7.93,7.13Zm1.63,11.74q-46.85,0-93.68,0c-7.86,0-6.92-.92-7,6.95,0,6.07,0,6.08,6.19,6.08q93.68,0,187.36,0c8.46,0,7.74,1,7.76-7.84,0-5.18,0-5.19-5.12-5.19Q214.64,288.58,166.87,288.6Z"/><path class="cls-1" d="M242.17,95.21c-3.2-1.43-4.92.92-6.85,3.68q-12.44,17.72-25.21,35.18a4.62,4.62,0,0,0-.44,5.66,18.44,18.44,0,0,1-3.16,21.43,18.92,18.92,0,0,1-20.91,4.6,18.44,18.44,0,0,1-11.73-17.84c.08-2.65-.66-4.07-3-5.28-4.84-2.54-9.57-5.31-14.27-8.1a3.89,3.89,0,0,0-4.72.14c-7.07,4.51-14.32,4.46-21.36-.11a3.65,3.65,0,0,0-4.4-.11c-4.72,2.77-9.44,5.55-14.29,8.08-2.44,1.28-3.16,2.94-3.15,5.63,0,9.46-6.68,17.39-15.51,18.66-10.1,1.46-18.79-4-21.55-13.63A18.83,18.83,0,0,1,78,133.42c6.29-5,14.28-5.88,21.26-1.68,2.92,1.76,5,1.64,7.72-.11a134.73,134.73,0,0,1,12.33-7c2.47-1.25,3.23-2.87,3.22-5.58a18.74,18.74,0,0,1,16.52-19,19,19,0,0,1,20.74,14.42,4.66,4.66,0,0,1,.35,1.82c-1.22,5.93,2.61,8.32,7,10.49,3.46,1.7,6.77,3.69,10.08,5.67a3.92,3.92,0,0,0,4.78,0,17.79,17.79,0,0,1,14.19-3c1.86.42,2.77-.47,3.69-1.75q13.56-19,27.17-37.9c1.19-1.64,1.14-3,.24-4.74-3.76-7.41-2.89-14.51,2.31-20.89,4.84-5.94,11.35-8,18.73-6.32,8,1.88,12.84,7.25,14.5,15.32C265.27,84.9,255.48,95.59,242.17,95.21Zm-42.7,52.89a6.42,6.42,0,0,0-6.82-6.71,6.83,6.83,0,0,0-6.9,6.83,7.3,7.3,0,0,0,7,6.89A6.79,6.79,0,0,0,199.47,148.1ZM244,69.64a6.73,6.73,0,0,0-6.75,6.88,7,7,0,0,0,7.05,6.72,6.77,6.77,0,0,0,6.66-7A6.5,6.5,0,0,0,244,69.64Zm-154,71.75a6.43,6.43,0,0,0-6.7,6.81,6.81,6.81,0,0,0,6.8,6.91,7.26,7.26,0,0,0,6.88-7A6.84,6.84,0,0,0,89.91,141.39ZM148,119.1c.07-4.09-2.54-6.8-6.61-6.85a6.7,6.7,0,0,0-7,6.6,7.36,7.36,0,0,0,6.81,7.08A6.78,6.78,0,0,0,148,119.1Z"/><path class="cls-1" d="M192.13,37.45q-60.66,0-121.31,0a38.54,38.54,0,0,1-7-.54,5.36,5.36,0,0,1-4.68-5.84c.09-3.16,2-5,5-5.59a22.37,22.37,0,0,1,4.1-.15c20.78,0,41.55-.09,62.33.08,3.77,0,5.24-1,4.86-4.85a29.44,29.44,0,0,1,.26-6.69C136.86,5.06,142.38.16,151.34.08Q167-.07,182.69.07c9.8.1,15.62,6.12,15.67,16,0,9.25,0,9.25,9.18,9.25H315.42c12.56,0,18.76,6.22,18.77,18.82q0,24.27,0,48.53c0,2.15-.1,4.22-1.68,5.93a5.82,5.82,0,0,1-9.9-2.2A21.1,21.1,0,0,1,322,90.1q0-22.77,0-45.54c0-6.41-.7-7.1-7.06-7.11Q253.54,37.43,192.13,37.45ZM166.84,25.31c4,0,8,.05,11.94,0,9-.13,7.79,1.38,7.84-7.94,0-4.32-.74-5-5-5.07-8.21,0-16.42,0-24.62,0-10.36,0-9.45-1-9.53,9.78,0,2.41.86,3.33,3.28,3.28C156.14,25.23,161.49,25.3,166.84,25.31Z"/><path class="cls-1" d="M124,211.42q0-18.28,0-36.57c0-6.43,2-8.39,8.54-8.41,6.22,0,12.44-.06,18.66,0,5.24.06,7.51,2.29,7.52,7.57q.08,37.5,0,75c0,5.12-2.25,7.36-7.25,7.42-6.71.09-13.43.08-20.15,0-5.06-.06-7.27-2.25-7.3-7.35C123.94,236.54,124,224,124,211.42Zm22.52.26c0-9.58-.16-19.16.08-28.73.1-4-1.8-4.47-5-4.38-3,.1-5.53-.15-5.48,4.31q.28,28.55,0,57.09c0,4.35,2.27,4.37,5.41,4.4s5.19-.28,5.08-4.34C146.34,230.59,146.5,221.13,146.5,211.68Z"/><path class="cls-1" d="M107.25,226c0,7.71,0,15.41,0,23.12,0,5.16-2.14,7.29-7.24,7.34q-10.08.1-20.14,0c-5-.06-7.3-2.29-7.32-7.37q-.11-23.31,0-46.62c0-5,2.41-7.39,7.33-7.5q10.07-.24,20.14,0c5,.13,7.18,2.53,7.22,7.53C107.3,210.32,107.25,218.15,107.25,226Zm-12.15-.21v-12.3c0-6.53,0-6.53-6.6-6.35-.38,0-.75,0-1.12,0-1.93-.06-2.64,1-2.63,2.78q0,15.65,0,31.29c0,2.24,1,3.17,3.19,3.08.61,0,1.24,0,1.86,0,5.16,0,5.29-.1,5.31-5.12C95.11,234.72,95.1,230.25,95.1,225.78Z"/><path class="cls-1" d="M175.45,225.62c0-7.71,0-15.42,0-23.12,0-5.08,2.13-7.41,7.16-7.53,6.71-.18,13.43-.16,20.14,0,4.92.11,7.34,2.52,7.37,7.48q.15,23.31,0,46.62c0,5.24-2.4,7.36-7.69,7.41-6.58.05-13.17.06-19.76,0-5.12-.05-7.19-2.16-7.22-7.33C175.42,241.28,175.45,233.45,175.45,225.62Zm11.75,0c0,4.47,0,8.94,0,13.41,0,5.28,0,5.28,5.4,5.28a14.81,14.81,0,0,1,1.49,0c2.89.28,3.95-1,3.91-3.89-.13-8.68-.05-17.37-.05-26.06,0-7.59,0-7.51-7.49-7.28-2.37.07-3.34.85-3.29,3.28C187.28,215.46,187.2,220.55,187.2,225.63Z"/><path class="cls-1" d="M243.82,256.46c-3.36,0-6.72.07-10.07,0-4.53-.11-6.71-2.18-6.8-6.58q-.16-7.65,0-15.29c.09-4,2.33-6.29,5.85-6.28s5.63,2.33,5.84,6.34c0,.49,0,1,0,1.49.16,9.1-1.45,8.1,8.47,8.19,3.1,0,6.22-.23,9.29.44,3.29.72,5,2.86,4.84,6.1a5.42,5.42,0,0,1-5.52,5.49c-4,.21-8,0-11.92,0Z"/><path class="cls-1" d="M252.71,176.62c0,21.34,16.72,39.74,36.86,41.42,24.12,2,42.83-15,45.53-35.9a38.4,38.4,0,0,0-2.22-19.81,24.52,24.52,0,0,1-1.29-3.88c-.81-3.51.52-6.36,3.34-7.41,3.06-1.13,6.15.11,7.77,3.4a48.76,48.76,0,0,1,4.82,18.28,53.77,53.77,0,0,1-55.61,57.53c-24.6-.89-45.15-18.53-50.41-43.27-4.91-23.12,7.12-47.61,28.79-58,19-9.16,37.31-7.47,54.76,4.22,3.58,2.41,4.56,5.57,2.8,8.54s-5.44,3.88-9.11,1.5c-7.7-5-15.87-8-25.21-7.84A41.07,41.07,0,0,0,252.71,176.62Z"/></g></g></svg>