<svg xmlns="http://www.w3.org/2000/svg" viewBox="0 0 411.62 369.7"><defs><style>.cls-1{fill:#adcf62;}</style></defs><g id="Layer_2" data-name="Layer 2"><g id="Layer_1-2" data-name="Layer 1"><path class="cls-1" d="M83.32,54.7c.47-1.62,1.19-2.14,3-2.14h0c12.66.06,26,.06,40.75,0,1.68,0,2.45.54,3.19,2.23,5.84,13.51,16.36,20.71,30.42,20.84s24.65-6.93,30.69-20.4c.93-2.08,1.9-2.72,4.14-2.73,2.08,0,3,.66,4,2.87,6,13.26,16.49,20.27,30.29,20.27h.08c13.92,0,24.42-7,30.39-20.27,1-2.17,2.06-2.84,4.46-2.83,8.32.07,16.78.06,25,0h6.68c24.9,0,43.74,11.13,56,33.09,2.24,4,5.26,6.07,8.66,6.07a10.29,10.29,0,0,0,4.64-1.21,9.34,9.34,0,0,0,5-5.48,10.5,10.5,0,0,0-1.24-8.16c-15-27.37-38.1-42-68.67-43.45-9.52-.45-19.2-.31-28.57-.17l-7.44.11h-.12c-2.29,0-3.28-.71-4.2-2.94-5.31-12.89-17.58-21.26-30.53-20.81-14.23.48-24.45,7.32-30.42,20.44-1,2.22-1.52,3.34-4,3.38s-3.12-1.12-4.18-3.45l-.07-.14C185.4,17,174.86,10,160.8,9.63c-12.88-.34-25.43,8.21-30.49,20.9-.89,2.23-1.86,2.85-4.28,2.84-11.19-.11-24.45-.19-38,0-3,.09-4.16-.74-5.12-3.69A42.85,42.85,0,0,0,57.9,3,42,42,0,0,0,22.12,5.21C10.8,11.43,3.37,21.52,0,35.2L0,50l.07.19.16.39a3.14,3.14,0,0,1,.21.57A43.22,43.22,0,0,0,40,85.38,42.35,42.35,0,0,0,83.32,54.7ZM59.23,59a23.6,23.6,0,0,1-16.86,7.11h0a23.23,23.23,0,0,1-16.57-6.7A23.49,23.49,0,0,1,19,42.64,23.19,23.19,0,0,1,42.45,19.18h0A23.68,23.68,0,0,1,66,42.56,23,23,0,0,1,59.23,59ZM170.7,52.39A13.7,13.7,0,0,1,161,56.51h0A14,14,0,0,1,147,42.64a14,14,0,0,1,13.64-13.82H161a14,14,0,0,1,13.77,13.72A13.75,13.75,0,0,1,170.7,52.39Zm45.62-9.86a13.85,13.85,0,0,1,4.12-9.88,13.22,13.22,0,0,1,9.32-3.83h.11A13.62,13.62,0,0,1,239.6,33a14,14,0,0,1,4,9.9A13.42,13.42,0,0,1,230,56.51h0a13.46,13.46,0,0,1-9.66-3.92A13.94,13.94,0,0,1,216.32,42.53Z"/><path class="cls-1" d="M394.11,292.57a42.3,42.3,0,0,0-38-6.31,43.09,43.09,0,0,0-27.85,27.57c-.84,2.48-1.6,3.37-4.11,3.37h-.07c-20.19-.13-40.54-.09-59.52,0-2.25,0-3.26-.64-4.17-2.66-6-13.43-16.53-20.52-30.37-20.52h-.22c-14.07.08-24.6,7.24-30.47,20.71a3.5,3.5,0,0,1-3.83,2.49h0c-2.37,0-3.28-.54-3.91-2.3a30.13,30.13,0,0,0-6-9.85,33,33,0,0,0-54.86,8.55c-.16.34-.29.7-.43,1.06-.65,1.7-1,2.56-2.63,2.47-2.73-.07-5.49-.05-8.16,0a96.63,96.63,0,0,1-16.8-.78c-27.4-4.5-47.71-26.82-50.54-55.54-2.51-25.43,12.05-50,36.23-61.08,11-5.07,22.42-5.08,34.48-5.09h2.3c3.12,0,4.45.82,5.63,3.54a32.31,32.31,0,0,0,36.51,19c11.53-2.4,19.7-9.22,24.27-20.26.72-1.75,1.69-2.31,4-2.27,2,0,2.93.58,3.65,2.25,6,13.69,16.57,20.93,30.69,20.93H230c14,0,24.58-7.2,30.5-20.72.82-1.87,1.81-2.48,3.92-2.45,3.79.07,7.64,0,11.37,0l4.22,0h4.47c3,0,6.08,0,9.13,0,14.3-.2,25-2.11,34.75-6.2a80.44,80.44,0,0,0,40-35.63c2.09-3.73,2.13-7.15.15-10.17a9.69,9.69,0,0,0-9.12-4.57c-4.58.26-6.75,3.79-8.34,6.37-12.34,20.07-30.25,30.35-53.23,30.56-5.09,0-10.26,0-15.27,0-5.6,0-11.39,0-17.09,0-2.92.08-4.17-.75-5.37-3.36-6-13-16.4-19.85-30.18-19.85h-.07c-13.48,0-23.86,6.8-30,19.59-1.18,2.46-1.86,3.65-4.39,3.67s-3.24-1.16-4.4-3.63c-6.07-12.84-16.47-19.62-30.1-19.62h-.31c-13.78.11-24.17,7.08-30,20.17-1,2.31-2.14,3-4.77,3h-4.26a149.42,149.42,0,0,0-17.79.72c-44,5.35-74.95,44.35-70.49,88.79,3.28,32.69,27.94,61.22,60,69.37,9.75,2.49,19.71,2.44,29.35,2.39,1.29,0,2.59,0,3.87,0,1.93,0,2.86.3,3.61,2.1,5.81,14,16.44,21.39,30.88,21.35s25.14-7.45,30.83-21.43a2.78,2.78,0,0,1,2.9-2.06c2.55-.19,3.69.57,4.87,3.25,5.67,12.83,16.16,19.88,30.34,20.39,12.74.48,25.58-8.3,30.54-20.82.86-2.18,1.84-2.8,4.35-2.79,18.36.08,38.14.13,58.33,0h.16c3,0,4.06.78,5,3.66a42.49,42.49,0,0,0,40.59,29.72,44.56,44.56,0,0,0,7.14-.59c16.57-2.73,30.41-15.72,34.43-32.32A42.23,42.23,0,0,0,394.11,292.57Zm-25.28,11a23.6,23.6,0,0,1,16.53,40.23,23.06,23.06,0,0,1-16.44,6.74h-.08A23.61,23.61,0,0,1,352,343.36a22.91,22.91,0,0,1-6.73-16.45,23.47,23.47,0,0,1,23.48-23.34ZM243.56,327.28a13.81,13.81,0,0,1-13.77,13.56h0a13.1,13.1,0,0,1-9.31-4,14.45,14.45,0,0,1-4.11-10.3A13.33,13.33,0,0,1,230,313.17h.12a13.4,13.4,0,0,1,9.58,3.95A14.08,14.08,0,0,1,243.56,327.28Zm-82.67-14.11A13.83,13.83,0,0,1,174.73,327a14,14,0,0,1-4.25,9.85,13.76,13.76,0,0,1-9.72,4A14.2,14.2,0,0,1,147,327.05a13.6,13.6,0,0,1,4-9.7A13.9,13.9,0,0,1,160.89,313.17Zm0-142.15a13.84,13.84,0,0,1,0,27.68h0A14,14,0,0,1,147,184.75,14,14,0,0,1,160.73,171Zm55.42,13.82a13.87,13.87,0,0,1,4.06-10A13.47,13.47,0,0,1,230.1,171a13.86,13.86,0,0,1,0,27.7,13.28,13.28,0,0,1-9.73-3.86A13.91,13.91,0,0,1,216.32,184.84Z"/><path class="cls-1" d="M356.11,114.63a9.18,9.18,0,0,0,9.4,9.25h.05a9.63,9.63,0,0,0,9.56-9.28,9.3,9.3,0,0,0-2.83-6.72,9.8,9.8,0,0,0-7-2.78A9.34,9.34,0,0,0,356.11,114.63Z"/></g></g></svg>