<svg xmlns="http://www.w3.org/2000/svg" viewBox="0 0 561.74 561.74"><defs><style>.cls-1{fill:#08313a;}.cls-2{fill:#fff;}</style></defs><g id="Layer_2" data-name="Layer 2"><g id="Layer_1-2" data-name="Layer 1"><circle class="cls-1" cx="280.87" cy="280.87" r="280.87"/><path class="cls-2" d="M180.07,402.78c-5.34-1.84-9.22-5.12-10.72-10.8a15.54,15.54,0,0,1-.38-4q0-107.07,0-214.13c0-8.73,6.11-14.86,14.81-14.86q86.25,0,172.49,0c8.6,0,14.76,6.11,14.78,14.64.05,17,0,33.94,0,50.92,0,2.84-1.19,4.58-3.5,5.3a4.7,4.7,0,0,1-5.44-1.89c-1-1.22-.9-2.66-.9-4.09V176.75c0-.79,0-1.59,0-2.38-.23-3.69-1.82-5.29-5.5-5.53-.79-.05-1.58,0-2.38,0H186.78c-.71,0-1.43,0-2.14,0-3.95.17-5.62,1.8-5.81,5.71,0,.79,0,1.59,0,2.38V385.1c0,.79,0,1.59,0,2.38.22,3.79,1.86,5.4,5.68,5.6.79,0,1.58,0,2.38,0h168c4.6-.08,6.33-1.76,6.34-6.37,0-10.47,0-20.94,0-31.41a20.63,20.63,0,0,1,.08-2.61,4.88,4.88,0,0,1,9.69.07,22.56,22.56,0,0,1,.08,2.85c0,10.07-.23,20.15.07,30.21C371.4,394.32,368,400,360,402.78Z"/><path class="cls-2" d="M412.78,242.41c-2.74,8.3-7.84,15.37-12.12,22.84q-24.48,42.72-49.19,85.3a14.63,14.63,0,0,1-4.09,4.56q-13.9,10.18-27.76,20.45c-2.07,1.53-4.19,2.4-6.58,1s-2.67-3.58-2.36-6.19c1.4-11.72,2.65-23.45,3.91-35.18a11.76,11.76,0,0,1,1.67-4.65q28-48.51,56-97c1.9-3.28,3.52-6.79,6.36-9.43,11.46-10.67,28.86-6,33.58,8.9l.56,1.82ZM343.69,342.55c1.25-.05,1.44-1.15,1.88-1.91Q368.3,301.33,391,262c.82-1.41.75-2.12-.74-2.94-4.65-2.56-9.27-5.19-13.8-7.95-1.63-1-2.43-.73-3.33.88-2.93,5.25-6,10.44-9,15.66q-18.19,31.5-36.4,63c-.95,1.63-.78,2.43.86,3.33,4.58,2.52,9.09,5.18,13.62,7.79C342.71,342,343.2,342.29,343.69,342.55Zm48.45-114.27a10,10,0,0,0-7.91,4.75c-1.42,2.19-2.64,4.5-4,6.73-.62,1-.51,1.7.57,2.31q7.43,4.25,14.81,8.55c.87.51,1.61.62,2.18-.41,1.49-2.7,3.35-5.21,4.44-8.11C404.77,235.38,399.89,228.28,392.14,228.28ZM321.9,360.53l.59.38c4.51-3.3,9-6.61,13.55-9.93.86-.63.29-1-.31-1.38-3.44-2-6.89-3.93-10.3-6-1.14-.67-1.62-.25-1.75.87C323.07,349.86,322.49,355.19,321.9,360.53Z"/><path class="cls-2" d="M314,228.56a43.95,43.95,0,1,1-43.82-43.89A43.78,43.78,0,0,1,314,228.56Zm-61.23-2.86c0-1.11,0-1.9,0-2.69.41-7.27,4-12.53,10.59-15.33s12.63-1.52,18.2,3c6.86,5.53,7.39,18.29,3.45,24.76-.85,1.38-.61,2,.79,2.67A28.24,28.24,0,0,1,296,246.46c1.3,1.75,2,1.44,3-.23A33.93,33.93,0,0,0,244.66,206a33.52,33.52,0,0,0-8.2,27.55,31.12,31.12,0,0,0,4.84,13c.81,1.23,1.46,1.54,2.46.21a30.35,30.35,0,0,1,10.92-9c1-.49,1.24-1,.61-2A16.35,16.35,0,0,1,252.73,225.7Zm17.32,36.93a35.57,35.57,0,0,0,18.68-5.73c1.38-.91,1.32-1.61.52-2.82-8.66-13-29.36-13.17-38.23-.29-1.09,1.58-.78,2.39.74,3.39A35.63,35.63,0,0,0,270.05,262.63Zm7.41-37.6c0-5.07-2.7-8.43-6.91-8.66s-7.12,2.32-7.85,6.9c-.81,5,1.4,9.4,5.28,10.43C273.3,235.12,277.48,231.3,277.46,225Z"/><path class="cls-2" d="M261.81,297.3c-10.94,0-21.89,0-32.83,0-2.23,0-4.08-.59-5.19-2.66a4.87,4.87,0,0,1,3.52-7.11,16.32,16.32,0,0,1,2.62-.1h64a17.43,17.43,0,0,1,2.61.1,4.89,4.89,0,0,1,0,9.65,17.48,17.48,0,0,1-2.61.1Z"/><path class="cls-2" d="M261.92,324c-11,0-22.05,0-33.07,0-2.47,0-4.36-.83-5.31-3.19a4.86,4.86,0,0,1,3.67-6.55,16.07,16.07,0,0,1,2.6-.12h64.24c.71,0,1.43,0,2.14,0a4.81,4.81,0,0,1,4.42,5,4.75,4.75,0,0,1-4.43,4.74c-1.74.13-3.49.06-5.23.06Z"/><path class="cls-2" d="M261.91,350.6c-11,0-22.05,0-33.07,0-3.46,0-5.54-1.86-5.6-4.81a4.8,4.8,0,0,1,4.21-4.95,18.87,18.87,0,0,1,2.38-.08h64.23c.72,0,1.44,0,2.14.05a4.81,4.81,0,0,1,4.41,4.78,4.76,4.76,0,0,1-4.45,5c-1.89.14-3.8.06-5.7.06Z"/><path class="cls-2" d="M282.85,377.25c-4,0-8.09,0-12.13,0-3.46,0-5.54-1.86-5.6-4.81s2.07-5,5.63-5q12.12,0,24.26,0c3.45,0,5.54,1.86,5.6,4.81s-2.07,5-5.63,5C290.94,377.27,286.9,377.25,282.85,377.25Z"/><path class="cls-2" d="M207.72,297.27a4.9,4.9,0,1,1,.18-9.79,4.9,4.9,0,1,1-.18,9.79Z"/><path class="cls-2" d="M212.72,319a4.89,4.89,0,0,1-5,4.88,4.9,4.9,0,0,1,0-9.79A4.89,4.89,0,0,1,212.72,319Z"/><path class="cls-2" d="M207.87,340.78a4.9,4.9,0,1,1-.13,9.79,4.9,4.9,0,1,1,.13-9.79Z"/></g></g></svg>