<svg xmlns="http://www.w3.org/2000/svg" viewBox="0 0 561.74 561.74"><defs><style>.cls-1{fill:#08313a;}.cls-2{fill:#fff;}</style></defs><g id="Layer_2" data-name="Layer 2"><g id="Layer_1-2" data-name="Layer 1"><circle class="cls-1" cx="280.87" cy="280.87" r="280.87"/><path class="cls-2" d="M195.22,383q6.22-10.74,12.44-21.48c.65-1.1.35-1.81-.54-2.62a16.87,16.87,0,0,1-2.47-2.86c-2.88-4.18-3.29-4.37-8.13-3.35a13.41,13.41,0,0,1-16.21-14.25,13.63,13.63,0,0,1,.36-2c.94-4.3.59-5.17-3.06-7.56-4-2.63-6.38-6.19-6.51-11.1-.15-5.33,2.25-9.23,6.63-12.05,3.41-2.19,3.92-3.31,3-7.12A13,13,0,0,1,182.37,288a6.89,6.89,0,0,0,.9-4.11v-74.1c0-5.2,1-6.22,6.23-6.22q31,0,61.92,0c2.09,0,3.89.38,4.88,2.43a4.18,4.18,0,0,1-3.9,6c-3.38.11-6.76,0-10.15,0-15.81,0-31.63,0-47.45-.06-2.49,0-3.11.78-3.1,3.18q.12,31.73,0,63.44c0,2.37.82,2.7,3,3.35,5.37,1.56,8.17-.49,11.27-4.73,5.09-7,16.1-6.06,20.93,1.11,1.67,2.48,1.41,5-.67,6.51s-4.38.9-6.24-1.27c-2.85-3.34-6.08-3.15-8.48.5-4.19,6.35-8.32,8.09-16,6.69-4.79-.88-7.28,1.51-6.28,6.27,1.48,7.06-.62,12.4-6.9,16.16-3.63,2.18-3.69,6.25-.08,8.4,6.51,3.87,8.52,9.37,7,16.6-.92,4.33,1.57,6.85,5.92,5.92,7.39-1.59,12.87.58,16.76,7.17a4.46,4.46,0,0,0,7.94.06c4-6.68,9.48-8.83,17-7.24,4.48,1,6.68-1.77,5.68-6.59-1-4.65-.38-8.9,2.82-12.6a18.22,18.22,0,0,1,4-3.12c3.8-2.48,3.78-6.23,0-8.73-6.29-4.14-8.17-8.5-6.78-15.71.81-4.22-.24-5.89-4.41-7-2.79-.72-4.35-2.68-3.95-5s2.59-3.87,5.56-3.58c7.56.74,13.38,8.42,11.52,15.88-1,4.06-.07,6.42,3.46,8.61,6,3.7,7.69,10.8,4.7,17.18-.24.51-.75.94-.56,1.64a4.25,4.25,0,0,0,2.44.24q48.6,0,97.19,0c3.4,0,3.4,0,3.43-3.51.06-7.64,5.09-12.66,12.76-12.72,3.47,0,3.48,0,3.48-3.46v-65c0-3.56,0-3.48-3.57-3A299.9,299.9,0,0,1,316.67,240c-10-.56-19.86-1.71-29.73-3.11-4.29-.61-6.84-1.82-6.24-6.68.17-1.39-.51-2.05-1.92-2-.34,0-.68,0-1,0-4.64,0-4.64,0-4.83,4.66a12.36,12.36,0,0,1-24.69-.34c-.08-4.32-.08-4.32-4.47-4.32-5.59,0-11.17.06-16.75,0-2,0-3,.44-2.81,2.66a12.38,12.38,0,0,1-13.65,13.61c-2-.21-2.65.61-2.61,2.6.11,5.58.05,11.16,0,16.75,0,3.16-1.53,4.94-4.14,5s-4.31-1.73-4.32-5.05q0-11.41,0-22.84c0-3.47,1.47-4.86,5-4.91,2.2,0,4.4.05,6.59,0,3-.13,4.48-1.61,4.62-4.61.09-1.94,0-3.89,0-5.83,0-4.54,1.21-5.76,5.67-5.77,13.28,0,26.56-.07,39.84.06,2.59,0,3.3-.72,3.27-3.28-.13-12-.06-24,0-36,0-3.62.9-4.83,4.43-5.71Q300.15,167,331.4,159.2a8.54,8.54,0,0,1,4.26-.07c5,1.24,10,2.46,15,3.78,3.23.85,4.66,2.84,4.07,5.38s-2.92,3.78-6.22,3a4.05,4.05,0,0,1-.5-.12c-9.7-3.86-19.26-3.17-29.12,0-9.32,3-19,4.88-28.49,7.27a4.73,4.73,0,0,0-2.3,1.19c1.6.41,3.19.85,4.79,1.25q19.31,4.83,38.62,9.66a8,8,0,0,0,4,.11l42.31-10.58c.47-.12.93-.33,2.13-.78-2.48-.67-4.28-1.18-6.1-1.65-2.62-.68-5.27-1.25-7.86-2-3-.85-4.36-3-3.67-5.4s2.91-3.7,5.85-3c8.21,2,16.4,4.08,24.6,6.13,2.21.56,4.43,1.09,6.63,1.7a4.35,4.35,0,0,1,0,8.52c-3.51.95-7,1.85-10.57,2.67a2.41,2.41,0,0,0-2.19,2.8q.15,6.09,0,12.18c-.05,1.83.71,2.34,2.41,2.29,3.05-.09,6.09-.06,9.14,0s4.69,1.52,4.7,4.69q0,27.91,0,55.82c0,3.07-1.7,4.84-4.36,4.77s-4.08-1.81-4.09-4.77c0-16.33-.06-32.65,0-49,0-2.47-.74-3.2-3.16-3.11-5.24.2-4.65-.5-4.65,4.62q0,47.44,0,94.9c0,5-1.1,6.08-6.12,6.09-1.77,0-3.55,0-5.33,0-3.15.12-4.64,1.59-4.76,4.72-.08,1.94,0,3.89,0,5.84,0,4.45-1.24,5.65-5.78,5.66H253.72c-3.06,0-3.16,0-2.38,3.07.38,1.46-.47,3.39.83,4.32s3.29.36,5,.36q66.62,0,133.22,0c4,0,4,0,4-4.17q0-27.78,0-55.57c0-3.38,1.48-5.17,4.18-5.2a4,4,0,0,1,4.22,3.57,21.62,21.62,0,0,1,.07,2.79q0,30.33,0,60.65c0,5.4-1,6.4-6.31,6.4h-137a17.61,17.61,0,0,1-1.78,0c-2.16-.22-2.51.38-1.38,2.32,5.1,8.68,10.1,17.41,15.13,26.13.25.44.54.86.77,1.31.94,1.89,1.09,3.77-.43,5.42a4.24,4.24,0,0,1-5.35.84c-4.28-2-8.5-4.18-12.75-6.28-1.74-.86-3.52-1.67-5.21-2.61s-2.15-.33-2.27,1.25c-.23,3.29-.5,6.57-.71,9.86s-.41,6.41-.55,9.61c-.11,2.34-.94,4.19-3.36,4.79s-4-.57-5.22-2.62q-7.72-13.41-15.48-26.8c-1.23-2.13-2.51-4.22-3.66-6.38-1-1.81-1.69-1.78-2.7,0-5,8.74-10.05,17.44-15.07,26.16-1.4,2.41-2.8,4.83-4.18,7.25a4.34,4.34,0,0,1-5.09,2.4c-2.3-.53-3.23-2.26-3.36-4.5q-.52-8.86-1.07-17.71c0-.51-.09-1-.11-1.52-.1-2-.76-2.64-2.81-1.57-5,2.64-10.13,5.08-15.21,7.59-.68.34-1.36.69-2.05,1-2,.9-4,1-5.6-.73s-1.41-3.71-.31-5.64c2.6-4.55,5.23-9.09,7.85-13.63,1.82-3.15,3.61-6.31,5.47-9.43,1.63-2.73,4.12-3.56,6.37-2.24s2.69,3.72,1.2,6.43c-2,3.55-4,7-5.72,11l7.78-3.85c1.44-.71,2.86-1.47,4.32-2.13,3.55-1.62,6.47.14,6.75,4,.32,4.37.62,8.75.93,13.12Zm94-174.37c0,5.5.16,11-.07,16.48-.11,2.67.9,3.49,3.36,3.81a311.91,311.91,0,0,0,50,2.67c11-.34,21.9-1.39,32.79-2.74,2.11-.26,3-1.07,2.94-3.39-.14-11.16-.06-22.31-.07-33.47,0-3,0-3.05-3-2.32-12.46,3.12-24.92,6.2-37.35,9.39a16,16,0,0,1-8.22,0c-12.52-3.22-25.08-6.26-37.59-9.48-2.34-.61-2.94,0-2.88,2.31C289.29,197.51,289.19,203.1,289.19,208.67Zm-32.41,163c.1-.48.21-.68.15-.79q-5.34-9.36-10.7-18.71c-.56-1-1.27-.92-2.12-.47a13.4,13.4,0,0,1-10.35.74c-2.49-.72-4.31.23-5.64,2.27a16.22,16.22,0,0,1-3.24,4.19c-1.31,1-1.14,2-.38,3.25,2.59,4.36,5.09,8.78,7.63,13.17,1.51,2.61,3,5.2,4.75,8.16,1.06-4.44.73-8.51,1.14-12.51.58-5.59,3-7.07,8.1-4.55ZM273,202.19c0,4.23,0,8.46,0,12.69.05,5.54-.79,4.76,5.07,4.94,2.13.06,2.74-.69,2.72-2.77-.09-8.28,0-16.57,0-24.86,0-5.56,0-5.48-5.53-6.75-1.8-.41-2.27.08-2.25,1.79C273,192.22,273,197.2,273,202.19ZM256.82,232a3.77,3.77,0,1,0,3.95-3.59A4,4,0,0,0,256.82,232Z"/><path class="cls-2" d="M293.11,248.2H332.4c4.19,0,5.49,1.29,5.51,5.41,0,4.82,0,9.64,0,14.46,0,3.31-1.51,4.82-4.81,4.82q-40.06,0-80.12,0c-3.27,0-4.7-1.53-4.73-4.9q0-7.35,0-14.7c0-3.66,1.42-5.08,5.06-5.09Q273.21,248.18,293.11,248.2Zm.19,8.48c-11.33,0-22.67,0-34,0-2,0-2.85.6-2.6,2.61a15.08,15.08,0,0,1,0,1.78c0,3.41,0,3.41,3.52,3.41q32.24,0,64.46,0c5.31,0,4.58.67,4.8-4.71.1-2.54-.82-3.11-3.2-3.09C315.3,256.74,304.3,256.68,293.3,256.68Z"/><path class="cls-2" d="M215.72,337.88a20.48,20.48,0,1,1,20.68-20.39A20.25,20.25,0,0,1,215.72,337.88Zm12.14-20.75a11.94,11.94,0,1,0-11.73,12.21A12.16,12.16,0,0,0,227.86,317.13Z"/><path class="cls-2" d="M305.28,305.4H266.5a17.74,17.74,0,0,1-2.53-.08,4,4,0,0,1-3.53-4.26,4,4,0,0,1,3.47-4.05,13.2,13.2,0,0,1,2.52-.08H344a13.31,13.31,0,0,1,2.53.08,3.94,3.94,0,0,1,3.53,4,4,4,0,0,1-3.46,4.31,16.42,16.42,0,0,1-2.53.09Z"/><path class="cls-2" d="M317.46,280.68h34.73a13.33,13.33,0,0,1,2.53.08,4,4,0,0,1,3.46,4.06,4,4,0,0,1-3.53,4.25,17.74,17.74,0,0,1-2.53.08H282.67a16.42,16.42,0,0,1-2.53-.09,4,4,0,0,1-3.45-4.31,3.92,3.92,0,0,1,3.52-4,13.31,13.31,0,0,1,2.53-.08Z"/></g></g></svg>