<svg xmlns="http://www.w3.org/2000/svg" viewBox="0 0 561.74 561.74"><defs><style>.cls-1{fill:#08313a;}.cls-2{fill:#fff;}</style></defs><g id="Layer_2" data-name="Layer 2"><g id="Layer_1-2" data-name="Layer 1"><circle class="cls-1" cx="280.87" cy="280.87" r="280.87"/><path class="cls-2" d="M305.66,220.14H260.48c-2.76,0-2.76,0-1.69,2.41a22.45,22.45,0,0,1,2,9.23q0,23,0,45.89c0,3.31,0,3.32-3.29,3.33-7.34.05-7.34.05-7.34-7.32,0-10.14,0-20.29,0-30.43,0-2.05-.56-2.77-2.68-2.75-8.24.1-16.49,0-24.73.08-2.39,0-3.26-.69-3.1-3.11.24-3.79-.38-7.64.29-11.39,1.8-10.1,10-16.61,20.74-16.6l82.51,0c1.34,0,2.69,0,4,0,.82,0,1.92.42,2.4-.5.4-.77-.45-1.44-.84-2.1-7.88-13.2-19-22.78-32.85-29.3a83.27,83.27,0,0,0-42.54-7.81c-18.34,1.41-34.19,8.66-47.8,21-11.91,10.86-18.8,24.26-20.17,40.23-.68,7.95-.18,16-.25,24a50.67,50.67,0,0,1-.23,7.59c-1.28,8.07-4.74,15.42-7.67,22.93-2,5.24-4.44,10.34-6.72,15.48-1.17,2.65-1,2.87,2,2.95,1.72.05,3.49-.32,5.16.43a9.89,9.89,0,0,1,6.06,8.45,12.94,12.94,0,0,1,0,2.85,7.76,7.76,0,0,0,2.29,6.84,11.42,11.42,0,0,1,3,8.3c0,5.23,0,10.46,0,15.69,0,4.38,2.06,6.45,6.41,6.46,10.14,0,20.29,0,30.43,0,9.29.05,15.51,7.38,14.14,16.53-.25,1.64-.42,3.3-.65,4.94-1.24,8.86-2.5,17.72-3.69,26.58-.17,1.24-.73,1.63-1.85,1.62-2,0-4-.13-5.94,0-2.46.22-3.11-1-2.83-3.11q.72-5.64,1.52-11.29c1-6.82,2-13.63,3-20.45.38-2.68-1.08-4.2-4.08-4.21-9.9,0-19.81,0-29.72,0-10.61,0-17.36-6.77-17.39-17.41,0-4.76,0-9.51,0-14.27a4.28,4.28,0,0,0-1.32-3.66c-3.34-2.72-4.35-6.33-4-10.42.22-2.35-.49-3.23-3-3.49-9.25-1-13.41-8.62-9.47-17.06a321.33,321.33,0,0,0,12.71-31.5,21.59,21.59,0,0,0,1.21-7.22c0-7.77-.16-15.54,0-23.3.47-18.76,7-35.08,20.11-48.64,13.54-14,29.79-23,49-26.41,37.09-6.63,79.44,10,97.72,47.47a2.72,2.72,0,0,0,2.76,1.73,84.77,84.77,0,0,1,10.92.32,19.77,19.77,0,0,1,17.08,19.27c.07,9.67.08,19.34,0,29,0,2,.66,2.89,2.56,3.54,12.28,4.2,18.79,17.21,14.29,29.27-1.54,4.14-1.66,8.16-1.49,12.33.43,10.37.25,20.76.22,31.13,0,4.35-3.34,6.59-7.5,5.3q-5.34-1.67-10.57-3.62a6,6,0,0,0-4.36-.09c-3.29,1.15-6.63,2.17-9.94,3.26-6,2-9-.15-9-6.41,0-10.07,0-20.13,0-30.2a58,58,0,0,0-1.42-14.56c-2.75-10.65,3.38-21.79,13.85-25.95,2.27-.9,2.87-2.07,2.84-4.37-.13-9,0-18.07-.06-27.11,0-6.67-3.75-10.47-10.45-10.48C335.93,220.11,320.79,220.14,305.66,220.14Zm74,63.33a12.33,12.33,0,1,0-24.65-.26,12.33,12.33,0,1,0,24.65.26ZM357,315.77c0,3.24,0,6.48,0,9.72,0,1.29.34,2.15,1.78,1.45,5.6-2.7,11.18-3,16.81-.08,1.09.56,1.6,0,1.57-1.16-.12-6.48-.22-13-.34-19.43,0-1.14-.54-1.56-1.69-1.15a22.68,22.68,0,0,1-16.22-.32c-1.57-.61-2,0-1.92,1.48C357,309.44,357,312.61,357,315.77Zm-117-85.9c2.61,0,5.22,0,7.83,0,1.86,0,2.25-.85,1.59-2.4a10.88,10.88,0,0,0-8.36-7,9,9,0,0,0-10.36,6.24c-.71,2.37-.22,3.08,2.18,3.12S237.56,229.87,239.94,229.87Z"/><path class="cls-2" d="M326.32,402.74c-18.23,0-36.46-.28-54.68.1A21.19,21.19,0,0,1,250,381.32c.38-15.6.09-31.22.09-46.83,0-3.16.08-3.23,3.15-3.25,1.51,0,3,.1,4.52,0,2.3-.17,3,.84,3,3.07q-.09,23.9,0,47.79c0,6.06,4.23,10.11,10.24,10,5.28-.08,9.26-4.18,9.51-9.87a60.57,60.57,0,0,0,0-7.13c-.18-2.39.65-3.13,3.07-3.12,14.82.1,29.64,0,44.46,0,10.22,0,20.44-.06,30.67.05,2.21,0,2.87-.71,2.84-2.86-.11-6.66,0-13.32-.07-20,0-2,.61-2.94,2.72-2.8a49.91,49.91,0,0,0,5.47,0c1.82-.08,2.52.64,2.5,2.5-.08,6.74.07,13.48-.08,20.21-.05,2.35.77,2.93,3,2.9,8.16-.11,16.32,0,24.48-.08,2.28,0,3.14.69,3,3-.25,3.71.26,7.44-.42,11.14a20,20,0,0,1-19.73,16.63C363.73,402.77,345,402.74,326.32,402.74Zm15.26-20.09c-15.85,0-31.7,0-47.55,0-2.09,0-3.11.66-3.2,2.76a12.1,12.1,0,0,1-1.2,4.58c-.84,1.8-.17,2.2,1.55,2.18,5.54-.05,11.09,0,16.64,0q36.74,0,73.46,0c4.51,0,7.84-1.62,9.75-5.78,1.43-3.13,1.05-3.7-2.38-3.7Z"/><path class="cls-2" d="M283.44,301.41H233.53c-3.26,0-3.29-.05-3.3-3.34,0-1.67.06-3.33,0-5s.72-2.38,2.43-2.35c4.19.06,8.39,0,12.59,0h87.95c3.65,0,3.66,0,3.67,3.7,0,1.34-.11,2.7,0,4,.21,2.32-.8,3-3,3C317,301.38,300.24,301.41,283.44,301.41Z"/><path class="cls-2" d="M293.32,321.79h-39.9c-3.25,0-3.27,0-3.29-3.35,0-1.66.08-3.33,0-5s.66-2.35,2.37-2.33c6.73.06,13.46,0,20.19,0h60.81c3.33,0,3.35,0,3.37,3.26,0,1.51-.09,3,0,4.51.15,2.19-.81,2.9-2.93,2.89-11.56-.06-23.12,0-34.68,0Z"/><path class="cls-2" d="M306.37,281c-9.19,0-18.37-.05-27.56.05-2.17,0-3.05-.68-2.89-2.85a36.13,36.13,0,0,0,0-5c-.14-2.2.84-2.88,2.95-2.87,12.28.06,24.55,0,36.82,0,6.1,0,12.19.06,18.29,0,2.16,0,3,.79,2.89,2.93a32.74,32.74,0,0,0,0,4.75c.17,2.23-.63,3.06-3,3C324.74,280.94,315.55,281,306.37,281Z"/><path class="cls-2" d="M329.76,261c-3.09,0-6.18-.06-9.27,0-1.77.05-2.41-.69-2.34-2.4.08-2,.08-4,0-5.94,0-1.59.57-2.32,2.21-2.32,6.25,0,12.51,0,18.77,0,1.5,0,2.14.67,2.1,2.18-.06,2-.09,4.12,0,6.17.08,1.81-.77,2.34-2.44,2.29C335.78,261,332.77,261,329.76,261Z"/><path class="cls-2" d="M311,352.22c-6,0-5.19.37-5.19-5.23,0-6.22-.66-5.38,5.44-5.39,5.75,0,5.22-.77,5.2,5.17S317.27,352.18,311,352.22Z"/><path class="cls-2" d="M326.22,346.8c.07-5.9-.71-5.21,5.13-5.2,6.1,0,5.48-.92,5.5,5.6,0,5.45.49,5-4.94,5h-.23C325.34,352.18,326.31,352.75,326.22,346.8Z"/><path class="cls-2" d="M290.68,341.58c6.15.11,5.38-.83,5.38,5.41,0,5.6.87,5.21-5.15,5.23s-5.45.41-5.46-5.49S285.08,341.68,290.68,341.58Z"/></g></g></svg>