<svg xmlns="http://www.w3.org/2000/svg" viewBox="0 0 561.74 561.74"><defs><style>.cls-1{fill:#08313a;}.cls-2{fill:#fff;}</style></defs><g id="Layer_2" data-name="Layer 2"><g id="Layer_1-2" data-name="Layer 1"><circle class="cls-1" cx="280.87" cy="280.87" r="280.87"/><path class="cls-2" d="M388.42,283.12a4.64,4.64,0,0,1,0-4.67c8.34-17.25,12.85-31.88,14.18-46,.95-10.12,1.67-21.87-1.8-33.28-6.73-22.11-22-35.53-45.53-39.9-1.12-.21-2.26-.39-3.36-.56l-1.55-.25H332.51a159.52,159.52,0,0,0-24.42,5.07,155.61,155.61,0,0,0-24.35,9.56A5.72,5.72,0,0,1,278,173a149.07,149.07,0,0,0-38.93-13.06c-2.3-.41-4.64-.74-6.9-1.06l-3.17-.46H212.12c-6.35,1-12.55,2.05-18.57,4.5-18.09,7.36-29.37,21.2-33.52,41.12-3,14.55-1.91,30.08,3.54,48.85.73,2.51,1.59,5.16,2.82,8.61a1.51,1.51,0,0,1-.43,1.92c-10,10.25-10.05,24.44-.07,34.51a1.62,1.62,0,0,1,.45,2.1,126.35,126.35,0,0,0-7.6,33.4c-1.21,15.38.75,27.65,6.19,38.64,8.29,16.76,22.48,26.89,42.17,30.11,15.28,2.5,31.28.79,50.35-5.4a153.32,153.32,0,0,0,21.39-8.72,4.17,4.17,0,0,1,4.22,0c14.79,7.19,28.75,11.74,42.67,13.9A105.73,105.73,0,0,0,342,403.33a71.33,71.33,0,0,0,19.33-2.53c22.65-6.29,36.28-21.1,40.5-44,2.89-15.67,1.59-32.34-3.87-49.56A166.54,166.54,0,0,0,388.42,283.12ZM223.28,393.25c-.91,0-1.82-.05-2.72-.05h0c-13.07.42-23.82-2.44-32.87-8.75-10.36-7.23-16.5-17.57-18.75-31.63-2.31-14.42-.46-29.26,6-48.11.33-1,.67-1.16,1.72-.89a19.65,19.65,0,0,0,9.86.25c1.15-.29,1.71-.05,2.47,1.08a251.18,251.18,0,0,0,35.18,41.44,245.3,245.3,0,0,0,45.21,34.26,3.72,3.72,0,0,0,.7.33,4.49,4.49,0,0,1,.54.26,5.89,5.89,0,0,1-.59.21c-.24.08-.48.16-.69.25-14.15,6.26-27.35,9.94-40.35,11.26A45,45,0,0,1,223.28,393.25Zm47-213.18a4.69,4.69,0,0,0-.55.28,253.47,253.47,0,0,0-80.61,75.7c-.89,1.3-1.56,1.59-2.84,1.27a19,19,0,0,0-9.62.28c-1.12.28-1.46.08-1.85-1.05-5-14.48-7.16-26.82-6.83-38.83.3-10.91,2.76-20,7.51-27.76,7.29-11.89,18.4-18.89,34-21.39,2.11-.34,4.3-.47,6.42-.6l1.5-.1c11-.34,22.44,1.35,34.81,5.17a158.69,158.69,0,0,1,17.38,6.58l.56.21.38.13ZM198.05,298.35a22.76,22.76,0,0,0,7.93-17.2,3.7,3.7,0,0,0-.95-3,2.72,2.72,0,0,0-1.84-.61,5.3,5.3,0,0,0-.93.09,5.68,5.68,0,0,1-.95.05h-.58c-2,.08-4.16.47-4.46,4.1a13.94,13.94,0,0,1-12,12.88c-6.92.8-13.07-2.87-15.33-9.15a14.11,14.11,0,0,1,24.69-13.1c1.74,2.51,3.45,2.31,5.48,1.24,2.53-1.33,3.8-2,4.07-3.26s-.67-2.43-2.35-4.55l-.35-.43a9.37,9.37,0,0,0-2.12-2.19c-.73-.49-1.12-.91-1.19-1.31s.19-1.09.86-2c21.57-30.53,48.17-55,79.09-72.74,2.91-1.67,4.83-1.68,7.62,0a254.6,254.6,0,0,1,32.61,22.47c.95.78,1,1.1.5,2.18-3.73,7.63-3.59,16,.38,22.9s11.14,11.28,19.64,11.92A21.51,21.51,0,0,0,350,243.76c.92-.51,1.23-.44,2,.44a233,233,0,0,1,23.68,34.9,2.9,2.9,0,0,1,0,3.23c-11.31,20.61-25.77,39.26-44.22,57-.76.73-1,.66-2.29-.13-8.27-5.15-16.83-5.33-25.43-.53a3.65,3.65,0,0,0-2.16,2.52,3.36,3.36,0,0,0,1.29,2.84c.08.09.17.22.27.36l.22.3c2.48,3.22,3,3.34,6.56,1.61a14.14,14.14,0,0,1,19.33,17.9,13.87,13.87,0,0,1-13.1,8.85h-.05a14,14,0,0,1-11.7-6.05,13.67,13.67,0,0,1-1.47-12.84c1-2.72.5-4.25-2.05-5.67-2.37-1.33-3.57-2-4.74-1.55s-1.66,1.83-2.53,4.34a22.26,22.26,0,0,0,.13,15.74c.5,1.28.35,1.71-.86,2.37-3.48,1.91-6.86,3.89-10.07,5.88-1.29.8-2.29.78-3.83-.06a227.84,227.84,0,0,1-41.11-29.12,249.09,249.09,0,0,1-40.07-45C196.88,299.76,196.81,299.43,198.05,298.35Zm195.55-80c0,.69,0,1.39,0,2.09h0c.09,15.2-3.68,31-11.87,49.61a1,1,0,0,0-.07.15c0-.07-.1-.16-.16-.26a230.62,230.62,0,0,0-22.7-32.54c-.53-.63-.42-.87.16-1.85l.1-.18c4.83-8.29,4.87-16.71.11-25a3.64,3.64,0,0,0-2.27-2,1.9,1.9,0,0,0-.41,0,4.08,4.08,0,0,0-2.42,1.08l-.28.23c-3.59,2.9-3.71,3.41-1.88,7.73a14.14,14.14,0,1,1-26.56,9.64,14.33,14.33,0,0,1,1.32-11.29,14.18,14.18,0,0,1,18-5.74c2.25,1.07,3.4-.11,4.14-1.26,1.69-2.6,2.67-4.28,2.12-5.75s-2.43-2.11-5.45-3a22.81,22.81,0,0,0-19,2.66c-1.19.73-1.7.7-2.77-.19a229.23,229.23,0,0,0-31.56-22c-.16-.09-.33-.17-.51-.25l-.2-.09.19-.06c.21-.07.4-.13.58-.21,14.22-6.42,27.55-10.19,40.74-11.52,11.18-1.12,20.28-.34,28.62,2.46,18.18,6.1,28.51,18.86,31.59,39l.06.37a28.21,28.21,0,0,1,.37,3.27C393.62,215,393.61,216.68,393.6,218.32Zm-102,163a3.89,3.89,0,0,0,.54-.27l2.14-1.27c1.38-.81,2.81-1.65,4.17-2.58,1.07-.74,1.58-.7,2.74.24a23.67,23.67,0,0,0,37.06-9.77,22.49,22.49,0,0,0-.62-18.7c-.61-1.26-.52-1.79.47-2.73a246.7,246.7,0,0,0,43.35-54.52,4.93,4.93,0,0,0,.23-.46l0-.07h0a2.26,2.26,0,0,0,.15.39c5.87,13.3,11.88,30.08,12,53.73h0a50.81,50.81,0,0,1-9,28.54c-7.38,10.59-18.31,17-32.47,18.93-15.7,2.19-32.24-.28-52.06-7.78-2.28-.87-4.57-1.85-6.78-2.8l-1.27-.55a5.41,5.41,0,0,0-.53-.19l-.26-.09Z"/><path class="cls-2" d="M238.94,325.9l10.13,0c3.82,0,7.78,0,11.68,0,.81,0,1.49,0,2.07,0,1.67,0,2.68.06,3.4-.65s.79-2,.76-4.8c0-.43,0-.9,0-1.41a2.64,2.64,0,0,0-2.84-2.88l-1,0c-1.15,0-2.34-.05-3.52,0a1.49,1.49,0,0,1-1-.24,1.6,1.6,0,0,1-.22-1c0-.5,0-1,0-1.48v-2.14c0-2,0-3.16-.76-3.92s-2-.77-4.34-.74h-1.9a2.67,2.67,0,0,0-2,.68,2.75,2.75,0,0,0-.74,2.05c0,.52,0,1.05,0,1.57a33.74,33.74,0,0,0,0,3.48,2.13,2.13,0,0,1-.27,1.48,2.21,2.21,0,0,1-1.62.31,58.9,58.9,0,0,0-6.51,0,2,2,0,0,1-1.46-.29,2.35,2.35,0,0,1-.36-1.66c.05-2.71,0-5.46,0-8.12,0-2,0-3.91,0-5.87,0-5.37,2.39-8.44,7.59-9.94l8.21-2.32c4-1.13,8.21-2.3,12.3-3.51a3.69,3.69,0,0,1,3.86.68c6.25,4.77,13.11,5.25,18.8,1.33,3.64-2.51,6.5-2.22,9.94-.94a26.15,26.15,0,0,0,2.76.81l.53.13c.86.22,1.59.44,2.17.61,1.53.46,2.46.74,3.31.27s1.23-1.58,1.89-3.93c.12-.44.26-.94.42-1.49a3.15,3.15,0,0,0-.11-2.52,3.36,3.36,0,0,0-2.19-1.41c-2.23-.59-4.42-1.23-7-2-.84-.25-1.56-.45-2.16-.61a6,6,0,0,1-2.19-.81,7.1,7.1,0,0,1-.23-2.59c0-.62,0-1.33,0-2.18a5.28,5.28,0,0,1,2-4.73,23.83,23.83,0,0,0,8.48-15.69,71.5,71.5,0,0,0-.08-18.68C305,218.62,293.85,209.08,281.36,209h-.24c-12.74,0-23.84,9.15-25.88,21.39a65,65,0,0,0-.51,12.35c0,1.06.05,2.13.06,3.19.07,7.37,2.71,13.56,7.62,17.89a8.63,8.63,0,0,1,3.25,8.4,2.17,2.17,0,0,0,0,.51c.21,1.36-.06,2.11-2.16,2.66-6.54,1.74-12.94,3.55-20.54,5.75a19.13,19.13,0,0,0-14.29,18.79q0,4.39,0,8.8c0,1.57,0,3.14,0,4.71a8.9,8.9,0,0,1-.18,2.53,8,8,0,0,1-2.51.19c-4.28,0-4.77.54-4.77,4.87v.44a5,5,0,0,1,0,.67A3.58,3.58,0,0,0,222,325a3.72,3.72,0,0,0,2.86,1H225C229.62,325.88,234.36,325.89,238.94,325.9Zm25.56-86.64a1.93,1.93,0,0,1,.27-1.29,2,2,0,0,1,1.27-.31h.14c2.29.06,4.61.05,6.86,0h5.67c2.18,0,4.44,0,6.66,0a3,3,0,0,1,2.82,1.31c2.49,3.42,5.09,6.85,7.73,10.2a2.35,2.35,0,0,1,.3,2.72,16.59,16.59,0,0,1-17.87,10,16.31,16.31,0,0,1-13.8-15.55c0-1.06,0-2.16,0-3.22C264.54,241.87,264.55,240.56,264.5,239.26Zm24.6-11.36H289c-6.31,0-12.72,0-18.92,0h-2.85c-.54,0-.88,0-1.1,0a10.64,10.64,0,0,1,.51-1,16.55,16.55,0,0,1,19.69-7.33,16.13,16.13,0,0,1,10.95,15.54l-.18-.24c-1.24-1.6-2.42-3.12-3.5-4.66A5.06,5.06,0,0,0,289.1,227.9Zm-2.59,45.76c0,.09,0,.18,0,.27,0,3.25-.46,3.93-3.23,4.86-2.55.86-6.09.06-7.39-1.62a16.75,16.75,0,0,1-.4-5.88.07.07,0,0,1,0,0,2.29,2.29,0,0,1,.52.06l.36.07a21.11,21.11,0,0,0,8.6,0c.81-.2,1.24-.15,1.37,0s.29.32.15,1.53A5.37,5.37,0,0,0,286.51,273.66Z"/><path class="cls-2" d="M316.82,290.6c4.1,1.22,6.38,4,6.58,8,.19,3.62.16,7.33.13,10.92,0,1.79,0,3.58,0,5.38a1.58,1.58,0,0,1-.23,1,1.44,1.44,0,0,1-.9.22c-2.63,0-5.27,0-7.84,0a1.45,1.45,0,0,1-1-.23,1.33,1.33,0,0,1-.21-.91c0-1.68,0-3.37,0-5v-.47a2.66,2.66,0,0,0-2.37-2.92c-2.94-.47-4.76-.54-6,.48s-1.41,2.76-1.42,5.63c0,.14,0,.28,0,.42a7.08,7.08,0,0,0,0,1.12,2.17,2.17,0,0,1-.22,1.52,2.49,2.49,0,0,1-1.78.41c-6.81-.07-13.74-.06-20.44,0H276c-3.83,0-4.41.59-4.46,4.46,0,.32,0,.65,0,1,.07,3.81.59,4.33,4.3,4.34h38c7.48,0,15.23,0,22.84.05h.07c2.64,0,3.85-1.17,3.91-3.79V322c.06-2.59.09-3.9-.78-4.8s-2.37-.95-5-1a1.29,1.29,0,0,1-1.65-1.67c.08-5,.08-10.05,0-15a19.27,19.27,0,0,0-12.09-17.67c-2.49-1-3.74-1.5-4.87-1s-1.5,1.76-2.28,4.23l-.08.25a4.17,4.17,0,0,0,0,3.33A4.51,4.51,0,0,0,316.82,290.6Z"/><path class="cls-2" d="M290.94,298c1.54.41,3.07.85,4.61,1.29L298,300a4.42,4.42,0,0,0,1.16.19,1.88,1.88,0,0,0,1.85-1.23,24.92,24.92,0,0,0,1.63-5.66,2.07,2.07,0,0,0-1.75-2.44l-5.65-1.64-2.08-.6h-.06a2.35,2.35,0,0,0-2.94,1.82l-.2.69c-.35,1.21-.7,2.42-1,3.64a2.55,2.55,0,0,0,.17,2A2.85,2.85,0,0,0,290.94,298Z"/><path class="cls-2" d="M316,363.84H316c4.46,0,4.93-.46,4.93-4.77,0-2.09,0-3.34-.8-4.15s-2-.78-4.09-.8c-4.33,0-4.88.53-4.89,4.71,0,2.27,0,3.41.74,4.2S313.78,363.84,316,363.84Z"/><path class="cls-2" d="M312.14,303.92l.25,0a2.58,2.58,0,0,0,1.64-.63c1.19-1,2-3.05,2.23-5.83.19-2.13-2.33-3.75-6.42-4.13-1.26-.11-3.46.57-4.12,6.44a2.46,2.46,0,0,0,.57,1.82C307.24,302.79,309.37,303.63,312.14,303.92Z"/><path class="cls-2" d="M182.33,275.82c-2.2,0-3.31,0-4.09.77s-.77,1.88-.78,4.11c0,4.43.43,4.89,4.6,4.9h.49c1.89,0,2.89-.05,3.61-.76s.78-1.89.78-4.11C186.94,276.29,186.51,275.83,182.33,275.82Z"/><path class="cls-2" d="M339,218c-4.59,0-5,.43-5.06,4.75,0,2.11,0,3.38.8,4.2s2,.8,4.06.8c4.39,0,4.9-.48,4.9-4.68,0-2.3,0-3.45-.71-4.24S341.1,218,339,218Z"/></g></g></svg>