<svg xmlns="http://www.w3.org/2000/svg" viewBox="0 0 561.74 561.74"><defs><style>.cls-1{fill:#08313a;}.cls-2{fill:#fff;}</style></defs><g id="Layer_2" data-name="Layer 2"><g id="Layer_1-2" data-name="Layer 1"><circle class="cls-1" cx="280.87" cy="280.87" r="280.87"/><path class="cls-2" d="M403.89,246.85c0-3.68-1.14-6.7-3.34-8.73a10.52,10.52,0,0,0-8.1-2.58,12.44,12.44,0,0,1-1.5,0c-.44,0-.88,0-1.31,0-1.08,0-1.41-.3-1.66-1a6.35,6.35,0,0,0-4-3.66l-1.93-.75c-1.93-.76-3.92-1.54-6-2.14-1.53-.44-2-1.1-2-2.82.09-5.18.06-10.44,0-15.53v-2.58c0-2.83-.45-4.4-1.51-5.44s-2.62-1.44-5.4-1.4c-30.59.47-58,9.64-81.49,27.28a5.26,5.26,0,0,0-.49.44l-.27.26a2.81,2.81,0,0,1-.18-1c0-.2,0-.4-.06-.59-1.94-14.86-6.34-27.45-13.44-38.48-10.08-15.65-24.72-25.75-43.51-30-2.2-.5-3.93-.27-5.15.68s-1.89,2.59-1.95,4.86c-.08,2.58-.07,5.2-.05,7.74,0,1.23,0,2.47,0,3.71a16.59,16.59,0,0,1-.06,1.8,16.29,16.29,0,0,1-1.61-.55,106.69,106.69,0,0,0-14.49-4.27c-2.64-.59-4.46-.39-5.74.63s-1.87,2.77-1.88,5.49c0,10.16,0,20.48,0,30.47v12.61c0,1.64,0,2.73-.3,3.11s-1.3.65-3,1.09l-.07,0a129.2,129.2,0,0,0-15.67,5.24c-1.74.71-3.46,1.64-4.25,3.68a1.51,1.51,0,0,1-1.81,1.07c-.42,0-.82,0-1.21,0a10.9,10.9,0,0,1-1.15,0c-5.3-.38-9.15,1.77-11.42,6.39l-.1.21V356.53l.26.28c1.25,1.36,3.26,3,6.13,1.85s2.9-3.87,2.9-5.65c0-39.82,0-73.1,0-104.73,0-.32,0-.65-.06-1-.13-1.35,0-1.57.37-1.71a9.26,9.26,0,0,1,5.44,0,2.68,2.68,0,0,1,.08.73c0,.95,0,1.89,0,2.84V381.33a26.19,26.19,0,0,0,.08,2.93c.33,3.13,2.11,4.79,5.3,4.92.49,0,1,0,1.48,0h201.6c.64,0,1.3,0,2,0a4.75,4.75,0,0,0,4.78-4.32,23.73,23.73,0,0,0,.18-3.56V248.8c0-.85,0-1.83.07-2.8,0-.48.2-.57.56-.58,1.64,0,3.1,0,4.46,0,.42,0,.74.09.77.93s0,1.4,0,2.11V391.26c0,1.26,0,2.68-.27,2.95s-1.62.26-2.83.26H369.87q-37.53,0-75,0h0a6.88,6.88,0,0,1-4.44-1.4,15.86,15.86,0,0,0-19.34.08,6.15,6.15,0,0,1-4,1.32h0q-36.49,0-73,0H169.91a6,6,0,0,1-2.45-.27,6,6,0,0,1-.27-2.37v-1.41c0-4.22,0-8.58,0-12.86,0-1.92,0-4.56-2.83-5.71-2.18-.87-4.27-.3-6.19,1.71l-.27.28v7.24c0,6.49,0,13.21,0,19.81a2.43,2.43,0,0,0,2.9,2.94h0c31.53-.05,63.59-.05,94.59-.05H273.5l.28-.23.61-.52c.46-.38.94-.77,1.39-1.2,3.12-3,6.84-3,10,0,.45.43.92.82,1.39,1.2l.61.52.28.23H397.13l.2-.08c4.46-2,6.54-5.52,6.53-11C403.77,349.36,403.71,298.13,403.89,246.85Zm-39.51,22.27v73.13a5.56,5.56,0,0,1-.28,2.36,6.28,6.28,0,0,1-2.44.39c-28,1.39-53.34,10.33-75.21,26.55a5.68,5.68,0,0,0-.57.52c-.08.07-.19.19-.29.27,0-.16,0-.38.05-.52a6.23,6.23,0,0,0,.05-.72q0-20,0-40.08,0-44.22,0-88.44a4.59,4.59,0,0,1,1.84-3.93c16.83-14.11,37-23.2,59.94-27a109.92,109.92,0,0,1,15.22-1.54h.18a2,2,0,0,1,1.27.29,2.2,2.2,0,0,1,.32,1.48c0,8.5,0,17.13,0,25.48v5.95c0,5.82,3,6.7,4.85,6.7h0c1.46,0,4.87-.66,4.93-6.69,0-1.14,0-2.28,0-3.41v-1.83a1.31,1.31,0,0,1,0-.36,2.15,2.15,0,0,1,.46.05c3.51.69,4,1.22,4,4.67V364.28c0,.23,0,.46,0,.69a13.55,13.55,0,0,1-.07,1.61,14.54,14.54,0,0,1-1.48-.37,141.64,141.64,0,0,0-17.73-4A130.8,130.8,0,0,0,327.5,361a113.29,113.29,0,0,1,13.63-3.7,131.94,131.94,0,0,1,26.7-2.89c4.43,0,6.32-1.91,6.32-6.32,0-26.94,0-54,0-79.5a10.23,10.23,0,0,0-.32-2.6,4.75,4.75,0,0,0-9.31.41A13.92,13.92,0,0,0,364.38,269.12ZM314.25,373c20-4.71,40.59-3.63,63,3.31,1.14.36,1.46.87,1.37,2.19-.06.69-.14.93-1.52.93H296.58A70.34,70.34,0,0,1,314.25,373Zm-131.38,4.45c.09-.64.37-.8,1.41-1.12l.25-.08a132.22,132.22,0,0,1,22.77-5.09,119.25,119.25,0,0,1,15.31-1A104.06,104.06,0,0,1,257,375.91a86.18,86.18,0,0,1,8.59,3.57H185.28c-1.3,0-2.08-.14-2.31-.41S182.76,378.34,182.87,377.49Zm28.29-16.39a140,140,0,0,0-26.75,5.13,11.82,11.82,0,0,1-1.48.35,10.86,10.86,0,0,1-.06-1.37V332.63c0-30,0-61.09,0-91.64a2.15,2.15,0,0,1,1.81-2.49c1.73-.52,3.48-1.1,5.17-1.65s3.64-1.19,5.47-1.73a9.15,9.15,0,0,1,1.5-.36,11.13,11.13,0,0,1,.08,1.63q0,27.21,0,54.43v21.49c0,2.33,0,4.75,0,7.14.05,4.1,1.28,5.63,5.26,6.55,26,6,47.72,20.57,64.62,43.26l0,0-1.48-.55c-2.74-1-5.32-2-8-2.87a108.41,108.41,0,0,0-34.28-5.3Q217.26,360.57,211.16,361.1Zm-4.55-46.5c.06-34.52.06-69.62.06-103.57V184.91a12.31,12.31,0,0,1,.11-2.18,11.21,11.21,0,0,1,2.1.5c3.88,1.11,7.63,2.54,10.46,3.65,1,.42,1.4.91,1.34,1.9,0,.62,0,1.23,0,1.83,0,.28,0,.56,0,.85V303.74c0,.65,0,1.3,0,2,.1,3.94,1.35,5.49,5.14,6.39,10.86,2.56,19.67,7,26.94,13.46,9.6,8.58,16.21,20.13,20.21,35.31l.18.72-.33-.41c-1.77-2.19-3.6-4.46-5.49-6.61-16.14-18.29-35.7-30.65-58.16-36.71C207.11,317.29,206.6,316.65,206.61,314.6Zm25.8-10.73c-1.59-.46-2-1-2-2.75,0-33.3,0-67.16,0-99.9V170.7a9.41,9.41,0,0,1,.11-1.75,9.71,9.71,0,0,1,1.78.47c16.6,5.54,28.75,16.92,36.11,33.81A87,87,0,0,1,275.83,238c0,25,0,50.35,0,74.9v27.8c-.09-.16-.17-.33-.25-.5C266.32,321.72,251.79,309.51,232.41,303.87Z"/></g></g></svg>