<svg xmlns="http://www.w3.org/2000/svg" viewBox="0 0 300.02 383.51"><defs><style>.cls-1{fill:#adcf62;}</style></defs><g id="Layer_2" data-name="Layer 2"><g id="Layer_1-2" data-name="Layer 1"><path class="cls-1" d="M3.29,383.51c-2.57-2-3.29-4.66-3.29-7.9Q.09,191.84.05,8.09C.05,1.84,1.86,0,8,0H292.08c6,0,7.86,1.86,7.87,7.8q0,79.34,0,158.68a13.86,13.86,0,0,1-.29,3.71,5.54,5.54,0,0,1-5.4,4.41,5.61,5.61,0,0,1-5.88-4.3,25.69,25.69,0,0,1-.61-7.43q0-72.79,0-145.59c0-5.53,0-5.54-5.57-5.54H17.59c-5.34,0-5.35,0-5.35,5.37q0,174.78,0,349.56c0,5.32,0,5.33,5.39,5.33h216.7c5.45,0,5.45,0,5.45-5.62,0-11.1,0-22.2,0-33.31,0-7.31,2-9.33,9.37-9.39,11-.08,22,0,32.93,0,5.66,0,5.68,0,5.68-5.57q0-58.77,0-117.52a40.5,40.5,0,0,1,.46-6.7,5.49,5.49,0,0,1,6.05-4.95c3.26.15,5.17,2.25,5.58,5.53a24.78,24.78,0,0,1,.07,3q0,64.94.07,129.86a11.53,11.53,0,0,1-3.8,8.88c-15.86,15.71-31.62,31.54-47.41,47.32Zm275-47.64H254.42c-1.25,0-2.31.4-2.31,1.84,0,8.16,0,16.32,0,24.36C260.87,353.32,269.47,344.74,278.34,335.87Z"/><path class="cls-1" d="M247.07,299.9c-7.11,0-14.22.13-21.33,0-2.8-.07-4.15,1-5.33,3.49-14,29.52-45,47.62-77.49,44.22-28.81-3-50-18-63.12-43.88-1.49-2.92-3.1-3.88-6.26-3.84-13.72.16-27.44.05-41.16.08-3.12,0-6-.27-7.65-3.48s.06-5.71,1.93-8.17c4-5.27,7.86-10.64,11.94-15.83,1.53-1.94,1.45-3.29-.05-5.2-4.24-5.39-8.26-10.95-12.38-16.44-1.73-2.3-2.91-4.7-1.43-7.59s4.1-3.49,7-3.49c13.85,0,27.69-.12,41.54,0,3.42,0,5.45-.85,6.85-4.2a60.31,60.31,0,0,1,10.55-16.27c3.33-3.8,6.43-4.44,9.36-2.09s3.06,6-.16,9.83A66.13,66.13,0,0,0,84.2,272.28c.68,29.73,23.42,56.8,52.62,62.26,36.1,6.76,69.56-15.14,77.65-50.83,8.29-36.62-17.63-74-54.75-79a66.28,66.28,0,0,0-35.17,4.36c-.58.24-1.16.48-1.75.67-3.77,1.22-6.78.06-8.16-3.11s0-6.26,3.54-7.94a75.18,75.18,0,0,1,22.61-6.27c34.9-4.36,66.91,16,79.77,44.47,1.08,2.38,2.73,2.84,5.05,2.83,13.35-.05,26.69,0,40,0a35.86,35.86,0,0,1,3.74.08c6.11.62,8.41,5.36,4.87,10.37-3.74,5.3-7.55,10.57-11.7,15.54-2.5,3-2.78,5.15-.1,8.27,4.06,4.71,7.55,9.92,11.32,14.89,1.74,2.3,3,4.66,1.5,7.57s-4,3.52-6.88,3.5C261.29,299.88,254.18,299.9,247.07,299.9ZM58.44,252c-3.49,0-7-.06-10.46,0-1.57,0-3.86-.82-4.54.53-.85,1.66,1.4,2.89,2.34,4.26,2,3,4.27,5.82,6.46,8.69s2.23,5.91-.05,8.89c-2.73,3.56-5.37,7.18-8.09,10.74-1.38,1.82-1,2.57,1.29,2.56,8.47,0,16.93-.07,25.4,0,2.39,0,3.09-.82,2.63-3.11a72.76,72.76,0,0,1,0-29.65c.5-2.42-.39-3.07-2.68-3C66.66,252.06,62.55,252,58.44,252Zm183.19,35.69c4,0,8,0,12,0,1,0,2.53.6,3-.64s-.83-1.95-1.47-2.82c-2.28-3.11-4.64-6.17-6.93-9.28-2.94-4-2.94-6,0-10.07,2.5-3.42,5.09-6.77,7.6-10.18.48-.65,1.51-1.34.77-2.22-.36-.43-1.36-.43-2.07-.43-8.47,0-16.94,0-25.41-.06-2.42,0-3.05.81-2.58,3.08a73.16,73.16,0,0,1,0,29.66c-.49,2.42.47,3.08,2.73,3C233.41,287.58,237.52,287.66,241.63,287.66Z"/><path class="cls-1" d="M144.15,96.1q0,28.23,0,56.47c0,7.54-2,9.48-9.57,9.48H33.6c-7.91,0-9.59-1.71-9.59-9.69V39c0-7.62,1.5-9.09,9.24-9.09h102.1c7,0,8.79,1.85,8.8,8.93Q144.17,67.49,144.15,96.1ZM88,101.85h12.46c12,.05,19.58,7.64,19.67,19.68.06,7.11,0,14.22,0,21.33,0,7.7-.71,6.71,7.12,7,3.64.14,4.66-1.11,4.64-4.68-.11-32.67-.06-65.34-.07-98,0-5-.06-5-5-5H41.58c-5.31,0-5.35,0-5.35,5.5q0,47.13,0,94.27c0,8.8-1.11,7.74,8.09,7.92,2.76,0,3.73-.91,3.69-3.68q-.18-13.1,0-26.19a17.92,17.92,0,0,1,18-18.09c4.65-.08,9.3,0,14.73,0-14-3.46-22-14-20.72-26.51C61.2,64,71.23,54.38,82.49,54c12.35-.48,22.79,7.53,25,19.16C110.06,86.45,103.15,96.7,88,101.85ZM83.8,149.79c6.73,0,13.47-.1,20.2.05,2.87.06,4-.83,4-3.83-.15-8.36,0-16.72-.07-25.08,0-4.77-2-6.77-6.91-6.81q-17-.12-34.06,0c-4.72,0-6.61,1.92-6.66,6.6-.08,8.48,0,17-.06,25.45,0,2.79,1.06,3.71,3.77,3.66C70.57,149.7,77.18,149.79,83.8,149.79ZM72.25,77.87A11.76,11.76,0,0,0,84,89.83,11.94,11.94,0,0,0,95.88,78,11.62,11.62,0,0,0,84,66.17,11.28,11.28,0,0,0,72.25,77.87Z"/><path class="cls-1" d="M150,323.86a54.13,54.13,0,0,1-54-54c0-29.63,24.48-54.12,54.09-54.11s54.06,24.5,54.06,54.15A54.13,54.13,0,0,1,150,323.86Zm.13-12.22A41.82,41.82,0,1,0,108.21,270,41.41,41.41,0,0,0,150.11,311.64Z"/><path class="cls-1" d="M216.17,125.83q20,0,40,0c2.18,0,4.25.22,5.91,1.82a5.89,5.89,0,0,1-2,9.8,12.74,12.74,0,0,1-4.79.64H176.73c-.62,0-1.25,0-1.87,0-4.16-.3-7-3-6.85-6.43s2.8-5.73,7-5.75C188.73,125.79,202.45,125.83,216.17,125.83Z"/><path class="cls-1" d="M212.87,77.88q18.69,0,37.39,0c2.17,0,4.24.2,5.89,1.82a5.86,5.86,0,0,1-1.81,9.63,14.13,14.13,0,0,1-5.88.8q-35.34,0-70.67,0a22.88,22.88,0,0,1-4.82-.44,5.69,5.69,0,0,1-4.91-6.12c.05-3.11,2.5-5.46,5.92-5.59,4.61-.17,9.22-.07,13.84-.08Z"/><path class="cls-1" d="M192.25,101.86c5.47,0,10.95,0,16.42,0,4.42,0,7.16,2.29,7.32,5.81s-2.77,6.3-7.26,6.34q-16.8.17-33.59,0c-4.27,0-7.13-2.7-7.14-6.11,0-3.68,2.8-6,7.45-6C181.05,101.82,186.65,101.85,192.25,101.86Z"/><path class="cls-1" d="M253,66.13c-6,0-10.85,0-15.7,0a21.36,21.36,0,0,1-4.44-.43c-3.24-.71-5-2.91-4.78-6.16s2.22-5.45,5.53-5.49q18.27-.21,36.56,0c3.27,0,5.27,2.09,5.68,5.35s-1.56,5.73-5,6.32C264.59,66.75,258.22,65.83,253,66.13Z"/><path class="cls-1" d="M192.22,53.93c5.6,0,11.19-.06,16.79,0,4.17.06,6.8,2.31,7,5.73.16,3.16-2.28,6-6.15,6.21q-17.88.75-35.79,0A6.07,6.07,0,0,1,168,59.56c.19-3.26,2.79-5.55,6.7-5.61C180.53,53.86,186.37,53.93,192.22,53.93Z"/><path class="cls-1" d="M174,293.59c-.17,2.88-1.45,4.88-4.05,5.86a5.59,5.59,0,0,1-6.45-1.67,9,9,0,0,1-1.49-2.57c-3.11-7.29-3.1-7.29-11.13-7.29a7,7,0,0,1-1.12,0c-6.3-1-10.65.54-12.14,7.67-.77,3.66-4.58,5.05-7.69,3.86s-4.74-4.35-3.41-8c5.83-15.79,11.78-31.53,17.7-47.29a5.93,5.93,0,0,1,5.6-4.26c2.93-.07,4.91,1.61,5.93,4.32q8.88,23.64,17.71,47.29A19,19,0,0,1,174,293.59Zm-23.51-29.07-1,0c-1,2.52-1.82,5.08-2.92,7.53-1.33,2.95-.15,3.81,2.66,3.62.86-.06,1.73,0,2.59,0,1.69,0,2.61-.65,1.88-2.54C152.64,270.26,151.59,267.39,150.52,264.52Z"/></g></g></svg>