<svg xmlns="http://www.w3.org/2000/svg" viewBox="0 0 373.19 373.19"><defs><style>.cls-1{fill:#adcf62;}</style></defs><g id="Layer_2" data-name="Layer 2"><g id="Layer_1-2" data-name="Layer 1"><path class="cls-1" d="M181.62,373.19c-8-3.43-13.29-8.77-13.37-18.06-.06-7.58,3.49-13.05,10-16.48,2.46-1.3,3.19-2.77,3.16-5.37-.13-9,0-18,0-26.95,0-5.18,0-5.25-5.15-5.67a113.57,113.57,0,0,1-63.94-27.12c-1.85-1.61-2.94-1.77-4.73.07q-10.41,10.69-21.11,21.12a4.2,4.2,0,0,0-1.25,5.08c2.59,7.53.73,14.21-5,19.53s-12.48,6.4-19.62,3.41-10.89-8.81-11.41-16.43C48.24,293.93,61,284.25,73.14,288.1c2.67.85,4.15.35,6-1.52Q89.26,276.14,99.7,266c1.72-1.68,2-2.73.27-4.72C84.09,242.6,74.79,221.11,72.83,196.6c-.27-3.46-1.55-4.73-5.19-4.62-9,.27-18,.2-26.94,0-3-.06-4.75.74-6.21,3.61a18,18,0,0,1-20.36,9.07,18.56,18.56,0,0,1-.42-35.94,18.35,18.35,0,0,1,21.15,9.59,4.81,4.81,0,0,0,5.06,3c9.46-.12,18.93-.19,28.4,0,3.26.07,4.24-1.33,4.47-4.19,1.93-24.78,11.33-46.47,27.4-65.31,1.46-1.71,1.34-2.69-.18-4.18Q89.1,97,78.38,86.1a3.71,3.71,0,0,0-4.49-1c-7.52,2.66-14.19.92-19.62-4.77-5.25-5.5-6.51-12.13-3.82-19.22,2.75-7.26,8.41-11.09,16-12C78.79,47.7,89.15,60.58,85.39,72.88c-.84,2.77-.48,4.36,1.53,6.3q10.47,10.13,20.61,20.59c1.75,1.8,2.81,1.76,4.72.14A112.29,112.29,0,0,1,176.19,72.8c5.17-.48,5.18-.5,5.18-5.64,0-8.74-.11-17.48.06-26.21.07-3.12-.67-5-3.71-6.52A18,18,0,0,1,168.78,14a18.57,18.57,0,0,1,35.95-.2,18.28,18.28,0,0,1-9.4,20.91c-2.63,1.34-3.33,2.93-3.28,5.66.14,9,0,18,0,26.95,0,4.93,0,5,5,5.44a112.35,112.35,0,0,1,43,12.68A105.7,105.7,0,0,1,261.36,100c1.76,1.55,2.8,1.61,4.46-.09q10.56-10.8,21.36-21.38a4,4,0,0,0,1.14-4.78c-2.64-7.53-.84-14.21,4.91-19.58s12.44-6.49,19.59-3.54c7.33,3,11,8.94,11.5,16.73.73,12.2-11.92,21.75-23.94,18-2.61-.81-4.14-.48-6,1.44-6.75,7-13.64,13.81-20.58,20.61-1.65,1.62-2.12,2.63-.36,4.7a112.26,112.26,0,0,1,27.25,64.25c.45,5,.55,5,5.43,5,9.22,0,18.45,0,27.67,0,1.92,0,3.41-.17,4.43-2.26,3.73-7.69,10-11.5,18.54-10.73,8,.74,13.31,5.36,16,12.95.12.34.29.67.44,1v9.47a8.84,8.84,0,0,0-.53,1c-3.12,7.07-8.11,11.82-16.12,12.34-8.54.55-14.74-3.24-18.42-11-.94-2-2.43-2.06-4.19-2.06q-13.83,0-27.66,0c-5.08,0-5.13,0-5.61,5.21A112.22,112.22,0,0,1,273.77,261c-1.82,2.14-1.92,3.29.13,5.27,7,6.74,13.82,13.63,20.59,20.58,1.75,1.78,3.2,2.15,5.7,1.36,12.66-4,25.56,6.46,23.94,19.22-1.45,11.41-11.38,18.77-22.22,16.47-11-2.35-17.13-13.16-13.56-24.33a3.8,3.8,0,0,0-1.08-4.47q-10.89-10.73-21.61-21.63c-1.55-1.59-2.53-1.54-4.17-.1a108,108,0,0,1-21.9,14.93,112.22,112.22,0,0,1-42.3,12.4c-5.22.44-5.22.5-5.22,5.59,0,9.1.07,18.2,0,27.3a4.85,4.85,0,0,0,3,5.08c7,3.62,10.46,9.63,10,17.52-.46,8.66-5.73,13.8-13.28,17.05Zm4.87-191.83c12.61,0,25.23-.07,37.84.06,2.87,0,3.86-.9,3.74-3.77a270.43,270.43,0,0,0-3.5-32.86c-.52-3.1-1.47-3.84-4.48-2.92a112,112,0,0,1-67.29-.18c-2.43-.76-3.3,0-3.71,2.28a293.85,293.85,0,0,0-3.71,33.21c-.23,3.48,1.1,4.29,4.36,4.25C162,181.27,174.24,181.36,186.49,181.36Zm.39,10.71c-12.38,0-24.75.13-37.12-.08-3.64-.06-4.62,1.2-4.37,4.61A303.81,303.81,0,0,0,149,228.73c.54,3,1.42,3.87,4.54,2.85a106.34,106.34,0,0,1,31.09-5,116.67,116.67,0,0,1,35.86,5c1.91.56,3.46,1,3.95-1.81a278.12,278.12,0,0,0,3.69-33.57c.15-3.19-.85-4.22-4.09-4.17C211.62,192.17,199.25,192.07,186.88,192.07Zm-78.17-10.71c7.28,0,14.57-.08,21.85,0,2.59,0,3.68-.77,3.8-3.47a229.67,229.67,0,0,1,4.34-37.53c.6-2.79,0-4.18-2.57-5.39a96.17,96.17,0,0,1-23.07-15.1c-2.47-2.19-3.76-2-5.76.45-13.76,16.71-21.48,35.86-23.73,57.32-.27,2.57.41,3.78,3.29,3.72C94.14,181.26,101.43,181.36,108.71,181.36Zm.25,10.72c-7.28,0-14.57.11-21.85-.06-3-.07-3.94,1-3.53,3.85a153.23,153.23,0,0,0,2.91,16.46,102.59,102.59,0,0,0,21,40.77c1,1.23,1.94,3.52,4.27,1.48a110.8,110.8,0,0,1,25.48-16.74,2.81,2.81,0,0,0,1.78-3.5,217.69,217.69,0,0,1-4.52-38.23c-.14-3.52-1.66-4.17-4.74-4.09C122.8,192.2,115.88,192.07,109,192.08Zm156.06,0c-7.28,0-14.56.12-21.84-.06-3-.08-3.92,1-4.06,3.94a238.62,238.62,0,0,1-4.45,37.88c-.48,2.28.23,3.28,2.16,4.22a106.56,106.56,0,0,1,24.25,16c1.78,1.57,2.9,1.61,4.44-.21,14.24-16.83,22.16-36.28,24.4-58.14.27-2.65-.64-3.7-3.42-3.64C279.35,192.17,272.18,192.08,265,192.08Zm-.27-10.72c7,0,14.08-.19,21.11.08,3.62.14,4.42-1.3,4-4.49a115,115,0,0,0-7-28.53,105.55,105.55,0,0,0-17.17-28.59c-1.56-1.86-2.72-2.13-4.7-.36a106.89,106.89,0,0,1-24.25,16c-1.74.85-2.61,1.71-2.14,3.9a242.9,242.9,0,0,1,4.53,38.59c.13,2.73,1.15,3.53,3.75,3.49C250.18,181.28,257.47,181.36,264.75,181.36Zm-77.85-45.7a94.9,94.9,0,0,0,29-3.89c5.47-1.52,5.55-1.67,3.87-6.93-.59-1.85-1.19-3.69-1.87-5.51-4-10.77-8.64-21.16-17-29.34-9.12-8.89-19.08-8.83-28.25.05a42.48,42.48,0,0,0-3.66,4c-7.56,9.46-11.88,20.49-15.55,31.87-1,3.15-.35,4.55,2.89,5.46C166.26,134.22,176.36,136,186.9,135.66Zm-.07,102.11a97.83,97.83,0,0,0-31.16,4.46c-2.47.73-3.48,1.83-2.47,4.45s1.55,5.11,2.47,7.61c4,10.77,8.71,21.14,17.12,29.29,8.91,8.63,18.77,8.64,27.72.18a42.54,42.54,0,0,0,3.71-4c7.83-9.58,12.18-20.87,16-32.47,1-3.06.21-4.35-2.82-5.21C207.38,239.23,197.28,237.45,186.83,237.77ZM214,286.08a2.8,2.8,0,0,0,1,.11,103,103,0,0,0,38.8-20.73c1.62-1.37,1.21-2.22-.17-3.4a117.23,117.23,0,0,0-18.9-12.86c-2.67-1.52-3.59-1-4.45,1.85-3.56,11.9-8.4,23.23-15.8,33.33C214.17,284.85,213.72,285.31,214,286.08Zm-.91-199.29c2.3,3.56,4.05,6.14,5.68,8.8,5.24,8.54,8.75,17.81,11.72,27.32.5,1.6.76,3.14,3.11,1.88a112.06,112.06,0,0,0,19.62-13.08c1.91-1.62,1.73-2.82-.12-4.33a113,113,0,0,0-13.65-9.63A99.38,99.38,0,0,0,213.13,86.79Zm-53.69,1.56c.23-1.25-.05-1.4-2.29-.73a104,104,0,0,0-36.87,19.83c-1.93,1.58-1.86,2.76,0,4.3a112,112,0,0,0,18.37,12.34c2.57,1.37,3.71,1.11,4.59-1.87,3.46-11.68,8.25-22.77,15.43-32.71C159,89.12,159.21,88.7,159.44,88.35Zm.1,197.61c-7.7-11.12-12.87-23.19-16.73-35.87-.73-2.38-2.16-1.71-3.68-1a104.4,104.4,0,0,0-18.72,12.43c-2,1.64-2.07,2.88,0,4.54a112.7,112.7,0,0,0,19.05,12.61A71.29,71.29,0,0,0,159.54,286ZM313.26,67.78a7.46,7.46,0,1,0-14.91-.22,7.11,7.11,0,0,0,7.12,7.52A7.39,7.39,0,0,0,313.26,67.78ZM75.12,67.6a7.39,7.39,0,0,0-7.39-7.39,7.44,7.44,0,1,0,.16,14.87A7.15,7.15,0,0,0,75.12,67.6ZM67.79,298.32a7.4,7.4,0,0,0-7.58,7.2,7.44,7.44,0,1,0,14.88.21A7.14,7.14,0,0,0,67.79,298.32Zm230.54,7.35a7.38,7.38,0,0,0,7.22,7.53,7.6,7.6,0,0,0,7.65-7.2,7.46,7.46,0,0,0-7.51-7.63A7.1,7.1,0,0,0,298.33,305.67Zm-111.39-280a7.41,7.41,0,0,0,7.37-7.4,7.85,7.85,0,0,0-7.49-7.47,7.44,7.44,0,0,0-7.36,7.77A6.94,6.94,0,0,0,186.94,25.71ZM25.71,186.83a7.43,7.43,0,0,0-7.06-7.71,7.83,7.83,0,0,0-7.8,7.51A7.42,7.42,0,0,0,18.28,194,6.93,6.93,0,0,0,25.71,186.83Zm322-.07a7.41,7.41,0,0,0,7.21,7.54,7.81,7.81,0,0,0,7.65-7.67,7.46,7.46,0,0,0-7.6-7.18A6.92,6.92,0,0,0,347.73,186.76Zm-161.19,161a7.42,7.42,0,0,0-7.42,7.35,7.8,7.8,0,0,0,7.79,7.5,7.41,7.41,0,0,0,7.06-7.7A6.94,6.94,0,0,0,186.54,347.72Z"/></g></g></svg>