<svg xmlns="http://www.w3.org/2000/svg" viewBox="0 0 383.44 383.64"><defs><style>.cls-1{fill:#adcf62;}</style></defs><g id="Layer_2" data-name="Layer 2"><g id="Layer_1-2" data-name="Layer 1"><path class="cls-1" d="M100.3,0c6.74,1.19,13.55,2,20,4.33a48,48,0,0,1,9.51,4.33c6,3.77,9.15,8.89,8,16.29-1.7,11.33-3.19,22.69-4.78,34q-1.78,12.78-3.59,25.53c-.53,3.84-.37,4,3.29,2.62,15.4-5.8,30.83-11.52,46.17-17.48a33.36,33.36,0,0,1,24.79-.21q84.51,31.9,169,63.78c7.23,2.73,10.69,7.5,10.65,14.2,0,6.45-3.51,11.19-10.57,13.88-20.39,7.76-40.79,15.5-61.26,23.05-3.45,1.27-4.78,2.91-4.72,6.7.22,15.33,0,30.68.15,46,0,4.62-1.44,7.89-5.63,10-3.77,1.93-7.35,4.23-11.07,6.26a4.47,4.47,0,0,0-2.69,4.42q.12,20.2,0,40.41c0,2.23.87,3.27,2.83,4.18,9.17,4.26,13.77,11.47,13.7,21.65s0,20.21,0,30.31c0,5.46-2,7.43-7.46,7.44q-15,.06-29.93,0c-5.12,0-7.46-1.77-7.57-6.68-.26-11.46-.77-23,.27-34.39.74-8.2,5.1-14.25,12.53-17.79,2.64-1.26,3.63-2.84,3.59-5.74-.15-10.6,0-21.2-.07-31.81,0-4.05-.42-4.3-4-2.76-29.41,12.73-60.08,18.88-92.14,17.47a181.41,181.41,0,0,1-52.66-10.18c-3-1.06-3.55-.61-3.15,2.55,2.79,22.37,5.43,44.76,8.11,67.14q1.31,10.95,2.53,21.9c.77,6.82-2.39,11.43-8.17,14.65-6.55,3.65-13.72,5.29-21,6.18-18,2.19-35.82,2-53.32-3.34a38.55,38.55,0,0,1-6.57-2.68c-8-4.11-10.52-8.75-9.28-17.56,4-28.74,8.22-57.45,12.32-86.18,3-20.72,5.85-41.44,8.83-62.15.23-1.59.12-2.55-1.58-3.15-11.34-4-13.25-21.19-5-28.51A19.42,19.42,0,0,0,51.89,177l-18.11-6.83c-7.23-2.73-14.4-5.64-21.7-8.15C6.43,160.07,2.16,156.89,0,151.2v-7.48c1.86-5.68,5.86-8.9,11.43-10.89,11.38-4.06,22.61-8.58,34-12.69,3.15-1.13,4.28-2.81,3.82-6.08-.84-5.92-1.42-11.87-2.1-17.81-.5-4.42,1.64-7.44,5.53-7.82,3.52-.34,6,1.94,6.54,6.17.86,7.3,1.58,14.61,2.4,21.92,1.87,16.83,3.67,33.67,5.7,50.49,1,8,1.18,7.85,9.43,7.92,3.23,0,4-1.21,4-4.18q-.1-62.31,0-124.62c0-3.31-1.32-4.46-4.28-4.64A69,69,0,0,1,55.71,37c-2.23-.86-3.08-.68-2.68,2.17,1,7.4,1.79,14.84,2.49,22.28.45,4.72-1.33,7.3-5,7.82-3.83.55-6.43-1.67-7.09-6.39C41.87,51.68,40.2,40.46,39,29.2,37.42,15,41.41,9.07,54.84,4.39A50.12,50.12,0,0,1,60.57,2.7c4.5-1,9-1.81,13.54-2.7ZM269.51,107.72c-.68-.62-.83-.86-1.05-.94q-35-13.22-70-26.36a19.53,19.53,0,0,0-13.94.09c-18.21,6.82-36.38,13.76-54.59,20.58a4.57,4.57,0,0,0-3.32,4.33c-1.26,10.38-2.76,20.74-4.16,31.1q-2.34,17.41-4.65,34.82c-.37,2.68,0,4.63,2.9,6,4.56,2.26,6.93,6.46,7.47,11.41.37,3.35,2,4.91,5,6q24.92,9.16,49.71,18.7a22.88,22.88,0,0,0,17.43,0c9.74-3.84,19.58-7.44,29.39-11.11,1.62-.61,3.24-1.4,5.06-.84a6.05,6.05,0,0,1,4.6,5.73c.18,3-1.5,4.91-4.23,5.94-8.63,3.26-17.45,6.1-25.85,9.88-11.93,5.37-23.31,5.12-35.37,0-15.37-6.5-31.19-12-46.84-17.82-5-1.88-11.36,2.68-10.77,7.69,1.49,12.62,3.07,25.22,4.51,37.85.35,3.06,1.72,4.73,4.71,5.86C152.69,267,180.74,270,209.4,266.81c29.53-3.32,57-13.22,82.61-28.13a4.86,4.86,0,0,0,2.75-4.78c-.07-13.09-.11-26.19,0-39.29,0-3.27-1.16-3.65-3.77-2.44-1.12.53-2.32.9-3.49,1.34-6.77,2.54-13.53,5.11-20.32,7.6-2.5.92-4.95.85-6.88-1.29a6.17,6.17,0,0,1-1.17-6.65c1-2.64,3.65-3.2,6-4.07l102.53-38.7c1.61-.61,3.64-1,3.68-3.17s-1.94-2.37-3.41-2.93q-38.84-14.69-77.66-29.38a9,9,0,0,0-7.19.15q-26.68,11.33-53.43,22.51-17.76,7.47-35.52,14.9c-2.37,1-4.62,1.13-6.65-.65a6.36,6.36,0,0,1-2.05-6.11c.45-2.95,2.86-3.86,5.18-4.83l47.6-20C248.51,116.6,258.82,112.23,269.51,107.72ZM80.57,289.91V229.33c0-5.86,0-11.72,0-17.58,0-1.47.22-3-2-3.4-7.11-1.45-9.33,0-10.22,7.13,0,.25,0,.5-.06.75Q62.9,254.5,57.46,292.77C54.32,314.83,51.26,336.9,48,359c-.48,3.26.71,4.84,3.42,6.06,7.83,3.52,16.15,4.93,24.57,6.06,3.65.5,4.68-.87,4.66-4.49C80.5,341,80.57,315.47,80.57,289.91Zm11.76-.4c0,25.82,0,51.63-.06,77.45,0,3.21.83,4.53,4.24,4.23,6.61-.57,13.12-1.54,19.31-4s6.62-3.67,5.77-10.2c-1.51-11.73-2.87-23.48-4.29-35.23q-3.21-26.5-6.41-53c-2.09-17.31-4.26-34.61-6.22-51.94-.87-7.63-.7-7.4-8-8.09-3.65-.35-4.41.71-4.4,4.14C92.39,238.37,92.33,263.94,92.33,289.51Zm.6-181v61c0,5.35,0,5.35,5.32,5.36,7.08,0,7,0,7.88-7.18,2.51-19.39,5.13-38.75,7.73-58.12q4.64-34.61,9.33-69.2c.3-2.23,0-3.4-2.71-2.5a88.89,88.89,0,0,1-23.13,4c-3.68.22-4.51,1.59-4.48,5C93,67.41,92.93,88,92.93,108.55ZM90.12,29.89a111.57,111.57,0,0,0,24.11-2.48c3.54-.74,7-1.66,10-3.94,2.09-1.62,2.14-3.21-.12-4.73a22,22,0,0,0-6.83-2.94c-13.12-3.46-26.42-5-39.94-3.48-6.79.75-13.65,1.46-20.1,3.93-2.45.94-6,1.55-5.89,4.86.1,3.15,3.58,3.46,6,4.17A121.57,121.57,0,0,0,90.12,29.89ZM54.51,162.11c-1.08-9.92-2.1-19.31-3.13-28.71-.3-2.75-2.07-1.91-3.57-1.35-11.07,4.15-22.12,8.35-33.18,12.52-1.31.49-2.76,1-2.82,2.61-.08,1.85,1.56,2.39,2.95,2.92,12.23,4.61,24.48,9.14,36.68,13.83C54.15,165,54.88,164.2,54.51,162.11Zm216.7,172.54c0,4.1,0,8.21,0,12.31,0,1.92.51,3.09,2.71,3.06,5.35-.06,10.69,0,16,0,1.45,0,2.43-.55,2.43-2.15-.05-8.58.27-17.18-.29-25.72-.4-6.05-5.37-9.75-11-9.36s-9.66,4.69-9.85,10.69C271.12,327.18,271.22,330.92,271.21,334.65Zm-184.78-138c8.22,0,16.43-.08,24.64,0,3.43.06,5.15-1.5,5.38-4.75.21-3-1.66-4.64-5.34-4.65q-24.27-.06-48.53,0c-3.65,0-5.39,1.6-5.4,4.66s1.76,4.67,5.36,4.69C70.5,196.69,78.47,196.66,86.43,196.66Z"/></g></g></svg>