<svg xmlns="http://www.w3.org/2000/svg" viewBox="0 0 370.72 336.37"><defs><style>.cls-1{fill:#adcf62;}</style></defs><g id="Layer_2" data-name="Layer 2"><g id="Layer_1-2" data-name="Layer 1"><path class="cls-1" d="M0,159.5c2.56-3,5.86-3.81,9.7-3.8,24.23.08,48.47,0,72.7,0,5.08,0,5.1,0,5.1-4.92,0-16.15-.88-13.68,12.72-21.33q37.66-21.18,75.38-42.27c2.44-1.36,2.94-3,2.93-5.54-.06-24.35,0-48.7-.06-73.06,0-3.67.8-6.79,4.56-8.19C187.41-1.2,191.62,2,191.94,7c.44,6.91.44,6.91,7.4,6.91,11.7,0,23.39,0,35.09,0,7.43,0,9.64,2.28,9.66,9.75a21.36,21.36,0,0,1,0,2.53c-.29,2.65.78,3.64,3.49,3.58,6.15-.15,12.3-.09,18.45,0,6.75.06,10.19,4.44,7.26,10.44-4.33,8.89-4.3,17.14-.14,26.09,3,6.42-.49,10.8-7.66,10.83q-23.87.11-47.74,0c-6.57,0-9.2-2.59-9.33-9.23-.14-7.22.63-6.65-7-6.66-9.4,0-9.4,0-9.4,9.58,0,3.74.12,7.48,0,11.21a5,5,0,0,0,2.93,5.17c27,15.1,54,30.42,81.09,45.4,5.12,2.82,7.52,6.38,7,12.11-.17,2,0,4.09,0,6.14,0,4.88,0,4.91,4.77,4.91h29.66q21.69,0,43.4,0c7.75,0,9.92,2.18,9.93,9.84q0,80.65,0,161.31c0,7.56-1.82,9.4-9.36,9.4q-176.15,0-352.29,0c-3.71,0-7-.48-9.06-3.94Zm100.85,74c0,28.33.05,56.66-.08,85,0,3.54,1.1,4.57,4.54,4.46,7.34-.22,14.7-.06,22.06-.07,4.8,0,4.81,0,4.82-4.75q0-35.62,0-71.26c0-7.47,2-9.47,9.38-9.47h87.16c7.67,0,9.54,1.9,9.54,9.68,0,23.75.09,47.5-.08,71.25,0,3.75,1.16,4.74,4.75,4.63,7.59-.25,15.19-.18,22.78,0,3,.07,4-.89,3.95-3.91-.36-56.9.54-113.8-.5-170.7a6.16,6.16,0,0,0-3.61-6Q226.72,120.65,188,98.8a5.07,5.07,0,0,0-5.66.08q-39,22.08-78.16,44c-2.62,1.46-3.4,3.14-3.39,6C100.88,177.06,100.85,205.27,100.85,233.48ZM13.21,246c0,24.12.06,48.24-.06,72.35,0,3.33.75,4.65,4.38,4.63q32.74-.24,65.48,0c3.44,0,4.56-1,4.56-4.5q-.15-72.18,0-144.34c0-3.55-1.24-4.51-4.62-4.49q-32.55.18-65.11,0c-3.69,0-4.71,1.12-4.69,4.75C13.28,198.21,13.21,222.09,13.21,246Zm344,.56c0-24.11-.06-48.23.06-72.34,0-3.43-.94-4.61-4.47-4.59q-32.74.21-65.48,0c-3.58,0-4.46,1.3-4.45,4.65q.12,72,0,144c0,3.66,1.08,4.73,4.73,4.71,21.58-.16,43.17-.07,64.75-.08,4.87,0,4.88,0,4.88-5.07Zm-211.59,40.2c0,10.73.08,21.46,0,32.18,0,2.91.78,4.08,3.86,4,8.43-.17,16.87-.15,25.31,0,2.81,0,3.78-.88,3.76-3.74q-.14-32.37,0-64.73c0-3-1.18-3.67-3.86-3.63-8.44.11-16.88.13-25.32,0-2.81,0-3.8.87-3.76,3.73C145.74,265.26,145.66,276,145.66,286.72Zm79.14.49c0-10.85-.06-21.7,0-32.55,0-2.71-.66-3.92-3.63-3.86-8.56.15-17.12.12-25.68,0-2.6,0-3.63.76-3.62,3.5q.14,32.55,0,65.09c0,2.75,1,3.53,3.63,3.5,8.32-.11,16.64-.16,24.95,0,3.24.07,4.44-.82,4.38-4.25C224.67,308.19,224.8,297.7,224.8,287.21ZM211.29,47.39c5.29,0,10.58-.06,15.87,0,2.38,0,3.55-.77,3.48-3.34-.12-4.32-.1-8.65,0-13,.05-2.26-.77-3.3-3.12-3.29q-16.23.07-32.46,0c-2.37,0-3.15,1.06-3.1,3.31.09,4.2.16,8.42,0,12.62-.12,2.93,1.17,3.76,3.87,3.7C201,47.3,206.12,47.39,211.29,47.39Zm28.59,15.89h0c4.57,0,9.15,0,13.72,0,3.87,0,4.29-.47,2.79-3.89a14.68,14.68,0,0,1-.28-11.52c1.5-4.06,1.33-4.19-3.1-4.15-10.59.09-8.85-1.28-9,9-.08,5.84-2.42,8.39-8.22,8.55-3.61.1-7.22,0-10.83.06-.78,0-2-.24-2.09.84-.06,1.39,1.33,1.12,2.2,1.13C230,63.3,235,63.28,239.88,63.28Z"/><path class="cls-1" d="M212.24,143a27,27,0,1,1-54,.08c0-14.88,12.42-27.27,27.17-27.14A27.17,27.17,0,0,1,212.24,143Zm-26.88-13.2A13.34,13.34,0,1,0,185,156.5c7.76.1,13.78-5.64,13.76-13.13A13.2,13.2,0,0,0,185.36,129.82Z"/><path class="cls-1" d="M132.74,196.44c-3.37,0-6.74,0-10.11,0-2.07,0-3.14-.92-3.15-3,0-.36,0-.72,0-1.08,0-11.53-1-9.61,9.43-9.76,4.57-.07,9.15,0,13.72,0,2.39,0,3.55.94,3.55,3.4,0,12.53,1.07,10.27-9.43,10.49-1.33,0-2.65,0-4,0Z"/><path class="cls-1" d="M237.65,196.45c-3.25,0-6.5,0-9.74,0-2.37.05-3.59-.88-3.59-3.36,0-12.7-1.12-10.31,9.77-10.52,4.45-.09,8.9,0,13.35,0,2.39,0,3.57.9,3.57,3.36,0,12.77,1.1,10.27-9.75,10.53-1.2,0-2.41,0-3.61,0Z"/><path class="cls-1" d="M132.61,226.19h-7.94c-.72,0-1.44,0-2.16,0-3.35,0-3.4-2.52-3-4.54.66-3.12-2.61-8.33,2.64-9,7-.92,14.16-.22,21.25-.22a.85.85,0,0,1,.36,0c4.56,2.4,1.63,6.6,2.28,9.92.4,2-.26,3.87-3,3.84-3.48,0-7,0-10.46,0Z"/><path class="cls-1" d="M237.44,226.17c-3.25,0-6.49,0-9.74,0-2.25,0-3.35-.93-3.36-3.19,0-12.82-1.2-10.47,9.6-10.67,4.56-.08,9.14,0,13.71,0,2.21,0,3.18.93,3.38,3.2.93,10.54.85,10.68-9.62,10.68h-4Z"/><path class="cls-1" d="M185.14,196.46c-3.13,0-6.27-.07-9.4,0-2.5.06-3.8-.75-3.75-3.52.24-12.19-1.62-10.19,9.89-10.37,4.22-.07,8.45.1,12.66-.05,3-.1,4,1.16,3.94,4.08-.27,11.38,1.58,9.67-9.72,9.84C187.56,196.48,186.35,196.47,185.14,196.46Z"/><path class="cls-1" d="M185.22,226.16c-3.38,0-6.75,0-10.13,0-2.09,0-3.17-.89-3.05-3,0-.24,0-.48,0-.73.17-11.7-1.69-9.93,9.78-10.08,4.46-.06,8.92,0,13.38,0,2.22,0,3.36.88,3.26,3.24-.09,2.52-.07,5.06,0,7.59.05,2.17-1,3-3.09,3C192,226.14,188.6,226.16,185.22,226.16Z"/><path class="cls-1" d="M41.4,196c0,3.24,0,6.48,0,9.73,0,2.2-.74,3.33-3.13,3.28-12.67-.23-10.07,1.75-10.34-9.68-.1-4.32.08-8.65-.05-13-.07-2.54.76-3.77,3.47-3.75,12.09.12,9.8-1.18,10,9.42,0,1.32,0,2.65,0,4Z"/><path class="cls-1" d="M72.65,195.72c0,3.36-.08,6.73,0,10.09.07,2.33-.92,3.19-3.21,3.15-12.31-.21-10,1.7-10.28-9.81-.08-4.32.08-8.65,0-13-.07-2.66,1.06-3.65,3.64-3.62,12,.12,9.63-1.12,9.88,9.2,0,1.32,0,2.64,0,4Z"/><path class="cls-1" d="M41.4,246.62c0,3.25,0,6.49,0,9.73,0,2.09-.87,3.16-3,3.1-.24,0-.48,0-.72,0-11.76-.09-9.54,1.23-9.74-9.29-.09-4.68,0-9.37,0-14.06,0-2.1.78-3.11,2.95-3q3.79.1,7.57,0c2.21-.06,3,1.05,3,3.1C41.37,239.65,41.4,243.14,41.4,246.62Z"/><path class="cls-1" d="M72.64,246.1c0,3.49,0,7,0,10.45,0,2-.87,2.9-2.8,2.88l-.36,0C57,259.4,59.4,260.79,59.19,250c-.09-4.56,0-9.13,0-13.7,0-2.27.9-3.25,3.22-3.21,12.48.21,10-1.62,10.27,9.44,0,1.2,0,2.4,0,3.6Z"/><path class="cls-1" d="M27.93,296.26c0-3.12.11-6.25,0-9.36-.11-2.56.78-3.77,3.47-3.74,12.12.1,9.83-1.18,10,9.42.09,4.56,0,9.12,0,13.69,0,2.21-.76,3.32-3.14,3.27-12.66-.23-10,1.76-10.34-9.68C27.9,298.66,27.93,297.46,27.93,296.26Z"/><path class="cls-1" d="M72.64,296.29c0,3.48,0,7,0,10.44,0,2-.84,2.82-2.81,2.79-12.92-.16-10.4,1.77-10.65-9.77-.1-4.44,0-8.88,0-13.32,0-2.31,1-3.27,3.24-3.26,12.67.06,9.95-1.23,10.26,9.52,0,1.2,0,2.4,0,3.6Z"/><path class="cls-1" d="M297.8,195.74q0-4.5,0-9c0-.72-.22-1.61.12-2.13,2.64-4.1,6.72-1.31,10.1-2,1.88-.36,3.26.52,3.25,2.78q0,10.45,0,20.9a2.28,2.28,0,0,1-2.66,2.6c-.24,0-.48,0-.72,0-12.18-.19-9.78,1.71-10.06-9.59C297.78,198.15,297.8,197,297.8,195.74Z"/><path class="cls-1" d="M342.51,196.05c0,3.36,0,6.72,0,10.08,0,2-.8,2.92-2.78,2.8-.12,0-.24,0-.36,0-12.38-.17-10.09,1.72-10.32-9.76-.08-4.44.05-8.88,0-13.33,0-2.29.95-3.28,3.22-3.27,12.68.07,10-1.26,10.27,9.5,0,1.32,0,2.64,0,4Z"/><path class="cls-1" d="M297.82,246c0-3.36,0-6.73,0-10.09,0-1.93.76-2.95,2.76-2.85.12,0,.24,0,.36,0,12.41.15,10.13-1.67,10.35,9.75.08,4.44,0,8.89,0,13.34,0,2.25-.88,3.31-3.19,3.29-12.66-.09-10,1.33-10.3-9.46,0-1.32,0-2.65,0-4Z"/><path class="cls-1" d="M342.53,246.42c0,3.25-.08,6.5,0,9.74.06,2.27-.83,3.32-3.15,3.3-12.54-.07-10.12,1.32-10.34-9.45-.09-4.57,0-9.14,0-13.7,0-2.24.84-3.29,3.19-3.25,12.6.22,10-1.7,10.3,9.76C342.56,244,342.53,245.22,342.53,246.42Z"/><path class="cls-1" d="M297.82,296.19c0-3.36,0-6.73,0-10.09,0-2,.87-2.88,2.79-2.89l.36,0c12.59,0,10.09-1.26,10.32,9.46.09,4.56,0,9.13,0,13.69,0,2.26-.88,3.25-3.21,3.2-12.55-.24-10,1.76-10.27-9.75,0-1.2,0-2.4,0-3.6Z"/><path class="cls-1" d="M342.51,296.64c0,3.36,0,6.72,0,10.08,0,2-.81,2.83-2.79,2.8-13-.17-10.41,1.77-10.66-9.75-.1-4.44,0-8.89,0-13.33,0-2.3,1-3.13,3.22-3.29,10.27-.73,10.27-.77,10.27,9.53v4Z"/></g></g></svg>