<svg xmlns="http://www.w3.org/2000/svg" viewBox="0 0 372.19 372.07"><defs><style>.cls-1{fill:#adcf62;}</style></defs><g id="Layer_2" data-name="Layer 2"><g id="Layer_1-2" data-name="Layer 1"><path class="cls-1" d="M166.28,245.71a17.31,17.31,0,0,0,1.51-7.66q0-52,.05-104c0-2.81-.89-4.14-3.57-5.15-22.7-8.52-37-24.62-42.83-48.17-.7-2.87-1.45-3.85-4.36-2.13-5.91,3.48-11.94,6.76-18,10-2.35,1.24-2.12,1.91-.26,3.56,19.47,17.35,26.47,38.94,18.86,63.84-7.41,24.28-24.85,38.75-50,42C33.34,202.42,6.13,178.21,1,149A60.24,60.24,0,0,1,53.11,78.35,57.62,57.62,0,0,1,80.38,81.4,6.16,6.16,0,0,0,86,81.13q15.67-8.75,31.48-17.29a4.77,4.77,0,0,0,2.57-4.15c3-23.09,14.56-40.55,35-51.87,39-21.63,90.2,3.92,96.23,48.05.64,4.68,2.12,7.73,6.69,10,9.51,4.64,18.66,10,27.91,15.22a6.29,6.29,0,0,0,5.64.4c37-12.65,75.06,10.93,80.17,49.54,4.64,35-23.58,66.87-59,67.49-28.52.49-56.88-20.49-60.71-53-2.49-21.14,4.78-39,20.87-53.1,2.39-2.09,2.34-2.78-.42-4.19-5.76-3-11.38-6.21-17-9.37-3.75-2.08-3.76-2.08-4.77,2.07-4.23,17.38-13.71,31.1-28.64,41a56.56,56.56,0,0,1-14.06,6.91c-2.65.84-3.75,2.13-3.72,5,.14,14.35.11,28.7,0,43,0,2.5.39,3.62,3.31,3.13a16.42,16.42,0,0,1,12.15,2.63c1.57,1.06,2.84.88,4.47,0,10.82-5.62,20.33-2.86,26.27,7.68,1,1.72,1.88,2.09,3.83,1.8,12.76-1.88,21.85,6.13,21.87,19.14,0,25.33-.09,50.65,0,76a43,43,0,0,1-8.5,26.19,87.87,87.87,0,0,1-6.33,8.34c-2.92,3.13-3.4,6.7-3.23,10.7.09,2.23.86,3.26,3.11,3.05a4.57,4.57,0,0,1,.74,0c8.18.15,8.18.15,8.18,8.49,0,8.11-.09,16.22,0,24.32,0,2.77-1,3.68-3.7,3.68q-62.49-.09-125,0c-2.8,0-3.67-1-3.64-3.73q.16-14.59,0-29.19c0-2.85,1.12-3.86,3.77-3.57a1.21,1.21,0,0,0,.38,0c2.5-.4,6.27,1.37,7.29-1a13.4,13.4,0,0,0-.44-10.89c-5.74-11.91-11.22-24-17.37-35.65-4.58-8.7-6.74-17.86-7.75-27.49-.88-8.42-2-16.83-3.12-25.22-.88-6.41-4.75-11.43-8.23-16.6-2.3-3.43-4.45-6.86-4.46-11.28a15.86,15.86,0,0,1,16.86-16c18.47,1.18,32.75,13.28,36.8,31.32C163.19,230.06,164.59,237.47,166.28,245.71Zm14-60.45c0,18.09-.06,36.18,0,54.27a30.62,30.62,0,0,1-3.46,14.76c-6.39,12.15-2.21,9.48-16,10-3.21.1-4.4-1.25-4.92-4.17-1.18-6.62-2.54-13.21-3.88-19.81-1.16-5.73-2.1-11.54-3.68-17.17-3-10.57-13.16-18.59-23.23-18.75-1.51,0-3-.08-4,1.41s0,2.85.77,4.1c1.35,2.09,2.7,4.19,4.15,6.22a42.08,42.08,0,0,1,7.56,19.31c.89,6.79,1.56,13.62,2.52,20.4,1.06,7.49,1.16,15.17,4.67,22.19,5.56,11.16,10.75,22.51,16.49,33.58,3.4,6.55,6.08,13.07,5.06,20.61-.35,2.62.87,3.46,3.45,3.46q38.17-.11,76.34,0c2.52,0,3.94-.73,3.49-3.39-1.35-8.08,1.76-14.52,7.14-20.23,1.36-1.45,2.38-3.21,3.63-4.76,5.08-6.3,7.21-13.57,7.22-21.55V213.08a12.59,12.59,0,0,0-.59-4.79,5.42,5.42,0,0,0-10.27,0c-.72,1.81-.55,3.68-.59,5.54-.22,9.68,1.72,8.32-8.91,8.53-2.82.06-3.69-1.06-3.63-3.75.13-6,.06-12,0-18,0-5.15-2.21-8.15-5.8-8.08s-5.61,3-5.64,8.25c0,4.24.07,8.48,0,12.72-.19,10.06,1.81,8.59-9,8.82-2.92.07-3.58-1.23-3.54-3.83.11-6.23.09-12.47,0-18.71-.06-4.5-2.48-7.38-5.87-7.25s-5.46,2.87-5.53,7.21c-.08,5,0,10,0,15-.09,8.55,1.09,7.5-7.57,7.57-4.89,0-4.91,0-4.92-5q0-44,0-88c0-5.59-2-8.56-5.6-8.67s-5.84,3-5.84,8.79Q180.28,157.37,180.29,185.26ZM216.21,52.34c.14,9.6-2.45,16.32-7.63,22-1.41,1.55-1.77,2.31.44,3.49a46.58,46.58,0,0,1,18.2,17.33c1.54,2.54,2.45,2.14,3.82-.07a54.57,54.57,0,0,0,8.12-33.89C237,34,211.69,10,180.3,13.26,141.11,17.36,119.48,62,140.91,95c1.63,2.51,2.51,2.47,4-.07a45.1,45.1,0,0,1,17.32-16.67c2.57-1.38,2.89-2.07.82-4.4a29.79,29.79,0,0,1-2.43-36.12,30.49,30.49,0,0,1,33.79-12.48C207.38,29,216.19,40.7,216.21,52.34ZM60.5,101.88c1.93.23,3.94.3,5.87.72,22.94,5,31.91,31.75,16.52,49.45-1.94,2.22-1.22,2.87.83,4a37,37,0,0,1,11.14,8.7c2.35,2.79,3.61,1.92,5.2-.63,6.84-11,9.44-22.83,6.6-35.44-4.27-18.95-16-31.52-34.79-36.3-19.12-4.86-35.5,1-48.34,15.93C10.36,123.6,9.3,147.91,20.67,164.4c1.5,2.17,2.62,3,4.72.57a39,39,0,0,1,11.43-9c2-1.08,2.77-1.73.83-3.95-8.45-9.7-10.07-20.78-4.85-32.39S47.71,102.42,60.5,101.88Zm250.56,0a50.57,50.57,0,0,1,5.63.4C328.11,104.56,336.3,111,340.2,122s2,21.18-5.73,30c-1.76,2-1.65,2.81.66,4a37.84,37.84,0,0,1,11.44,8.93c2,2.32,3.21,1.95,4.73-.43,7.05-11,9.72-23,6.89-35.72-4.21-19-16-31.57-34.71-36.38-19.11-4.91-35.5.89-48.38,15.82-13.19,15.28-14.3,39.5-3,56.13,1.66,2.43,2.83,3,5,.46a36,36,0,0,1,11.14-8.7c2.4-1.23,2.6-2,.73-4.22-8.25-9.64-9.84-20.62-4.71-32.1C289.49,108.07,299.12,102.46,311.06,101.92Zm-92.39,5c-.1-.28-.29-.87-.52-1.45-4.65-11.81-18.51-20.82-32.08-20.87s-27.29,8.89-32.17,20.75c-.78,1.89-.72,3.25,1.07,4.5a58.91,58.91,0,0,0,12.52,6.64c1.7.65,2.71.21,3.88-1.09,9.07-10.09,20.34-10.13,29.22-.1,1.12,1.26,2.09,1.9,3.84,1.23a54.48,54.48,0,0,0,12.81-6.86A2.74,2.74,0,0,0,218.67,107ZM203.61,359.53c16.71,0,33.43,0,50.15.05,2.88,0,4.26-.78,3.87-3.81a20.79,20.79,0,0,1,0-2.62c0-5.06,0-5.07-5.16-5.07q-47.53,0-95.06,0c-7.88,0-6.8-1-7.12,6.92-.14,3.69,1.14,4.62,4.68,4.59C171.17,359.44,187.39,359.53,203.61,359.53ZM186,72c9.49,0,17.73-8.31,17.63-17.74a18,18,0,0,0-17.46-17.53c-9.41-.19-17.72,8-17.81,17.54A18,18,0,0,0,186,72ZM77.89,132.13c-.11-9.56-8.43-17.73-17.83-17.52a18,18,0,0,0-17.43,17.55c-.09,9.45,8.15,17.72,17.64,17.71S78,141.56,77.89,132.13Zm233.9-17.52a18,18,0,0,0-17.65,17.7c.07,9.53,8.37,17.73,17.79,17.56a18,18,0,0,0,17.47-17.51C329.52,122.93,321.29,114.63,311.79,114.61ZM60.67,185.73a49.65,49.65,0,0,0,24.63-7.18c2.68-1.63,2.65-2.94.57-5.13-13.55-14.29-37.79-14.26-51.27.05-2.17,2.3-1.87,3.54.71,5.11A49.92,49.92,0,0,0,60.67,185.73Zm252.91.06c6.77-.1,16.6-3.08,23.18-7.21,2.59-1.61,2.8-2.86.66-5.12-13.48-14.3-37.73-14.32-51.27,0-2.11,2.23-2,3.51.62,5.12C294.52,183.28,302.94,185.5,313.58,185.79Z"/><path class="cls-1" d="M72,284.29c0-11.73,0-23.45,0-35.18,0-2.46-.56-4-2.92-5.4a18.13,18.13,0,0,1,8.81-33.87,18.14,18.14,0,0,1,9.7,33.74c-2.61,1.52-3.18,3.29-3.17,6,.08,23.2,0,46.4,0,69.6,0,4.91,0,4.95-5,4.92-8.47-.06-7.45.93-7.49-7.27C71.93,306,72,295.14,72,284.29Zm11.79-56.4a5.54,5.54,0,1,0-5.37,5.7A5.87,5.87,0,0,0,83.76,227.89Z"/><path class="cls-1" d="M335.46,284.48c0-11.73-.06-23.45.05-35.18,0-2.63-.63-4.26-3.09-5.68a18.24,18.24,0,1,1,18.81-.15c-2.76,1.6-3.32,3.46-3.31,6.31.08,23.21,0,46.41.13,69.61,0,3.83-1.16,4.95-4.9,4.81-8.75-.33-7.63.88-7.67-7.54C335.41,305.94,335.46,295.21,335.46,284.48Zm11.79-56.28a5.54,5.54,0,1,0-5.69,5.39A5.89,5.89,0,0,0,347.25,228.2Z"/><path class="cls-1" d="M48.55,249.45c0,11.72.06,23.45,0,35.17,0,2.62.6,4.26,3.08,5.69a18.15,18.15,0,0,1-9.14,33.81,18.14,18.14,0,0,1-9.36-33.83c2.52-1.45,3-3.16,3-5.73q-.09-34.8,0-69.6c0-5.11,0-5.16,5.16-5.12,8.33,0,7.28-.9,7.32,7.43C48.59,228,48.55,238.72,48.55,249.45ZM47.83,306a5.86,5.86,0,0,0-5.43-5.65,5.54,5.54,0,0,0-.22,11.08A5.86,5.86,0,0,0,47.83,306Z"/><path class="cls-1" d="M312,249.6c0,11.72.05,23.45,0,35.17,0,2.44.49,4.06,2.87,5.43a18.26,18.26,0,1,1-18.18,0c2.37-1.37,2.88-3,2.87-5.43q-.07-35,0-70c0-5,0-5,4.94-5,8.64.06,7.5-1,7.55,7.58C312.08,228.15,312,238.87,312,249.6Zm-6.14,50.76a5.54,5.54,0,1,0,5.43,5.65A5.85,5.85,0,0,0,305.89,300.36Z"/></g></g></svg>