<svg xmlns="http://www.w3.org/2000/svg" viewBox="0 0 340.74 383.63"><defs><style>.cls-1{fill:#adcf62;}</style></defs><g id="Layer_2" data-name="Layer 2"><g id="Layer_1-2" data-name="Layer 1"><path class="cls-1" d="M176.45,0C188,3.13,196.17,9.89,199.8,21.53c1.51,4.83,2,9.85.59,14.75-.9,3.08.23,4.46,2.74,5.91,25.42,14.58,50.88,29.11,76.1,44,5.27,3.12,8.64,3.7,14.08-.46,9.85-7.52,21.27-7.58,32-1.41C337,91.05,342.05,101.72,340.45,115,339,126.82,332.2,135.16,321,139.36c-3.6,1.35-4.64,3.06-4.62,6.74q.19,45.66,0,91.31c0,3.3.77,5.05,4.2,6.23,11.39,3.89,19.53,14.77,20.05,26,.64,13.9-5.58,24.7-17.51,30.39a30,30,0,0,1-33.41-5.14c-1.93-1.76-3.34-1.88-5.52-.62q-40.77,23.66-81.65,47.14c-2.46,1.41-2.65,2.93-2.15,5.49,3.28,16.88-6.9,32.28-23.6,36-15.83,3.53-31.81-6.37-36-22.29a28.2,28.2,0,0,1-.2-14.42c.56-2.18.1-3.44-1.87-4.58q-41.19-23.69-82.3-47.51c-2.16-1.26-3.45-.78-5.19.77A30.53,30.53,0,0,1,.81,279c-3.54-14.84,4.82-30.06,19.82-35.51,3.09-1.12,3.9-2.68,3.89-5.71q-.12-46.21,0-92.43c0-3.05-.84-4.62-3.92-5.69a30.38,30.38,0,0,1-20.12-34A30.75,30.75,0,0,1,30.16,80.23,28.72,28.72,0,0,1,51,88.11c1.94,1.84,3.4,2.25,5.81.85q40.75-23.68,81.63-47.18c1.77-1,3-2,2.32-4.4-4.31-16.3,6.45-33.18,22.69-37a7.07,7.07,0,0,0,1-.42ZM36.69,191.69c0,15.59.05,31.18,0,46.76,0,2.67.73,4.11,3.44,4.8a22.69,22.69,0,0,1,10.61,6.07c2.39,2.45,4.37,2.28,7.08.5,4.16-2.74,8.58-5.08,12.92-7.54,4.12-2.34,7.66-1.82,9.51,1.35s.65,6.61-3.36,9c-4.83,2.86-9.68,5.69-14.58,8.43-1.78,1-2.46,2.05-1.83,4.19a25.57,25.57,0,0,1,0,14c-.61,2.26.1,3.41,2,4.5q41.36,23.78,82.62,47.67c1.65,1,2.79,1,4.23-.45a26.5,26.5,0,0,1,12.1-7.15c2.16-.6,3-1.79,2.94-4-.12-5.49-.09-11,0-16.47.06-4.65,2.42-7.56,6-7.64s6.17,2.92,6.23,7.78c.07,5.24.14,10.48,0,15.71-.08,2.67.75,4.1,3.44,4.82a22.66,22.66,0,0,1,10.85,6.35c1.91,2.05,3.41,2.08,5.75.69,10.51-6.24,21.14-12.28,31.72-18.39,16.41-9.47,32.8-19,49.27-28.38,2.52-1.44,3.62-2.88,2.71-5.89a23,23,0,0,1,.16-12.94c.64-2.25.05-3.42-1.9-4.5-4.91-2.72-9.76-5.54-14.58-8.42-3.95-2.36-5.13-5.87-3.18-9,1.86-3,5.34-3.55,9.24-1.34,4.88,2.76,9.76,5.53,14.56,8.44,1.74,1,3,1.2,4.55-.37A27.48,27.48,0,0,1,301.6,243c2.07-.54,2.65-1.82,2.65-3.85q-.06-47.5,0-95c0-2.27-.83-3.37-3-4A27.59,27.59,0,0,1,289.14,133c-1.56-1.56-2.78-1.47-4.55-.4-4.79,2.91-9.67,5.68-14.56,8.44-4.06,2.3-7.61,1.65-9.45-1.61s-.61-6.37,3.26-8.68c4.6-2.75,9.21-5.5,13.93-8,2.44-1.3,3.49-2.63,2.58-5.57a21.5,21.5,0,0,1,0-12.56c.79-2.69-.05-4.06-2.34-5.38q-41-23.58-82-47.34c-2-1.16-3.27-1-4.83.67a23.48,23.48,0,0,1-11.12,6.64c-2.89.75-3.62,2.35-3.54,5.11.16,5.49.18,11,0,16.46-.2,5.24-4.48,8.17-8.58,6.13-2.67-1.33-3.57-3.72-3.59-6.51,0-5.36-.14-10.73,0-16.08.09-2.77-.65-4.36-3.55-5.11a23.45,23.45,0,0,1-11.12-6.63c-1.79-1.88-3.19-1.64-5.17-.46-5.77,3.47-11.63,6.78-17.46,10.15Q95.17,80.67,63.23,99.06c-2.35,1.34-3.54,2.63-2.67,5.59a23.34,23.34,0,0,1-.13,13.3c-.6,2.1,0,3.2,1.8,4.21,4.9,2.72,9.74,5.56,14.57,8.42,4.1,2.44,5.31,5.69,3.46,8.94s-5.38,3.79-9.49,1.47c-4.77-2.71-9.56-5.39-14.22-8.27-2-1.26-3.44-1.34-5.15.5a22.33,22.33,0,0,1-10.76,6.51c-3.39.88-4,2.75-4,5.93C36.77,161,36.69,176.35,36.69,191.69Zm12.39-80.94A18.33,18.33,0,0,0,30.55,92.31,18.89,18.89,0,0,0,12,111a18.56,18.56,0,0,0,18.75,18.34A18.17,18.17,0,0,0,49.08,110.75ZM30.78,253.9A18.44,18.44,0,0,0,12,272.22c-.12,10,8.4,18.59,18.51,18.71a18.36,18.36,0,0,0,18.53-18.47A18.12,18.12,0,0,0,30.78,253.9Zm279.36,0a18.12,18.12,0,0,0-18.31,18.55,18.37,18.37,0,0,0,18.51,18.48c10.12-.11,18.65-8.72,18.53-18.7A18.44,18.44,0,0,0,310.14,253.9Zm-18.31-143a18.15,18.15,0,0,0,18.42,18.47,18.55,18.55,0,0,0,18.62-18.47,18.87,18.87,0,0,0-18.63-18.56A18.34,18.34,0,0,0,291.83,110.87ZM170.4,48.6A18.22,18.22,0,0,0,189,30.28a18.51,18.51,0,1,0-37-.12A18.18,18.18,0,0,0,170.4,48.6Zm-.09,286A18.19,18.19,0,0,0,152,353.16c.06,10.11,8.68,18.68,18.64,18.53A18.82,18.82,0,0,0,189,352.89,18.23,18.23,0,0,0,170.31,334.65Z"/><path class="cls-1" d="M244.82,135.46a34.08,34.08,0,0,1-7.5,21.46c-1.74,2.18-2,3.33.6,5.16,12.73,8.81,19.73,21.16,21.61,36.46a19.42,19.42,0,0,1,0,5.22c-.46,3-2.14,5.08-5.38,5.28s-5.6-1.37-6.26-4.64-.62-6.46-1.35-9.6c-2.74-11.77-9.73-20.26-20.44-25.78a6.32,6.32,0,0,0-5.34-.41,29.8,29.8,0,0,1-14.7,1.67,2.89,2.89,0,0,0-3.52,2,30.45,30.45,0,0,1-5.18,8.19c-1.32,1.49-1.09,2.44.56,3.57,13.46,9.26,20.9,22.09,22.48,38.34a17.91,17.91,0,0,1,.15,3.35c-.33,3.6-2.74,6-6,6a5.92,5.92,0,0,1-6.06-5.87A47.78,47.78,0,0,0,207,215.5a37.94,37.94,0,0,0-19.68-23.8,6.69,6.69,0,0,0-5.7-.48,32.88,32.88,0,0,1-22.35,0,6.54,6.54,0,0,0-5.68.52q-19.42,10.34-21,32.26c-.15,1.88-.22,3.74-1.42,5.32a5.55,5.55,0,0,1-6.65,2.07c-3.32-1.16-4.37-3.94-4.16-7.19,1.06-16.09,7.67-29.32,20.84-38.82,3.13-2.26,3-3.29,1.24-6.77-3.36-6.63-7.84-9.35-15-8.45a9.36,9.36,0,0,1-5.1-.89c-4.08-2.06-7.45-.64-10.78,1.58-10.86,7.21-17.23,17.08-18,30.29a17.23,17.23,0,0,1-.36,3c-.8,3.43-3.17,5.27-6.43,5s-5.11-2.51-5.38-5.69a37.58,37.58,0,0,1,1.83-13.64A49.12,49.12,0,0,1,103,162c2.3-1.58,2.54-2.54.79-4.86-8.91-11.82-10.62-24.76-3.76-37.92s18.38-19.9,33.39-19.05c13.36.75,23.25,7.58,29.42,19.48,1.17,2.27,2.34,2.83,5,3.13,6.39.73,9.56-1.72,12.89-7.23,7.95-13.16,24.52-18.5,39.34-14A35.34,35.34,0,0,1,244.82,135.46Zm-74.19-.63c-13.07-.05-23.14,9.81-23.23,22.75a23.06,23.06,0,1,0,46.11.34A22.62,22.62,0,0,0,170.63,134.83Zm-62.31.46a23,23,0,0,0,22.46,23.21c2.82.05,4.2-.59,4.54-3.8,1.13-10.54,5.86-19.26,14.63-25.38,2.74-1.91,2.79-3.44,1.22-6a23.52,23.52,0,0,0-25.92-10.37A22.69,22.69,0,0,0,108.32,135.29Zm101.1-23c-9,.1-15.57,4.32-20.17,12-1.19,2-.92,3.19,1.08,4.57,9,6.23,14.06,15,15.26,25.83.34,3.11,1.57,3.92,4.47,3.88A23,23,0,0,0,232.59,135C232.48,122,222.55,112.26,209.42,112.28Z"/><path class="cls-1" d="M170.32,283.19h-44.1a18.56,18.56,0,0,1-4.09-.22,5.48,5.48,0,0,1-4.6-5.59,5.38,5.38,0,0,1,4.35-5.77,29.43,29.43,0,0,1,6.3-.56q42.23-.06,84.45,0a30.92,30.92,0,0,1,6.31.54,5.37,5.37,0,0,1,4.44,5.7c0,3.1-1.79,5.12-4.87,5.74a19.18,19.18,0,0,1-3.72.16Z"/><path class="cls-1" d="M209.28,249.16c2.61,0,5.24-.15,7.84,0,3.73.26,6.39,2.94,6.36,6.1s-2.72,5.86-6.48,6c-5.35.18-10.71.19-16.06,0-3.7-.14-5.94-2.59-6-5.89-.07-3.45,2.24-5.8,6.11-6.21a6.28,6.28,0,0,1,.75,0h7.47Z"/><path class="cls-1" d="M162.54,249.23a6,6,0,0,1-.14,12,6,6,0,1,1,.14-12Z"/><path class="cls-1" d="M148.9,255.07a6.17,6.17,0,0,1-5.7,6.19,6.39,6.39,0,0,1-6.32-6,6.31,6.31,0,0,1,6-6A6.13,6.13,0,0,1,148.9,255.07Z"/><path class="cls-1" d="M123.48,249.23a6,6,0,0,1,.2,12,6,6,0,1,1-.2-12Z"/></g></g></svg>